<?xml version="1.0" encoding="UTF-8"?>
<svg id="animated-svg3" data-name="animated-svg3" xmlns="http://www.w3.org/2000/svg" viewBox="0 0 1018.28 633.04">
  <g>
    <path d="m588.92,17.65l-.85,2.83c.71.64,1.47,1.14,2.26,1.58.77.43,1.57.79,2.38,1.07,1.27.43,2.62.78,3.98.92-2.38.77-4.75,1.65-7.04,2.73l.87,3.01c2.3-.49,4.55-1.2,6.78-1.93.02,0,.04-.02.06-.02-.67.39-1.34.8-1.99,1.21-1.82,1.16-3.6,2.41-5.33,3.75l1.46,2.69c.67-.49,1.37-.99,2.05-1.48,1.02-.72,2.08-1.44,3.14-2.11,1.39-.88,2.81-1.74,4.28-2.43,1.11-.52,2.24-.88,3.39-1.25,1.54-.48,3.09-.91,4.67-1.18h0c1.27-.36,1.9-2.53,1.43-4.94-.47-2.41-1.97-4.27-3.29-4-.78.1-2.39.49-3.16.63-1.14.22-2.28.47-3.41.74l-1.12.28c-.88.21-1.96.16-2.92,0-2.57-.39-5.06-1.59-7.62-2.1h-.02Z" fill="#9ac422" stroke-width="0"/>
    <path d="m604.81,25.59c-3.06.86-11.18,6.5-11.18,6.5l1.43.9c.56-.37,1.12-.75,1.68-1.1,1.39-.88,2.81-1.74,4.28-2.43,1.11-.52,2.24-.88,3.39-1.25,1.54-.48,3.09-.91,4.67-1.18h0c1.27-.36,1.9-2.53,1.43-4.94-.49-2.48-1.97-4.27-3.29-4-.63.08-1.83.35-2.67.53.51,2.43,2.99,6.22.26,6.98h0Z" fill="#88b212" stroke-width="0"/>
    <path d="m581.17,14.48s0,.04.01.06c-.58-.51-1.41-.74-2.22-.54-1.3.33-2.09,1.66-1.76,2.96.1.41.31.77.58,1.06-.45-.12-.93-.14-1.41-.02-1.47.37-2.37,1.88-1.99,3.35.2.78.71,1.4,1.37,1.76-.38-.03-.77,0-1.16.1-1.94.49-3.11,2.47-2.62,4.4.27,1.08,1,1.92,1.93,2.37-1.59.41-2.55,2.03-2.15,3.62.35,1.4,1.64,2.3,3.03,2.24-.4.5-.57,1.17-.4,1.84.29,1.12,1.43,1.81,2.56,1.52.19-.05.37-.12.53-.21-.31.41-.45.96-.3,1.5.24.94,1.2,1.52,2.14,1.27.12-.04.24-.07.34-.13.01.17.04.33.08.5.41,1.59,2.03,2.56,3.62,2.15.61-.16,1.12-.49,1.51-.92.75,1.48,2.45,2.29,4.12,1.86,1.67-.43,2.88-2.1,2.72-3.85.51.19,1.08.24,1.63.09,1.45-.37,2.32-1.85,1.96-3.3-.26-1.02-1.07-1.76-2.04-1.97.07-.01.15-.02.22-.05,1.73-.44,2.77-2.19,2.33-3.92-.38-1.46-1.69-2.44-3.14-2.43.97-.76,1.47-2.06,1.14-3.34-.29-1.12-1.13-1.96-2.16-2.29.52-.47.77-1.19.59-1.92-.12-.49-.44-.9-.83-1.15.78-.41,1.21-1.31.98-2.2-.23-.89-1.11-1.53-2.03-1.45.25-.55.33-1.18.16-1.81-.37-1.45-1.85-2.32-3.3-1.96-.56.14-1.03.44-1.38.84.11-.4.12-.82.01-1.24-.33-1.3-1.66-2.09-2.96-1.76-1.3.33-2.09,1.66-1.76,2.96h.03Zm7.47,4.44v.02s0,0,0,0h0s0,0,0,0Z" fill="#3e662d" stroke-width="0"/>
    <path d="m582.93,11.52c-.49.12-.91.39-1.22.75-.52.59-.75,1.42-.56,2.24-.58-.49-1.38-.71-2.18-.51-1.3.33-2.09,1.66-1.76,2.96.1.41.31.77.58,1.06-.45-.12-.93-.14-1.41-.02-1.47.37-2.37,1.88-1.99,3.35.2.78.71,1.4,1.37,1.76-.38-.03-.77,0-1.16.1-1.94.49-3.11,2.47-2.62,4.4.27,1.08,1,1.92,1.93,2.37-1.59.41-2.55,2.03-2.15,3.62.35,1.4,1.64,2.3,3.03,2.24-.4.5-.57,1.17-.4,1.84.29,1.12,1.43,1.81,2.56,1.52.13-.03.26-.08.37-.13.32-.48.47-1.07.36-1.68,0-.02,0-.04-.01-.06.52.55,1.29.84,2.09.71,1.29-.21,2.17-1.42,1.96-2.71-.07-.4-.23-.77-.47-1.07.42.16.88.21,1.36.14,1.46-.24,2.45-1.61,2.22-3.07-.12-.78-.57-1.42-1.18-1.82.36.06.75.07,1.13,0,1.92-.31,3.22-2.12,2.92-4.03-.17-1.07-.8-1.93-1.66-2.45,1.58-.25,2.65-1.74,2.39-3.32-.23-1.38-1.38-2.37-2.73-2.43.43-.45.65-1.08.54-1.74-.05-.33-.18-.63-.36-.87.14-.43.16-.9.04-1.36-.33-1.32-1.68-2.12-3.01-1.78h.02Z" fill="#487534" stroke-width="0"/>
  </g>
  <g>
    <path d="m721.06,13.46s-3.59,12.14-19.38,13.02c-.12,0-.24,0-.36.01-4.45.21-8.7-.55-12.51-1.73-5.35-1.64-9.84-4.15-12.75-6.02-1.23,1.75-3.22,3.94-5.95,5.13-5.08,2.2-10.85.16-10.85.16,0,0,2.29-5.22,7.02-7.55-4.95-1.8-7.81-6.74-7.81-6.74,0,0,5.51-2.65,10.79-1.03,2.87.89,5.06,2.84,6.48,4.45,2.7-2.19,6.87-5.16,12.01-7.38,3.66-1.59,7.79-2.8,12.25-3.09.13-.02.25-.03.37-.03,15.81-.87,20.7,10.8,20.7,10.8h-.02Z" fill="#29abe2" stroke-width="0"/>
    <path d="m699.69,20.28c-.11-.03-.22-.12-.27-.24-.68-1.65-1.07-3.27-1.16-4.85-.11-1.91.21-3.92.95-5.95.06-.22.31-.32.53-.26s.32.31.26.53c-.7,1.95-1,3.84-.89,5.63.08,1.49.45,3.04,1.1,4.58.1.21-.01.45-.22.55-.09.03-.19.04-.28.02h-.02Z" fill="#0e85af" stroke-width="0"/>
    <path d="m704.49,23.32s-.16-.07-.2-.14c-.13-.16-3.04-3.83-3.29-8.61-.27-4.79,2.23-8.76,2.34-8.93.12-.2.39-.24.57-.13.2.12.25.37.13.57-.01.04-2.45,3.93-2.19,8.44.25,4.51,3.09,8.11,3.12,8.14.14.18.11.43-.07.57-.1.09-.25.1-.38.07h-.02Z" fill="#0e85af" stroke-width="0"/>
    <path d="m707.11,12.11c.97.29,1.98-.27,2.26-1.23s-.27-1.98-1.23-2.26-1.98.27-2.26,1.23.27,1.98,1.23,2.26Z" fill="#0e85af" stroke-width="0"/>
    <path d="m700,2.68c-4.44.29-8.58,1.5-12.25,3.09-2.18-2.13-3.33-4.29-3.33-4.29,0,0,6.13-2.74,11.89-.78,1.39.47,2.62,1.17,3.7,1.96v.02Z" fill="#29abe2" stroke-width="0"/>
    <path d="m701.3,26.48c-.98.9-2.14,1.74-3.47,2.36-5.49,2.57-11.89.53-11.89.53,0,0,.91-2.27,2.85-4.62,3.81,1.18,8.06,1.92,12.51,1.73Z" fill="#0e85af" stroke-width="0"/>
    <path d="m720.33,12.09c-.51,1.47-4.62,12.01-19.32,12.84-.12,0-.24,0-.36.01-4.45.21-8.7-.55-12.51-1.73-5.35-1.64-9.84-4.15-12.75-6.02-1.23,1.75-3.22,3.94-5.95,5.13-3.61,1.57-7.57.99-9.55.52-.41.71-.63,1.18-.63,1.18,0,0,5.77,2.04,10.85-.16,2.75-1.19,4.72-3.38,5.95-5.13,2.91,1.87,7.4,4.36,12.75,6.02,3.81,1.18,8.06,1.92,12.51,1.73.12,0,.24,0,.36-.01,15.81-.87,19.38-13.02,19.38-13.02,0,0-.22-.54-.73-1.36Z" fill="#0e85af" stroke-width="0"/>
    <path d="m686.76,4.43s-.14.06-.18.08c.36.4.74.83,1.19,1.26,3.66-1.59,7.79-2.8,12.25-3.09-.62-.46-1.3-.88-2.04-1.26-4.06.4-7.82,1.55-11.2,3.01h-.02Z" fill="#0e85af" stroke-width="0"/>
  </g>
  <g>
    <path d="m506.11,44.13c5.44-2.1,11.15-3.98,16.72-5.74.92-.29,3.35-1.04,4.24-1.3.99-.3,2.64.23,2.34,1.54-.17.64-.47,1.07-.95,1.42l-1.24.81-2.49,1.61c-3.2,2.06-6.75,4.25-10.03,6.21-1.69.99-3.38,2-5.1,2.93-2.01,1.1-4.52.36-5.62-1.65-1.2-2.16-.18-4.95,2.12-5.83Z" fill="#f15a24" stroke-width="0"/>
    <path d="m527.82,38.06c-.17.64-.47,1.07-.95,1.42l-1.24.81-2.49,1.61c-3.2,2.06-6.75,4.25-10.03,6.21-1.69.99-3.38,2-5.1,2.93-.82.44-1.72.58-2.57.46,1.23.76,2.81.86,4.17.12,1.72-.94,3.41-1.94,5.1-2.93,3.28-1.96,6.82-4.15,10.03-6.21l2.49-1.61,1.24-.81c.48-.35.79-.78.95-1.42.26-1.12-.88-1.66-1.84-1.62.23.26.35.6.25,1.04h0Z" fill="#d6532b" stroke-width="0"/>
    <path d="m496.86,46.6s1.11,2.16,3.17,2.96c-2,.98-2.92,3.25-2.92,3.25,0,0,2.33.75,4.36-.16-.71,2.1.24,4.34.24,4.34,0,0,2.23-1.14,3-3.27.66-1.84.03-3.81-.15-4.31h0s-.01-.02-.03-.05c-.01-.04-.02-.06-.02-.06h0c-.26-.46-1.37-2.22-3.2-2.89-2.13-.77-4.43.2-4.43.2h0Z" fill="#9ac422" stroke-width="0"/>
    <path d="m500.44,46.18s.1.03.15.05c1.84.66,2.94,2.42,3.2,2.89h0s0,.02.02.06c.02.04.03.05.03.05h0c.18.5.83,2.47.15,4.31-.54,1.47-1.76,2.47-2.47,2.95.1.31.17.49.17.49,0,0,2.23-1.14,3-3.27.66-1.84.03-3.81-.15-4.31h0s-.01-.02-.03-.05c-.01-.04-.02-.06-.02-.06h0c-.26-.46-1.37-2.22-3.21-2.89-.29-.1-.57-.18-.85-.22Z" fill="#8aa526" stroke-width="0"/>
  </g>
  <g>
    <path d="m999.73,240.65l2.87,1.02,3.55-9.98-2.87-1.02-3.55,9.98Z" fill="#8cc63f" stroke-width="0"/>
    <path d="m1001.94,229.95l-2.96.73,2.87,11.61,2.96-.73-2.87-11.61Z" fill="#7faf33" stroke-width="0"/>
    <path d="m1000.38,245.64l2.74,1.32,6.35-13.21-2.74-1.32-6.35,13.21Z" fill="#83b732" stroke-width="0"/>
    <path d="m1003.49,245.2l-5.25-14.75-2.86,1.02,5.04,14.17-1.09,20.46,3.04.16,1.13-21.05h-.02s.02,0,.02,0Z" fill="#8cc63f" stroke-width="0"/>
    <path d="m999.79,257.35l-.66,8.14c-.08.98.67,1.84,1.65,1.89.98.05,1.82-.72,1.84-1.7l.21-8.16-3.04-.16h0Z" fill="#ecedd1" stroke-width="0"/>
    <path d="m999.79,257.35l.55.03.68-12.69-4.81-13.53-.83.3,5.04,14.17-.62,11.71Z" fill="#83b732" stroke-width="0"/>
    <path d="m1001.37,266.86c-.98-.05-1.74-.91-1.65-1.89l.62-7.58-.55-.03-.66,8.14c-.08.98.67,1.84,1.65,1.89.63.03,1.2-.27,1.53-.74-.28.16-.6.23-.94.21h0Z" fill="#dbdbc6" stroke-width="0"/>
  </g>
  <g>
    <path d="m987.9,333.94s9.09,2.18,15.7-8.53c.05-.08.1-.16.15-.25,1.84-3.04,2.98-6.3,3.69-9.42,1.01-4.38,1.13-8.49,1.05-11.24,1.59-.18,3.74-.73,5.54-2.18,3.34-2.71,4.26-7.53,4.26-7.53,0,0-4.2-.41-7.49,2,.75-4.16-1.3-8.06-1.3-8.06,0,0-3.79,2.83-4.79,7.15-.53,2.35-.13,4.64.35,6.25-2.43,1.05-5.91,2.81-9.29,5.56-2.41,1.94-4.77,4.37-6.66,7.38-.06.08-.11.16-.16.24-6.61,10.73-1.06,18.65-1.06,18.65h0Z" fill="#29abe2" stroke-width="0"/>
    <path d="m1000.43,321.62c.02-.09,0-.2-.05-.28-.79-1.11-1.67-2.01-2.64-2.69-1.17-.81-2.57-1.37-4.15-1.64-.16-.04-.33.09-.37.27s.08.35.24.39c1.51.27,2.82.79,3.92,1.55.92.63,1.76,1.49,2.49,2.54.09.15.29.16.43.06.06-.05.1-.12.12-.19h0Z" fill="#0e85af" stroke-width="0"/>
    <path d="m1000.52,326.16s.02-.14-.01-.19c-.05-.15-1.27-3.61-4.21-5.63-2.94-2.04-6.43-1.82-6.57-1.81-.17,0-.3.18-.3.35,0,.19.14.32.31.31.03,0,3.43-.19,6.2,1.72,2.77,1.92,3.98,5.29,3.99,5.33.06.17.23.24.39.17.1-.04.16-.13.19-.24h.02Z" fill="#0e85af" stroke-width="0"/>
    <path d="m992.39,323.66c-.19.79-.93,1.28-1.65,1.11s-1.16-.95-.97-1.74.93-1.28,1.65-1.11,1.16.95.97,1.74Z" fill="#0e85af" stroke-width="0"/>
    <path d="m989.12,315.04c1.89-2.99,4.24-5.42,6.66-7.38-.52-2.35-1.45-3.98-1.45-3.98,0,0-4.09,3.23-5.05,8.01-.23,1.15-.26,2.29-.17,3.34h.01Z" fill="#29abe2" stroke-width="0"/>
    <path d="m1003.75,325.15c.95-.34,1.93-.82,2.83-1.51,3.74-2.85,4.89-8.12,4.89-8.12,0,0-1.79-.24-4.03.21-.7,3.12-1.86,6.38-3.69,9.42Z" fill="#0e85af" stroke-width="0"/>
    <path d="m987.31,332.91c1.13.21,9.41,1.41,15.56-8.56.05-.08.1-.16.15-.25,1.84-3.04,2.98-6.3,3.69-9.42,1.01-4.38,1.13-8.49,1.05-11.24,1.59-.18,3.74-.73,5.54-2.18,2.38-1.92,3.53-4.92,3.99-6.48.61-.01.99.02.99.02,0,0-.91,4.82-4.26,7.53-1.81,1.46-3.95,2-5.54,2.18.07,2.76-.06,6.86-1.05,11.24-.7,3.12-1.86,6.38-3.69,9.42-.05.08-.1.16-.15.25-6.61,10.73-15.7,8.53-15.7,8.53,0,0-.26-.36-.59-1.03Z" fill="#0e85af" stroke-width="0"/>
    <path d="m995.3,306.46s.09-.07.12-.1c.12.4.25.84.35,1.32-2.41,1.94-4.77,4.37-6.66,7.38-.06-.61-.06-1.25-.02-1.91,1.81-2.68,3.98-4.87,6.2-6.67h0Z" fill="#0e85af" stroke-width="0"/>
  </g>
  <g>
    <path d="m776.68,8.32v19.43s2.26-1.4,2.26-1.4V8.03c-.73.18-1.49.27-2.25.28h0Zm7.97-.29v14.81s1.48-.92,1.48-.92c3.54-2.26,4.67-6.89,2.58-10.52-.93-1.62-2.39-2.77-4.06-3.38Zm-3.99-.4v17.66s2.26-1.4,2.26-1.4l.02-16.28c-.75-.1-1.51-.1-2.26.02h-.01Zm-7.92-.08c-3.75-1.68-8.27-1.46-11.97,1.06-5.15,3.49-6.89,10.43-3.96,15.93,3.37,6.34,11.33,8.44,17.35,4.74l.79-.49V8.21c-.75-.12-1.5-.33-2.2-.65Zm-6.42,13.5c-1.24.76-2.86.37-3.62-.86-.76-1.23-.37-2.86.86-3.62,1.23-.76,2.86-.37,3.62.86.76,1.23.37,2.86-.86,3.62Z" fill="#ad5151" stroke-width="0"/>
    <path d="m784.65,8.04v14.81s-1.73,1.05-1.73,1.05l.02-16.28c.58.08,1.16.22,1.72.42h0Z" fill="#994848" stroke-width="0"/>
    <path d="m780.67,7.64v17.66s-1.73,1.06-1.73,1.06V8.04c.24-.05.46-.11.69-.17.05,0,.09-.03.15-.04.3-.08.59-.14.9-.18h0Z" fill="#994848" stroke-width="0"/>
    <path d="m776.68,8.32v19.43s-1.73,1.06-1.73,1.06V8.21c.58.08,1.15.12,1.73.1h0Z" fill="#994848" stroke-width="0"/>
    <path d="m782.92,23.91l1.71-1.05,1.49-.92c2.6-1.66,3.9-4.62,3.57-7.51l-17.99,11.06c-6.4,3.93-13.76-3.87-16.31-6.96-.05,2.04.4,4.12,1.41,6.02,3.37,6.34,11.33,8.44,17.35,4.74l.79-.49,1.72-1.06,2.27-1.4,1.72-1.06,2.27-1.4v.02Z" isolation="isolate" opacity=".1" stroke-width="0"/>
  </g>
  <g>
    <path d="m918.49,70.73c1.41-1.12,3.46-.88,4.57.54l3.36-2.66-26.01-32.91-16.15,12.77c-1.52,1.21-1.78,3.43-.58,4.95l3.89,4.93c1.74-1.37,4.24-1.08,5.61.66,1.37,1.74,1.08,4.24-.66,5.61l12.79,16.18c1.21,1.52,3.43,1.78,4.95.58l7.68-6.07c-1.12-1.41-.88-3.46.54-4.57Z" fill="#f9d53d" stroke-width="0"/>
    <path d="m900.38,35.75c3.46-2.73,8.49-2.15,11.22,1.31.49.62.89,1.3,1.15,2l13.68,29.55-26.01-32.91" fill="#e8b321" stroke-width="0"/>
    <path d="m898.51,47.9c.77.97,2.18,1.14,3.16.37s1.14-2.18.37-3.16c-.77-.97-2.18-1.14-3.16-.37-.97.77-1.14,2.18-.37,3.16Z" fill="#e8b321" stroke-width="0"/>
    <path d="m904.21,62.33c1.37,1.74,3.9,2.03,5.64.66,1.74-1.37,2.03-3.9.66-5.64-1.37-1.74-3.9-2.03-5.64-.66-1.74,1.37-2.03,3.9-.66,5.64Z" fill="#e8b321" stroke-width="0"/>
    <path d="m905.86,75.04c.6.76,1.7.88,2.45.29.76-.6.88-1.7.29-2.45-.6-.76-1.7-.88-2.45-.29-.76.6-.88,1.7-.29,2.45Z" fill="#e8b321" stroke-width="0"/>
    <path d="m890.66,51.49c.49.62,1.4.73,2.02.24.62-.49.73-1.4.24-2.02-.49-.62-1.4-.73-2.02-.24s-.73,1.4-.24,2.02Z" fill="#e8b321" stroke-width="0"/>
    <path d="m916.67,65.74c.67.85,1.91.99,2.75.32.85-.67.99-1.91.32-2.76-.67-.85-1.91-.99-2.76-.32-.85.67-.99,1.91-.32,2.76Z" fill="#e8b321" stroke-width="0"/>
    <path d="m897.54,65.91c.68.86,1.92,1,2.78.33.86-.68,1-1.92.33-2.78-.68-.86-1.92-1-2.78-.33-.86.68-1,1.92-.33,2.78Z" fill="#e8b321" stroke-width="0"/>
    <path d="m886.62,53.99c-1.21-1.52-.94-3.75.58-4.95l13.75-12.64-.55-.69-16.15,12.77c-1.52,1.21-1.78,3.43-.58,4.95l3.89,4.93c.56-.45,1.21-.7,1.86-.81l-2.81-3.56Z" fill="#e8b321" stroke-width="0"/>
    <path d="m893.74,63.02c-.25.61-.66,1.17-1.21,1.6l12.79,16.18c.86,1.09,2.21,1.51,3.48,1.27l-15.05-19.04Z" fill="#e8b321" stroke-width="0"/>
  </g>
  <g>
    <path d="m964.14,98.91c3.44,7.07,6.62,14.53,9.62,21.8.49,1.2,1.78,4.38,2.24,5.54.51,1.3,0,3.57-1.8,3.32-.88-.15-1.5-.51-2.02-1.12l-1.23-1.57-2.45-3.15c-3.14-4.06-6.49-8.57-9.5-12.76-1.53-2.15-3.07-4.32-4.52-6.51-1.7-2.57-1-6.03,1.57-7.74,2.77-1.86,6.62-.81,8.08,2.18Z" fill="#f15a24" stroke-width="0"/>
    <path d="m974.78,127.37c-.88-.15-1.5-.51-2.02-1.12l-1.23-1.57-2.45-3.15c-3.14-4.06-6.49-8.57-9.5-12.76-1.53-2.15-3.07-4.32-4.52-6.51-.69-1.05-.98-2.24-.91-3.4-.87,1.74-.83,3.87.32,5.61,1.45,2.2,2.99,4.36,4.52,6.51,3.01,4.18,6.36,8.69,9.5,12.76l2.44,3.15,1.23,1.57c.52.6,1.14.97,2.02,1.12,1.53.22,2.13-1.38,1.96-2.65-.33.34-.77.54-1.37.46h0Z" fill="#d6532b" stroke-width="0"/>
    <path d="m959.75,86.76s-2.77,1.74-3.62,4.6c-1.54-2.57-4.7-3.56-4.7-3.56,0,0-.74,3.22.71,5.84-2.9-.71-5.8.82-5.8.82,0,0,1.79,2.86,4.74,3.65,2.54.68,5.12-.4,5.77-.7h0s.03-.01.07-.04c.05-.02.08-.04.08-.04h0c.59-.42,2.82-2.1,3.51-4.65.8-2.95-.78-5.93-.78-5.93h.02Z" fill="#9ac422" stroke-width="0"/>
    <path d="m960.72,91.53c-.02.07-.03.13-.05.21-.68,2.54-2.92,4.23-3.51,4.64h0s-.03.02-.08.05c-.05.03-.07.05-.07.05h0c-.65.29-3.23,1.38-5.77.69-2.03-.55-3.52-2.08-4.24-2.98-.41.16-.64.28-.64.28,0,0,1.79,2.86,4.74,3.65,2.54.68,5.12-.4,5.77-.7h0s.03-.01.07-.04c.05-.02.08-.04.08-.04h0c.59-.42,2.82-2.1,3.51-4.65.1-.4.17-.78.2-1.16Z" fill="#8aa526" stroke-width="0"/>
  </g>
  <g>
    <path d="m835.61,23.96l2.64-1.52-5.28-9.18-2.64,1.52,5.28,9.18Z" fill="#8cc63f" stroke-width="0"/>
    <path d="m828.91,15.32l-1.36,2.72,10.69,5.36,1.36-2.72-10.69-5.36Z" fill="#7faf33" stroke-width="0"/>
    <path d="m839.83,26.7l2.79-1.23-5.91-13.41-2.79,1.23,5.91,13.41Z" fill="#83b732" stroke-width="0"/>
    <path d="m841.51,24.05l-14.63-5.59-1.08,2.84,14.05,5.37,14.85,14.12,2.09-2.2-15.28-14.53-.02.02v-.02Z" fill="#8cc63f" stroke-width="0"/>
    <path d="m848.35,34.75l5.75,5.79c.69.7,1.83.68,2.51-.03.68-.71.63-1.85-.1-2.51l-6.07-5.46-2.09,2.2h0Z" fill="#ecedd1" stroke-width="0"/>
    <path d="m848.35,34.75l.38-.4-9.21-8.76-13.41-5.13-.31.83,14.05,5.37,8.5,8.08Z" fill="#83b732" stroke-width="0"/>
    <path d="m856.6,39.73c-.68.71-1.82.73-2.51.03l-5.37-5.39-.38.4,5.75,5.79c.69.7,1.83.68,2.51-.03.43-.46.57-1.08.43-1.65-.06.31-.21.6-.45.85h0Z" fill="#dbdbc6" stroke-width="0"/>
  </g>
  <g>
    <path d="m997.75,177.55l-2.79-.97c-.66.68-1.2,1.43-1.67,2.19-.46.76-.85,1.54-1.17,2.34-.48,1.25-.88,2.59-1.08,3.94-.68-2.41-1.46-4.81-2.45-7.14l-3.04.75c.4,2.32,1.01,4.6,1.66,6.86,0,.02.01.04.02.06-.36-.69-.75-1.37-1.13-2.04-1.09-1.86-2.26-3.69-3.54-5.47l-2.75,1.35c.47.69.94,1.41,1.39,2.11.68,1.05,1.36,2.14,1.99,3.22.82,1.42,1.63,2.88,2.25,4.38.47,1.13.79,2.27,1.12,3.43.42,1.55.79,3.12,1,4.71h0c.3,1.28,2.44,2,4.87,1.63,2.43-.38,4.35-1.8,4.13-3.13-.07-.79-.39-2.41-.5-3.19-.17-1.15-.38-2.3-.61-3.44l-.23-1.13c-.17-.88-.09-1.97.11-2.92.49-2.55,1.79-4.99,2.41-7.53v-.02Z" fill="#9ac422" stroke-width="0"/>
    <path d="m989.18,193.12c-.74-3.1-6.05-11.43-6.05-11.43l-.96,1.39c.35.57.7,1.15,1.04,1.72.82,1.42,1.63,2.88,2.25,4.38.47,1.13.79,2.27,1.12,3.43.42,1.55.79,3.12,1,4.71h0c.3,1.28,2.44,2,4.87,1.63,2.5-.39,4.35-1.8,4.13-3.13-.06-.64-.28-1.84-.43-2.69-2.45.41-6.33,2.74-6.99-.02h0Z" fill="#88b212" stroke-width="0"/>
    <path d="m1001.22,169.94s-.04,0-.06.01c.54-.56.8-1.38.63-2.2-.28-1.31-1.57-2.15-2.89-1.88-.41.09-.78.28-1.08.54.14-.44.18-.92.07-1.41-.32-1.49-1.78-2.45-3.27-2.12-.79.17-1.43.66-1.81,1.3.05-.38.03-.77-.05-1.16-.41-1.96-2.34-3.2-4.29-2.79-1.09.23-1.95.92-2.44,1.83-.35-1.61-1.93-2.63-3.53-2.29-1.41.3-2.37,1.54-2.36,2.93-.48-.41-1.14-.61-1.82-.47-1.13.24-1.86,1.36-1.62,2.49.04.19.11.38.19.53-.4-.33-.94-.48-1.49-.36-.95.2-1.57,1.14-1.36,2.09.03.12.06.24.11.35-.17,0-.33.03-.5.06-1.61.35-2.64,1.92-2.29,3.53.13.62.44,1.14.86,1.55-1.51.69-2.39,2.36-2.03,4.04.36,1.69,1.98,2.96,3.74,2.87-.21.5-.28,1.07-.16,1.63.31,1.47,1.75,2.4,3.22,2.09,1.03-.22,1.8-1,2.05-1.96,0,.08.02.15.04.22.37,1.74,2.08,2.86,3.82,2.49,1.48-.32,2.5-1.59,2.55-3.04.72,1,2,1.55,3.29,1.27,1.13-.24,2.01-1.05,2.37-2.07.45.54,1.16.82,1.9.66.49-.1.91-.4,1.19-.78.38.8,1.26,1.27,2.16,1.07.9-.2,1.57-1.05,1.53-1.97.54.27,1.16.37,1.8.23,1.47-.31,2.4-1.75,2.09-3.22-.12-.56-.4-1.04-.79-1.41.39.12.81.15,1.24.06,1.31-.28,2.15-1.57,1.88-2.89-.27-1.31-1.57-2.15-2.89-1.88v.03Zm-4.74,7.28h-.02s0,0,.01-.01h0s0,.01,0,.01Z" fill="#3e662d" stroke-width="0"/>
    <path d="m1004.1,171.82c-.1-.49-.35-.93-.7-1.25-.57-.55-1.39-.81-2.21-.65.52-.56.76-1.35.6-2.15-.28-1.31-1.57-2.15-2.89-1.88-.41.09-.78.28-1.08.54.14-.44.18-.92.07-1.41-.32-1.49-1.78-2.45-3.27-2.12-.79.17-1.43.66-1.81,1.3.05-.38.03-.77-.05-1.16-.41-1.96-2.34-3.2-4.29-2.79-1.09.23-1.95.92-2.44,1.83-.35-1.61-1.93-2.63-3.53-2.29-1.41.3-2.37,1.54-2.36,2.93-.48-.41-1.14-.61-1.82-.47-1.13.24-1.86,1.36-1.62,2.49.03.13.07.26.12.38.47.34,1.05.51,1.67.43.02,0,.04,0,.06-.01-.57.5-.89,1.25-.8,2.06.15,1.3,1.33,2.22,2.63,2.07.4-.05.78-.2,1.09-.42-.17.41-.24.88-.2,1.35.18,1.47,1.51,2.51,2.98,2.34.78-.09,1.44-.52,1.87-1.11-.07.36-.1.75-.05,1.13.23,1.93,1.99,3.31,3.91,3.08,1.07-.13,1.97-.73,2.52-1.56.19,1.59,1.64,2.71,3.22,2.52,1.38-.17,2.43-1.29,2.54-2.63.43.45,1.06.69,1.72.61.33-.04.63-.16.89-.33.42.16.89.2,1.36.09,1.33-.28,2.19-1.59,1.9-2.94v.02Z" fill="#487534" stroke-width="0"/>
  </g>
  <g>
    <path d="m1000.36,379.25c-2.18,5.41-4.7,10.87-7.22,16.13-.42.87-1.53,3.15-1.94,3.99-.46.93-1.97,1.77-2.72.66-.36-.56-.46-1.08-.39-1.67l.25-1.45.52-2.91c.68-3.75,1.49-7.83,2.3-11.57.43-1.91.85-3.83,1.34-5.72.57-2.21,2.83-3.55,5.04-2.98,2.4.6,3.74,3.24,2.82,5.53Z" fill="#f15a24" stroke-width="0"/>
    <path d="m989.98,399.26c-.36-.56-.46-1.08-.39-1.67l.25-1.45.52-2.91c.68-3.75,1.49-7.83,2.3-11.57.43-1.91.85-3.83,1.34-5.72.23-.9.75-1.65,1.42-2.19-1.39.38-2.54,1.47-2.93,2.96-.49,1.9-.91,3.81-1.34,5.72-.81,3.73-1.62,7.82-2.3,11.57l-.52,2.91-.25,1.45c-.07.59.03,1.11.39,1.67.64.95,1.82.49,2.44-.24-.35,0-.68-.16-.93-.53h0Z" fill="#d6532b" stroke-width="0"/>
    <path d="m1004.87,370.8s-2.33-.66-4.33.3c.65-2.13-.38-4.35-.38-4.35,0,0-2.14,1.19-2.86,3.3-1.05-1.95-3.33-2.79-3.33-2.79,0,0-.69,2.41.34,4.42.89,1.74,2.76,2.62,3.26,2.83h0s.02.01.06.02c.03.02.06.02.06.02h0c.52.12,2.55.51,4.3-.38,2.02-1.03,2.88-3.38,2.88-3.38v.02Z" fill="#9ac422" stroke-width="0"/>
    <path d="m1002.73,373.7s-.09.05-.14.08c-1.74.89-3.78.5-4.3.37h0s-.02,0-.06-.02c-.04-.01-.06-.01-.06-.01h0c-.49-.21-2.37-1.09-3.26-2.83-.71-1.39-.6-2.97-.47-3.82-.29-.14-.48-.21-.48-.21,0,0-.69,2.41.34,4.42.89,1.74,2.76,2.62,3.26,2.83h0s.03.01.06.02c.03.02.06.02.06.02h0c.52.12,2.55.51,4.3-.38.27-.14.51-.29.74-.47Z" fill="#8aa526" stroke-width="0"/>
  </g>
  <g>
    <path d="m956.61,439.61l2.4,1.56c-.17.9-.46,1.74-.81,2.53-.35.79-.75,1.54-1.22,2.24-.74,1.09-1.58,2.17-2.57,3.11,2.34-.89,4.73-1.69,7.2-2.29l1.15,2.74c-2.11,1.04-4.3,1.9-6.51,2.72-.01.01-.04.01-.06.02.77-.12,1.54-.23,2.3-.32,2.14-.26,4.29-.43,6.47-.49l.49,2.87c-.83.05-1.68.11-2.51.17-1.24.1-2.52.21-3.76.36-1.63.2-3.27.44-4.85.83-1.19.29-2.29.72-3.42,1.14-1.5.59-2.98,1.21-4.39,1.98h0c-1.21.51-3.03-.7-4.13-2.76-1.1-2.06-1.06-4.34.14-4.95.68-.4,2.18-1.1,2.87-1.47,1.03-.54,2.08-1.05,3.14-1.54l1.05-.48c.81-.38,1.64-1.08,2.3-1.78,1.78-1.85,3-4.25,4.7-6.2h.02Z" fill="#9ac422" stroke-width="0"/>
    <path d="m948.97,455.14c2.93-1.24,12.74-2.05,12.74-2.05l-.57,1.54c-.67.07-1.33.13-1.99.21-1.63.2-3.27.44-4.85.83-1.19.29-2.29.72-3.42,1.14-1.5.59-2.98,1.21-4.39,1.98h0c-1.21.51-3.03-.7-4.13-2.76-1.13-2.12-1.06-4.34.14-4.95.55-.33,1.65-.86,2.42-1.23,1.08,2.1,1.44,6.39,4.06,5.29h0Z" fill="#88b212" stroke-width="0"/>
    <path d="m960.76,432.56s.02.03.02.05c.14-.73.65-1.41,1.41-1.75,1.23-.55,2.65-.06,3.19,1.1.17.36.22.75.19,1.13.28-.37.64-.67,1.1-.87,1.38-.62,3.01-.07,3.61,1.25.32.7.29,1.46,0,2.13.28-.26.61-.47.97-.64,1.82-.83,3.95-.08,4.74,1.64.44.96.38,2.02-.07,2.91,1.5-.67,3.24-.07,3.9,1.35.57,1.24.12,2.69-1.01,3.5.61.13,1.16.51,1.43,1.11.46,1-.02,2.2-1.08,2.68-.18.08-.37.14-.54.17.5.11.93.43,1.15.92.39.84-.02,1.85-.91,2.24-.12.05-.23.09-.35.12.09.13.16.27.24.42.65,1.42-.03,3.12-1.53,3.79-.58.26-1.18.33-1.75.24.31,1.55-.52,3.18-2.1,3.88-1.57.7-3.54.21-4.48-1.17-.28.45-.7.83-1.23,1.06-1.37.62-2.95.06-3.55-1.23-.42-.91-.23-1.94.4-2.69-.07.04-.13.07-.2.1-1.63.73-3.51.08-4.23-1.46-.6-1.3-.16-2.82.98-3.7-1.23.03-2.41-.62-2.93-1.76-.46-1-.31-2.13.3-3-.7-.03-1.33-.41-1.63-1.05-.2-.43-.2-.92-.05-1.35-.86.18-1.75-.22-2.11-1.02-.36-.79-.06-1.8.7-2.31-.53-.25-.98-.67-1.23-1.23-.6-1.29.03-2.83,1.4-3.45.52-.23,1.08-.3,1.6-.22-.33-.22-.59-.53-.77-.91-.53-1.16.03-2.54,1.25-3.1,1.22-.56,2.65-.06,3.19,1.1l-.02.02Zm-3.15,7.82h.01s0,.01,0,0h0s0,0,0,0Z" fill="#3e662d" stroke-width="0"/>
    <path d="m957.57,431.46c.46-.21.95-.27,1.41-.19.77.11,1.46.58,1.8,1.3.16-.72.66-1.36,1.4-1.7,1.23-.55,2.65-.06,3.19,1.1.17.36.22.75.19,1.13.28-.37.64-.67,1.1-.87,1.38-.62,3.01-.07,3.61,1.25.32.7.29,1.46,0,2.13.28-.26.61-.47.97-.64,1.82-.83,3.95-.08,4.74,1.64.44.96.38,2.02-.07,2.91,1.5-.67,3.24-.07,3.9,1.35.57,1.24.12,2.69-1.01,3.5.61.13,1.16.51,1.43,1.11.46,1-.02,2.2-1.08,2.68-.12.06-.25.1-.37.13-.54-.16-1.02-.5-1.31-1.01-.01-.01-.02-.03-.02-.05-.07.73-.5,1.41-1.21,1.8-1.14.64-2.57.28-3.19-.8-.19-.34-.29-.7-.29-1.07-.23.37-.57.69-.98.93-1.29.72-2.9.32-3.62-.9-.38-.65-.41-1.39-.18-2.06-.25.27-.55.51-.89.69-1.69.94-3.82.41-4.75-1.18-.52-.89-.55-1.91-.19-2.82-1.4.78-3.14.33-3.9-.98-.66-1.15-.36-2.59.66-3.45-.61-.07-1.17-.4-1.49-.95-.16-.27-.24-.57-.25-.86-.37-.23-.68-.56-.86-.98-.54-1.17.02-2.59,1.28-3.15v.02Z" fill="#487534" stroke-width="0"/>
  </g>
  <g>
    <path d="m584.81,353.1s-2.54,11.97,10.55,20.74c.1.06.2.13.3.19,3.71,2.44,7.69,3.97,11.49,4.92,5.33,1.35,10.32,1.54,13.67,1.46.24,2.09.93,4.93,2.71,7.32,3.33,4.43,9.2,5.66,9.2,5.66,0,0,.45-5.53-2.51-9.88,5.06,1.02,9.78-1.66,9.78-1.66,0,0-3.49-5.02-8.75-6.35-2.86-.72-5.63-.2-7.59.42-1.3-3.21-3.49-7.8-6.86-12.28-2.39-3.19-5.36-6.31-9.04-8.82-.1-.08-.2-.15-.3-.21-13.11-8.78-22.67-1.51-22.67-1.51h.02Z" fill="#29abe2" stroke-width="0"/>
    <path d="m599.92,369.69c.11.03.25,0,.34-.06,1.34-1.03,2.43-2.18,3.23-3.47.98-1.54,1.63-3.38,1.94-5.46.05-.22-.12-.43-.33-.49s-.42.1-.47.31c-.31,1.99-.92,3.72-1.84,5.16-.75,1.2-1.79,2.31-3.06,3.27-.18.12-.2.38-.06.57.06.07.14.13.23.16h.02Z" fill="#0e85af" stroke-width="0"/>
    <path d="m594.41,369.78s.17.03.23-.01c.19-.06,4.37-1.65,6.79-5.52,2.44-3.87,2.14-8.46,2.12-8.65,0-.23-.22-.4-.43-.4-.23,0-.38.18-.37.41,0,.04.28,4.53-2.02,8.17-2.3,3.64-6.38,5.21-6.42,5.22-.21.08-.29.3-.2.51.05.13.16.21.29.25v.02Z" fill="#0e85af" stroke-width="0"/>
    <path d="m597.35,359.07c-.96-.25-1.57-1.23-1.37-2.18s1.14-1.52,2.1-1.27,1.57,1.23,1.37,2.18-1.14,1.52-2.1,1.27Z" fill="#0e85af" stroke-width="0"/>
    <path d="m607.78,354.82c3.66,2.5,6.63,5.62,9.04,8.82,2.85-.67,4.82-1.89,4.82-1.89,0,0-3.97-5.41-9.8-6.71-1.4-.31-2.78-.36-4.06-.24v.02Z" fill="#29abe2" stroke-width="0"/>
    <path d="m595.68,374.04c.42,1.25,1.02,2.55,1.87,3.74,3.5,4.95,9.92,6.49,9.92,6.49,0,0,.27-2.35-.3-5.31-3.8-.95-7.78-2.49-11.49-4.92Z" fill="#0e85af" stroke-width="0"/>
    <path d="m586.06,352.33c-.24,1.49-1.6,12.39,10.58,20.56.1.06.2.13.3.19,3.71,2.44,7.69,3.97,11.49,4.92,5.33,1.35,10.32,1.54,13.67,1.46.24,2.09.93,4.93,2.71,7.32,2.36,3.15,6.02,4.68,7.92,5.3.02.8-.01,1.31-.01,1.31,0,0-5.87-1.23-9.2-5.66-1.8-2.39-2.47-5.22-2.71-7.32-3.35.08-8.34-.12-13.67-1.46-3.8-.95-7.78-2.49-11.49-4.92-.1-.06-.2-.13-.3-.19-13.11-8.78-10.55-20.74-10.55-20.74,0,0,.43-.34,1.25-.77Z" fill="#0e85af" stroke-width="0"/>
    <path d="m618.29,363.02s.09.12.12.16c-.49.15-1.02.32-1.6.45-2.39-3.19-5.36-6.31-9.04-8.82.74-.07,1.52-.07,2.33-.01,3.28,2.4,5.97,5.28,8.18,8.21h.02Z" fill="#0e85af" stroke-width="0"/>
  </g>
  <g>
    <path d="m812.97,448.93c-5.76-.95-11.72-1.65-17.53-2.26-.96-.1-3.49-.35-4.41-.43-1.03-.09-2.53.7-1.97,1.87.3.57.68.91,1.23,1.15l1.38.52,2.76,1.04c3.56,1.33,7.48,2.72,11.09,3.94,1.86.62,3.72,1.24,5.59,1.79,2.19.65,4.49-.5,5.15-2.58.72-2.24-.85-4.64-3.28-5.05Z" fill="#f15a24" stroke-width="0"/>
    <path d="m790.49,447.27c.3.57.68.91,1.23,1.15l1.38.53,2.76,1.04c3.56,1.33,7.48,2.72,11.09,3.94,1.86.62,3.72,1.24,5.59,1.79.89.26,1.8.22,2.61-.05-1.04.93-2.57,1.32-4.05.88-1.87-.55-3.73-1.18-5.59-1.79-3.61-1.22-7.53-2.61-11.09-3.94l-2.76-1.04-1.38-.52c-.54-.24-.93-.58-1.23-1.15-.48-.99.52-1.71,1.46-1.85-.17.29-.21.63-.03,1.01h0Z" fill="#d6532b" stroke-width="0"/>
    <path d="m822.52,449.53s-.64,2.21-2.49,3.35c2.16.54,3.53,2.49,3.53,2.49,0,0-2.12,1.13-4.3.66,1.13,1.82.67,4.09.67,4.09,0,0-2.42-.65-3.61-2.49-1.03-1.59-.82-3.55-.74-4.05h0s0-.02.02-.05c0-.04.01-.06.01-.06h0c.16-.48.88-2.32,2.53-3.28,1.92-1.11,4.38-.63,4.38-.63h-.01Z" fill="#9ac422" stroke-width="0"/>
    <path d="m818.93,449.8s-.09.05-.14.08c-1.66.96-2.37,2.8-2.53,3.28h0s0,.02-.01.06c-.01.04-.02.05-.02.05h0c-.08.5-.29,2.46.74,4.05.83,1.27,2.23,1.98,3.03,2.29-.03.31-.06.49-.06.49,0,0-2.42-.65-3.61-2.49-1.03-1.59-.82-3.55-.74-4.05h0s0-.02.02-.05c0-.04.01-.06.01-.06h0c.16-.48.88-2.32,2.53-3.28.26-.15.52-.27.78-.36Z" fill="#8aa526" stroke-width="0"/>
  </g>
  <g>
    <path d="m744.72,428.83l-6.05,17.54-1.67-2.07,5.7-16.54c.64.42,1.32.78,2.01,1.06h0Zm-7.32-3.09l-4.61,13.37-1.1-1.36c-2.58-3.29-2.18-7.88.89-10.41,1.37-1.13,3.08-1.65,4.82-1.61Zm3.83,1.06l-5.5,15.95-1.67-2.07,5.07-14.7c.73.17,1.43.45,2.1.82h.01Zm7.39,2.75c4-.19,8.14,1.62,10.79,5.21,3.7,4.98,3.14,11.86-1.29,15.79-5.11,4.53-13.16,3.6-17.59-1.88l-.58-.72,6.42-18.59c.75.16,1.5.24,2.26.2Zm1.75,14.47c.92,1.13,2.54,1.35,3.63.51,1.09-.85,1.24-2.45.33-3.57-.91-1.12-2.54-1.35-3.63-.51-1.09.85-1.24,2.45-.33,3.57Z" fill="#ad5151" stroke-width="0"/>
    <path d="m737.41,425.74l-4.61,13.37,1.26,1.56,5.07-14.7c-.57-.13-1.15-.22-1.73-.23h0Z" fill="#994848" stroke-width="0"/>
    <path d="m741.23,426.79l-5.5,15.95,1.27,1.57,5.7-16.54c-.19-.12-.38-.26-.57-.39-.04-.03-.08-.06-.13-.09-.25-.18-.5-.33-.77-.48h0Z" fill="#994848" stroke-width="0"/>
    <path d="m744.72,428.83l-6.05,17.54,1.27,1.57,6.42-18.59c-.56-.13-1.09-.29-1.63-.52h0Z" fill="#994848" stroke-width="0"/>
    <path d="m734.06,440.68l-1.26-1.56-1.1-1.36c-1.9-2.42-2.18-5.55-.97-8.05l13.26,16.37c4.71,5.82,13.99,1.4,17.33-.48-.59,1.86-1.66,3.58-3.19,4.94-5.11,4.53-13.16,3.6-17.59-1.88l-.58-.72-1.27-1.57-1.67-2.07-1.27-1.57-1.67-2.07v.02Z" isolation="isolate" opacity=".1" stroke-width="0"/>
  </g>
  <g>
    <path d="m864.46,453.31c.42-1.87-.65-3.75-2.4-4.21l1-4.45,40.78,10.65-4.83,21.38c-.46,2.02-2.37,3.26-4.26,2.77l-6.11-1.59c.52-2.3-.8-4.6-2.95-5.16-2.15-.56-4.3.84-4.82,3.13l-20.05-5.24c-1.89-.49-3.06-2.54-2.6-4.56l2.3-10.16c1.75.46,3.51-.69,3.93-2.55Z" fill="#f9d53d" stroke-width="0"/>
    <path d="m903.81,455.35c1.03-4.58-1.61-9.21-5.89-10.32-.77-.2-1.55-.29-2.3-.23l-32.57-.16,40.78,10.65" fill="#e8b321" stroke-width="0"/>
    <path d="m893.57,462.57c-1.21-.32-1.95-1.62-1.66-2.91s1.51-2.08,2.71-1.76c1.21.32,1.95,1.62,1.66,2.91-.29,1.29-1.51,2.08-2.71,1.76Z" fill="#e8b321" stroke-width="0"/>
    <path d="m878.07,463.45c-2.15-.56-3.48-2.88-2.96-5.19.52-2.3,2.69-3.71,4.84-3.15,2.15.56,3.48,2.88,2.96,5.19-.52,2.3-2.69,3.71-4.84,3.15Z" fill="#e8b321" stroke-width="0"/>
    <path d="m865.84,467.5c-.94-.24-1.51-1.25-1.29-2.26.23-1,1.17-1.61,2.11-1.37.94.24,1.51,1.25,1.29,2.26-.23,1-1.17,1.61-2.11,1.37Z" fill="#e8b321" stroke-width="0"/>
    <path d="m893.6,471.8c-.77-.2-1.25-1.03-1.06-1.86.19-.83.96-1.33,1.74-1.13.77.2,1.25,1.03,1.06,1.86s-.96,1.33-1.74,1.13Z" fill="#e8b321" stroke-width="0"/>
    <path d="m869.75,452.85c-1.05-.28-1.7-1.41-1.45-2.53.25-1.12,1.31-1.81,2.37-1.54,1.05.28,1.7,1.41,1.45,2.53-.25,1.12-1.31,1.81-2.37,1.54Z" fill="#e8b321" stroke-width="0"/>
    <path d="m877.62,471.52c-1.06-.28-1.72-1.42-1.46-2.56.26-1.14,1.33-1.83,2.39-1.55,1.06.28,1.72,1.42,1.46,2.56-.26,1.14-1.33,1.83-2.39,1.55Z" fill="#e8b321" stroke-width="0"/>
    <path d="m893.02,476.83c1.89.49,3.8-.75,4.26-2.77l5.71-18.99.86.22-4.83,21.38c-.46,2.02-2.37,3.26-4.26,2.77l-6.11-1.59c.17-.75.13-1.49-.05-2.17l4.41,1.15Z" fill="#e8b321" stroke-width="0"/>
    <path d="m881.83,473.93c-.45.52-.78,1.16-.95,1.89l-20.05-5.24c-1.35-.35-2.3-1.47-2.61-2.82l23.6,6.16Z" fill="#e8b321" stroke-width="0"/>
  </g>
  <g>
    <path d="m694.08,413.36l-2.28,2.02,7.03,7.92,2.28-2.02-7.03-7.92Z" fill="#8cc63f" stroke-width="0"/>
    <path d="m702.4,420.46l.78-2.94-11.56-3.08-.78,2.94,11.56,3.08Z" fill="#7faf33" stroke-width="0"/>
    <path d="m689.4,411.52l-2.48,1.77,8.51,11.93,2.48-1.77-8.51-11.93Z" fill="#83b732" stroke-width="0"/>
    <path d="m688.29,414.46l15.46,2.52.49-3-14.85-2.42-17.4-10.82-1.6,2.58,17.9,11.14v-.02s0,.02,0,.02Z" fill="#8cc63f" stroke-width="0"/>
    <path d="m679.42,405.36l-6.81-4.5c-.82-.55-1.93-.3-2.46.54-.52.83-.25,1.94.6,2.44l7.05,4.12,1.6-2.58h0Z" fill="#ecedd1" stroke-width="0"/>
    <path d="m679.42,405.36l-.29.47,10.79,6.71,14.17,2.31.14-.87-14.85-2.42-9.96-6.19Z" fill="#83b732" stroke-width="0"/>
    <path d="m670.33,402.16c.52-.83,1.63-1.08,2.46-.54l6.35,4.2.29-.47-6.81-4.5c-.82-.55-1.93-.3-2.46.54-.33.54-.34,1.18-.08,1.7,0-.32.08-.63.26-.92h0Z" fill="#dbdbc6" stroke-width="0"/>
  </g>
  <g>
    <path d="m540.95,334.87l2.75-1.08c.06-.95-.02-1.86-.15-2.75-.14-.87-.35-1.72-.63-2.54-.45-1.26-1.01-2.54-1.74-3.7,2.08,1.4,4.23,2.72,6.5,3.85l1.83-2.55c-1.81-1.51-3.75-2.84-5.71-4.14-.01-.02-.04-.02-.05-.03.72.29,1.46.55,2.18.82,2.04.71,4.12,1.35,6.24,1.87l1.22-2.82c-.8-.22-1.63-.47-2.43-.7-1.2-.36-2.42-.75-3.6-1.16-1.55-.55-3.1-1.14-4.55-1.87-1.09-.55-2.07-1.22-3.08-1.89-1.33-.91-2.62-1.87-3.82-2.94h0c-1.06-.78-3.16.06-4.76,1.93-1.6,1.86-2.14,4.18-1.11,5.06.57.55,1.86,1.58,2.45,2.1.88.76,1.78,1.51,2.69,2.22l.91.71c.7.56,1.34,1.44,1.81,2.3,1.28,2.26,1.87,4.96,3.05,7.29h.02Z" fill="#9ac422" stroke-width="0"/>
    <path d="m537.38,317.47c2.57,1.88,12.02,4.78,12.02,4.78l-.17-1.68c-.64-.21-1.28-.42-1.9-.64-1.55-.55-3.1-1.14-4.55-1.87-1.09-.55-2.07-1.22-3.08-1.89-1.33-.91-2.62-1.87-3.82-2.94h0c-1.06-.78-3.16.06-4.76,1.93-1.65,1.91-2.14,4.18-1.11,5.06.46.45,1.41,1.22,2.07,1.77,1.6-1.9,3.04-6.19,5.33-4.52h0Z" fill="#88b212" stroke-width="0"/>
    <path d="m543.24,342.92s.03-.03.04-.05c-.04.77.28,1.57.95,2.08,1.07.82,2.59.62,3.41-.44.26-.33.41-.72.47-1.11.18.43.46.82.86,1.12,1.2.93,2.94.7,3.86-.51.49-.64.66-1.43.53-2.16.21.32.48.61.79.85,1.58,1.23,3.86.92,5.08-.66.68-.88.89-1.97.67-2.98,1.31,1,3.17.75,4.18-.55.88-1.14.8-2.71-.1-3.77.64,0,1.27-.28,1.69-.82.71-.92.54-2.24-.38-2.95-.15-.12-.33-.22-.49-.28.52,0,1.03-.24,1.37-.69.59-.77.45-1.88-.32-2.47-.1-.08-.2-.14-.31-.19.12-.11.23-.24.34-.37,1-1.31.76-3.18-.55-4.18-.5-.39-1.08-.58-1.66-.62.7-1.5.29-3.34-1.08-4.39-1.37-1.05-3.43-.97-4.7.24-.16-.52-.48-.99-.94-1.34-1.19-.92-2.89-.69-3.8.5-.64.83-.72,1.92-.29,2.82-.06-.05-.11-.1-.17-.14-1.42-1.08-3.44-.82-4.53.59-.92,1.2-.87,2.83.03,3.97-1.2-.29-2.53.12-3.33,1.17-.71.92-.85,2.1-.46,3.11-.69-.12-1.42.13-1.87.72-.31.4-.44.9-.4,1.36-.81-.36-1.78-.15-2.33.59-.55.73-.52,1.81.11,2.49-.59.14-1.13.47-1.52.99-.92,1.19-.69,2.89.5,3.8.46.35.98.53,1.51.56-.38.16-.72.41-.98.76-.82,1.07-.62,2.59.44,3.41,1.06.82,2.59.62,3.41-.44l-.02-.02Zm-1.12-8.61h.02s0-.01,0,0h0s0,0,0,0Z" fill="#3e662d" stroke-width="0"/>
    <path d="m539.83,343.37c.4.31.87.48,1.34.5.79.05,1.58-.28,2.1-.94-.03.76.3,1.52.94,2.03,1.07.82,2.59.62,3.41-.44.26-.33.41-.72.47-1.11.18.43.46.82.86,1.12,1.2.93,2.94.7,3.86-.51.49-.64.66-1.43.53-2.16.21.32.48.61.79.85,1.58,1.23,3.86.92,5.08-.66.68-.88.89-1.97.67-2.98,1.31,1,3.17.75,4.18-.55.88-1.14.8-2.71-.1-3.77.64,0,1.27-.28,1.69-.82.71-.92.54-2.24-.38-2.95-.11-.08-.22-.15-.33-.21-.57.04-1.13.3-1.55.75-.02,0-.03.03-.04.05.11-.75-.13-1.53-.73-2.09-.96-.89-2.45-.83-3.34.13-.28.3-.46.65-.56,1.03-.14-.43-.38-.82-.73-1.16-1.09-1-2.78-.93-3.79.15-.53.58-.76,1.33-.7,2.05-.18-.32-.41-.63-.7-.89-1.43-1.32-3.66-1.23-4.97.2-.73.79-1.03,1.83-.9,2.82-1.18-1.09-3.01-1-4.08.17-.94,1.03-1.01,2.55-.22,3.65-.62-.06-1.25.16-1.7.65-.22.24-.38.53-.46.82-.42.16-.81.43-1.09.81-.83,1.08-.63,2.63.46,3.47v-.02Z" fill="#487534" stroke-width="0"/>
  </g>
  <g>
    <path d="m469.84,280.73c1.32-1.39,1.35-3.56.08-4.85l3.13-3.31,29.63,29.97-15.06,15.92c-1.42,1.5-3.7,1.6-5.07.21l-4.44-4.49c1.62-1.71,1.66-4.36.1-5.94-1.56-1.58-4.13-1.48-5.74.24l-14.57-14.73c-1.37-1.39-1.33-3.74.09-5.25l7.16-7.57c1.27,1.29,3.37,1.2,4.68-.19Z" fill="#f9d53d" stroke-width="0"/>
    <path d="m502.63,302.57c3.23-3.41,3.31-8.74.2-11.89-.56-.57-1.19-1.04-1.86-1.37l-27.93-16.75,29.63,29.97" fill="#e8b321" stroke-width="0"/>
    <path d="m490.14,303.55c-.88-.89-.85-2.39.06-3.35s2.36-1.02,3.23-.13c.88.89.85,2.39-.06,3.35-.91.96-2.36,1.02-3.23.13Z" fill="#e8b321" stroke-width="0"/>
    <path d="m476.36,296.39c-1.57-1.58-1.52-4.26.1-5.97,1.62-1.71,4.2-1.82,5.77-.24,1.57,1.58,1.52,4.26-.1,5.97-1.62,1.71-4.2,1.82-5.77.24Z" fill="#e8b321" stroke-width="0"/>
    <path d="m463.78,293.63c-.68-.69-.66-1.85.04-2.6.71-.75,1.83-.79,2.51-.1.68.69.66,1.85-.04,2.6-.71.75-1.83.79-2.51.1Z" fill="#e8b321" stroke-width="0"/>
    <path d="m485.46,311.5c-.56-.57-.55-1.53.04-2.14.58-.61,1.51-.65,2.07-.08.56.57.55,1.53-.04,2.14s-1.51.65-2.07.08Z" fill="#e8b321" stroke-width="0"/>
    <path d="m474.62,283.04c-.77-.77-.74-2.08.05-2.92.79-.84,2.06-.89,2.82-.12.77.77.74,2.08-.05,2.92-.79.84-2.06.89-2.82.12Z" fill="#e8b321" stroke-width="0"/>
    <path d="m471.85,303.11c-.77-.78-.75-2.1.05-2.94.8-.85,2.07-.9,2.85-.12.77.78.75,2.1-.05,2.94-.8.85-2.07.9-2.85.12Z" fill="#e8b321" stroke-width="0"/>
    <path d="m482.39,315.53c1.37,1.39,3.65,1.3,5.07-.21l14.6-13.41.62.63-15.06,15.92c-1.42,1.5-3.7,1.6-5.07.21l-4.44-4.49c.53-.56.87-1.21,1.07-1.89l3.2,3.24Z" fill="#e8b321" stroke-width="0"/>
    <path d="m474.25,307.33c-.65.21-1.26.6-1.78,1.14l-14.57-14.73c-.98-.99-1.23-2.44-.8-3.75l17.15,17.34Z" fill="#e8b321" stroke-width="0"/>
  </g>
  <g>
    <path d="m438.63,260.52c-5.76-.95-11.72-1.65-17.53-2.26-.96-.1-3.49-.35-4.41-.43-1.03-.09-2.53.7-1.97,1.87.3.57.68.91,1.23,1.15l1.38.52,2.76,1.04c3.56,1.33,7.48,2.72,11.09,3.94,1.86.62,3.72,1.24,5.59,1.79,2.19.65,4.49-.5,5.15-2.58.72-2.24-.85-4.64-3.28-5.05Z" fill="#f15a24" stroke-width="0"/>
    <path d="m416.16,258.87c.3.57.68.91,1.23,1.15l1.38.53,2.76,1.04c3.56,1.33,7.48,2.72,11.09,3.94,1.86.62,3.72,1.24,5.59,1.79.89.26,1.8.22,2.61-.05-1.04.93-2.57,1.32-4.05.88-1.87-.55-3.73-1.18-5.59-1.79-3.61-1.22-7.53-2.61-11.09-3.94l-2.76-1.04-1.38-.52c-.54-.24-.93-.58-1.23-1.15-.48-.99.52-1.71,1.46-1.85-.17.29-.21.63-.03,1.01h0Z" fill="#d6532b" stroke-width="0"/>
    <path d="m448.19,261.12s-.64,2.21-2.49,3.35c2.16.54,3.53,2.49,3.53,2.49,0,0-2.12,1.13-4.3.66,1.13,1.82.67,4.09.67,4.09,0,0-2.42-.65-3.61-2.49-1.03-1.59-.82-3.55-.74-4.05h0s0-.02.02-.05c0-.04.01-.06.01-.06h0c.16-.48.88-2.32,2.53-3.28,1.92-1.11,4.38-.63,4.38-.63h-.01Z" fill="#9ac422" stroke-width="0"/>
    <path d="m444.6,261.39s-.09.05-.14.08c-1.66.96-2.37,2.8-2.53,3.28h0s0,.02-.01.06c-.01.04-.02.05-.02.05h0c-.08.5-.29,2.46.74,4.05.83,1.27,2.23,1.98,3.03,2.29-.03.31-.06.49-.06.49,0,0-2.42-.65-3.61-2.49-1.03-1.59-.82-3.55-.74-4.05h0s0-.02.02-.05c0-.04.01-.06.01-.06h0c.16-.48.88-2.32,2.53-3.28.26-.15.52-.27.78-.36Z" fill="#8aa526" stroke-width="0"/>
  </g>
  <g>
    <path d="m255.37,191.14s1.1,12.19,16.19,16.71c.11.03.23.06.35.1,4.27,1.24,8.52,1.53,12.43,1.31,5.49-.28,10.32-1.57,13.5-2.64.85,1.93,2.35,4.44,4.75,6.19,4.48,3.25,10.46,2.69,10.46,2.69,0,0-1.2-5.42-5.31-8.7,5.14-.52,8.86-4.47,8.86-4.47,0,0-4.81-3.77-10.23-3.49-2.94.16-5.44,1.47-7.13,2.64-2.19-2.68-5.63-6.43-10.17-9.71-3.22-2.35-6.99-4.45-11.24-5.76-.12-.05-.23-.08-.35-.11-15.11-4.52-22.11,5.24-22.11,5.24h.02Z" fill="#29abe2" stroke-width="0"/>
    <path d="m274.69,202.54c.11,0,.24-.06.3-.16.98-1.38,1.67-2.8,2.07-4.27.48-1.76.56-3.71.25-5.79-.02-.22-.24-.38-.46-.37s-.37.22-.35.44c.29,1.99.21,3.83-.24,5.48-.36,1.37-1.03,2.74-1.96,4.02-.13.17-.07.42.11.56.08.05.18.08.27.08h.02Z" fill="#0e85af" stroke-width="0"/>
    <path d="m269.46,204.26s.17-.03.22-.08c.16-.12,3.69-2.86,4.86-7.28,1.19-4.41-.45-8.71-.52-8.89-.08-.22-.33-.32-.53-.25-.22.06-.31.29-.24.5,0,.04,1.6,4.25.48,8.4-1.12,4.15-4.56,6.86-4.6,6.88-.17.14-.19.37-.04.55.08.11.22.16.35.15l.02.02Z" fill="#0e85af" stroke-width="0"/>
    <path d="m269.11,193.15c-.99.04-1.86-.71-1.95-1.68s.64-1.79,1.63-1.83,1.86.71,1.95,1.68-.64,1.79-1.63,1.83Z" fill="#0e85af" stroke-width="0"/>
    <path d="m277.83,186.01c4.23,1.31,8,3.42,11.24,5.76,2.52-1.48,4.05-3.23,4.05-3.23,0,0-5.39-4-11.34-3.52-1.43.11-2.76.48-3.95.97v.02Z" fill="#29abe2" stroke-width="0"/>
    <path d="m271.92,207.95c.77,1.07,1.73,2.13,2.89,3.02,4.8,3.69,11.39,3.28,11.39,3.28,0,0-.43-2.33-1.85-4.99-3.91.21-8.17-.09-12.43-1.31Z" fill="#0e85af" stroke-width="0"/>
    <path d="m256.34,190.04c.21,1.5,2.12,12.31,16.17,16.53.12.03.23.06.35.1,4.27,1.24,8.52,1.53,12.43,1.31,5.49-.28,10.32-1.57,13.5-2.64.85,1.93,2.34,4.44,4.75,6.19,3.18,2.31,7.13,2.7,9.13,2.73.26.76.37,1.25.37,1.25,0,0-5.97.55-10.46-2.69-2.42-1.75-3.9-4.26-4.75-6.19-3.18,1.06-8,2.34-13.5,2.64-3.91.21-8.17-.09-12.43-1.31-.11-.03-.23-.06-.35-.1-15.11-4.52-16.19-16.72-16.19-16.72,0,0,.31-.45.97-1.1Z" fill="#0e85af" stroke-width="0"/>
    <path d="m290.28,190.76s.12.09.16.12c-.42.29-.88.6-1.4.9-3.22-2.35-6.99-4.45-11.24-5.76.69-.28,1.43-.52,2.22-.7,3.84,1.33,7.26,3.28,10.24,5.44h.02Z" fill="#0e85af" stroke-width="0"/>
  </g>
  <g>
    <path d="m114.52,195.86l14.64,12.25-2.58.79-13.8-11.55c.63-.44,1.21-.94,1.73-1.49h.01Zm-5.56,5.69l11.16,9.34-1.69.52c-4.07,1.18-8.32-.91-9.65-4.74-.59-1.7-.49-3.51.18-5.11Zm2.37-3.18l13.31,11.14-2.58.79-12.27-10.26c.42-.62.94-1.17,1.53-1.65h.01Zm5.25-5.88c1.25-3.82,4.45-7,8.82-8.14,6.08-1.59,12.47,1.51,14.65,7.14,2.52,6.48-1.24,13.66-8.06,15.76l-.9.28-15.51-12.99c.42-.64.76-1.32.99-2.04Zm14.47,3.79c1.41-.43,2.2-1.87,1.78-3.21-.42-1.34-1.91-2.08-3.3-1.65-1.4.43-2.2,1.87-1.78,3.21.42,1.34,1.91,2.08,3.3,1.65Z" fill="#ad5151" stroke-width="0"/>
    <path d="m108.97,201.55l11.16,9.34,1.94-.6-12.27-10.26c-.33.48-.62.99-.83,1.53h0Z" fill="#994848" stroke-width="0"/>
    <path d="m111.33,198.37l13.31,11.14,1.95-.6-13.8-11.55c-.19.14-.38.26-.58.39-.04.03-.08.05-.14.08-.26.17-.5.35-.74.54h0Z" fill="#994848" stroke-width="0"/>
    <path d="m114.52,195.86l14.64,12.25,1.95-.6-15.51-12.99c-.32.47-.67.91-1.07,1.33h0Z" fill="#994848" stroke-width="0"/>
    <path d="m122.07,210.29l-1.94.6-1.69.52c-2.99.87-6.09-.04-8.05-2.11l20.38-6.26c7.25-2.22,6.31-12.57,5.7-16.39,1.57,1.25,2.84,2.9,3.59,4.84,2.52,6.48-1.24,13.66-8.06,15.76l-.9.28-1.95.6-2.58.79-1.95.6-2.58.79h.02Z" isolation="isolate" opacity=".1" stroke-width="0"/>
  </g>
  <g>
    <path d="m365.62,236.58l-2.28,2.02,7.03,7.92,2.28-2.02-7.03-7.92Z" fill="#8cc63f" stroke-width="0"/>
    <path d="m373.93,243.69l.78-2.94-11.56-3.08-.78,2.94,11.56,3.08Z" fill="#7faf33" stroke-width="0"/>
    <path d="m360.93,234.75l-2.48,1.77,8.51,11.93,2.48-1.77-8.51-11.93Z" fill="#83b732" stroke-width="0"/>
    <path d="m359.83,237.68l15.46,2.52.49-3-14.85-2.42-17.4-10.82-1.6,2.58,17.9,11.14v-.02s0,.02,0,.02Z" fill="#8cc63f" stroke-width="0"/>
    <path d="m350.96,228.59l-6.81-4.5c-.82-.55-1.93-.3-2.46.54-.52.83-.25,1.94.6,2.44l7.05,4.12,1.6-2.58h0Z" fill="#ecedd1" stroke-width="0"/>
    <path d="m350.96,228.59l-.29.47,10.79,6.71,14.17,2.31.14-.87-14.85-2.42-9.96-6.19Z" fill="#83b732" stroke-width="0"/>
    <path d="m341.87,225.39c.52-.83,1.63-1.08,2.46-.54l6.35,4.2.29-.47-6.81-4.5c-.82-.55-1.93-.3-2.46.54-.33.54-.34,1.18-.08,1.7,0-.32.08-.63.26-.92h0Z" fill="#dbdbc6" stroke-width="0"/>
  </g>
  <g>
    <path d="m201.26,192.47l.81-2.84c-.72-.62-1.49-1.11-2.28-1.54-.78-.42-1.58-.76-2.4-1.03-1.28-.41-2.63-.74-4-.86,2.37-.81,4.72-1.72,6.99-2.85l-.92-3c-2.29.53-4.53,1.27-6.75,2.05-.02,0-.04.02-.06.02.66-.4,1.32-.82,1.97-1.25,1.8-1.19,3.56-2.46,5.26-3.84l-1.51-2.67c-.66.5-1.35,1.01-2.03,1.51-1.01.74-2.06,1.48-3.11,2.17-1.37.9-2.78,1.78-4.24,2.5-1.1.54-2.22.91-3.36,1.31-1.53.5-3.07.96-4.65,1.26h0c-1.26.38-1.86,2.56-1.35,4.96.51,2.4,2.04,4.24,3.36,3.95.78-.12,2.39-.52,3.15-.68,1.14-.24,2.27-.51,3.4-.8l1.12-.3c.87-.22,1.96-.2,2.92-.05,2.57.35,5.08,1.51,7.65,1.98h.02Z" fill="#9ac422" stroke-width="0"/>
    <path d="m185.24,184.8c3.05-.91,11.07-6.68,11.07-6.68l-1.45-.88c-.55.38-1.11.77-1.66,1.13-1.37.9-2.78,1.78-4.24,2.5-1.1.54-2.22.91-3.36,1.31-1.53.5-3.07.96-4.65,1.26h0c-1.26.38-1.86,2.56-1.35,4.97.53,2.47,2.04,4.24,3.36,3.95.63-.09,1.82-.38,2.66-.58-.55-2.43-3.09-6.17-.37-6.98h0Z" fill="#88b212" stroke-width="0"/>
    <path d="m209.06,195.51s0-.04-.01-.06c.59.5,1.42.72,2.23.5,1.3-.36,2.06-1.69,1.71-2.99-.11-.4-.32-.76-.6-1.05.45.12.93.12,1.41,0,1.47-.4,2.34-1.92,1.93-3.38-.21-.78-.74-1.39-1.4-1.73.38.03.77-.02,1.16-.12,1.93-.52,3.07-2.52,2.55-4.44-.29-1.07-1.03-1.9-1.96-2.34,1.59-.44,2.52-2.07,2.09-3.66-.38-1.39-1.67-2.28-3.06-2.2.39-.51.55-1.18.37-1.84-.3-1.12-1.46-1.78-2.58-1.48-.19.05-.37.13-.52.22.31-.42.43-.96.28-1.51-.25-.94-1.23-1.5-2.17-1.24-.12.04-.24.07-.34.13-.02-.17-.05-.33-.09-.49-.44-1.59-2.07-2.53-3.66-2.09-.61.17-1.11.51-1.5.95-.78-1.47-2.49-2.25-4.15-1.8-1.66.46-2.85,2.15-2.65,3.89-.51-.18-1.08-.22-1.63-.06-1.45.39-2.29,1.88-1.9,3.33.28,1.01,1.1,1.74,2.07,1.94-.07.01-.15.03-.22.05-1.72.47-2.73,2.24-2.27,3.96.4,1.46,1.73,2.41,3.18,2.38-.96.78-1.43,2.09-1.08,3.35.3,1.12,1.16,1.95,2.2,2.25-.51.48-.75,1.21-.56,1.93.13.49.45.89.85,1.14-.78.42-1.19,1.33-.95,2.21.25.88,1.13,1.51,2.05,1.42-.24.55-.31,1.18-.13,1.81.39,1.45,1.88,2.29,3.33,1.9.55-.15,1.02-.46,1.36-.87-.1.4-.11.82.01,1.24.36,1.3,1.69,2.06,2.99,1.71,1.3-.35,2.06-1.69,1.71-2.99h-.03Zm-7.54-4.32v-.02s0,0,0,0h0s0,0,0,0Z" fill="#3e662d" stroke-width="0"/>
    <path d="m207.35,198.5c.49-.13.9-.4,1.21-.77.51-.6.73-1.43.52-2.24.59.49,1.4.68,2.18.47,1.3-.36,2.06-1.69,1.71-2.99-.11-.4-.32-.76-.6-1.05.45.12.93.12,1.41,0,1.47-.4,2.34-1.92,1.93-3.38-.21-.78-.74-1.39-1.4-1.73.38.03.77-.02,1.16-.12,1.93-.52,3.07-2.52,2.55-4.44-.29-1.07-1.03-1.9-1.96-2.34,1.59-.44,2.52-2.07,2.09-3.66-.38-1.39-1.67-2.28-3.06-2.2.39-.51.55-1.18.37-1.84-.3-1.12-1.46-1.78-2.58-1.48-.13.04-.25.08-.37.14-.31.48-.45,1.08-.34,1.69,0,.02,0,.04.01.06-.53-.55-1.3-.82-2.1-.68-1.29.23-2.14,1.45-1.91,2.74.07.4.24.76.48,1.07-.42-.15-.89-.19-1.36-.12-1.46.26-2.42,1.65-2.17,3.11.14.77.6,1.41,1.21,1.8-.36-.05-.75-.06-1.13.02-1.91.34-3.19,2.17-2.85,4.08.19,1.06.83,1.92,1.7,2.43-1.58.28-2.62,1.79-2.34,3.35.25,1.37,1.42,2.35,2.77,2.39-.42.46-.63,1.1-.52,1.75.06.33.19.62.38.87-.13.43-.15.9-.02,1.36.35,1.32,1.72,2.1,3.04,1.73h-.02Z" fill="#487534" stroke-width="0"/>
  </g>
  <g>
    <path d="m51.66,260.25c-1.49-1.2-3.66-1.07-4.84.3l-3.55-2.86,27.52-31.92,17.06,13.75c1.61,1.3,1.88,3.56.61,5.04l-4.12,4.78c-1.83-1.48-4.48-1.31-5.93.37-1.45,1.68-1.14,4.23.69,5.71l-13.53,15.69c-1.28,1.48-3.63,1.63-5.24.33l-8.11-6.54c1.18-1.37.93-3.45-.56-4.65Z" fill="#f9d53d" stroke-width="0"/>
    <path d="m70.83,225.83c-3.65-2.94-8.97-2.61-11.86.74-.52.6-.94,1.26-1.22,1.97l-14.49,29.17,27.52-31.92" fill="#e8b321" stroke-width="0"/>
    <path d="m72.8,238.2c-.82.95-2.31,1.04-3.34.21s-1.2-2.27-.39-3.21c.82-.95,2.31-1.04,3.34-.21,1.03.83,1.2,2.27.39,3.21Z" fill="#e8b321" stroke-width="0"/>
    <path d="m66.76,252.51c-1.45,1.69-4.12,1.85-5.96.37-1.84-1.48-2.15-4.05-.69-5.73,1.45-1.69,4.12-1.85,5.96-.37,1.84,1.48,2.15,4.05.69,5.73Z" fill="#e8b321" stroke-width="0"/>
    <path d="m65,265.27c-.63.73-1.79.81-2.59.16-.8-.64-.93-1.76-.3-2.49.63-.73,1.79-.81,2.59-.16.8.64.93,1.76.3,2.49Z" fill="#e8b321" stroke-width="0"/>
    <path d="m81.09,242.24c-.52.61-1.48.66-2.14.13-.66-.53-.77-1.45-.25-2.06.52-.6,1.48-.66,2.14-.13s.77,1.45.25,2.06Z" fill="#e8b321" stroke-width="0"/>
    <path d="m53.58,255.3c-.71.82-2.01.91-2.91.18-.9-.72-1.05-1.98-.34-2.8.71-.82,2.01-.91,2.91-.18.9.72,1.05,1.98.34,2.8Z" fill="#e8b321" stroke-width="0"/>
    <path d="m73.81,256.47c-.72.83-2.03.91-2.94.18-.91-.73-1.06-2-.34-2.83.72-.83,2.03-.91,2.94-.18.91.73,1.06,2,.34,2.83Z" fill="#e8b321" stroke-width="0"/>
    <path d="m85.36,244.98c1.28-1.48,1-3.74-.61-5.04l-14.53-13.49.58-.67,17.06,13.75c1.61,1.3,1.88,3.56.61,5.04l-4.12,4.78c-.6-.48-1.28-.77-1.97-.91l2.98-3.45Z" fill="#e8b321" stroke-width="0"/>
    <path d="m77.83,253.74c.26.63.7,1.21,1.28,1.68l-13.53,15.69c-.91,1.05-2.33,1.42-3.68,1.1l15.93-18.47Z" fill="#e8b321" stroke-width="0"/>
  </g>
  <g>
    <path d="m24.17,296.81l2.33,1.96,6.83-8.09-2.33-1.96-6.83,8.09Z" fill="#8cc63f" stroke-width="0"/>
    <path d="m30.01,287.56l-3.02-.35-1.39,11.88,3.02.35,1.39-11.88Z" fill="#7faf33" stroke-width="0"/>
    <path d="m23.02,301.71l2.1,2.2,10.59-10.13-2.1-2.2-10.59,10.13Z" fill="#83b732" stroke-width="0"/>
    <path d="m26.09,302.38l.28-15.66-3.04-.05-.27,15.04-8.21,18.77,2.79,1.22,8.46-19.31h-.02s.02,0,.02,0Z" fill="#8cc63f" stroke-width="0"/>
    <path d="m18.36,312.46l-3.48,7.38c-.42.89-.02,1.95.88,2.35.9.39,1.95-.03,2.32-.95l3.06-7.57-2.79-1.22h0Z" fill="#ecedd1" stroke-width="0"/>
    <path d="m18.36,312.46l.5.22,5.1-11.64.25-14.36h-.89s-.27,15.03-.27,15.03l-4.7,10.75Z" fill="#83b732" stroke-width="0"/>
    <path d="m16.49,321.91c-.9-.39-1.31-1.46-.88-2.35l3.24-6.88-.5-.22-3.48,7.38c-.42.89-.02,1.95.88,2.35.58.25,1.21.17,1.69-.16-.31.05-.64,0-.95-.13h0Z" fill="#dbdbc6" stroke-width="0"/>
  </g>
  <g>
    <path d="m12.93,406.49s11.58-3.98,12.36-19.71c0-.12,0-.24.01-.36.19-4.44-.55-8.64-1.69-12.38-1.58-5.27-3.99-9.64-5.78-12.47,1.67-1.28,3.75-3.34,4.88-6.09,2.08-5.13.12-10.8.12-10.8,0,0-4.97,2.46-7.18,7.23-1.73-4.86-6.45-7.54-6.45-7.54,0,0-2.51,5.57-.95,10.77.85,2.82,2.73,4.94,4.26,6.3-2.08,2.76-4.9,7-7,12.2-1.51,3.69-2.65,7.85-2.91,12.29-.02.13-.02.24-.03.36-.78,15.76,10.37,20.22,10.37,20.22v-.02Z" fill="#29abe2" stroke-width="0"/>
    <path d="m19.38,385c-.03-.11-.12-.22-.23-.26-1.57-.62-3.12-.96-4.64-.99-1.83-.04-3.74.34-5.68,1.14-.21.07-.31.32-.25.54s.3.31.51.24c1.86-.76,3.66-1.12,5.37-1.08,1.42.02,2.9.34,4.37.94.2.09.43-.03.52-.24.03-.09.04-.19.01-.28v-.02Z" fill="#0e85af" stroke-width="0"/>
    <path d="m22.3,389.67s-.06-.16-.13-.19c-.15-.13-3.66-2.9-8.23-2.99-4.57-.1-8.35,2.52-8.51,2.63-.19.13-.23.39-.12.57.11.2.35.23.55.11.03-.01,3.74-2.57,8.04-2.47,4.3.1,7.75,2.79,7.78,2.82.17.14.41.1.55-.09.08-.11.1-.25.06-.38v-.02Z" fill="#0e85af" stroke-width="0"/>
    <path d="m11.6,392.66c.27.95-.25,1.98-1.17,2.29s-1.89-.2-2.16-1.15.25-1.98,1.17-2.29,1.89.2,2.16,1.15Z" fill="#0e85af" stroke-width="0"/>
    <path d="m2.59,385.9c.26-4.43,1.41-8.58,2.91-12.29-2.04-2.1-4.1-3.16-4.1-3.16,0,0-2.6,6.19-.71,11.85.45,1.36,1.12,2.57,1.88,3.61h.02Z" fill="#29abe2" stroke-width="0"/>
    <path d="m25.3,386.4c.85-1,1.66-2.19,2.24-3.53,2.44-5.55.47-11.84.47-11.84,0,0-2.16.98-4.4,2.99,1.14,3.75,1.86,7.95,1.69,12.38Z" fill="#0e85af" stroke-width="0"/>
    <path d="m11.63,405.81c1.4-.56,11.45-5,12.19-19.66,0-.12,0-.24.01-.36.19-4.44-.55-8.64-1.69-12.38-1.58-5.27-3.99-9.64-5.78-12.47,1.67-1.28,3.75-3.34,4.88-6.09,1.48-3.64.92-7.57.47-9.52.68-.43,1.12-.66,1.12-.66,0,0,1.96,5.67-.12,10.8-1.13,2.77-3.21,4.81-4.88,6.09,1.79,2.83,4.19,7.21,5.78,12.47,1.14,3.75,1.86,7.95,1.69,12.38,0,.12,0,.24-.01.36-.78,15.76-12.36,19.71-12.36,19.71,0,0-.52-.2-1.3-.68Z" fill="#0e85af" stroke-width="0"/>
    <path d="m4.22,372.67s.06-.14.08-.19c.38.34.8.71,1.21,1.14-1.51,3.69-2.65,7.85-2.91,12.29-.44-.6-.84-1.27-1.21-1.99.37-4.05,1.46-7.83,2.83-11.24v-.02Z" fill="#0e85af" stroke-width="0"/>
  </g>
  <g>
    <path d="m15.97,439.73c1.79,5.55,3.91,11.18,6.03,16.61.35.9,1.29,3.26,1.64,4.12.39.96,1.78,1.93,2.56.89.37-.52.5-1.03.46-1.62l-.16-1.46-.34-2.93c-.45-3.77-1.01-7.89-1.58-11.66-.3-1.93-.61-3.87-.97-5.79-.42-2.24-2.51-3.76-4.65-3.39-2.32.38-3.74,2.88-2.98,5.23Z" fill="#f15a24" stroke-width="0"/>
    <path d="m24.8,460.46c.37-.52.5-1.03.46-1.62l-.16-1.46-.34-2.93c-.45-3.77-1.01-7.89-1.58-11.66-.3-1.93-.61-3.87-.97-5.79-.18-.91-.63-1.7-1.24-2.3,1.31.5,2.35,1.68,2.64,3.19.37,1.92.67,3.86.97,5.79.57,3.77,1.13,7.89,1.58,11.66l.34,2.93.16,1.46c.04.59-.09,1.09-.46,1.62-.66.88-1.76.32-2.31-.45.34.02.66-.1.92-.44h0Z" fill="#d6532b" stroke-width="0"/>
    <path d="m12.12,430.96s2.26-.45,4.11.67c-.51-2.16.59-4.28.59-4.28,0,0,1.98,1.37,2.55,3.52,1.11-1.84,3.33-2.47,3.33-2.47,0,0,.53,2.45-.56,4.35-.94,1.64-2.78,2.35-3.26,2.52h0s-.02,0-.06.01c-.03.01-.06.02-.06.02h0c-.5.07-2.46.28-4.08-.75-1.87-1.2-2.56-3.6-2.56-3.6h0Z" fill="#9ac422" stroke-width="0"/>
    <path d="m14,434.02s.08.06.13.09c1.61,1.03,3.58.82,4.08.75h0s.02,0,.06-.01c.04,0,.06,0,.06,0h0c.48-.17,2.32-.87,3.26-2.52.75-1.32.73-2.89.65-3.74.29-.12.47-.17.47-.17,0,0,.53,2.45-.56,4.35-.94,1.64-2.78,2.35-3.26,2.52h0s-.02,0-.06.01c-.03.01-.06.02-.06.02h0c-.5.07-2.46.28-4.08-.75-.25-.16-.48-.34-.68-.53Z" fill="#8aa526" stroke-width="0"/>
  </g>
  <g>
    <path d="m41.49,507.71l13.92-13.06.47,2.65-13.12,12.31c-.36-.68-.79-1.32-1.27-1.9h0Zm4.98,6.2l10.61-9.96.31,1.74c.68,4.18-1.91,8.15-5.87,9.01-1.76.38-3.54.06-5.06-.79Zm-2.88-2.74l12.66-11.87.47,2.65-11.66,10.95c-.56-.49-1.05-1.07-1.46-1.72h0Zm-5.21-5.92c-3.64-1.7-6.42-5.26-7.02-9.74-.85-6.23,3-12.2,8.85-13.69,6.73-1.72,13.42,2.87,14.67,9.9l.17.92-14.76,13.84c-.58-.5-1.22-.91-1.91-1.23Zm5.5-13.91c-.26-1.45-1.59-2.41-2.97-2.15-1.38.26-2.29,1.64-2.03,3.08.26,1.44,1.59,2.41,2.97,2.15,1.38-.26,2.29-1.64,2.03-3.08Z" fill="#ad5151" stroke-width="0"/>
    <path d="m46.47,513.9l10.61-9.96-.36-2-11.66,10.95c.44.39.91.73,1.42,1.01h-.01Z" fill="#994848" stroke-width="0"/>
    <path d="m43.6,511.17l12.66-11.87-.36-2.01-13.12,12.31c.11.2.21.41.32.62.03.04.04.09.07.14.14.28.28.54.45.8h-.01Z" fill="#994848" stroke-width="0"/>
    <path d="m41.49,507.71l13.92-13.06-.36-2.01-14.76,13.84c.43.37.83.78,1.19,1.23h.01Z" fill="#994848" stroke-width="0"/>
    <path d="m56.72,501.94l.36,2,.31,1.74c.5,3.08-.77,6.04-3.06,7.74l-3.77-20.99c-1.34-7.47-11.72-7.78-15.59-7.63,1.43-1.41,3.22-2.47,5.24-2.98,6.73-1.72,13.42,2.87,14.67,9.9l.17.92.36,2.01.47,2.65.36,2.01.47,2.65v-.02Z" isolation="isolate" opacity=".1" stroke-width="0"/>
  </g>
  <g>
    <path d="m89.37,537.8l-2.82.87c-.13.94-.12,1.86-.05,2.75.08.88.22,1.74.44,2.58.35,1.29.82,2.61,1.46,3.82-1.97-1.55-4.02-3.02-6.2-4.32l-2.01,2.4c1.7,1.64,3.53,3.11,5.39,4.55,0,.02.03.02.05.03-.7-.34-1.41-.66-2.12-.97-1.98-.86-4.01-1.64-6.09-2.32l-1.42,2.72c.78.28,1.59.58,2.37.88,1.17.45,2.36.92,3.51,1.42,1.51.66,3.01,1.36,4.41,2.2,1.05.63,1.98,1.37,2.93,2.11,1.26,1.01,2.48,2.05,3.59,3.21h0c1,.85,3.15.17,4.89-1.57,1.74-1.74,2.44-4.02,1.48-4.97-.52-.59-1.74-1.72-2.29-2.27-.82-.83-1.66-1.63-2.52-2.42l-.86-.78c-.66-.61-1.23-1.53-1.64-2.42-1.11-2.34-1.51-5.08-2.51-7.5h-.02Z" fill="#9ac422" stroke-width="0"/>
    <path d="m91.66,555.42c-2.42-2.06-11.63-5.64-11.63-5.64l.05,1.69c.62.26,1.24.51,1.85.77,1.51.66,3.01,1.36,4.41,2.2,1.05.63,1.98,1.37,2.93,2.11,1.26,1.01,2.48,2.05,3.59,3.21h0c1,.85,3.15.17,4.89-1.57,1.78-1.79,2.44-4.02,1.48-4.97-.42-.48-1.31-1.32-1.93-1.91-1.73,1.78-3.49,5.95-5.65,4.11h0Z" fill="#88b212" stroke-width="0"/>
    <path d="m87.67,529.61s-.03.03-.04.04c.1-.77-.17-1.58-.79-2.14-1-.89-2.54-.81-3.44.19-.28.31-.46.68-.55,1.07-.15-.44-.4-.85-.77-1.18-1.13-1.01-2.88-.92-3.89.22-.54.6-.76,1.37-.69,2.12-.19-.34-.44-.64-.73-.91-1.49-1.34-3.78-1.2-5.11.29-.74.83-1.03,1.9-.89,2.92-1.23-1.09-3.11-.98-4.21.24-.96,1.07-1,2.64-.17,3.76-.63-.05-1.28.18-1.74.7-.77.86-.7,2.2.17,2.97.14.13.31.24.47.32-.52-.03-1.04.16-1.42.59-.65.72-.59,1.84.14,2.49.1.08.19.16.3.21-.13.1-.25.22-.36.35-1.09,1.23-.99,3.11.24,4.21.47.42,1.03.66,1.61.74-.81,1.45-.54,3.31.75,4.46,1.29,1.15,3.35,1.22,4.71.1.12.53.41,1.02.84,1.41,1.12,1,2.83.9,3.83-.22.7-.78.86-1.87.5-2.79.05.06.1.11.16.15,1.33,1.19,3.37,1.07,4.56-.25,1-1.13,1.08-2.76.26-3.96,1.17.38,2.53.07,3.4-.92.77-.86,1-2.04.69-3.07.68.17,1.42-.03,1.92-.58.34-.37.5-.86.49-1.33.78.42,1.77.28,2.37-.41.61-.69.65-1.77.08-2.49.6-.1,1.16-.39,1.59-.88,1-1.12.9-2.83-.22-3.83-.43-.38-.94-.6-1.47-.67.39-.13.75-.36,1.04-.69.89-1,.81-2.54-.19-3.44-1-.9-2.54-.81-3.44.19v.02Zm.48,8.67h-.02s0,0,0,0h0s0,0,0,0Z" fill="#3e662d" stroke-width="0"/>
    <path d="m91.11,529.42c-.37-.34-.83-.54-1.3-.59-.78-.11-1.6.17-2.17.78.09-.76-.19-1.54-.79-2.09-1-.89-2.54-.81-3.44.19-.28.31-.46.68-.55,1.07-.15-.44-.4-.85-.77-1.18-1.13-1.01-2.88-.92-3.89.22-.54.6-.76,1.37-.69,2.12-.19-.34-.44-.64-.73-.91-1.49-1.34-3.78-1.2-5.11.29-.74.83-1.03,1.9-.89,2.92-1.23-1.09-3.11-.98-4.21.24-.96,1.07-1,2.64-.17,3.76-.63-.05-1.28.18-1.74.7-.77.86-.7,2.2.17,2.97.1.09.21.17.32.23.58,0,1.15-.21,1.6-.64.02,0,.03-.03.04-.04-.17.74.02,1.54.58,2.14.89.96,2.39,1,3.34.11.3-.28.51-.62.63-.99.1.44.32.85.64,1.21,1.01,1.08,2.7,1.14,3.79.13.58-.54.85-1.27.85-2,.15.34.36.66.63.94,1.33,1.42,3.56,1.49,4.98.17.79-.74,1.16-1.75,1.11-2.75,1.09,1.17,2.92,1.22,4.09.13,1.01-.96,1.2-2.47.49-3.62.61.1,1.26-.07,1.75-.52.24-.23.42-.5.52-.79.43-.12.84-.37,1.15-.73.91-1.01.82-2.58-.2-3.49v.02Z" fill="#487534" stroke-width="0"/>
  </g>
  <g>
    <path d="m156.13,586.27c-.28-1.82.94-3.53,2.72-3.82l-.66-4.33-41.46,6.79,3.15,20.82c.3,1.97,2.11,3.31,4.03,3l6.21-1.02c-.34-2.24,1.15-4.33,3.34-4.69,2.19-.36,4.22,1.15,4.56,3.39l20.38-3.34c1.92-.31,3.24-2.17,2.95-4.14l-1.5-9.9c-1.78.29-3.44-.95-3.72-2.77Z" fill="#f9d53d" stroke-width="0"/>
    <path d="m116.76,584.96c-.67-4.46,2.32-8.66,6.67-9.37.78-.13,1.56-.14,2.31-.02l32.47,2.55-41.46,6.79" fill="#e8b321" stroke-width="0"/>
    <path d="m126.41,592.7c1.23-.2,2.07-1.38,1.88-2.64s-1.34-2.11-2.57-1.91c-1.23.2-2.07,1.38-1.88,2.64.19,1.26,1.34,2.11,2.57,1.91Z" fill="#e8b321" stroke-width="0"/>
    <path d="m141.79,594.83c2.19-.36,3.69-2.47,3.35-4.71-.34-2.24-2.39-3.77-4.58-3.41-2.19.36-3.69,2.47-3.35,4.71.34,2.24,2.39,3.77,4.58,3.41Z" fill="#e8b321" stroke-width="0"/>
    <path d="m153.67,599.71c.95-.16,1.61-1.07,1.46-2.05-.15-.97-1.04-1.64-1.99-1.48-.95.16-1.61,1.07-1.46,2.05.15.97,1.04,1.64,1.99,1.48Z" fill="#e8b321" stroke-width="0"/>
    <path d="m125.67,601.51c.79-.13,1.32-.88,1.2-1.69-.12-.8-.86-1.35-1.64-1.22-.79.13-1.32.88-1.2,1.69s.86,1.35,1.64,1.22Z" fill="#e8b321" stroke-width="0"/>
    <path d="m150.9,585.39c1.07-.18,1.8-1.21,1.64-2.3-.17-1.1-1.17-1.84-2.24-1.67-1.07.18-1.8,1.21-1.64,2.3.17,1.1,1.17,1.84,2.24,1.67Z" fill="#e8b321" stroke-width="0"/>
    <path d="m141.61,602.58c1.08-.18,1.82-1.22,1.65-2.32-.17-1.11-1.18-1.86-2.26-1.68-1.08.18-1.82,1.22-1.65,2.32.17,1.11,1.18,1.86,2.26,1.68Z" fill="#e8b321" stroke-width="0"/>
    <path d="m125.86,606.37c-1.92.31-3.73-1.03-4.03-3l-4.22-18.61-.87.14,3.15,20.82c.3,1.97,2.11,3.31,4.03,3l6.21-1.02c-.11-.73-.02-1.43.22-2.07l-4.48.73Z" fill="#e8b321" stroke-width="0"/>
    <path d="m137.22,604.53c.41.53.69,1.17.8,1.88l20.38-3.34c1.37-.22,2.4-1.21,2.82-2.47l-23.99,3.93Z" fill="#e8b321" stroke-width="0"/>
  </g>
  <g>
    <path d="m192.32,621.62l2.15-2.16-7.5-7.48-2.15,2.16,7.5,7.48Z" fill="#8cc63f" stroke-width="0"/>
    <path d="m183.6,615.03l-.6,2.98,11.72,2.37.6-2.98-11.72-2.37Z" fill="#7faf33" stroke-width="0"/>
    <path d="m197.11,623.17l2.37-1.91-9.21-11.39-2.37,1.91,9.21,11.39Z" fill="#83b732" stroke-width="0"/>
    <path d="m198.04,620.17l-15.58-1.57-.3,3.02,14.97,1.51,18.03,9.74,1.44-2.67-18.54-10.03v.02s0-.02,0-.02Z" fill="#8cc63f" stroke-width="0"/>
    <path d="m207.44,628.71l7.07,4.08c.85.5,1.94.18,2.42-.68.47-.86.13-1.95-.75-2.4l-7.29-3.68-1.44,2.67h0Z" fill="#ecedd1" stroke-width="0"/>
    <path d="m207.44,628.71l.26-.48-11.18-6.05-14.29-1.44-.09.88,14.97,1.51,10.32,5.58Z" fill="#83b732" stroke-width="0"/>
    <path d="m216.71,631.36c-.47.86-1.57,1.18-2.42.68l-6.59-3.8-.26.48,7.07,4.08c.85.5,1.94.18,2.42-.68.3-.56.27-1.19-.02-1.7.02.32-.05.64-.21.94h0Z" fill="#dbdbc6" stroke-width="0"/>
  </g>
</svg>