<?xml version="1.0" encoding="utf-8"?>
<!-- Generator: Adobe Illustrator 28.0.0, SVG Export Plug-In . SVG Version: 6.00 Build 0)  -->
<svg version="1.1" id="animated-svg2" xmlns="http://www.w3.org/2000/svg" xmlns:xlink="http://www.w3.org/1999/xlink" x="0px" y="0px"
	 viewBox="0 0 1366 768" enable-background="new 0 0 1366 768" xml:space="preserve">
<g>
	<path fill="#9AC422" d="M368.3,99.4l2.1-5.1c-1.2-1.3-2.5-2.4-3.9-3.4c-1.4-0.9-2.8-1.8-4.3-2.4c-2.3-1.1-4.8-2-7.3-2.5
		c4.6-1,9.2-2.2,13.7-3.8l-1.1-5.8c-4.4,0.5-8.8,1.4-13.1,2.3c0,0-0.1,0-0.1,0c1.3-0.6,2.7-1.2,4-1.9c3.6-1.8,7.2-3.8,10.7-6
		l-2.2-5.3c-1.3,0.8-2.8,1.6-4.1,2.4c-2.1,1.2-4.2,2.3-6.3,3.4c-2.8,1.4-5.6,2.7-8.5,3.7c-2.2,0.8-4.4,1.2-6.6,1.7
		c-3,0.6-6,1.1-9,1.3l0,0c-2.4,0.4-4,4.4-3.6,9c0.4,4.6,2.9,8.4,5.4,8.1c1.5,0,4.6-0.5,6-0.6c2.2-0.2,4.4-0.4,6.5-0.8l2.2-0.3
		c1.7-0.2,3.7,0.1,5.5,0.5C359.1,95.3,363.6,98,368.3,99.4L368.3,99.4L368.3,99.4z"/>
	<path fill="#88B212" d="M340.1,81.6c5.9-1,22.2-10,22.2-10l-2.5-2c-1.1,0.6-2.2,1.2-3.3,1.8c-2.8,1.4-5.6,2.7-8.5,3.7
		c-2.2,0.8-4.4,1.2-6.6,1.7c-3,0.6-6,1.1-9,1.3l0,0c-2.4,0.4-4,4.4-3.6,9c0.4,4.7,2.9,8.4,5.4,8.1c1.2,0,3.5-0.3,5.1-0.5
		C338.7,90,334.8,82.5,340.1,81.6L340.1,81.6L340.1,81.6z"/>
	<path fill="#3E662D" d="M382.2,106.9c0,0,0-0.1,0-0.1c1,1.1,2.5,1.7,4,1.4c2.5-0.4,4.2-2.7,3.9-5.2c-0.1-0.8-0.4-1.5-0.9-2.1
		c0.8,0.3,1.7,0.4,2.6,0.3c2.8-0.4,4.8-3.1,4.4-5.9c-0.2-1.5-1.1-2.8-2.2-3.5c0.7,0.1,1.5,0.1,2.2,0c3.7-0.5,6.3-4,5.7-7.7
		c-0.3-2.1-1.5-3.8-3.1-4.8c3.1-0.5,5.2-3.3,4.7-6.4c-0.4-2.7-2.6-4.6-5.2-4.8c0.8-0.9,1.3-2.1,1.1-3.4c-0.3-2.2-2.3-3.7-4.5-3.3
		c-0.4,0.1-0.7,0.2-1,0.3c0.7-0.7,1-1.7,0.8-2.8c-0.3-1.8-2-3.1-3.8-2.8c-0.2,0-0.5,0.1-0.7,0.2c0-0.3,0-0.6-0.1-1
		c-0.5-3.1-3.3-5.2-6.4-4.7c-1.2,0.2-2.2,0.7-3,1.4c-1.1-2.9-4.1-4.8-7.4-4.3c-3.2,0.5-5.8,3.4-5.8,6.7c-0.9-0.5-2-0.6-3-0.5
		c-2.8,0.4-4.7,3-4.3,5.8c0.3,1.9,1.7,3.5,3.4,4.1c-0.1,0-0.3,0-0.4,0c-3.3,0.5-5.6,3.6-5.1,6.9c0.4,2.8,2.7,4.9,5.4,5.2
		c-2,1.2-3.1,3.6-2.8,6c0.3,2.2,1.7,3.9,3.6,4.7c-1.1,0.8-1.7,2.1-1.5,3.5c0.1,0.9,0.6,1.8,1.3,2.3c-1.5,0.6-2.5,2.2-2.2,3.9
		c0.3,1.7,1.8,3.1,3.5,3.1c-0.6,1-0.8,2.1-0.6,3.4c0.4,2.8,3,4.7,5.8,4.3c1.1-0.2,2-0.6,2.7-1.3c-0.3,0.7-0.4,1.5-0.3,2.3
		c0.4,2.5,2.7,4.2,5.2,3.9C380.9,111.7,382.6,109.4,382.2,106.9L382.2,106.9L382.2,106.9z M369.1,97.1L369.1,97.1L369.1,97.1
		L369.1,97.1L369.1,97.1L369.1,97.1z"/>
	<path fill="#487534" d="M378.4,112.1c0.9-0.1,1.8-0.6,2.4-1.2c1.1-1,1.7-2.5,1.5-4.1c1,1,2.5,1.6,4,1.4c2.5-0.4,4.2-2.7,3.9-5.2
		c-0.1-0.8-0.4-1.5-0.9-2.1c0.8,0.3,1.7,0.4,2.6,0.3c2.8-0.4,4.8-3.1,4.4-5.9c-0.2-1.5-1.1-2.8-2.2-3.5c0.7,0.1,1.5,0.1,2.2,0
		c3.7-0.5,6.3-4,5.7-7.7c-0.3-2.1-1.5-3.8-3.1-4.8c3.1-0.5,5.2-3.3,4.7-6.4c-0.4-2.7-2.6-4.6-5.2-4.8c0.8-0.9,1.3-2.1,1.1-3.4
		c-0.3-2.2-2.3-3.7-4.5-3.3c-0.2,0-0.5,0.1-0.7,0.2c-0.7,0.8-1.1,1.9-1,3.1c0,0,0,0.1,0,0.1c-0.9-1.1-2.3-1.8-3.8-1.7
		c-2.5,0.1-4.3,2.3-4.2,4.7c0.1,0.8,0.3,1.5,0.7,2.1c-0.7-0.4-1.6-0.6-2.5-0.5c-2.8,0.2-4.9,2.5-4.8,5.3c0.1,1.5,0.8,2.8,1.9,3.6
		c-0.7-0.2-1.4-0.3-2.1-0.2c-3.6,0.2-6.4,3.4-6.2,7c0.1,2,1.1,3.8,2.6,4.9c-3,0.2-5.3,2.8-5.1,5.8c0.2,2.6,2.1,4.7,4.7,5.1
		c-0.9,0.8-1.4,1.9-1.3,3.1c0,0.6,0.2,1.2,0.5,1.7c-0.3,0.8-0.5,1.6-0.3,2.5C373.5,110.7,375.8,112.5,378.4,112.1L378.4,112.1
		L378.4,112.1z"/>
</g>
<g>
	<path fill="#29ABE2" d="M465.4,79.3c0,0-3.1,27,23.5,41c0.2,0.1,0.4,0.2,0.6,0.3c7.5,3.9,15.5,5.6,23,6.2
		c10.5,0.9,20.2-0.7,26.7-2.1c0.8,4.5,2.5,10.4,6.3,14.9c7.1,8.3,18.6,8.7,18.6,8.7s0.1-12.2-6.3-20.5c9.9,0.3,18.7-7.4,18.7-7.4
		s-7.5-9.6-17.9-10.4c-5.6-0.5-10.9,1.7-14.6,3.9c-3-6.5-7.9-15.6-15.1-24c-5.1-6-11.3-11.7-18.8-15.7c-0.2-0.1-0.4-0.2-0.6-0.4
		C482.8,59.8,465.3,79.3,465.4,79.3L465.4,79.3L465.4,79.3z"/>
	<path fill="#0E85AF" d="M497.1,109.5c0.2,0,0.5-0.1,0.6-0.3c2.4-2.8,4.4-5.7,5.7-8.8c1.7-3.7,2.7-8,2.9-12.6
		c0.1-0.5-0.3-0.9-0.7-0.9c-0.4,0-0.8,0.4-0.9,0.9c-0.3,4.4-1.2,8.4-2.8,12c-1.3,2.9-3.1,5.7-5.4,8.3c-0.3,0.3-0.3,0.9,0,1.3
		C496.7,109.4,496.9,109.5,497.1,109.5L497.1,109.5L497.1,109.5z"/>
	<path fill="#0E85AF" d="M486.4,111.9c0,0,0.3,0,0.4-0.1c0.3-0.2,8.2-5.3,12.3-14.6c4.1-9.4,2.9-19.2,2.8-19.7
		c0-0.5-0.5-0.8-0.9-0.7c-0.4,0.1-0.7,0.5-0.7,1c0,0.1,1.2,9.7-2.7,18.6c-3.9,8.8-11.6,13.8-11.7,13.8c-0.4,0.3-0.5,0.8-0.3,1.2
		C485.9,111.7,486.2,111.8,486.4,111.9L486.4,111.9L486.4,111.9z"/>
	<path fill="#0E85AF" d="M490.5,87.4c-1.9-0.2-3.2-2.1-3-4.2c0.2-2.1,2-3.7,3.9-3.6c1.9,0.2,3.2,2.1,3,4.2
		C494.1,86,492.4,87.6,490.5,87.4z"/>
	<path fill="#29ABE2" d="M510.1,74.1c7.4,4,13.7,9.7,18.8,15.7c5.4-2.6,9-6,9-6s-8.5-10.2-20-10.8C515.2,72.9,512.5,73.3,510.1,74.1
		L510.1,74.1L510.1,74.1z"/>
	<path fill="#0E85AF" d="M489.5,120.6c1,2.6,2.4,5.1,4.2,7.4c7.5,9.4,20.1,10.3,20.1,10.3s0.2-5.2-1.4-11.4
		C505,126.3,497,124.5,489.5,120.6L489.5,120.6z"/>
	<path fill="#0E85AF" d="M467.7,77.1c-0.2,3.3-1.3,27.6,23.5,40.6c0.2,0.1,0.4,0.2,0.6,0.3c7.5,3.9,15.5,5.6,23,6.2
		c10.5,0.9,20.2-0.7,26.7-2.1c0.8,4.5,2.5,10.4,6.3,14.9c5,5.9,12.3,7.9,16.1,8.5c0.2,1.7,0.2,2.8,0.2,2.8s-11.5-0.4-18.6-8.7
		c-3.8-4.5-5.6-10.4-6.3-14.9c-6.5,1.5-16.1,3-26.7,2.1c-7.5-0.6-15.4-2.4-23-6.2c-0.2-0.1-0.4-0.2-0.6-0.3
		c-26.7-14-23.5-41-23.5-41S466.2,78.4,467.7,77.1L467.7,77.1z"/>
	<path fill="#0E85AF" d="M531.6,87.9c0,0,0.2,0.2,0.2,0.3c-0.9,0.5-1.9,1.1-3,1.6c-5.1-6-11.3-11.7-18.8-15.7
		c1.4-0.4,2.9-0.7,4.5-0.9C521.2,77.1,526.8,82.3,531.6,87.9L531.6,87.9L531.6,87.9z"/>
</g>
<g>
	<path fill="#F15A24" d="M167.9,145c-9.4,5.8-19.3,11.2-29,16.4c-1.6,0.8-5.8,3.1-7.4,3.9c-1.7,0.9-5,0.5-4.9-2
		c0.1-1.2,0.5-2.2,1.3-3l2-1.9l4-3.8c5.2-4.9,11-10.2,16.4-14.9c2.8-2.4,5.6-4.9,8.4-7.2c3.3-2.7,8.2-2.2,11,1.1
		C172.8,137.1,171.9,142.6,167.9,145L167.9,145z"/>
	<path fill="#D6532B" d="M129.9,163.7c0.1-1.2,0.5-2.2,1.3-3l2-1.9l4-3.8c5.2-4.9,11-10.2,16.4-14.9c2.8-2.4,5.6-4.9,8.4-7.2
		c1.4-1.1,3-1.7,4.6-1.7c-2.5-1-5.5-0.6-7.8,1.2c-2.9,2.3-5.6,4.8-8.4,7.2c-5.4,4.8-11.2,10-16.4,14.9l-4,3.8l-2,1.9
		c-0.8,0.8-1.2,1.7-1.3,3c-0.1,2.1,2.2,2.8,4,2.4C130.1,165.1,129.8,164.5,129.9,163.7L129.9,163.7L129.9,163.7z"/>
	<path fill="#9AC422" d="M184.2,137.3c0,0-2.8-3.6-6.9-4.4c3.4-2.5,4.3-7,4.3-7s-4.6-0.6-8,1.8c0.6-4.1-1.9-7.9-1.9-7.9
		s-3.7,2.9-4.4,7.1c-0.6,3.6,1.3,7.1,1.8,7.9l0,0c0,0,0,0,0.1,0.1c0,0.1,0.1,0.1,0.1,0.1l0,0c0.6,0.8,3.3,3.6,6.9,4.2
		C180.3,139.8,184.2,137.2,184.2,137.3L184.2,137.3L184.2,137.3z"/>
	<path fill="#8AA526" d="M177.7,139.3c-0.1,0-0.2,0-0.3,0c-3.6-0.6-6.3-3.5-6.9-4.2l0,0c0,0,0,0-0.1-0.1s-0.1-0.1-0.1-0.1l0,0
		c-0.5-0.9-2.4-4.3-1.8-7.9c0.5-2.9,2.4-5.2,3.6-6.3c-0.3-0.5-0.5-0.9-0.5-0.9s-3.7,2.9-4.4,7.1c-0.6,3.6,1.3,7.1,1.8,7.9l0,0
		c0,0,0,0,0.1,0.1c0,0.1,0.1,0.1,0.1,0.1l0,0c0.6,0.8,3.3,3.6,6.9,4.2C176.7,139.2,177.2,139.3,177.7,139.3z"/>
</g>
<g>
	<path fill="#8CC63F" d="M1244.7,182.9l2.4,5.2l18.1-8.3l-2.4-5.2L1244.7,182.9z"/>
	<path fill="#7FAF33" d="M1262.1,171.9l-4.9-3l-12,19.1l4.9,3L1262.1,171.9z"/>
	<path fill="#83B732" d="M1238.8,190.3l1.8,5.4l26.2-8.7l-1.8-5.4L1238.8,190.3z"/>
	<path fill="#8CC63F" d="M1243.5,193.9l13.1-26.4l-5.1-2.5l-12.6,25.4l-29.1,25.3l3.8,4.3L1243.5,193.9L1243.5,193.9L1243.5,193.9
		L1243.5,193.9z"/>
	<path fill="#ECEDD1" d="M1222.2,204.8l-11.9,9.7c-1.5,1.2-1.6,3.3-0.4,4.7c1.2,1.4,3.4,1.5,4.7,0.3l11.3-10.4L1222.2,204.8
		L1222.2,204.8z"/>
	<path fill="#83B732" d="M1222.2,204.8l0.7,0.8l18.1-15.7l12-24.2l-1.5-0.7l-12.6,25.4L1222.2,204.8L1222.2,204.8z"/>
	<path fill="#DBDBC6" d="M1211.4,219.4c-1.2-1.4-1-3.6,0.4-4.7l11.1-9.1l-0.7-0.8l-11.9,9.7c-1.5,1.2-1.6,3.3-0.4,4.7
		c0.8,0.9,1.9,1.3,3,1.1C1212.4,220.2,1211.9,219.9,1211.4,219.4L1211.4,219.4L1211.4,219.4z"/>
</g>
<g>
	<path fill="#29ABE2" d="M950.8,358.6c0,0,13.3,18.2,41.7,8.1c0.2-0.1,0.4-0.2,0.6-0.2c8-2.9,15.1-7.4,21.1-12.2
		c8.5-6.8,15-14.4,19.1-19.8c3.2,2.1,8,4.4,13.5,4.4c10.2,0,19.3-7.7,19.3-7.7s-7-7.3-16.7-7.8c7.7-6.7,9.9-17.3,9.9-17.3
		s-11.3-0.5-19.7,6.2c-4.6,3.6-7.3,8.6-8.9,12.4c-6-1.8-15.1-3.8-25.5-3.8c-7.4,0-15.4,0.9-23.4,3.7c-0.2,0.1-0.5,0.1-0.7,0.2
		C952.7,335,950.8,358.6,950.8,358.6L950.8,358.6L950.8,358.6z"/>
	<path fill="#0E85AF" d="M992.5,354.6c0.2-0.1,0.3-0.4,0.3-0.6c0.3-3.3,0-6.4-0.7-9.2c-0.9-3.4-2.6-6.6-5.1-9.5
		c-0.2-0.3-0.7-0.3-1.1,0c-0.3,0.3-0.4,0.8-0.1,1.1c2.4,2.8,4,5.9,4.8,9c0.7,2.6,1,5.6,0.7,8.7c-0.1,0.4,0.3,0.8,0.7,0.8
		C992.1,354.8,992.3,354.7,992.5,354.6L992.5,354.6L992.5,354.6z"/>
	<path fill="#0E85AF" d="M985.7,363.3c0,0,0.2-0.2,0.3-0.4c0.1-0.4,3.2-8.8,0.9-17.3c-2.3-8.4-9-13.4-9.3-13.6
		c-0.3-0.3-0.8-0.1-1.1,0.2c-0.3,0.3-0.2,0.8,0.1,1.1c0,0.1,6.6,5,8.7,12.9s-0.8,16.2-0.8,16.3c-0.1,0.4,0.1,0.8,0.5,0.9
		C985.2,363.6,985.5,363.5,985.7,363.3L985.7,363.3L985.7,363.3z"/>
	<path fill="#0E85AF" d="M974.6,346c-1.5,1.2-3.7,1-4.7-0.5c-1-1.5-0.7-3.6,0.9-4.8c1.5-1.2,3.7-1,4.7,0.5
		C976.5,342.6,976.1,344.8,974.6,346z"/>
	<path fill="#29ABE2" d="M981.8,324.5c8-2.8,16-3.7,23.4-3.7c2.6-5.3,3.4-9.8,3.4-9.8s-12.4-0.2-21.5,7.4
		C985,320.2,983.2,322.3,981.8,324.5L981.8,324.5L981.8,324.5z"/>
	<path fill="#0E85AF" d="M993.2,366.4c2.2,0.8,4.8,1.4,7.5,1.5c11.2,0.4,21.3-7.9,21.3-7.9s-2.9-3.2-7.7-5.8
		C1008.2,359,1001.1,363.5,993.2,366.4z"/>
	<path fill="#0E85AF" d="M951.2,355.7c1.7,2.2,15.1,17.3,41.5,7.8c0.2-0.1,0.4-0.2,0.6-0.2c8-2.9,15.1-7.4,21.1-12.2
		c8.5-6.8,15-14.4,19.1-19.8c3.2,2.1,8,4.4,13.5,4.4c7.3,0,14-3.9,17.2-6.2c1.1,0.9,1.8,1.6,1.8,1.6s-9,7.8-19.3,7.7
		c-5.5,0-10.3-2.3-13.5-4.4c-4.1,5.4-10.6,13-19.1,19.8c-6.1,4.8-13.1,9.3-21.1,12.2c-0.2,0.1-0.4,0.2-0.6,0.2
		c-28.4,10.2-41.7-8.1-41.7-8.1S950.8,357.5,951.2,355.7L951.2,355.7z"/>
	<path fill="#0E85AF" d="M1006.2,317.8c0,0,0.3,0,0.4,0c-0.4,1-0.8,2-1.4,3c-7.4,0-15.4,0.9-23.4,3.7c0.8-1.3,1.8-2.5,2.9-3.7
		C992,318.6,999.3,317.8,1006.2,317.8L1006.2,317.8L1006.2,317.8z"/>
</g>
<g>
	<path fill="#AD5151" d="M253.8,116.9l-19.5-30.9l-2.2,4.5l18.4,29.2C251.5,118.6,252.6,117.7,253.8,116.9L253.8,116.9z
		 M241.4,125.3l-14.9-23.6l-1.5,3c-3.4,7.1-0.5,15.7,6.5,19.3C234.6,125.7,238.1,126.1,241.4,125.3L241.4,125.3z M248.1,122
		l-17.7-28.1l-2.2,4.5l16.4,25.9C245.8,123.7,247,122.9,248.1,122L248.1,122L248.1,122z M260.8,114.1c7.6-1.1,14.6-6,18-13.7
		c4.7-10.8,0.5-23.5-9.7-29.3c-11.7-6.7-26.5-2.1-32.4,9.9l-0.8,1.6l20.7,32.8C258,114.7,259.4,114.3,260.8,114.1L260.8,114.1z
		 M257.4,86.2c1.2-2.5,4.2-3.5,6.6-2.3c2.5,1.2,3.5,4.2,2.3,6.6c-1.2,2.5-4.2,3.5-6.6,2.3S256.2,88.6,257.4,86.2z"/>
	<path fill="#994848" d="M241.4,125.3l-14.9-23.6l1.7-3.4l16.3,25.9C243.5,124.7,242.5,125.1,241.4,125.3L241.4,125.3L241.4,125.3z"
		/>
	<path fill="#994848" d="M248.1,122l-17.7-28.1l1.7-3.4l18.4,29.2c-0.3,0.3-0.6,0.6-0.9,1c-0.1,0.1-0.1,0.1-0.2,0.2
		C249,121.2,248.5,121.6,248.1,122L248.1,122L248.1,122z"/>
	<path fill="#994848" d="M253.8,116.9l-19.5-30.9l1.7-3.4l20.7,32.8C255.6,115.8,254.7,116.3,253.8,116.9L253.8,116.9L253.8,116.9z"
		/>
	<path opacity="0.1" enable-background="new    " d="M228.2,98.3l-1.7,3.4l-1.5,3c-2.5,5.3-1.6,11.3,1.9,15.5l17.5-35.7
		c6.2-12.7,25.8-7.7,33-5.3c-2-3.3-4.8-6.2-8.3-8.2c-11.7-6.7-26.5-2.1-32.4,9.9l-0.8,1.6l-1.7,3.4l-2.2,4.5l-1.7,3.4L228.2,98.3
		L228.2,98.3L228.2,98.3z"/>
</g>
<g>
	<path fill="#F9D53D" d="M714,258.4c1.7-3.1,0.7-7.2-2.2-9.2l4.1-7.5l68.3,44.9l-19.6,35.9c-1.9,3.4-5.9,4.4-9.1,2.4l-10.2-6.7
		c2.1-3.9,0.9-8.9-2.7-11.2c-3.6-2.4-8.2-1.2-10.3,2.7l-33.6-22.1c-3.2-2.1-4.2-6.5-2.4-9.9l9.3-17.1
		C708.5,262.6,712.3,261.6,714,258.4L714,258.4z"/>
	<path fill="#E8B321" d="M784.1,286.7c4.2-7.7,1.8-17.8-5.4-22.5c-1.3-0.8-2.7-1.5-4-1.9l-58.8-20.6L784.1,286.7"/>
	<path fill="#E8B321" d="M761.9,293.5c-2-1.3-2.7-4.2-1.5-6.3c1.2-2.2,3.8-2.8,5.8-1.5c2,1.3,2.7,4.2,1.5,6.3
		C766.5,294.1,763.9,294.8,761.9,293.5z"/>
	<path fill="#E8B321" d="M733.4,285.4c-3.6-2.4-4.8-7.4-2.7-11.3c2.1-3.9,6.7-5.1,10.4-2.7c3.6,2.4,4.8,7.4,2.7,11.3
		C741.7,286.5,737,287.8,733.4,285.4z"/>
	<path fill="#E8B321" d="M709.3,285.1c-1.6-1-2.1-3.2-1.2-4.9c0.9-1.7,2.9-2.2,4.5-1.2c1.6,1,2.1,3.2,1.2,4.9
		C712.8,285.6,710.8,286.1,709.3,285.1z"/>
	<path fill="#E8B321" d="M757.3,310.3c-1.3-0.8-1.7-2.7-1-4c0.8-1.4,2.4-1.8,3.7-1c1.3,0.8,1.7,2.7,1,4
		C760.2,310.7,758.5,311.1,757.3,310.3z"/>
	<path fill="#E8B321" d="M723.8,260.9c-1.8-1.2-2.4-3.6-1.3-5.5c1-1.9,3.3-2.5,5.1-1.3c1.8,1.2,2.4,3.6,1.3,5.5
		S725.6,262.1,723.8,260.9L723.8,260.9z"/>
	<path fill="#E8B321" d="M728.5,299.8c-1.8-1.2-2.4-3.7-1.3-5.6c1-1.9,3.3-2.5,5.1-1.3c1.8,1.2,2.4,3.7,1.3,5.6
		C732.6,300.4,730.3,301,728.5,299.8z"/>
	<path fill="#E8B321" d="M753.7,319.1c3.2,2.1,7.2,1,9.1-2.4l20-31l1.4,1l-19.6,35.9c-1.9,3.4-5.9,4.4-9.1,2.4l-10.2-6.7
		c0.7-1.2,1-2.6,1-4L753.7,319.1L753.7,319.1z"/>
	<path fill="#E8B321" d="M734.9,306.8c-1.1,0.7-2,1.6-2.7,2.8l-33.6-22.1c-2.3-1.5-3.4-4.1-3.3-6.8L734.9,306.8L734.9,306.8z"/>
</g>
<g>
	<path fill="#F15A24" d="M1160.7,279.3c-12.8,7.4-26.4,14.3-39.7,20.9c-2.2,1.1-8,3.9-10.1,4.9c-2.4,1.1-6.7,0.5-6.5-2.9
		c0.2-1.7,0.8-2.9,1.8-3.9l2.8-2.5l5.6-5c7.2-6.4,15.3-13.3,22.7-19.5c3.9-3.2,7.7-6.3,11.6-9.3c4.6-3.5,11.2-2.7,14.7,1.9
		C1167.6,268.8,1166.1,276.2,1160.7,279.3L1160.7,279.3z"/>
	<path fill="#D6532B" d="M1108.6,303c0.2-1.7,0.8-2.9,1.8-3.9l2.8-2.5l5.6-5c7.2-6.4,15.3-13.3,22.7-19.5c3.9-3.2,7.7-6.3,11.6-9.3
		c1.9-1.4,4.1-2.1,6.3-2.2c-3.4-1.4-7.4-1-10.5,1.3c-3.9,3-7.8,6.2-11.6,9.3c-7.5,6.2-15.5,13.1-22.7,19.5l-5.6,5l-2.8,2.5
		c-1.1,1.1-1.7,2.3-1.8,3.9c-0.2,2.9,2.9,3.8,5.2,3.3C1109,305,1108.5,304.1,1108.6,303L1108.6,303L1108.6,303z"/>
	<path fill="#9AC422" d="M1182.9,269.5c0,0-3.6-5-9.1-6.2c4.6-3.2,6.1-9.3,6.1-9.3s-6.1-1-10.9,2.1c0.9-5.5-2.3-10.8-2.3-10.8
		s-5.1,3.7-6.2,9.4c-0.9,4.9,1.4,9.6,2.1,10.7l0,0c0,0,0,0,0.1,0.1c0.1,0.1,0.1,0.1,0.1,0.1l0,0c0.9,1.1,4.3,5,9.2,6
		C1177.5,272.8,1182.9,269.4,1182.9,269.5L1182.9,269.5L1182.9,269.5z"/>
	<path fill="#8AA526" d="M1174.1,271.9c-0.1,0-0.3-0.1-0.4-0.1c-4.9-0.9-8.3-4.9-9.2-6l0,0c0,0,0,0-0.1-0.1
		c-0.1-0.1-0.1-0.1-0.1-0.1l0,0c-0.7-1.2-3-5.9-2.1-10.7c0.8-3.9,3.4-6.9,5-8.4c-0.4-0.8-0.6-1.2-0.6-1.2s-5.1,3.7-6.2,9.4
		c-0.9,4.9,1.4,9.6,2.1,10.7l0,0c0,0,0,0,0.1,0.1c0.1,0.1,0.1,0.1,0.1,0.1l0,0c0.9,1.1,4.3,5,9.2,6
		C1172.6,271.8,1173.4,271.9,1174.1,271.9L1174.1,271.9z"/>
</g>
<g>
	<path fill="#8CC63F" d="M664.8,203.2l-5.1,2.7l9.3,17.6l5.1-2.7L664.8,203.2z"/>
	<path fill="#7FAF33" d="M676.8,219.9l2.7-5L659.8,204l-2.7,5L676.8,219.9z"/>
	<path fill="#83B732" d="M657.1,197.7l-5.3,2.1l10.2,25.6l5.3-2.1L657.1,197.7z"/>
	<path fill="#8CC63F" d="M653.7,202.6l27.1,11.5l2.2-5.3L657,197.7l-26.9-27.6l-4.1,4L653.7,202.6L653.7,202.6L653.7,202.6
		L653.7,202.6z"/>
	<path fill="#ECEDD1" d="M641.6,181.9l-10.4-11.3c-1.2-1.4-3.4-1.4-4.7-0.1c-1.3,1.3-1.3,3.4,0,4.7l11,10.7L641.6,181.9L641.6,181.9
		L641.6,181.9z"/>
	<path fill="#83B732" d="M641.6,181.9l-0.7,0.7l16.7,17.1l24.9,10.6l0.6-1.5L657,197.8L641.6,181.9L641.6,181.9z"/>
	<path fill="#DBDBC6" d="M626.4,172c1.3-1.3,3.5-1.2,4.7,0.1l9.7,10.5l0.7-0.7l-10.4-11.3c-1.2-1.4-3.4-1.4-4.7-0.1
		c-0.8,0.8-1.1,2-0.9,3.1C625.7,173,626,172.4,626.4,172L626.4,172L626.4,172z"/>
</g>
<g>
	<path fill="#9AC422" d="M1324.9,129.9l-0.6-5.5c-1.7-0.6-3.4-0.9-5.1-1.1c-1.7-0.2-3.3-0.2-4.9-0.1c-2.5,0.2-5.1,0.6-7.6,1.3
		c3.6-3.1,7-6.3,10.2-9.9l-3.7-4.6c-3.6,2.5-7,5.4-10.4,8.3c0,0,0,0.1-0.1,0.1c0.9-1.2,1.7-2.4,2.6-3.6c2.3-3.3,4.5-6.8,6.5-10.4
		l-4.5-3.6c-0.8,1.3-1.7,2.7-2.5,4.1c-1.3,2-2.6,4-3.9,6c-1.8,2.5-3.6,5.1-5.7,7.3c-1.5,1.7-3.2,3.2-5,4.7c-2.3,2-4.7,3.8-7.2,5.5
		l0,0c-2,1.5-1.5,5.8,1.1,9.6c2.6,3.8,6.5,6,8.6,4.5c1.3-0.8,3.8-2.6,5-3.4c1.8-1.2,3.6-2.5,5.4-3.8l1.7-1.3c1.4-1,3.3-1.7,5.1-2.2
		C1314.9,130.6,1320.1,130.8,1324.9,129.9L1324.9,129.9L1324.9,129.9z"/>
	<path fill="#88B212" d="M1291.6,127.7c4.7-3.7,14.6-19.5,14.6-19.5l-3.1-0.5c-0.7,1-1.4,2.1-2.1,3.1c-1.8,2.5-3.6,5.1-5.7,7.3
		c-1.5,1.7-3.2,3.2-5,4.7c-2.3,2-4.7,3.8-7.2,5.5l0,0c-2,1.5-1.5,5.8,1.1,9.6c2.6,3.9,6.5,6,8.6,4.5c1-0.6,2.9-1.9,4.2-2.9
		C1294.4,135.7,1287.4,131,1291.6,127.7L1291.6,127.7L1291.6,127.7z"/>
	<path fill="#3E662D" d="M1340.7,129.7C1340.7,129.7,1340.6,129.6,1340.7,129.7c1.3,0.4,2.9,0.2,4.2-0.8c2-1.5,2.4-4.4,0.9-6.4
		c-0.5-0.6-1.1-1.1-1.8-1.4c0.9-0.1,1.7-0.4,2.4-1c2.3-1.7,2.7-5,1-7.3c-0.9-1.2-2.3-1.9-3.7-2c0.7-0.2,1.3-0.6,1.9-1
		c3-2.3,3.6-6.6,1.3-9.6c-1.3-1.7-3.1-2.6-5.1-2.7c2.5-1.9,2.9-5.4,1.1-7.8c-1.6-2.2-4.5-2.8-6.9-1.7c0.3-1.2,0.1-2.4-0.7-3.5
		c-1.3-1.7-3.8-2.1-5.6-0.8c-0.3,0.2-0.6,0.5-0.8,0.7c0.2-0.9,0.1-2-0.6-2.8c-1.1-1.5-3.2-1.8-4.7-0.6c-0.2,0.2-0.4,0.3-0.5,0.5
		c-0.1-0.3-0.3-0.5-0.5-0.8c-1.9-2.5-5.4-3-7.8-1.1c-0.9,0.7-1.6,1.7-1.9,2.7c-2.4-2-5.9-2.2-8.5-0.2s-3.5,5.8-1.9,8.7
		c-1,0-2,0.4-2.9,1c-2.3,1.7-2.7,4.9-1,7.2c1.2,1.6,3.1,2.3,5,1.9c-0.1,0.1-0.2,0.1-0.4,0.2c-2.7,2-3.2,5.8-1.2,8.5
		c1.7,2.3,4.7,3,7.2,1.9c-1.1,2-1,4.6,0.5,6.6c1.3,1.7,3.4,2.6,5.4,2.4c-0.6,1.2-0.5,2.6,0.4,3.8c0.6,0.8,1.4,1.2,2.3,1.4
		c-1.1,1.3-1.1,3.2-0.1,4.5c1.1,1.4,3,1.8,4.6,1c0,1.1,0.3,2.3,1.1,3.3c1.7,2.3,4.9,2.7,7.2,1c0.9-0.7,1.5-1.5,1.8-2.5
		c0.1,0.8,0.4,1.5,0.9,2.2c1.5,2,4.4,2.4,6.4,0.9C1341.9,134.6,1342.2,131.7,1340.7,129.7L1340.7,129.7L1340.7,129.7z M1324.5,127.4
		L1324.5,127.4C1324.5,127.4,1324.5,127.4,1324.5,127.4L1324.5,127.4L1324.5,127.4z"/>
	<path fill="#487534" d="M1339.8,136.1c0.8-0.6,1.3-1.3,1.6-2.2c0.5-1.4,0.3-3-0.7-4.3c1.4,0.4,2.9,0.2,4.1-0.7
		c2-1.5,2.4-4.4,0.9-6.4c-0.5-0.6-1.1-1.1-1.8-1.4c0.9-0.1,1.7-0.4,2.4-1c2.3-1.7,2.7-5,1-7.3c-0.9-1.2-2.3-1.9-3.7-2
		c0.7-0.2,1.3-0.6,1.9-1c3-2.3,3.6-6.6,1.3-9.6c-1.3-1.7-3.1-2.6-5.1-2.7c2.5-1.9,2.9-5.4,1.1-7.8c-1.6-2.2-4.5-2.8-6.9-1.7
		c0.3-1.2,0.1-2.4-0.7-3.5c-1.3-1.7-3.8-2.1-5.6-0.8c-0.2,0.2-0.4,0.3-0.5,0.5c-0.2,1.1,0,2.2,0.6,3.2c0,0,0,0,0.1,0.1
		c-1.3-0.6-2.9-0.5-4.2,0.3c-2.1,1.3-2.7,4-1.4,6.1c0.4,0.7,1,1.2,1.6,1.5c-0.8,0-1.7,0.3-2.5,0.7c-2.4,1.5-3.1,4.6-1.6,7
		c0.8,1.3,2,2,3.4,2.3c-0.7,0.2-1.3,0.4-2,0.8c-3.1,1.9-4,6-2.1,9.1c1.1,1.7,2.8,2.8,4.7,3c-2.6,1.6-3.3,5-1.7,7.5
		c1.4,2.2,4.1,3.1,6.5,2.2c-0.4,1.1-0.3,2.4,0.3,3.4c0.3,0.5,0.8,0.9,1.3,1.2c0.1,0.9,0.4,1.7,0.9,2.4
		C1334.8,137.3,1337.7,137.7,1339.8,136.1L1339.8,136.1L1339.8,136.1z"/>
</g>
<g>
	<path fill="#F15A24" d="M873.8,347.8c-10.7-2.4-21.6-5.4-32.2-8.4c-1.7-0.5-6.3-1.9-8-2.4c-1.9-0.6-3.9-3.1-2.1-4.9
		c0.9-0.8,1.9-1.2,3-1.2l2.8,0l5.6,0.1c7.2,0.1,15,0.3,22.2,0.7c3.7,0.2,7.4,0.4,11,0.7c4.3,0.4,7.5,4.1,7.1,8.4
		C882.8,345.5,878.3,348.7,873.8,347.8L873.8,347.8z"/>
	<path fill="#D6532B" d="M833.4,334.7c0.9-0.8,1.9-1.2,3-1.2l2.8,0l5.6,0.1c7.2,0.1,15,0.3,22.2,0.7c3.7,0.2,7.4,0.4,11,0.7
		c1.7,0.1,3.3,0.9,4.5,2c-1.1-2.5-3.5-4.3-6.4-4.5c-3.7-0.3-7.4-0.5-11-0.7c-7.2-0.3-15-0.6-22.2-0.7l-5.6-0.1l-2.8,0
		c-1.1,0.1-2,0.4-3,1.2c-1.6,1.5-0.4,3.5,1.2,4.5C832.7,335.9,832.8,335.3,833.4,334.7L833.4,334.7L833.4,334.7z"/>
	<path fill="#9AC422" d="M890.9,353.5c0,0,0.5-4.5-1.9-8c4.1,0.6,8-2.1,8-2.1s-2.9-3.6-7-4.3c3.3-2.6,4.1-7.1,4.1-7.1
		s-4.7-0.5-8.1,2c-3,2.2-4,5.9-4.2,6.9l0,0c0,0,0,0.1,0,0.1c0,0.1,0,0.1,0,0.1l0,0c-0.1,1-0.2,4.9,2,7.9
		C886.3,352.6,890.9,353.5,890.9,353.5L890.9,353.5L890.9,353.5z"/>
	<path fill="#8AA526" d="M884.8,350.5c-0.1-0.1-0.1-0.1-0.2-0.2c-2.2-3-2.1-6.9-2-7.9l0,0c0,0,0,0,0-0.1s0-0.1,0-0.1l0,0
		c0.2-1,1.3-4.7,4.3-6.9c2.4-1.7,5.3-2,6.9-2c0.2-0.6,0.2-1,0.2-1s-4.7-0.5-8.1,2c-3,2.2-4,5.9-4.2,6.9l0,0c0,0,0,0.1,0,0.1
		c0,0.1,0,0.1,0,0.1l0,0c-0.1,1-0.2,4.9,2,7.9C884.1,349.7,884.5,350.1,884.8,350.5L884.8,350.5z"/>
</g>
<g>
	<path fill="#F9D53D" d="M84,268c3.4,0.3,5.9,3.2,5.6,6.6l8,0.6l6.1-78.7l-38.6-3c-3.6-0.3-6.8,2.5-7.1,6.1L57,211.3
		c4.2,0.3,7.2,3.9,6.9,8.1c-0.3,4.2-3.9,7.2-8.1,6.9l-3,38.7c-0.3,3.6,2.5,6.8,6.1,7.1l18.4,1.4C77.6,270.2,80.6,267.7,84,268
		L84,268z"/>
	<path fill="#E8B321" d="M103.6,196.5c8.3,0.6,14.5,7.9,13.8,16.1c-0.1,1.5-0.4,2.9-1,4.2l-18.8,58.3l6.1-78.7"/>
	<path fill="#E8B321" d="M85.5,210.9c-0.2,2.3,1.6,4.4,3.9,4.5s4.4-1.6,4.5-3.9c0.2-2.3-1.6-4.4-3.9-4.5
		C87.7,206.8,85.7,208.5,85.5,210.9z"/>
	<path fill="#E8B321" d="M74.9,238.1c-0.3,4.2,2.8,7.8,7,8.1c4.2,0.3,7.8-2.8,8.1-7c0.3-4.2-2.8-7.8-7-8.1
		C78.9,230.8,75.3,234,74.9,238.1z"/>
	<path fill="#E8B321" d="M61,257.8c-0.1,1.8,1.2,3.4,3,3.5c1.8,0.1,3.4-1.2,3.5-3c0.1-1.8-1.2-3.4-3-3.5
		C62.7,254.6,61.1,256,61,257.8z"/>
	<path fill="#E8B321" d="M70,205.8c-0.1,1.5,1,2.8,2.5,2.9c1.5,0.1,2.8-1,2.9-2.5c0.1-1.5-1-2.8-2.5-2.9
		C71.5,203.2,70.2,204.3,70,205.8z"/>
	<path fill="#E8B321" d="M87.8,258.7c-0.2,2,1.4,3.8,3.4,4c2,0.2,3.8-1.4,4-3.4c0.2-2-1.4-3.8-3.4-4C89.7,255.1,88,256.7,87.8,258.7
		L87.8,258.7z"/>
	<path fill="#E8B321" d="M61.1,234.5c-0.2,2.1,1.4,3.8,3.4,4c2.1,0.2,3.8-1.4,4-3.4c0.2-2.1-1.4-3.8-3.4-4
		C63.1,231,61.3,232.5,61.1,234.5z"/>
	<path fill="#E8B321" d="M61.3,204.1c0.3-3.6,3.5-6.4,7.1-6.1l35.2,0.1l0.1-1.7l-38.6-3c-3.6-0.3-6.8,2.5-7.1,6.1L57,211.3
		c1.3,0.1,2.6,0.6,3.6,1.3L61.3,204.1L61.3,204.1z"/>
	<path fill="#E8B321" d="M59.6,225.7c-1.1,0.5-2.4,0.8-3.7,0.7l-3,38.7c-0.2,2.6,1.1,4.9,3.2,6.2L59.6,225.7L59.6,225.7z"/>
</g>
<g>
	<path fill="#8CC63F" d="M80.9,341.2l5.7-0.3L85.7,321l-5.7,0.3L80.9,341.2z"/>
	<path fill="#7FAF33" d="M77.1,321l-4.6,3.4l13.3,18.2l4.6-3.4L77.1,321z"/>
	<path fill="#83B732" d="M85.6,349.5l5.7,0.3l1.7-27.5l-5.7-0.3L85.6,349.5z"/>
	<path fill="#8CC63F" d="M90.7,346.5l-19.7-22l-4.3,3.8l18.9,21.1l12.7,36.4l5.4-1.9L90.7,346.5L90.7,346.5L90.7,346.5L90.7,346.5z"
		/>
	<path fill="#ECEDD1" d="M92.9,370.3l4.6,14.6c0.6,1.8,2.5,2.7,4.2,2.1c1.7-0.6,2.6-2.6,2-4.3l-5.5-14.4L92.9,370.3L92.9,370.3
		L92.9,370.3z"/>
	<path fill="#83B732" d="M92.9,370.3l1-0.3L86,347.3l-18-20.1l-1.2,1.1l18.9,21.1L92.9,370.3L92.9,370.3z"/>
	<path fill="#DBDBC6" d="M102.4,385.7c-1.7,0.6-3.7-0.3-4.2-2.1L93.9,370l-1,0.3l4.6,14.6c0.6,1.8,2.5,2.7,4.2,2.1
		c1.1-0.4,1.9-1.3,2.1-2.4C103.5,385.1,103,385.5,102.4,385.7L102.4,385.7L102.4,385.7z"/>
</g>
<g>
	<path fill="#AD5151" d="M147.4,447.5l-32.9,15.9l4.2,2.7l31-15C148.9,449.9,148.1,448.7,147.4,447.5L147.4,447.5z M154.5,460.7
		l-25.1,12.2l2.8,1.8c6.7,4.1,15.5,2.2,19.9-4.3C154.1,467.5,154.8,464,154.5,460.7L154.5,460.7z M151.9,453.6l-29.9,14.5l4.2,2.7
		l27.6-13.4C153.4,456.1,152.7,454.8,151.9,453.6L151.9,453.6L151.9,453.6z M145.5,440.2c-0.2-7.7-4.3-15.2-11.6-19.4
		c-10.2-5.9-23.3-3.1-30.2,6.4c-8,10.9-5,26.1,6.2,33.3l1.5,0.9l34.9-16.9C145.8,443,145.5,441.6,145.5,440.2L145.5,440.2z
		 M117.3,440.4c-2.3-1.5-3-4.5-1.5-6.8s4.5-3,6.8-1.5c2.3,1.5,3,4.5,1.5,6.8C122.7,441.2,119.6,441.8,117.3,440.4z"/>
	<path fill="#994848" d="M154.4,460.7l-25.1,12.2l-3.2-2l27.6-13.4C154.1,458.5,154.4,459.6,154.4,460.7L154.4,460.7L154.4,460.7z"
		/>
	<path fill="#994848" d="M151.9,453.6l-29.9,14.5l-3.2-2l31-15c0.3,0.3,0.6,0.7,0.8,1c0.1,0.1,0.1,0.1,0.2,0.2
		C151.2,452.7,151.5,453.2,151.9,453.6L151.9,453.6L151.9,453.6z"/>
	<path fill="#994848" d="M147.4,447.5l-32.9,15.9l-3.2-2l34.9-16.9C146.5,445.5,146.9,446.5,147.4,447.5L147.4,447.5L147.4,447.5z"
		/>
	<path opacity="0.1" enable-background="new    " d="M126.2,470.8l3.2,2l2.8,1.8c4.9,3,11,2.8,15.7-0.1l-33.5-21.4
		c-11.9-7.6-4.8-26.5-1.6-33.3c-3.5,1.6-6.6,4.1-9,7.3c-8,10.9-5,26.1,6.2,33.3l1.5,0.9l3.2,2l4.2,2.7l3.2,2L126.2,470.8
		L126.2,470.8L126.2,470.8z"/>
</g>
<g>
	<path fill="#9AC422" d="M261.9,595.2l-5.5,0.7c-0.5,1.7-0.8,3.4-1,5.1c-0.1,1.6-0.1,3.3,0,4.9c0.2,2.5,0.7,5.1,1.5,7.6
		c-3.2-3.5-6.5-6.9-10.1-10l-4.5,3.8c2.6,3.6,5.5,6.9,8.5,10.2c0,0,0,0,0.1,0.1c-1.2-0.9-2.4-1.7-3.6-2.5c-3.4-2.2-6.9-4.3-10.5-6.3
		l-3.5,4.6c1.4,0.8,2.7,1.6,4.1,2.4c2,1.2,4.1,2.5,6,3.8c2.6,1.7,5.1,3.5,7.5,5.5c1.7,1.5,3.2,3.2,4.8,4.9c2,2.3,3.9,4.6,5.6,7.1
		l0,0c1.6,1.9,5.8,1.3,9.6-1.3s5.8-6.7,4.4-8.7c-0.8-1.3-2.7-3.7-3.5-4.9c-1.2-1.8-2.6-3.6-3.9-5.3l-1.3-1.7c-1-1.3-1.8-3.2-2.2-5
		C262.9,605.2,263,600,261.9,595.2L261.9,595.2L261.9,595.2z"/>
	<path fill="#88B212" d="M260.4,628.6c-3.8-4.6-19.7-14.2-19.7-14.2l-0.5,3.2c1.1,0.7,2.1,1.4,3.2,2c2.6,1.7,5.1,3.5,7.5,5.5
		c1.7,1.5,3.2,3.2,4.8,4.9c2,2.3,3.9,4.6,5.6,7.1l0,0c1.6,1.9,5.8,1.3,9.6-1.3c3.9-2.7,5.8-6.7,4.4-8.7c-0.6-1-2-2.9-3-4.2
		C268.4,625.5,263.8,632.7,260.4,628.6L260.4,628.6L260.4,628.6z"/>
	<path fill="#3E662D" d="M261.4,579.4C261.4,579.4,261.4,579.4,261.4,579.4c0.4-1.3,0.1-2.9-0.9-4.2c-1.6-2-4.4-2.3-6.4-0.8
		c-0.6,0.5-1.1,1.1-1.4,1.8c-0.1-0.9-0.5-1.7-1.1-2.4c-1.8-2.2-5-2.6-7.3-0.8c-1.2,0.9-1.9,2.3-2,3.7c-0.2-0.7-0.6-1.3-1.1-1.9
		c-2.3-3-6.6-3.5-9.6-1.1c-1.6,1.3-2.5,3.2-2.6,5.1c-1.9-2.4-5.4-2.8-7.9-0.9c-2.1,1.7-2.7,4.6-1.5,6.9c-1.2-0.3-2.4-0.1-3.5,0.7
		c-1.7,1.3-2,3.9-0.7,5.6c0.2,0.3,0.5,0.5,0.8,0.7c-1-0.2-2,0-2.8,0.6c-1.4,1.1-1.7,3.2-0.5,4.7c0.2,0.2,0.3,0.4,0.5,0.5
		c-0.3,0.2-0.5,0.3-0.8,0.5c-2.4,1.9-2.9,5.5-0.9,7.9c0.7,0.9,1.7,1.6,2.8,1.9c-2,2.4-2.1,6,0,8.5c2,2.6,5.8,3.3,8.7,1.7
		c0.1,1,0.4,2,1.1,2.9c1.7,2.2,5,2.6,7.2,0.8c1.5-1.2,2.2-3.2,1.8-5c0.1,0.1,0.1,0.2,0.2,0.3c2.1,2.6,5.9,3.1,8.5,1
		c2.2-1.8,2.9-4.8,1.8-7.3c2.1,1.1,4.7,0.9,6.6-0.6c1.7-1.3,2.5-3.4,2.3-5.5c1.2,0.5,2.6,0.4,3.8-0.5c0.7-0.6,1.2-1.4,1.4-2.3
		c1.3,1,3.2,1.1,4.5,0c1.3-1.1,1.8-3.1,0.9-4.6c1.1,0,2.3-0.3,3.2-1.1c2.2-1.7,2.6-5,0.8-7.2c-0.7-0.8-1.6-1.4-2.5-1.7
		c0.8-0.1,1.5-0.4,2.1-0.9c2-1.6,2.3-4.4,0.8-6.4C266.3,578.1,263.4,577.8,261.4,579.4L261.4,579.4L261.4,579.4z M259.5,595.6
		L259.5,595.6L259.5,595.6L259.5,595.6L259.5,595.6L259.5,595.6z"/>
	<path fill="#487534" d="M267.9,580.2c-0.6-0.7-1.4-1.3-2.2-1.5c-1.4-0.5-3-0.2-4.3,0.7c0.4-1.4,0.1-2.9-0.8-4.1
		c-1.6-2-4.4-2.3-6.4-0.8c-0.6,0.5-1.1,1.1-1.4,1.8c-0.1-0.9-0.5-1.7-1.1-2.4c-1.8-2.2-5-2.6-7.3-0.8c-1.2,0.9-1.9,2.3-2,3.7
		c-0.2-0.7-0.6-1.3-1.1-1.9c-2.3-3-6.6-3.5-9.6-1.1c-1.6,1.3-2.5,3.2-2.6,5.1c-1.9-2.4-5.4-2.8-7.9-0.9c-2.1,1.7-2.7,4.6-1.5,6.9
		c-1.2-0.3-2.4-0.1-3.5,0.7c-1.7,1.3-2,3.9-0.7,5.6c0.2,0.2,0.3,0.4,0.5,0.5c1.1,0.2,2.2,0,3.2-0.7c0,0,0.1,0,0.1-0.1
		c-0.5,1.3-0.5,2.9,0.4,4.2c1.3,2.1,4.1,2.6,6.2,1.3c0.6-0.4,1.1-1,1.5-1.6c0,0.8,0.3,1.7,0.8,2.4c1.5,2.3,4.6,3,7,1.5
		c1.2-0.8,2-2.1,2.2-3.4c0.2,0.7,0.5,1.3,0.9,2c2,3.1,6.1,3.9,9.2,1.9c1.7-1.1,2.7-2.9,3-4.7c1.7,2.5,5,3.2,7.5,1.6
		c2.2-1.5,3-4.2,2.1-6.6c1.1,0.4,2.4,0.3,3.4-0.4c0.5-0.3,0.9-0.8,1.2-1.3c0.8-0.1,1.7-0.4,2.4-1
		C269.1,585.1,269.5,582.2,267.9,580.2L267.9,580.2L267.9,580.2z"/>
</g>
<g>
	<path fill="#29ABE2" d="M352.5,740.9c0,0-20,5.8-34.5-17.8c-0.1-0.2-0.2-0.4-0.3-0.5c-4-6.7-6.5-14-8.1-21
		c-2.2-9.8-2.5-19.1-2.3-25.4c-3.5-0.3-8.2-1.3-12.2-4.4c-7.4-5.8-9.4-16.7-9.4-16.7s9.2-1.3,16.5,3.8c-1.7-9.3,2.9-18.4,2.9-18.4
		s8.3,6.1,10.5,15.7c1.2,5.3,0.3,10.5-0.8,14.2c5.3,2.1,13,5.8,20.4,11.7c5.3,4.2,10.5,9.5,14.6,16.1c0.1,0.2,0.2,0.4,0.4,0.5
		C364.8,722.4,352.5,740.9,352.5,740.9L352.5,740.9L352.5,740.9z"/>
	<path fill="#0E85AF" d="M325,714.2c0-0.2,0-0.4,0.1-0.6c1.7-2.6,3.7-4.7,5.8-6.3c2.6-2,5.7-3.3,9.1-4.1c0.3-0.1,0.7,0.2,0.8,0.6
		s-0.2,0.8-0.5,0.9c-3.3,0.7-6.2,2.1-8.7,3.9c-2,1.5-3.9,3.5-5.5,6c-0.2,0.4-0.6,0.4-1,0.2C325.1,714.5,325,714.4,325,714.2
		L325,714.2L325,714.2z"/>
	<path fill="#0E85AF" d="M324.8,724.5c0,0,0-0.3,0-0.4c0.1-0.4,2.8-8.3,9.3-13.2c6.5-4.9,14.2-4.7,14.5-4.7c0.4,0,0.7,0.4,0.7,0.8
		c0,0.4-0.3,0.7-0.7,0.7c-0.1,0-7.6-0.1-13.7,4.5s-8.8,12.4-8.8,12.5c-0.1,0.4-0.5,0.6-0.9,0.4C325,724.9,324.9,724.7,324.8,724.5
		L324.8,724.5L324.8,724.5z"/>
	<path fill="#0E85AF" d="M342.7,718c0.4,1.8,2,2.8,3.6,2.3c1.6-0.5,2.6-2.3,2.2-4c-0.4-1.7-2-2.8-3.6-2.3S342.3,716.2,342.7,718z"/>
	<path fill="#29ABE2" d="M349.9,698.2c-4.1-6.6-9.3-11.9-14.6-16.1c1.2-5.4,3.2-9.2,3.2-9.2s9,6.9,11.1,17.7
		C350.1,693.2,350.2,695.7,349.9,698.2L349.9,698.2L349.9,698.2z"/>
	<path fill="#0E85AF" d="M317.7,722.5c-2.1-0.7-4.2-1.7-6.2-3.2c-8.2-6.1-10.7-17.9-10.7-17.9s3.9-0.7,8.9,0.1
		C311.1,708.5,313.7,715.8,317.7,722.5z"/>
	<path fill="#0E85AF" d="M353.8,738.5c-2.5,0.6-20.7,4.1-34.2-17.9c-0.1-0.2-0.2-0.4-0.3-0.5c-4-6.7-6.5-14-8.1-21
		c-2.2-9.8-2.5-19.1-2.3-25.4c-3.5-0.3-8.2-1.3-12.2-4.4c-5.2-4.1-7.8-10.8-8.8-14.3c-1.3,0-2.2,0.1-2.2,0.1s2,10.8,9.4,16.7
		c4,3.1,8.7,4.1,12.2,4.4c-0.2,6.3,0.1,15.5,2.3,25.4c1.6,7,4.1,14.3,8.1,21c0.1,0.2,0.2,0.4,0.3,0.5c14.5,23.7,34.5,17.8,34.5,17.8
		S353.1,740,353.8,738.5L353.8,738.5z"/>
	<path fill="#0E85AF" d="M336.3,679.3c0,0-0.2-0.2-0.3-0.2c-0.3,0.9-0.5,1.9-0.8,3c5.3,4.2,10.5,9.5,14.6,16.1
		c0.1-1.4,0.1-2.8,0-4.4C346,688,341.2,683.2,336.3,679.3L336.3,679.3L336.3,679.3z"/>
</g>
<g>
	<path fill="#F15A24" d="M186.6,510.5c5.6,9.4,10.9,19.4,16,29.2c0.8,1.6,3,5.9,3.8,7.5c0.9,1.8,0.4,5-2.1,4.8
		c-1.2-0.1-2.2-0.5-2.9-1.3l-1.9-2l-3.8-4.1c-4.8-5.3-10-11.2-14.7-16.6c-2.4-2.8-4.8-5.6-7.1-8.5c-2.7-3.4-2.1-8.3,1.3-10.9
		C178.7,505.5,184.2,506.6,186.6,510.5L186.6,510.5z"/>
	<path fill="#D6532B" d="M204.7,548.8c-1.2-0.1-2.2-0.5-2.9-1.3l-1.9-2l-3.8-4.1c-4.8-5.3-10-11.2-14.7-16.6
		c-2.4-2.8-4.8-5.6-7.1-8.5c-1.1-1.4-1.6-3-1.7-4.6c-1,2.5-0.7,5.5,1.1,7.8c2.3,2.9,4.7,5.7,7.1,8.5c4.7,5.5,9.9,11.4,14.7,16.6
		l3.8,4.1l1.9,2c0.8,0.8,1.7,1.2,2.9,1.3c2.1,0.1,2.8-2.2,2.4-3.9C206.2,548.6,205.6,548.9,204.7,548.8L204.7,548.8L204.7,548.8z"/>
	<path fill="#9AC422" d="M179.1,494.1c0,0-3.6,2.7-4.5,6.8c-2.4-3.4-7-4.4-7-4.4s-0.6,4.6,1.7,8c-4.1-0.6-8,1.8-8,1.8s2.8,3.8,7,4.5
		c3.6,0.6,7.1-1.2,7.9-1.7l0,0c0,0,0,0,0.1-0.1c0.1,0,0.1-0.1,0.1-0.1l0,0c0.8-0.6,3.7-3.2,4.3-6.9
		C181.6,498.1,179,494.1,179.1,494.1L179.1,494.1L179.1,494.1z"/>
	<path fill="#8AA526" d="M181,500.6c0,0.1,0,0.2,0,0.3c-0.6,3.6-3.6,6.2-4.3,6.9l0,0c0,0,0,0-0.1,0.1s-0.1,0.1-0.1,0.1l0,0
		c-0.9,0.5-4.3,2.3-8,1.7c-2.9-0.5-5.1-2.5-6.2-3.7c-0.5,0.3-0.9,0.5-0.9,0.5s2.8,3.8,7,4.5c3.6,0.6,7.1-1.2,7.9-1.7l0,0
		c0,0,0,0,0.1-0.1c0.1,0,0.1-0.1,0.1-0.1l0,0c0.8-0.6,3.7-3.2,4.3-6.9C180.9,501.7,181,501.1,181,500.6L181,500.6z"/>
</g>
</svg>
