<?xml version="1.0" encoding="utf-8"?>
<!-- Generator: Adobe Illustrator 28.0.0, SVG Export Plug-In . SVG Version: 6.00 Build 0)  -->
<svg version="1.1" id="animated-svg1" xmlns="http://www.w3.org/2000/svg" xmlns:xlink="http://www.w3.org/1999/xlink" x="0px" y="0px"
	 viewBox="0 0 1366 768" enable-background="new 0 0 1366 768" xml:space="preserve">
<g>
	<path fill="#9AC422" d="M205.7,111.3l-0.5,5.5c1.5,0.9,3.2,1.5,4.8,2c1.6,0.5,3.2,0.8,4.8,1c2.5,0.3,5.1,0.4,7.7,0.2
		c-4.1,2.4-8.1,4.9-11.9,7.8l2.8,5.2c4-1.8,7.9-4,11.7-6.2c0,0,0.1,0,0.1-0.1c-1.1,1-2.1,2-3.2,3c-2.9,2.9-5.7,5.8-8.3,9l3.7,4.4
		c1-1.2,2.1-2.4,3.2-3.5c1.6-1.7,3.3-3.5,5-5.1c2.2-2.2,4.5-4.3,6.9-6.1c1.8-1.4,3.8-2.5,5.7-3.6c2.6-1.5,5.3-2.9,8.1-4l0,0
		c2.2-1.1,2.5-5.4,0.7-9.7c-1.8-4.3-5.3-7.1-7.6-6.1c-1.4,0.5-4.2,1.8-5.6,2.4c-2,0.8-4,1.8-6,2.7l-2,0.9c-1.5,0.7-3.5,1.1-5.4,1.1
		C215.7,112.4,210.6,111.2,205.7,111.3L205.7,111.3L205.7,111.3z"/>
	<path fill="#88B212" d="M238.1,119.7C232.8,122.5,220,136,220,136l3,1.1c0.9-0.9,1.8-1.8,2.7-2.7c2.2-2.2,4.5-4.3,6.9-6.1
		c1.8-1.4,3.8-2.5,5.7-3.6c2.6-1.5,5.3-2.9,8.1-4l0,0c2.2-1.1,2.5-5.4,0.7-9.7c-1.9-4.4-5.3-7.1-7.6-6.1c-1.1,0.4-3.2,1.4-4.7,2
		C236.8,111.3,242.8,117.2,238.1,119.7L238.1,119.7L238.1,119.7z"/>
	<path fill="#3E662D" d="M190.2,108.5C190.2,108.5,190.2,108.5,190.2,108.5c-1.2-0.6-2.8-0.7-4.3,0c-2.3,1.1-3.2,3.9-2.1,6.1
		c0.3,0.7,0.9,1.3,1.5,1.7c-0.9-0.1-1.8,0.1-2.6,0.5c-2.6,1.3-3.6,4.4-2.4,6.9c0.7,1.4,1.9,2.3,3.2,2.7c-0.7,0.1-1.4,0.3-2.1,0.6
		c-3.4,1.7-4.8,5.8-3.1,9.1c0.9,1.9,2.6,3.1,4.5,3.6c-2.8,1.4-3.9,4.7-2.5,7.5c1.2,2.4,3.9,3.6,6.4,3c-0.5,1.1-0.6,2.4,0,3.5
		c1,2,3.4,2.8,5.3,1.8c0.3-0.2,0.6-0.4,0.9-0.6c-0.4,0.9-0.5,1.9,0,2.9c0.8,1.6,2.8,2.3,4.4,1.5c0.2-0.1,0.4-0.2,0.6-0.4
		c0.1,0.3,0.2,0.6,0.4,0.9c1.4,2.8,4.7,3.9,7.5,2.5c1.1-0.5,1.9-1.3,2.4-2.3c2,2.4,5.4,3.3,8.3,1.8c2.9-1.4,4.5-5,3.5-8.2
		c1,0.2,2.1,0,3-0.5c2.5-1.2,3.6-4.3,2.3-6.8c-0.9-1.8-2.7-2.8-4.5-2.8c0.1-0.1,0.3-0.1,0.4-0.2c3-1.5,4.3-5.1,2.8-8.1
		c-1.3-2.5-4.1-3.8-6.7-3.3c1.5-1.8,1.9-4.4,0.8-6.6c-1-2-2.8-3.2-4.9-3.4c0.8-1.1,1-2.5,0.3-3.8c-0.4-0.8-1.1-1.5-2-1.8
		c1.3-1.1,1.7-2.9,0.9-4.4c-0.8-1.5-2.6-2.4-4.3-1.9c0.2-1.1,0.2-2.3-0.4-3.4c-1.2-2.5-4.3-3.6-6.8-2.3c-1,0.5-1.7,1.2-2.2,2.1
		c0-0.8-0.1-1.6-0.5-2.3c-1.1-2.3-3.9-3.2-6.1-2.1S189.1,106.2,190.2,108.5L190.2,108.5L190.2,108.5z M205.7,113.7L205.7,113.7
		L205.7,113.7L205.7,113.7L205.7,113.7L205.7,113.7z"/>
	<path fill="#487534" d="M192.3,102.3c-0.8,0.4-1.5,1.1-2,1.8c-0.7,1.3-0.8,2.9-0.2,4.3c-1.3-0.7-2.8-0.8-4.2-0.1
		c-2.3,1.1-3.2,3.9-2.1,6.1c0.3,0.7,0.9,1.3,1.5,1.7c-0.9-0.1-1.8,0.1-2.6,0.5c-2.6,1.3-3.6,4.4-2.4,6.9c0.7,1.4,1.9,2.3,3.2,2.7
		c-0.7,0.1-1.4,0.3-2.1,0.6c-3.4,1.7-4.8,5.8-3.1,9.1c0.9,1.9,2.6,3.1,4.5,3.6c-2.8,1.4-3.9,4.7-2.5,7.5c1.2,2.4,3.9,3.6,6.4,3
		c-0.5,1.1-0.6,2.4,0,3.5c1,2,3.4,2.8,5.3,1.8c0.2-0.1,0.4-0.2,0.6-0.4c0.4-1,0.4-2.2,0-3.2c0,0,0-0.1,0-0.1
		c1.2,0.8,2.7,1.1,4.1,0.5c2.3-0.9,3.4-3.5,2.5-5.8c-0.3-0.7-0.7-1.3-1.3-1.8c0.8,0.1,1.7,0,2.6-0.3c2.6-1,3.9-3.9,2.9-6.5
		c-0.5-1.4-1.6-2.4-2.9-2.9c0.7,0,1.4-0.2,2.1-0.4c3.4-1.3,5.1-5.2,3.8-8.6c-0.7-1.9-2.2-3.3-4-3.9c2.8-1.1,4.2-4.2,3.1-7
		c-1-2.4-3.5-3.8-6-3.4c0.6-1,0.8-2.3,0.3-3.4c-0.2-0.6-0.6-1.1-1-1.5c0.1-0.8-0.1-1.7-0.5-2.5C197.4,102.1,194.6,101.2,192.3,102.3
		L192.3,102.3L192.3,102.3z"/>
</g>
<g>
	<path fill="#29ABE2" d="M447.4,52c0,0-1.9,23.8-30.6,31.5c-0.2,0.1-0.4,0.1-0.7,0.2c-8.1,2.1-16.2,2.4-23.7,1.7
		c-10.5-0.9-19.7-3.8-25.8-6.1c-1.6,3.7-4.4,8.5-9,11.8c-8.5,6-19.9,4.5-19.9,4.5s2.2-10.5,10-16.6c-9.8-1.4-17-9.4-17-9.4
		s9.1-7,19.5-6.1c5.6,0.5,10.4,3.3,13.7,5.7c4.1-5.1,10.6-12.2,19.3-18.3c6.1-4.3,13.3-8.2,21.4-10.5c0.2-0.1,0.4-0.2,0.7-0.2
		C433.9,32.5,447.5,52.1,447.4,52L447.4,52L447.4,52z"/>
	<path fill="#0E85AF" d="M410.7,73c-0.2,0-0.5-0.2-0.6-0.3c-1.9-2.8-3.3-5.6-4-8.5c-0.9-3.5-1.1-7.3-0.6-11.3c0-0.4,0.5-0.7,0.9-0.7
		c0.4,0,0.7,0.5,0.7,0.9c-0.5,3.9-0.3,7.5,0.5,10.7c0.7,2.7,2,5.4,3.8,8c0.3,0.3,0.2,0.8-0.2,1.1C411.1,72.9,410.9,73,410.7,73
		L410.7,73L410.7,73z"/>
	<path fill="#0E85AF" d="M420.8,76.7c0,0-0.3-0.1-0.4-0.2c-0.3-0.2-7.1-5.9-9.4-14.6c-2.4-8.7,0.7-17,0.8-17.4
		c0.1-0.4,0.6-0.6,1-0.5c0.4,0.1,0.6,0.6,0.5,1c0,0.1-3,8.2-0.8,16.4s8.8,13.7,8.9,13.8c0.3,0.3,0.4,0.8,0.1,1.1
		C421.3,76.6,421,76.7,420.8,76.7L420.8,76.7L420.8,76.7z"/>
	<path fill="#0E85AF" d="M421.2,55c1.9,0.2,3.5-1.3,3.7-3.1c0.2-1.9-1.3-3.5-3.1-3.7c-1.9-0.2-3.5,1.3-3.7,3.1
		C417.9,53.2,419.3,54.8,421.2,55z"/>
	<path fill="#29ABE2" d="M404.4,40.4c-8.1,2.3-15.2,6.1-21.4,10.5c-4.9-3.1-7.8-6.6-7.8-6.6s10.2-7.4,21.6-6.1
		C399.6,38.5,402.2,39.3,404.4,40.4L404.4,40.4L404.4,40.4z"/>
	<path fill="#0E85AF" d="M416.1,83.7c-1.4,2-3.3,4-5.5,5.7c-9.1,6.9-21.7,5.6-21.7,5.6s0.8-4.5,3.4-9.6
		C399.9,86.1,408,85.8,416.1,83.7L416.1,83.7z"/>
	<path fill="#0E85AF" d="M445.6,49.8c-0.4,2.9-3.8,23.9-30.6,31.2c-0.2,0.1-0.4,0.1-0.7,0.2c-8.1,2.1-16.2,2.4-23.7,1.7
		c-10.5-0.9-19.7-3.8-25.8-6.1c-1.6,3.7-4.4,8.5-9,11.8c-6,4.3-13.6,4.8-17.4,4.7c-0.5,1.5-0.7,2.4-0.7,2.4s11.4,1.5,19.9-4.5
		c4.6-3.3,7.4-8.1,9-11.8c6.1,2.3,15.3,5.1,25.8,6.1c7.5,0.7,15.6,0.4,23.7-1.7c0.2-0.1,0.4-0.1,0.7-0.2
		c28.8-7.8,30.6-31.5,30.6-31.5S446.8,51.1,445.6,49.8L445.6,49.8z"/>
	<path fill="#0E85AF" d="M380.7,48.8c0,0-0.2,0.2-0.3,0.2c0.8,0.6,1.7,1.2,2.7,1.9c6.1-4.3,13.3-8.2,21.4-10.5
		c-1.3-0.6-2.7-1.1-4.3-1.5C392.9,41.2,386.4,44.8,380.7,48.8L380.7,48.8L380.7,48.8z"/>
</g>
<g>
	<path fill="#F15A24" d="M63.5,192.3c9.2-6,19-11.7,28.6-17.1c1.6-0.9,5.8-3.2,7.3-4c1.7-0.9,5-0.6,4.9,1.9c-0.1,1.2-0.5,2.2-1.2,3
		l-2,2l-4,3.9c-5.1,5-10.8,10.5-16,15.3c-2.7,2.5-5.5,5-8.2,7.4c-3.3,2.8-8.2,2.4-11-0.8C58.9,200.4,59.7,194.9,63.5,192.3
		L63.5,192.3z"/>
	<path fill="#D6532B" d="M101.1,172.7c-0.1,1.2-0.5,2.2-1.2,3l-2,2l-4,3.9c-5.1,5-10.8,10.5-16,15.3c-2.7,2.5-5.5,5-8.2,7.4
		c-1.3,1.1-2.9,1.7-4.6,1.8c2.6,0.9,5.5,0.5,7.7-1.4c2.8-2.4,5.5-4.9,8.2-7.4c5.3-4.9,11-10.3,16-15.3l4-3.9l2-2
		c0.7-0.8,1.1-1.7,1.2-3c0-2.1-2.3-2.7-4-2.3C100.8,171.3,101.2,171.9,101.1,172.7L101.1,172.7L101.1,172.7z"/>
	<path fill="#9AC422" d="M47.5,200.5c0,0,2.9,3.5,7,4.2c-3.3,2.6-4.1,7.1-4.1,7.1s4.6,0.5,8-2c-0.5,4.1,2.1,7.9,2.1,7.9
		s3.7-3,4.2-7.2c0.5-3.7-1.4-7-2-7.9l0,0c0,0,0,0-0.1-0.1c0-0.1-0.1-0.1-0.1-0.1l0,0c-0.7-0.8-3.4-3.5-7-4.1
		C51.3,197.8,47.4,200.5,47.5,200.5L47.5,200.5L47.5,200.5z"/>
	<path fill="#8AA526" d="M53.9,198.3c0.1,0,0.2,0,0.3,0c3.7,0.5,6.4,3.3,7,4.1l0,0c0,0,0,0,0.1,0.1c0.1,0.1,0.1,0.1,0.1,0.1l0,0
		c0.5,0.8,2.5,4.2,2,7.9c-0.4,2.9-2.3,5.2-3.4,6.4c0.3,0.5,0.5,0.8,0.5,0.8s3.7-3,4.2-7.2c0.5-3.7-1.4-7-2-7.9l0,0c0,0,0,0-0.1-0.1
		c0-0.1-0.1-0.1-0.1-0.1l0,0c-0.7-0.8-3.4-3.5-7-4.1C55,198.3,54.4,198.3,53.9,198.3z"/>
</g>
<g>
	<path fill="#8CC63F" d="M767.3,503.4l3.8,4.3l15-13.1l-3.8-4.3L767.3,503.4z"/>
	<path fill="#7FAF33" d="M780.8,487.9l-5.5-1.5l-6,21.7l5.5,1.5L780.8,487.9z"/>
	<path fill="#83B732" d="M763.7,512.2l3.3,4.7l22.6-15.8l-3.3-4.7L763.7,512.2z"/>
	<path fill="#8CC63F" d="M769.2,514.4l5-29l-5.6-1l-4.8,27.9l-20.7,32.5l4.8,3.1L769.2,514.4L769.2,514.4L769.2,514.4L769.2,514.4z"
		/>
	<path fill="#ECEDD1" d="M752,530.9l-8.6,12.7c-1.1,1.5-0.6,3.6,1,4.6c1.6,1,3.7,0.5,4.6-1.1l7.9-13.2L752,530.9L752,530.9z"/>
	<path fill="#83B732" d="M752,530.9l0.9,0.6l12.8-20.2l4.6-26.6l-1.6-0.3l-4.8,27.9L752,530.9L752,530.9z"/>
	<path fill="#DBDBC6" d="M745.8,547.9c-1.6-1-2-3.1-1-4.6l8-11.9l-0.9-0.6l-8.6,12.7c-1.1,1.5-0.6,3.6,1,4.6c1,0.6,2.2,0.7,3.2,0.2
		C746.9,548.4,746.3,548.3,745.8,547.9L745.8,547.9L745.8,547.9z"/>
</g>
<g>
	<path fill="#29ABE2" d="M661.7,645.5c0,0,12.9,12,33.6,0.5c0.2-0.1,0.3-0.2,0.5-0.3c5.8-3.3,10.7-7.6,14.8-12
		c5.7-6.2,9.7-12.9,12.1-17.5c2.8,1.2,6.8,2.3,11.1,1.5c8-1.3,13.9-8.4,13.9-8.4s-6.5-4.6-14.1-3.7c5.1-6.1,5.3-14.4,5.3-14.4
		s-8.8,1.1-14.5,7.3c-3,3.4-4.5,7.5-5.2,10.6c-5-0.5-12.3-0.8-20.4,0.5c-5.8,1-11.9,2.8-17.7,5.9c-0.2,0.1-0.3,0.2-0.5,0.2
		C659.9,627.4,661.7,645.5,661.7,645.5L661.7,645.5L661.7,645.5z"/>
	<path fill="#0E85AF" d="M693.6,636.9c0.1-0.1,0.2-0.3,0.2-0.5c-0.3-2.6-0.9-4.8-1.8-6.9c-1.2-2.4-3-4.6-5.3-6.5
		c-0.2-0.2-0.6-0.2-0.8,0.1c-0.2,0.3-0.2,0.6,0,0.8c2.2,1.8,3.9,3.9,5,6.2c0.9,1.9,1.5,4.1,1.7,6.5c0,0.3,0.3,0.5,0.7,0.5
		C693.3,637.1,693.5,637,693.6,636.9L693.6,636.9L693.6,636.9z"/>
	<path fill="#0E85AF" d="M689.5,644.4c0,0,0.2-0.2,0.2-0.3c0.1-0.3,1.3-7.1-1.7-13.1c-2.9-6.1-8.8-8.9-9.1-9.1
		c-0.3-0.2-0.7,0-0.8,0.3c-0.2,0.3-0.1,0.6,0.2,0.8c0,0,5.8,2.9,8.6,8.6c2.8,5.7,1.6,12.3,1.6,12.4c-0.1,0.3,0.2,0.6,0.5,0.6
		C689.2,644.6,689.4,644.5,689.5,644.4L689.5,644.4L689.5,644.4z"/>
	<path fill="#0E85AF" d="M678.5,632.8c-1,1.1-2.7,1.2-3.7,0.3c-1-1-1-2.6,0-3.7c1-1.1,2.7-1.2,3.7-0.3
		C679.5,630,679.5,631.7,678.5,632.8z"/>
	<path fill="#29ABE2" d="M681.1,615.6c5.9-3.2,12-5,17.7-5.9c1.3-4.3,1.3-7.9,1.3-7.9s-9.7,1.5-15.7,8.5
		C683,611.9,681.9,613.8,681.1,615.6L681.1,615.6L681.1,615.6z"/>
	<path fill="#0E85AF" d="M695.8,645.7c1.9,0.3,3.9,0.4,6,0.1c8.8-1.2,15.5-8.8,15.5-8.8s-2.7-2.1-6.8-3.4
		C706.5,638.1,701.6,642.4,695.8,645.7z"/>
	<path fill="#0E85AF" d="M661.6,643.2c1.7,1.4,14.1,11,33.4,0.3c0.2-0.1,0.3-0.2,0.5-0.3c5.8-3.3,10.7-7.6,14.8-12
		c5.7-6.2,9.7-12.9,12.1-17.5c2.8,1.2,6.8,2.3,11.1,1.5c5.7-0.9,10.3-4.8,12.5-6.9c1,0.5,1.6,0.9,1.6,0.9s-5.9,7.1-13.9,8.4
		c-4.3,0.7-8.3-0.4-11.1-1.5c-2.4,4.6-6.4,11.2-12.1,17.5c-4,4.5-9,8.8-14.8,12c-0.2,0.1-0.3,0.2-0.5,0.3
		c-20.7,11.5-33.6-0.5-33.6-0.5S661.5,644.6,661.6,643.2L661.6,643.2z"/>
	<path fill="#0E85AF" d="M699.2,607.3c0,0,0.2,0,0.3,0c-0.2,0.8-0.4,1.6-0.7,2.5c-5.8,1-11.9,2.8-17.7,5.9c0.5-1.1,1.1-2.1,1.8-3.2
		C688.3,609.8,693.9,608.2,699.2,607.3L699.2,607.3L699.2,607.3z"/>
</g>
<g>
	<path fill="#AD5151" d="M547.9,20.9l7.5,35.8l3.6-3.5l-7.1-33.7C550.6,20.1,549.3,20.6,547.9,20.9L547.9,20.9z M562.4,17.3
		l5.8,27.3l2.4-2.3c5.6-5.5,5.9-14.5,0.6-20.4C568.9,19.3,565.7,17.7,562.4,17.3L562.4,17.3z M554.9,18.1l6.9,32.5l3.6-3.5l-6.3-30
		C557.7,17.3,556.3,17.6,554.9,18.1L554.9,18.1L554.9,18.1z M540.3,21.1c-7.5-1.6-15.8,0.5-21.6,6.6c-8.1,8.5-8.6,21.9-1.1,30.9
		c8.7,10.4,24.2,11.1,33.8,2l1.3-1.2l-8-37.9C543.2,21.5,541.7,21.4,540.3,21.1L540.3,21.1z M533.7,48.4c-2,1.9-5.1,1.8-7-0.2
		c-1.9-2-1.8-5.1,0.2-7c2-1.9,5.1-1.8,7,0.2C535.8,43.4,535.7,46.5,533.7,48.4z"/>
	<path fill="#994848" d="M562.4,17.3l5.8,27.3l-2.7,2.6l-6.3-30C560.2,17.1,561.3,17.1,562.4,17.3L562.4,17.3L562.4,17.3z"/>
	<path fill="#994848" d="M554.9,18.1l6.9,32.5l-2.7,2.6l-7.1-33.7c0.4-0.2,0.8-0.4,1.2-0.6c0.1,0,0.2-0.1,0.3-0.1
		C553.9,18.5,554.4,18.3,554.9,18.1L554.9,18.1L554.9,18.1z"/>
	<path fill="#994848" d="M547.9,20.9l7.5,35.8l-2.7,2.6l-8-37.9C545.7,21.3,546.8,21.1,547.9,20.9L547.9,20.9L547.9,20.9z"/>
	<path opacity="0.1" enable-background="new    " d="M565.4,47.2l2.7-2.6l2.4-2.3c4.1-4.1,5.4-10,3.7-15.2l-28.8,27.4
		c-10.2,9.7-26.9-1.8-32.8-6.5c0.7,3.8,2.4,7.4,5,10.5c8.7,10.4,24.2,11.1,33.8,2l1.3-1.2l2.7-2.6l3.6-3.5l2.7-2.6L565.4,47.2
		L565.4,47.2L565.4,47.2z"/>
</g>
<g>
	<path fill="#F9D53D" d="M815.1,159.9c2.7-2.1,6.5-1.7,8.6,1l6.3-5l-49-61.9l-30.4,24c-2.9,2.3-3.4,6.5-1.1,9.3l7.3,9.3
		c3.3-2.6,8-2,10.6,1.2c2.6,3.3,2,8-1.2,10.6l24.1,30.5c2.3,2.9,6.5,3.4,9.3,1.1l14.5-11.4C811.9,165.8,812.4,162,815.1,159.9
		L815.1,159.9z"/>
	<path fill="#E8B321" d="M781,94c6.5-5.1,16-4,21.1,2.5c0.9,1.2,1.7,2.4,2.2,3.8l25.8,55.6L781,94"/>
	<path fill="#E8B321" d="M777.5,116.9c1.4,1.8,4.1,2.1,5.9,0.7c1.8-1.4,2.1-4.1,0.7-5.9c-1.4-1.8-4.1-2.1-5.9-0.7
		C776.3,112.4,776,115,777.5,116.9z"/>
	<path fill="#E8B321" d="M788.2,144.1c2.6,3.3,7.3,3.8,10.6,1.2c3.3-2.6,3.8-7.3,1.2-10.6c-2.6-3.3-7.3-3.8-10.6-1.2
		C786.2,136,785.6,140.8,788.2,144.1z"/>
	<path fill="#E8B321" d="M791.3,168c1.1,1.4,3.2,1.7,4.6,0.5c1.4-1.1,1.7-3.2,0.5-4.6c-1.1-1.4-3.2-1.7-4.6-0.5
		C790.4,164.5,790.2,166.6,791.3,168z"/>
	<path fill="#E8B321" d="M762.7,123.6c0.9,1.2,2.6,1.4,3.8,0.5c1.2-0.9,1.4-2.6,0.5-3.8c-0.9-1.2-2.6-1.4-3.8-0.5
		C762,120.8,761.8,122.5,762.7,123.6z"/>
	<path fill="#E8B321" d="M811.6,150.5c1.3,1.6,3.6,1.9,5.2,0.6c1.6-1.3,1.9-3.6,0.6-5.2c-1.3-1.6-3.6-1.9-5.2-0.6
		C810.6,146.5,810.4,148.9,811.6,150.5L811.6,150.5z"/>
	<path fill="#E8B321" d="M775.6,150.8c1.3,1.6,3.6,1.9,5.2,0.6c1.6-1.3,1.9-3.6,0.6-5.2c-1.3-1.6-3.6-1.9-5.2-0.6
		C774.6,146.8,774.4,149.2,775.6,150.8z"/>
	<path fill="#E8B321" d="M755.1,128.4c-2.3-2.9-1.8-7.1,1.1-9.3l25.9-23.8l-1-1.3l-30.4,24c-2.9,2.3-3.4,6.5-1.1,9.3l7.3,9.3
		c1.1-0.8,2.3-1.3,3.5-1.5L755.1,128.4L755.1,128.4z"/>
	<path fill="#E8B321" d="M768.5,145.3c-0.5,1.1-1.2,2.2-2.3,3l24.1,30.5c1.6,2.1,4.2,2.8,6.6,2.4L768.5,145.3L768.5,145.3z"/>
</g>
<g>
	<path fill="#F15A24" d="M840,238.1c-0.9,14.8-2.6,29.9-4.4,44.7c-0.3,2.4-1.1,8.8-1.4,11.2c-0.4,2.6-3.3,5.9-6,3.8
		c-1.3-1.1-2-2.2-2.3-3.7l-0.6-3.7l-1.1-7.4c-1.4-9.6-2.7-20.1-3.8-29.7c-0.5-5-1-9.9-1.4-14.9c-0.4-5.8,4-10.8,9.7-11.2
		C835,226.6,840.3,231.9,840,238.1L840,238.1z"/>
	<path fill="#D6532B" d="M831.1,294.6c-1.3-1.1-2-2.2-2.3-3.7l-0.6-3.7l-1.1-7.4c-1.4-9.6-2.7-20.1-3.8-29.7c-0.5-5-1-9.9-1.4-14.9
		c-0.2-2.4,0.5-4.6,1.7-6.4c-3,2-4.9,5.6-4.7,9.5c0.3,5,0.9,9.9,1.4,14.9c1.1,9.6,2.4,20.1,3.8,29.7l1.1,7.4l0.6,3.7
		c0.3,1.5,1,2.6,2.3,3.7c2.3,1.8,4.8-0.3,5.7-2.5C832.9,295.4,832,295.3,831.1,294.6L831.1,294.6L831.1,294.6z"/>
	<path fill="#9AC422" d="M844,214.2c0,0-6.2,0.3-10.2,4.2c-0.2-5.6-4.4-10.2-4.4-10.2s-4.2,4.6-4.2,10.2c-4.1-3.8-10.3-4-10.3-4
		s0.3,6.3,4.4,10.4c3.5,3.5,8.8,4.1,10.1,4.2l0,0c0,0,0.1,0,0.2,0c0.1,0,0.2,0,0.2,0l0,0c1.4-0.1,6.6-0.8,10-4.4
		C843.8,220.5,844,214.1,844,214.2L844,214.2L844,214.2z"/>
	<path fill="#8AA526" d="M841.2,222.8c-0.1,0.1-0.2,0.2-0.3,0.3c-3.5,3.5-8.7,4.2-10,4.4l0,0c0,0-0.1,0-0.2,0c-0.1,0-0.2,0-0.2,0
		l0,0c-1.4-0.1-6.6-0.7-10.1-4.2c-2.8-2.8-3.8-6.7-4.2-8.8c-0.8-0.1-1.3-0.1-1.3-0.1s0.3,6.3,4.4,10.4c3.5,3.5,8.8,4.1,10.1,4.2l0,0
		c0,0,0.1,0,0.2,0c0.1,0,0.2,0,0.2,0l0,0c1.4-0.1,6.6-0.8,10-4.4C840.3,224,840.8,223.5,841.2,222.8L841.2,222.8z"/>
</g>
<g>
	<path fill="#8CC63F" d="M684.3,58.3l5-2.9l-9.9-17.3l-5,2.9L684.3,58.3z"/>
	<path fill="#7FAF33" d="M671.6,42l-2.6,5.1l20.1,10.1l2.6-5.1L671.6,42z"/>
	<path fill="#83B732" d="M692.2,63.5l5.3-2.3l-11.1-25.2l-5.3,2.3L692.2,63.5z"/>
	<path fill="#8CC63F" d="M695.4,58.5L667.8,48l-2,5.3l26.4,10.1l28,26.6l3.9-4.1L695.4,58.5L695.4,58.5L695.4,58.5L695.4,58.5z"/>
	<path fill="#ECEDD1" d="M708.3,78.6l10.8,10.9c1.3,1.3,3.4,1.3,4.7-0.1c1.3-1.3,1.2-3.5-0.2-4.7l-11.4-10.3L708.3,78.6L708.3,78.6
		L708.3,78.6z"/>
	<path fill="#83B732" d="M708.3,78.6l0.7-0.8l-17.3-16.5l-25.2-9.7l-0.6,1.6l26.4,10.1L708.3,78.6L708.3,78.6z"/>
	<path fill="#DBDBC6" d="M723.8,88c-1.3,1.3-3.4,1.4-4.7,0.1L709,77.9l-0.7,0.8l10.8,10.9c1.3,1.3,3.4,1.3,4.7-0.1
		c0.8-0.9,1.1-2,0.8-3.1C724.5,87,724.2,87.5,723.8,88L723.8,88L723.8,88z"/>
</g>
<g>
	<path fill="#9AC422" d="M822.4,398.2l-3.7-4.2c-1.7,0.5-3.3,1.2-4.8,2.1c-1.4,0.8-2.8,1.7-4.1,2.7c-1.9,1.6-3.8,3.4-5.4,5.5
		c1.1-4.6,2.1-9.2,2.6-14l-5.7-1.6c-1.5,4.2-2.6,8.5-3.6,12.8c0,0,0,0.1,0,0.1c0-1.5,0-2.9,0-4.4c-0.1-4.1-0.3-8.2-0.7-12.2
		l-5.8-0.3c0.1,1.6,0.2,3.2,0.3,4.7c0.1,2.4,0.2,4.8,0.3,7.1c0,3.1,0,6.2-0.4,9.3c-0.3,2.3-0.8,4.4-1.3,6.7
		c-0.8,2.9-1.6,5.9-2.7,8.7l0,0c-0.7,2.4,2.1,5.6,6.5,7.2c4.3,1.6,8.8,1.1,9.7-1.3c0.6-1.4,1.6-4.3,2.1-5.7c0.8-2.1,1.5-4.1,2.2-6.2
		l0.7-2.1c0.5-1.6,1.7-3.3,2.9-4.7C814.6,404.6,819,401.8,822.4,398.2L822.4,398.2L822.4,398.2z"/>
	<path fill="#88B212" d="M793.9,415.7c1.7-5.8,0.6-24.3,0.6-24.3l-2.9,1.4c0,1.3,0.1,2.5,0.1,3.8c0,3.1,0,6.2-0.4,9.3
		c-0.3,2.3-0.8,4.4-1.3,6.7c-0.8,2.9-1.6,5.9-2.7,8.7l0,0c-0.7,2.4,2.1,5.6,6.5,7.2c4.4,1.7,8.8,1.1,9.7-1.3
		c0.5-1.1,1.2-3.3,1.8-4.8C800.9,420.6,792.4,420.9,793.9,415.7L793.9,415.7L793.9,415.7z"/>
	<path fill="#3E662D" d="M835.1,388.9c0,0-0.1,0-0.1,0c1.4-0.4,2.6-1.5,3.1-3c0.8-2.4-0.6-5-3-5.7c-0.8-0.2-1.5-0.3-2.3-0.1
		c0.6-0.6,1.1-1.4,1.4-2.2c0.8-2.7-0.7-5.7-3.4-6.5c-1.4-0.5-3-0.2-4.2,0.5c0.4-0.6,0.8-1.2,1-2c1.1-3.6-0.9-7.4-4.5-8.5
		c-2-0.6-4-0.3-5.7,0.7c0.9-3-0.7-6.1-3.7-7c-2.6-0.8-5.3,0.3-6.6,2.6c-0.4-1.1-1.3-2.1-2.5-2.4c-2.1-0.7-4.3,0.5-5,2.6
		c-0.1,0.4-0.2,0.7-0.2,1.1c-0.4-0.9-1.1-1.7-2.1-2c-1.8-0.5-3.6,0.4-4.2,2.2c-0.1,0.2-0.1,0.5-0.1,0.7c-0.3-0.2-0.6-0.2-0.9-0.4
		c-3-0.9-6.1,0.7-7,3.7c-0.4,1.1-0.3,2.3,0,3.3c-3.1-0.3-6.1,1.7-7.1,4.8c-1,3.1,0.5,6.7,3.5,8.2c-0.8,0.6-1.4,1.5-1.8,2.5
		c-0.8,2.7,0.7,5.6,3.4,6.4c1.9,0.6,3.9,0,5.2-1.3c-0.1,0.1-0.1,0.3-0.2,0.4c-1,3.2,0.8,6.6,4,7.6c2.7,0.8,5.6-0.3,7-2.6
		c0.3,2.3,1.8,4.4,4.2,5.1c2.1,0.7,4.3,0.1,5.8-1.2c0.2,1.3,1.1,2.4,2.5,2.8c0.9,0.3,1.9,0.2,2.7-0.2c-0.1,1.7,0.9,3.2,2.5,3.7
		c1.7,0.5,3.5-0.3,4.3-1.8c0.6,0.9,1.6,1.7,2.7,2.1c2.7,0.8,5.6-0.7,6.4-3.4c0.3-1,0.3-2.1,0-3c0.5,0.6,1.2,1,2,1.2
		c2.4,0.8,5-0.6,5.7-3C838.9,392.2,837.6,389.6,835.1,388.9L835.1,388.9L835.1,388.9z M820.6,396.4L820.6,396.4
		C820.6,396.4,820.6,396.4,820.6,396.4L820.6,396.4L820.6,396.4z"/>
	<path fill="#487534" d="M838.1,394.6c0.3-0.9,0.3-1.8,0-2.7c-0.4-1.4-1.5-2.6-3-3.1c1.4-0.5,2.5-1.5,3-3c0.8-2.4-0.6-5-3-5.7
		c-0.8-0.2-1.5-0.3-2.3-0.1c0.6-0.6,1.1-1.4,1.4-2.2c0.8-2.7-0.7-5.7-3.4-6.5c-1.4-0.5-3-0.2-4.2,0.5c0.4-0.6,0.8-1.2,1-2
		c1.1-3.6-0.9-7.4-4.5-8.5c-2-0.6-4-0.3-5.7,0.7c0.9-3-0.7-6.1-3.7-7c-2.6-0.8-5.3,0.3-6.6,2.6c-0.4-1.1-1.3-2.1-2.5-2.4
		c-2.1-0.7-4.3,0.5-5,2.6c-0.1,0.2-0.1,0.5-0.2,0.7c0.5,1,1.3,1.8,2.3,2.2c0,0,0.1,0,0.1,0c-1.4,0.3-2.6,1.2-3.2,2.7
		c-0.9,2.3,0.1,4.9,2.4,5.8c0.7,0.3,1.4,0.4,2.2,0.3c-0.7,0.5-1.2,1.2-1.6,2c-1.1,2.6,0.2,5.5,2.7,6.6c1.4,0.6,2.8,0.5,4.1-0.1
		c-0.5,0.5-0.8,1.1-1.1,1.8c-1.4,3.4,0.2,7.2,3.6,8.7c1.9,0.8,3.9,0.6,5.6-0.2c-1.1,2.8,0.2,6,2.9,7.1c2.4,1,5.2,0.1,6.6-2
		c0.3,1.1,1.1,2.1,2.2,2.6c0.6,0.2,1.2,0.3,1.8,0.3c0.5,0.7,1.3,1.1,2.1,1.4C834.7,398.5,837.3,397.1,838.1,394.6L838.1,394.6
		L838.1,394.6z"/>
</g>
<g>
	<path fill="#F15A24" d="M619.5,712.1c-8.6,6.9-17.8,13.5-26.7,19.8c-1.5,1-5.4,3.8-6.9,4.7c-1.6,1.1-4.9,1.1-5.1-1.4
		c-0.1-1.2,0.2-2.2,0.9-3.1l1.8-2.1l3.5-4.3c4.6-5.5,9.7-11.5,14.5-16.8c2.5-2.7,4.9-5.5,7.5-8.2c3-3.1,7.9-3.2,11-0.2
		C623.4,703.7,623.1,709.2,619.5,712.1L619.5,712.1z"/>
	<path fill="#D6532B" d="M584,735.3c-0.1-1.2,0.2-2.2,0.9-3.1l1.8-2.1l3.5-4.3c4.6-5.5,9.7-11.5,14.5-16.8c2.5-2.7,4.9-5.5,7.5-8.2
		c1.2-1.3,2.7-2,4.4-2.3c-2.6-0.7-5.5,0.1-7.5,2.1c-2.6,2.7-5,5.4-7.5,8.2c-4.8,5.4-9.9,11.3-14.5,16.8l-3.5,4.3l-1.8,2.1
		c-0.7,0.9-1,1.8-0.9,3.1c0.2,2.1,2.5,2.5,4.2,1.9C584.5,736.7,584.1,736.2,584,735.3L584,735.3L584,735.3z"/>
	<path fill="#9AC422" d="M634.7,702.4c0,0-3.2-3.2-7.4-3.5c3-2.9,3.4-7.5,3.4-7.5s-4.6,0-7.7,2.8c0.1-4.2-2.9-7.6-2.9-7.6
		s-3.4,3.3-3.5,7.6c-0.2,3.7,2.1,6.9,2.7,7.6l0,0c0,0,0,0,0.1,0.1c0,0.1,0.1,0.1,0.1,0.1l0,0c0.7,0.7,3.7,3.2,7.4,3.4
		C631.2,705.4,634.8,702.4,634.7,702.4L634.7,702.4L634.7,702.4z"/>
	<path fill="#8AA526" d="M628.6,705.2c-0.1,0-0.2,0-0.3,0c-3.7-0.2-6.6-2.7-7.4-3.4l0,0c0,0,0,0-0.1-0.1c-0.1-0.1-0.1-0.1-0.1-0.1
		l0,0c-0.6-0.8-2.9-4-2.7-7.7c0.1-2.9,1.8-5.4,2.8-6.7c-0.3-0.5-0.6-0.8-0.6-0.8s-3.4,3.3-3.5,7.6c-0.2,3.7,2.1,6.9,2.7,7.6l0,0
		c0,0,0,0,0.1,0.1c0,0.1,0.1,0.1,0.1,0.1l0,0c0.7,0.7,3.7,3.2,7.4,3.4C627.5,705.3,628,705.3,628.6,705.2L628.6,705.2z"/>
</g>
</svg>
