<?xml version="1.0" encoding="utf-8"?>
<!-- Generator: Adobe Illustrator 28.0.0, SVG Export Plug-In . SVG Version: 6.00 Build 0)  -->
<svg version="1.1" id="animated-svg3" xmlns="http://www.w3.org/2000/svg" xmlns:xlink="http://www.w3.org/1999/xlink" x="0px" y="0px"
	 viewBox="0 0 1366 768" enable-background="new 0 0 1366 768" xml:space="preserve">
<g>
	<path fill="#9AC422" d="M495.5,356.4l5.4-1.4c0.3-1.8,0.4-3.5,0.3-5.2c-0.1-1.7-0.3-3.3-0.6-4.9c-0.6-2.5-1.3-5-2.4-7.3
		c3.6,3.1,7.3,6,11.3,8.6l4-4.4c-3.1-3.2-6.4-6.1-9.8-9c0,0-0.1,0-0.1-0.1c1.3,0.7,2.6,1.4,3.9,2c3.7,1.8,7.4,3.4,11.2,4.9l2.9-5
		c-1.4-0.6-2.9-1.2-4.4-1.8c-2.2-0.9-4.4-1.9-6.5-3c-2.8-1.4-5.5-2.8-8.1-4.5c-1.9-1.3-3.6-2.7-5.3-4.2c-2.3-2-4.5-4.1-6.5-6.3l0,0
		c-1.8-1.7-5.9-0.6-9.3,2.5c-3.4,3.1-4.9,7.4-3.2,9.2c0.9,1.2,3.1,3.4,4.1,4.5c1.5,1.6,3,3.2,4.6,4.8l1.5,1.5c1.2,1.2,2.2,3,2.9,4.7
		C493.2,346.6,493.7,351.8,495.5,356.4L495.5,356.4L495.5,356.4z"/>
	<path fill="#88B212" d="M492.6,323.1c4.4,4.1,21.4,11.6,21.4,11.6l0-3.2c-1.1-0.5-2.3-1.1-3.4-1.6c-2.8-1.4-5.5-2.8-8.1-4.5
		c-1.9-1.3-3.6-2.7-5.3-4.2c-2.3-2-4.5-4.1-6.5-6.3l0,0c-1.8-1.7-5.9-0.6-9.3,2.5c-3.5,3.2-4.9,7.4-3.2,9.2c0.7,0.9,2.4,2.6,3.5,3.8
		C485.1,327.2,488.7,319.5,492.6,323.1L492.6,323.1L492.6,323.1z"/>
	<path fill="#3E662D" d="M498,372C498,372,498,371.9,498,372c-0.2,1.4,0.3,2.9,1.4,4c1.8,1.8,4.7,1.7,6.5-0.1c0.6-0.6,0.9-1.2,1.1-2
		c0.2,0.9,0.7,1.6,1.4,2.3c2,2,5.3,2,7.3-0.1c1.1-1.1,1.5-2.5,1.5-3.9c0.3,0.6,0.8,1.2,1.3,1.8c2.7,2.6,7,2.6,9.6-0.1
		c1.5-1.5,2.1-3.5,1.9-5.4c2.2,2.2,5.8,2.1,7.9-0.1c1.9-1.9,2.1-4.9,0.6-7.1c1.2,0.1,2.4-0.2,3.3-1.2c1.5-1.6,1.5-4.1-0.1-5.6
		c-0.3-0.2-0.6-0.5-0.9-0.6c1,0.1,2-0.2,2.7-1c1.3-1.3,1.3-3.4-0.1-4.7c-0.2-0.2-0.4-0.3-0.5-0.4c0.3-0.2,0.5-0.4,0.7-0.6
		c2.2-2.2,2.1-5.8-0.1-7.9c-0.9-0.8-1.9-1.3-3-1.5c1.6-2.7,1.3-6.2-1.1-8.5c-2.3-2.3-6.2-2.6-8.9-0.6c-0.2-1-0.7-2-1.5-2.7
		c-2-2-5.3-1.9-7.2,0.1c-1.4,1.4-1.8,3.4-1.2,5.2c-0.1-0.1-0.2-0.2-0.3-0.3c-2.4-2.3-6.2-2.3-8.6,0.1c-2,2-2.3,5.1-0.8,7.4
		c-2.2-0.8-4.8-0.3-6.5,1.5c-1.5,1.6-2.1,3.7-1.5,5.7c-1.3-0.4-2.7-0.1-3.7,0.9c-0.7,0.7-1,1.6-1,2.5c-1.4-0.9-3.3-0.7-4.5,0.6
		c-1.2,1.2-1.4,3.3-0.3,4.7c-1.1,0.1-2.2,0.6-3.1,1.5c-2,2-1.9,5.3,0.1,7.2c0.8,0.7,1.7,1.2,2.7,1.4c-0.7,0.2-1.4,0.6-2,1.2
		c-1.8,1.8-1.7,4.7,0.1,6.5C493.3,373.9,496.2,373.8,498,372L498,372L498,372z M497.8,355.6L497.8,355.6L497.8,355.6L497.8,355.6
		L497.8,355.6L497.8,355.6z"/>
	<path fill="#487534" d="M491.5,372.1c0.7,0.7,1.5,1.1,2.4,1.2c1.5,0.3,3-0.2,4.1-1.3c-0.2,1.4,0.2,2.9,1.3,4
		c1.8,1.8,4.7,1.7,6.5-0.1c0.6-0.6,0.9-1.2,1.1-2c0.2,0.9,0.7,1.6,1.4,2.3c2,2,5.3,2,7.3-0.1c1.1-1.1,1.5-2.5,1.5-3.9
		c0.3,0.6,0.8,1.2,1.3,1.8c2.7,2.6,7,2.6,9.6-0.1c1.5-1.5,2.1-3.5,1.9-5.4c2.2,2.2,5.8,2.1,7.9-0.1c1.9-1.9,2.1-4.9,0.6-7.1
		c1.2,0.1,2.4-0.2,3.3-1.2c1.5-1.6,1.5-4.1-0.1-5.6c-0.2-0.2-0.4-0.3-0.6-0.5c-1.1,0-2.2,0.3-3.1,1.1c0,0-0.1,0-0.1,0.1
		c0.4-1.4,0.1-2.9-0.9-4.1c-1.6-1.9-4.4-2.1-6.3-0.5c-0.6,0.5-1,1.1-1.3,1.8c-0.2-0.8-0.5-1.6-1.1-2.3c-1.8-2.1-5-2.3-7.1-0.6
		c-1.1,1-1.7,2.3-1.8,3.7c-0.3-0.6-0.6-1.3-1.1-1.8c-2.4-2.8-6.6-3.1-9.3-0.7c-1.5,1.3-2.3,3.2-2.3,5.1c-2-2.3-5.4-2.5-7.7-0.6
		c-2,1.7-2.5,4.5-1.2,6.8c-1.1-0.3-2.4,0-3.3,0.8c-0.5,0.4-0.8,0.9-1,1.4c-0.8,0.2-1.6,0.6-2.2,1.3
		C489.6,367.3,489.6,370.3,491.5,372.1L491.5,372.1L491.5,372.1z"/>
</g>
<g>
	<path fill="#29ABE2" d="M587.1,392.7c0,0-3.1,27,23.5,41c0.2,0.1,0.4,0.2,0.6,0.3c7.5,3.9,15.5,5.6,23,6.2
		c10.5,0.9,20.2-0.7,26.7-2.1c0.8,4.5,2.5,10.4,6.3,14.9c7.1,8.3,18.6,8.7,18.6,8.7s0.1-12.2-6.3-20.5c9.9,0.3,18.7-7.4,18.7-7.4
		s-7.5-9.6-17.9-10.4c-5.6-0.5-10.9,1.7-14.6,3.9c-3-6.5-7.9-15.6-15.1-24c-5.1-6-11.3-11.7-18.8-15.7c-0.2-0.1-0.4-0.2-0.6-0.4
		C604.5,373.2,587.1,392.7,587.1,392.7L587.1,392.7L587.1,392.7z"/>
	<path fill="#0E85AF" d="M618.8,422.9c0.2,0,0.5-0.1,0.6-0.3c2.4-2.8,4.4-5.7,5.7-8.8c1.7-3.7,2.7-8,2.9-12.6
		c0.1-0.5-0.3-0.9-0.7-0.9c-0.4,0-0.8,0.4-0.9,0.9c-0.3,4.4-1.2,8.4-2.8,12c-1.3,2.9-3.1,5.7-5.4,8.3c-0.3,0.3-0.3,0.9,0,1.3
		C618.4,422.8,618.6,422.9,618.8,422.9L618.8,422.9L618.8,422.9z"/>
	<path fill="#0E85AF" d="M608.2,425.3c0,0,0.3,0,0.4-0.1c0.3-0.2,8.2-5.3,12.3-14.6c4.1-9.4,2.9-19.2,2.8-19.7
		c0-0.5-0.5-0.8-0.9-0.7c-0.4,0.1-0.7,0.5-0.7,1c0,0.1,1.2,9.7-2.7,18.6c-3.9,8.8-11.6,13.8-11.7,13.8c-0.4,0.3-0.5,0.8-0.3,1.2
		C607.7,425.1,607.9,425.2,608.2,425.3L608.2,425.3L608.2,425.3z"/>
	<path fill="#0E85AF" d="M612.3,400.8c-1.9-0.2-3.2-2.1-3-4.2c0.2-2.1,2-3.7,3.9-3.6c1.9,0.2,3.2,2.1,3,4.2
		C615.9,399.4,614.2,401,612.3,400.8z"/>
	<path fill="#29ABE2" d="M631.8,387.5c7.4,4,13.7,9.7,18.8,15.7c5.4-2.6,9-6,9-6s-8.5-10.2-20-10.8
		C637,386.3,634.3,386.7,631.8,387.5L631.8,387.5L631.8,387.5z"/>
	<path fill="#0E85AF" d="M611.3,434.1c1,2.6,2.4,5.1,4.2,7.4c7.5,9.4,20.1,10.3,20.1,10.3s0.2-5.2-1.4-11.4
		C626.7,439.7,618.8,437.9,611.3,434.1L611.3,434.1z"/>
	<path fill="#0E85AF" d="M589.4,390.6c-0.2,3.3-1.3,27.6,23.5,40.6c0.2,0.1,0.4,0.2,0.6,0.3c7.5,3.9,15.5,5.6,23,6.2
		c10.5,0.9,20.2-0.7,26.7-2.1c0.8,4.5,2.5,10.4,6.3,14.9c5,5.9,12.3,7.9,16.1,8.5c0.2,1.7,0.2,2.8,0.2,2.8s-11.5-0.4-18.6-8.7
		c-3.8-4.5-5.6-10.4-6.3-14.9c-6.5,1.5-16.1,3-26.7,2.1c-7.5-0.6-15.4-2.4-23-6.2c-0.2-0.1-0.4-0.2-0.6-0.3
		c-26.7-14-23.5-41-23.5-41S587.9,391.8,589.4,390.6L589.4,390.6z"/>
	<path fill="#0E85AF" d="M653.4,401.3c0,0,0.2,0.2,0.2,0.3c-0.9,0.5-1.9,1.1-3,1.6c-5.1-6-11.3-11.7-18.8-15.7
		c1.4-0.4,2.9-0.7,4.5-0.9C643,390.5,648.6,395.8,653.4,401.3L653.4,401.3L653.4,401.3z"/>
</g>
<g>
	<path fill="#F15A24" d="M295.2,258.1c-11-0.7-22.2-1.9-33.1-3.3c-1.8-0.2-6.5-0.8-8.3-1.1c-1.9-0.3-4.3-2.5-2.8-4.5
		c0.8-1,1.7-1.5,2.7-1.7l2.7-0.4l5.5-0.8c7.1-1,14.9-2,22-2.8c3.7-0.4,7.4-0.8,11-1c4.3-0.3,8,2.9,8.3,7.2
		C303.7,254.4,299.8,258.4,295.2,258.1L295.2,258.1z"/>
	<path fill="#D6532B" d="M253.3,251.5c0.8-1,1.7-1.5,2.7-1.7l2.7-0.4l5.5-0.8c7.1-1,14.9-2,22-2.8c3.7-0.4,7.4-0.8,11-1
		c1.7-0.1,3.4,0.4,4.8,1.2c-1.5-2.3-4.1-3.7-7-3.5c-3.7,0.3-7.3,0.6-11,1c-7.1,0.8-14.9,1.8-22,2.8l-5.5,0.8l-2.7,0.4
		c-1.1,0.2-2,0.7-2.7,1.7c-1.3,1.7,0.2,3.5,1.9,4.2C252.7,252.8,252.8,252.1,253.3,251.5L253.3,251.5L253.3,251.5z"/>
	<path fill="#9AC422" d="M313,261.1c0,0-0.2-4.6-3.1-7.6c4.2-0.1,7.5-3.3,7.5-3.3s-3.4-3.1-7.6-3.1c2.9-3,3-7.6,3-7.6
		s-4.7,0.2-7.7,3.3c-2.6,2.6-3,6.5-3.1,7.5l0,0c0,0,0,0.1,0,0.1c0,0.1,0,0.1,0,0.1l0,0c0.1,1,0.6,4.9,3.2,7.4
		C308.3,261,313,261.1,313,261.1L313,261.1L313,261.1z"/>
	<path fill="#8AA526" d="M306.5,259c-0.1-0.1-0.1-0.1-0.2-0.2c-2.6-2.6-3.1-6.4-3.2-7.4l0,0c0,0,0,0,0-0.1c0-0.1,0-0.1,0-0.1l0,0
		c0.1-1,0.5-4.9,3.1-7.5c2.1-2.1,4.9-2.8,6.5-3.1c0.1-0.6,0.1-1,0.1-1s-4.7,0.2-7.7,3.3c-2.6,2.6-3,6.5-3.1,7.5l0,0c0,0,0,0.1,0,0.1
		c0,0.1,0,0.1,0,0.1l0,0c0.1,1,0.6,4.9,3.2,7.4C305.6,258.4,306.1,258.7,306.5,259z"/>
</g>
<g>
	<path fill="#8CC63F" d="M1203.7,196.2l5.3-2.1l-7.3-18.5l-5.3,2.1L1203.7,196.2z"/>
	<path fill="#7FAF33" d="M1193.6,178.2l-3.3,4.7l18.4,12.9l3.3-4.7L1193.6,178.2z"/>
	<path fill="#83B732" d="M1210.8,202.4l5.5-1.5l-7.3-26.6l-5.5,1.5L1210.8,202.4z"/>
	<path fill="#8CC63F" d="M1214.7,198l-25.7-14.4l-2.8,5l24.7,13.9l23.8,30.4l4.5-3.5L1214.7,198L1214.7,198L1214.7,198L1214.7,198z"
		/>
	<path fill="#ECEDD1" d="M1224.5,219.8l9.1,12.4c1.1,1.5,3.2,1.8,4.7,0.6c1.5-1.1,1.7-3.3,0.5-4.7l-9.8-11.8L1224.5,219.8
		L1224.5,219.8z"/>
	<path fill="#83B732" d="M1224.5,219.8l0.8-0.6l-14.7-18.8l-23.6-13.2l-0.8,1.4l24.7,13.9L1224.5,219.8L1224.5,219.8z"/>
	<path fill="#DBDBC6" d="M1238.5,231.3c-1.5,1.1-3.6,0.9-4.7-0.6l-8.5-11.5l-0.8,0.6l9.1,12.4c1.1,1.5,3.2,1.8,4.7,0.6
		c0.9-0.7,1.4-1.8,1.2-3C1239.3,230.4,1239,230.9,1238.5,231.3L1238.5,231.3L1238.5,231.3z"/>
</g>
<g>
	<path fill="#29ABE2" d="M1101.8,456.2c0,0,16.1,15.9,42.5,1.3c0.2-0.1,0.4-0.2,0.6-0.3c7.4-4.2,13.7-9.7,18.9-15.5
		c7.3-8.1,12.5-16.6,15.6-22.6c3.5,1.6,8.6,3.1,14,2.2c10.1-1.6,17.8-10.7,17.8-10.7s-8.1-6.1-17.8-5c6.5-7.9,7-18.7,7-18.7
		s-11.2,1.3-18.4,9.3c-3.9,4.3-5.8,9.7-6.8,13.7c-6.2-0.8-15.5-1.3-25.8,0.3c-7.3,1.2-15,3.4-22.5,7.5c-0.2,0.1-0.4,0.2-0.6,0.3
		C1099.9,432.6,1101.8,456.3,1101.8,456.2L1101.8,456.2L1101.8,456.2z"/>
	<path fill="#0E85AF" d="M1142.3,445.5c0.1-0.2,0.2-0.4,0.2-0.7c-0.3-3.3-1-6.3-2.2-9c-1.4-3.2-3.7-6.1-6.6-8.6
		c-0.3-0.3-0.8-0.2-1.1,0.1c-0.3,0.3-0.2,0.8,0,1.1c2.8,2.4,4.9,5.1,6.2,8.1c1.1,2.5,1.8,5.3,2.1,8.5c0,0.4,0.4,0.7,0.8,0.6
		C1142,445.8,1142.1,445.7,1142.3,445.5L1142.3,445.5L1142.3,445.5z"/>
	<path fill="#0E85AF" d="M1137,455.3c0,0,0.2-0.3,0.2-0.4c0.1-0.4,1.7-9.2-1.9-17.2c-3.6-8-11-11.8-11.4-12c-0.4-0.2-0.8,0-1,0.4
		c-0.2,0.4-0.1,0.8,0.3,1.1c0,0,7.3,3.8,10.7,11.3c3.4,7.5,1.9,16.1,1.8,16.2c-0.1,0.4,0.2,0.8,0.6,0.8
		C1136.6,455.6,1136.8,455.5,1137,455.3L1137,455.3L1137,455.3z"/>
	<path fill="#0E85AF" d="M1123.3,439.9c-1.3,1.4-3.4,1.6-4.7,0.3s-1.2-3.5,0.1-4.9s3.4-1.6,4.7-0.3S1124.6,438.5,1123.3,439.9z"/>
	<path fill="#29ABE2" d="M1126.9,417.6c7.5-4,15.2-6.3,22.5-7.5c1.7-5.6,1.8-10.2,1.8-10.2s-12.3,1.8-20,10.8
		C1129.4,412.9,1127.9,415.2,1126.9,417.6L1126.9,417.6L1126.9,417.6z"/>
	<path fill="#0E85AF" d="M1144.9,457.1c2.3,0.4,4.9,0.6,7.6,0.3c11.1-1.4,19.8-11.2,19.8-11.2s-3.4-2.7-8.5-4.5
		C1158.6,447.4,1152.3,452.9,1144.9,457.1z"/>
	<path fill="#0E85AF" d="M1101.8,453.3c2.1,1.8,17.7,14.6,42.3,1c0.2-0.1,0.4-0.2,0.6-0.3c7.4-4.2,13.7-9.7,18.9-15.5
		c7.3-8.1,12.5-16.6,15.6-22.6c3.5,1.6,8.6,3.1,14,2.2c7.2-1.1,13.1-6.1,16-8.8c1.3,0.7,2,1.3,2,1.3s-7.6,9.1-17.8,10.7
		c-5.5,0.9-10.5-0.6-14-2.2c-3.2,5.9-8.3,14.5-15.6,22.6c-5.2,5.7-11.5,11.3-18.9,15.5c-0.2,0.1-0.4,0.2-0.6,0.3
		c-26.4,14.6-42.5-1.3-42.5-1.3S1101.7,455.1,1101.8,453.3L1101.8,453.3z"/>
	<path fill="#0E85AF" d="M1149.9,407c0,0,0.3,0,0.4,0c-0.2,1-0.5,2.1-0.9,3.2c-7.3,1.2-15,3.4-22.5,7.5c0.6-1.4,1.4-2.7,2.3-4.1
		C1136.1,410.1,1143.2,408.1,1149.9,407L1149.9,407L1149.9,407z"/>
</g>
<g>
	<path fill="#AD5151" d="M382.2,284.2l25.6-26.1l-4.9-1.1l-24.1,24.7C380.1,282.4,381.2,283.2,382.2,284.2L382.2,284.2z
		 M371.1,274.1l19.5-19.9l-3.2-0.7c-7.7-1.6-15.4,3.1-17.3,10.8C369.2,267.6,369.6,271.1,371.1,274.1L371.1,274.1z M376,279.9
		l23.2-23.8l-4.9-1.1l-21.4,21.9C373.7,278.1,374.8,279.1,376,279.9L376,279.9L376,279.9z M386.6,290.4c2.8,7.2,9.2,12.8,17.5,14.3
		c11.5,2.1,23-5,26.3-16.2c3.8-13-4.1-26.3-17.1-29.2l-1.7-0.4l-27.1,27.7C385.3,287.8,386,289.1,386.6,290.4L386.6,290.4z
		 M413,280.7c2.7,0.6,4.3,3.3,3.7,5.9c-0.6,2.7-3.3,4.3-5.9,3.7c-2.7-0.6-4.3-3.3-3.7-5.9C407.6,281.8,410.3,280.1,413,280.7z"/>
	<path fill="#994848" d="M371.1,274.1l19.5-19.9l3.7,0.8l-21.4,21.9C372.2,276.1,371.6,275.1,371.1,274.1L371.1,274.1L371.1,274.1z"
		/>
	<path fill="#994848" d="M376,279.9l23.2-23.8l3.7,0.8l-24.1,24.7c-0.4-0.2-0.8-0.4-1.1-0.6c-0.1-0.1-0.2-0.1-0.3-0.1
		C376.9,280.5,376.4,280.2,376,279.9L376,279.9L376,279.9z"/>
	<path fill="#994848" d="M382.2,284.2l25.6-26.1l3.7,0.8l-27.1,27.7C383.8,285.8,383,285,382.2,284.2L382.2,284.2L382.2,284.2z"/>
	<path opacity="0.1" enable-background="new    " d="M394.3,255l-3.7-0.8l-3.2-0.7c-5.7-1.2-11.3,1.1-14.7,5.4l38.8,8.8
		c13.8,3.1,13.5,23.3,12.8,30.8c2.7-2.7,4.9-6.1,6-10c3.8-13-4.1-26.3-17.1-29.2l-1.7-0.4l-3.7-0.8l-4.9-1.1l-3.7-0.8L394.3,255
		L394.3,255L394.3,255z"/>
</g>
<g>
	<path fill="#F9D53D" d="M842.2,483.4c0.1-3.6-2.7-6.7-6.2-7.1l0.1-8.5l81.4,7.8l-0.5,40.9c-0.1,3.9-3.2,6.7-6.9,6.3l-12.2-1.2
		c0.1-4.4-3.4-8.3-7.6-8.7s-7.8,2.8-7.8,7.2l-40-3.9c-3.8-0.4-6.8-3.8-6.7-7.7l0.3-19.5C839.3,489.7,842.2,487,842.2,483.4
		L842.2,483.4z"/>
	<path fill="#E8B321" d="M917.4,475.8c0.1-8.8-6.7-16.6-15.3-17.4c-1.5-0.1-3.1-0.1-4.4,0.2l-61.6,9.2l81.4,7.8"/>
	<path fill="#E8B321" d="M900.9,492.1c-2.4-0.2-4.3-2.4-4.3-4.9s2-4.3,4.4-4c2.4,0.2,4.3,2.4,4.3,4.9
		C905.3,490.5,903.4,492.3,900.9,492.1z"/>
	<path fill="#E8B321" d="M872,498.2c-4.3-0.4-7.7-4.3-7.7-8.7c0.1-4.4,3.6-7.6,7.9-7.2s7.7,4.3,7.7,8.7
		C879.8,495.4,876.3,498.6,872,498.2z"/>
	<path fill="#E8B321" d="M850.5,509.3c-1.9-0.2-3.4-1.9-3.3-3.8c0-1.9,1.6-3.3,3.4-3.1c1.9,0.2,3.4,1.9,3.3,3.8
		C853.9,508,852.4,509.4,850.5,509.3z"/>
	<path fill="#E8B321" d="M904.7,509.1c-1.5-0.1-2.8-1.6-2.8-3.1c0-1.6,1.3-2.7,2.8-2.6c1.5,0.1,2.8,1.6,2.8,3.1
		C907.5,508.1,906.2,509.3,904.7,509.1z"/>
	<path fill="#E8B321" d="M852,481c-2.1-0.2-3.8-2.1-3.7-4.3c0-2.2,1.8-3.7,3.9-3.5c2.1,0.2,3.8,2.1,3.8,4.3
		C855.9,479.7,854.1,481.3,852,481L852,481z"/>
	<path fill="#E8B321" d="M874.4,513.3c-2.1-0.2-3.8-2.1-3.8-4.3c0-2.2,1.8-3.8,3.9-3.6c2.1,0.2,3.8,2.1,3.8,4.3
		C878.2,511.9,876.5,513.5,874.4,513.3z"/>
	<path fill="#E8B321" d="M905.6,518.6c3.8,0.4,6.9-2.5,6.9-6.3l3.2-36.7l1.7,0.2l-0.5,40.9c-0.1,3.9-3.2,6.7-6.9,6.3l-12.2-1.2
		c0-1.4-0.4-2.8-1-4L905.6,518.6L905.6,518.6z"/>
	<path fill="#E8B321" d="M883.3,516.5c-0.6,1.1-1,2.4-1,3.8l-40-3.9c-2.7-0.3-4.9-2.1-6.1-4.4L883.3,516.5L883.3,516.5z"/>
</g>
<g>
	<path fill="#F15A24" d="M1256.7,305.9c-4.2,14.2-9.3,28.6-14.4,42.5c-0.8,2.3-3.1,8.3-3.9,10.5c-0.9,2.4-4.6,4.9-6.7,2.3
		c-1-1.3-1.4-2.6-1.4-4.1l0.3-3.7l0.6-7.5c0.8-9.6,1.9-20.2,3.1-29.8c0.6-4.9,1.2-9.9,2-14.8c0.9-5.7,6.3-9.6,12-8.7
		C1254.4,293.6,1258.5,299.9,1256.7,305.9L1256.7,305.9z"/>
	<path fill="#D6532B" d="M1235.2,358.9c-1-1.3-1.4-2.6-1.4-4.1l0.3-3.7l0.6-7.5c0.8-9.6,1.9-20.2,3.1-29.8c0.6-4.9,1.2-9.9,2-14.8
		c0.4-2.3,1.5-4.3,3.1-5.9c-3.4,1.3-6.1,4.3-6.7,8.2c-0.8,4.9-1.4,9.8-2,14.8c-1.1,9.6-2.2,20.1-3.1,29.8l-0.6,7.5l-0.3,3.7
		c0,1.5,0.3,2.8,1.4,4.1c1.8,2.2,4.7,0.8,6.1-1.2C1236.8,360.1,1235.9,359.8,1235.2,358.9L1235.2,358.9L1235.2,358.9z"/>
	<path fill="#9AC422" d="M1266,283.5c0,0-6.1-1.1-10.9,1.8c1.1-5.5-2-10.9-2-10.9s-5.1,3.5-6.5,9c-3.1-4.7-9.1-6.3-9.1-6.3
		s-1.2,6.2,1.9,11.1c2.7,4.2,7.6,6,8.9,6.4l0,0c0,0,0.1,0,0.1,0c0.1,0,0.2,0,0.2,0l0,0c1.3,0.2,6.6,0.7,10.8-2
		C1264.4,289.6,1266,283.5,1266,283.5L1266,283.5L1266,283.5z"/>
	<path fill="#8AA526" d="M1261.3,291.3c-0.1,0.1-0.2,0.1-0.3,0.2c-4.2,2.7-9.4,2.1-10.8,2l0,0c0,0-0.1,0-0.2,0s-0.2,0-0.2,0l0,0
		c-1.3-0.4-6.3-2.2-8.9-6.4c-2.1-3.4-2.2-7.4-2.1-9.5c-0.8-0.3-1.3-0.4-1.3-0.4s-1.2,6.2,1.9,11.1c2.7,4.2,7.6,6,8.9,6.4l0,0
		c0,0,0.1,0,0.1,0c0.1,0,0.2,0,0.2,0l0,0c1.3,0.2,6.6,0.7,10.8-2C1260.2,292.3,1260.8,291.8,1261.3,291.3L1261.3,291.3z"/>
</g>
<g>
	<path fill="#8CC63F" d="M776.7,472.5l-2.7,5.1l17.7,9.2l2.7-5.1L776.7,472.5z"/>
	<path fill="#7FAF33" d="M796.1,479.4l-0.6-5.7l-22.4,2.3l0.6,5.7L796.1,479.4z"/>
	<path fill="#83B732" d="M767.2,472.4l-3.2,4.8l22.9,15.3l3.2-4.8L767.2,472.4z"/>
	<path fill="#8CC63F" d="M767.2,478.3l28.9-5.9l-1.2-5.6l-27.7,5.7l-37.9-7.4l-1.1,5.6L767.2,478.3L767.2,478.3L767.2,478.3
		L767.2,478.3z"/>
	<path fill="#ECEDD1" d="M745.5,468.2l-15-3.4c-1.8-0.4-3.6,0.8-4,2.6c-0.4,1.8,0.9,3.6,2.7,3.9l15.2,2.5L745.5,468.2L745.5,468.2
		L745.5,468.2z"/>
	<path fill="#83B732" d="M745.5,468.2l-0.2,1l23.5,4.6l26.5-5.4l-0.3-1.6l-27.7,5.7L745.5,468.2L745.5,468.2z"/>
	<path fill="#DBDBC6" d="M727.4,468.7c0.4-1.8,2.2-3,4-2.6l14,3.1l0.2-1l-15-3.4c-1.8-0.4-3.6,0.8-4,2.6c-0.2,1.2,0.2,2.3,1,3.1
		C727.4,469.9,727.3,469.3,727.4,468.7L727.4,468.7L727.4,468.7z"/>
</g>
<g>
	<path fill="#9AC422" d="M1128.5,110.2l-4.8,2.8c0.2,1.8,0.6,3.5,1.1,5.1c0.5,1.6,1.2,3.1,1.9,4.5c1.2,2.2,2.6,4.4,4.3,6.4
		c-4.3-2-8.7-3.8-13.2-5.3l-2.7,5.3c3.8,2.3,7.8,4.2,11.8,6c0,0,0.1,0,0.1,0c-1.4-0.3-2.9-0.6-4.3-0.9c-4-0.7-8.1-1.3-12.1-1.6
		l-1.4,5.6c1.6,0.2,3.2,0.4,4.7,0.6c2.3,0.3,4.7,0.7,7,1.1c3,0.6,6.1,1.2,9,2.1c2.2,0.7,4.2,1.7,6.3,2.6c2.7,1.3,5.4,2.7,8,4.4l0,0
		c2.2,1.1,5.9-1,8.3-5c2.4-3.9,2.8-8.4,0.6-9.7c-1.2-0.9-3.9-2.4-5.2-3.2c-1.9-1.2-3.8-2.3-5.7-3.3l-1.9-1c-1.5-0.8-2.9-2.3-4-3.7
		C1133.3,119.1,1131.4,114.2,1128.5,110.2L1128.5,110.2L1128.5,110.2z"/>
	<path fill="#88B212" d="M1140.2,141.5c-5.3-2.7-23.8-5.3-23.8-5.3l0.8,3.1c1.2,0.2,2.5,0.4,3.7,0.6c3,0.6,6.1,1.2,9,2.1
		c2.2,0.7,4.2,1.7,6.3,2.6c2.7,1.3,5.4,2.7,8,4.4l0,0c2.2,1.1,5.9-1,8.3-5c2.5-4,2.8-8.4,0.6-9.7c-1-0.7-3-1.9-4.4-2.7
		C1146.4,135.6,1144.9,144,1140.2,141.5L1140.2,141.5L1140.2,141.5z"/>
	<path fill="#3E662D" d="M1121.8,95.9c0,0,0,0.1-0.1,0.1c-0.1-1.4-1-2.8-2.4-3.6c-2.2-1.2-5-0.4-6.2,1.8c-0.4,0.7-0.6,1.4-0.5,2.2
		c-0.5-0.7-1.1-1.4-1.9-1.8c-2.5-1.4-5.7-0.4-7,2.1c-0.7,1.3-0.8,2.9-0.3,4.2c-0.5-0.5-1.1-1-1.7-1.4c-3.3-1.8-7.4-0.6-9.2,2.7
		c-1,1.8-1.1,3.9-0.4,5.7c-2.7-1.5-6.1-0.5-7.6,2.2c-1.3,2.4-0.7,5.3,1.3,7c-1.2,0.2-2.3,0.9-2.9,2c-1.1,1.9-0.3,4.3,1.6,5.4
		c0.3,0.2,0.7,0.3,1,0.4c-1,0.2-1.8,0.8-2.3,1.7c-0.9,1.6-0.3,3.6,1.3,4.5c0.2,0.1,0.4,0.2,0.6,0.3c-0.2,0.2-0.3,0.5-0.5,0.8
		c-1.5,2.7-0.5,6.1,2.2,7.6c1,0.6,2.2,0.8,3.3,0.6c-0.9,3,0.4,6.3,3.3,7.8s6.7,0.8,8.7-1.8c0.5,0.9,1.2,1.7,2.1,2.2
		c2.5,1.4,5.6,0.4,6.9-2c1-1.7,0.8-3.8-0.3-5.3c0.1,0.1,0.2,0.2,0.4,0.2c2.9,1.6,6.6,0.5,8.2-2.4c1.4-2.5,0.8-5.5-1.2-7.4
		c2.3,0.2,4.7-1,5.8-3.1c1.1-1.9,1-4.2-0.1-5.9c1.3,0,2.6-0.7,3.3-1.9c0.5-0.8,0.5-1.8,0.3-2.7c1.6,0.4,3.4-0.3,4.2-1.8
		c0.8-1.5,0.4-3.5-0.9-4.6c1-0.4,2-1.2,2.5-2.3c1.4-2.5,0.4-5.6-2-6.9c-1-0.5-2-0.7-3-0.6c0.7-0.4,1.2-1,1.6-1.7
		c1.2-2.2,0.4-5-1.8-6.2C1125.8,92.8,1123.1,93.6,1121.8,95.9L1121.8,95.9L1121.8,95.9z M1126.4,111.6L1126.4,111.6
		C1126.4,111.6,1126.4,111.6,1126.4,111.6L1126.4,111.6L1126.4,111.6z"/>
	<path fill="#487534" d="M1128,94.1c-0.8-0.5-1.8-0.6-2.6-0.5c-1.5,0.2-2.9,1-3.6,2.4c-0.2-1.4-1-2.8-2.3-3.5
		c-2.2-1.2-5-0.4-6.2,1.8c-0.4,0.7-0.6,1.4-0.5,2.2c-0.5-0.7-1.1-1.4-1.9-1.8c-2.5-1.4-5.7-0.4-7,2.1c-0.7,1.3-0.8,2.9-0.3,4.2
		c-0.5-0.5-1.1-1-1.7-1.4c-3.3-1.8-7.4-0.6-9.2,2.7c-1,1.8-1.1,3.9-0.4,5.7c-2.7-1.5-6.1-0.5-7.6,2.2c-1.3,2.4-0.7,5.3,1.3,7
		c-1.2,0.2-2.3,0.9-2.9,2c-1.1,1.9-0.3,4.3,1.6,5.4c0.2,0.1,0.5,0.2,0.7,0.3c1-0.3,2-0.9,2.6-1.9c0,0,0-0.1,0.1-0.1
		c0,1.4,0.7,2.8,2,3.7c2.1,1.4,4.8,0.8,6.2-1.2c0.4-0.6,0.7-1.3,0.7-2.1c0.4,0.7,0.9,1.4,1.7,1.9c2.3,1.5,5.4,0.9,7-1.4
		c0.8-1.2,1-2.7,0.7-4c0.4,0.5,0.9,1,1.6,1.5c3,2,7.2,1.2,9.2-1.8c1.1-1.7,1.4-3.7,0.9-5.5c2.5,1.7,5.9,1,7.5-1.5
		c1.4-2.2,1.1-5.1-0.7-6.8c1.2-0.1,2.3-0.7,3-1.7c0.4-0.5,0.5-1.1,0.6-1.7c0.8-0.4,1.4-1,1.8-1.8C1131.2,98.1,1130.4,95.3,1128,94.1
		L1128,94.1L1128,94.1z"/>
</g>
<g>
	<path fill="#F15A24" d="M1030.5,487.7c-10.8,1.9-22,3.3-33,4.5c-1.8,0.2-6.6,0.7-8.3,0.9c-1.9,0.2-4.8-1.4-3.8-3.7
		c0.5-1.1,1.3-1.8,2.3-2.3l2.6-1l5.2-2.1c6.7-2.6,14-5.4,20.8-7.8c3.5-1.2,7-2.4,10.5-3.6c4.1-1.3,8.5,1,9.8,5.1
		C1038,482.2,1035.1,486.9,1030.5,487.7L1030.5,487.7z"/>
	<path fill="#D6532B" d="M988.2,491c0.5-1.1,1.3-1.8,2.3-2.3l2.6-1l5.2-2.1c6.7-2.6,14-5.4,20.8-7.8c3.5-1.2,7-2.4,10.5-3.6
		c1.7-0.5,3.4-0.4,4.9,0.1c-2-1.8-4.9-2.6-7.7-1.7c-3.5,1.1-7,2.3-10.5,3.6c-6.8,2.4-14.1,5.2-20.8,7.8l-5.2,2.1l-2.6,1
		c-1,0.5-1.7,1.2-2.3,2.3c-0.9,2,1,3.4,2.8,3.7C988,492.5,987.9,491.8,988.2,491L988.2,491L988.2,491z"/>
	<path fill="#9AC422" d="M1048.5,486.5c0,0-1.3-4.4-4.8-6.6c4-1.1,6.6-4.9,6.6-4.9s-4-2.2-8.1-1.3c2.1-3.6,1.1-8.1,1.1-8.1
		s-4.5,1.3-6.7,4.9c-1.9,3.1-1.4,7-1.3,8l0,0c0,0,0,0.1,0,0.1c0,0.1,0,0.1,0,0.1l0,0c0.3,0.9,1.7,4.6,4.9,6.5
		C1043.9,487.5,1048.5,486.5,1048.5,486.5L1048.5,486.5L1048.5,486.5z"/>
	<path fill="#8AA526" d="M1041.8,486c-0.1,0-0.2-0.1-0.3-0.1c-3.1-1.9-4.5-5.5-4.9-6.5l0,0c0,0,0,0,0-0.1c0-0.1,0-0.1,0-0.1l0,0
		c-0.2-1-0.6-4.9,1.3-8c1.5-2.5,4.2-3.9,5.6-4.5c-0.1-0.6-0.1-1-0.1-1s-4.5,1.3-6.7,4.9c-1.9,3.1-1.4,7-1.3,8l0,0c0,0,0,0.1,0,0.1
		c0,0.1,0,0.1,0,0.1l0,0c0.3,0.9,1.7,4.6,4.9,6.5C1040.8,485.6,1041.3,485.8,1041.8,486L1041.8,486z"/>
</g>
<g>
	<path fill="#F9D53D" d="M148.1,295.2c-1.8-2.8-5.5-3.8-8.4-2.3l-4.2-6.6l66.7-34.4l20.2,31.8c1.9,3,0.9,6.7-2.1,8.3l-10,5.2
		c-2.2-3.4-6.8-4.7-10.3-2.9s-4.6,6-2.4,9.4l-32.8,16.9c-3.1,1.6-7.2,0.4-9.1-2.5l-9.6-15.1C149,301.4,149.9,298,148.1,295.2
		L148.1,295.2z"/>
	<path fill="#E8B321" d="M202.3,251.9c-4.3-6.8-13.5-9.4-20.5-5.8c-1.3,0.6-2.4,1.5-3.3,2.4l-42.9,37.7l66.7-34.4"/>
	<path fill="#E8B321" d="M197.8,272.7c-2,1-4.6,0.3-5.8-1.6s-0.6-4.3,1.4-5.3c2-1,4.6-0.3,5.8,1.6
		C200.4,269.3,199.8,271.6,197.8,272.7z"/>
	<path fill="#E8B321" d="M178.6,291.8c-3.5,1.8-8.1,0.5-10.3-2.9c-2.2-3.4-1.1-7.7,2.4-9.5c3.5-1.8,8.1-0.5,10.3,2.9
		C183.2,285.7,182.1,290,178.6,291.8z"/>
	<path fill="#E8B321" d="M167.5,310.9c-1.5,0.8-3.5,0.2-4.5-1.3c-1-1.5-0.5-3.3,1.1-4.1c1.5-0.8,3.5-0.2,4.5,1.3
		C169.5,308.3,169,310.2,167.5,310.9z"/>
	<path fill="#E8B321" d="M209.3,283.9c-1.3,0.6-2.9,0.2-3.7-1c-0.8-1.2-0.4-2.8,0.9-3.4c1.3-0.6,2.9-0.2,3.7,1
		C210.9,281.7,210.5,283.3,209.3,283.9z"/>
	<path fill="#E8B321" d="M154.5,288.5c-1.7,0.9-4,0.2-5-1.4c-1.1-1.7-0.5-3.8,1.2-4.6c1.7-0.9,4-0.2,5.1,1.4
		C156.8,285.5,156.2,287.6,154.5,288.5L154.5,288.5z"/>
	<path fill="#E8B321" d="M188,302.2c-1.7,0.9-4,0.3-5.1-1.4c-1.1-1.7-0.5-3.8,1.2-4.7c1.7-0.9,4-0.3,5.1,1.4
		C190.3,299.2,189.7,301.3,188,302.2z"/>
	<path fill="#E8B321" d="M214.8,290.8c3.1-1.6,4-5.3,2.1-8.3l-16.1-29.9l1.4-0.7l20.2,31.8c1.9,3,0.9,6.7-2.1,8.3l-10,5.2
		c-0.7-1.1-1.7-2-2.7-2.6L214.8,290.8L214.8,290.8z"/>
	<path fill="#E8B321" d="M196.5,300.2c0,1.2,0.4,2.3,1.1,3.4l-32.8,16.9c-2.2,1.1-4.8,0.9-6.9-0.4L196.5,300.2L196.5,300.2z"/>
</g>
<g>
	<path fill="#8CC63F" d="M95.9,337.3l4.1,4l13.9-14.3l-4.1-4L95.9,337.3z"/>
	<path fill="#7FAF33" d="M108,320.6l-5.6-1.1l-4.2,22.1l5.6,1.1L108,320.6z"/>
	<path fill="#83B732" d="M93.1,346.3l3.7,4.4l21.2-17.6l-3.7-4.4L93.1,346.3z"/>
	<path fill="#8CC63F" d="M98.7,348l2.5-29.4l-5.7-0.5l-2.4,28.2l-17.9,34.2l5.1,2.6L98.7,348L98.7,348L98.7,348L98.7,348z"/>
	<path fill="#ECEDD1" d="M82.9,365.9l-7.5,13.4c-0.9,1.6-0.3,3.7,1.4,4.5c1.6,0.9,3.7,0.2,4.5-1.5l6.7-13.8L82.9,365.9L82.9,365.9
		L82.9,365.9z"/>
	<path fill="#83B732" d="M82.9,365.9l0.9,0.5l11.1-21.2l2.3-26.9l-1.7-0.1l-2.4,28.2L82.9,365.9L82.9,365.9z"/>
	<path fill="#DBDBC6" d="M78.2,383.4c-1.6-0.9-2.3-2.9-1.4-4.5l7-12.5l-0.9-0.5l-7.5,13.4c-0.9,1.6-0.3,3.7,1.4,4.5
		c1.1,0.5,2.2,0.5,3.2-0.1C79.3,383.8,78.7,383.7,78.2,383.4L78.2,383.4L78.2,383.4z"/>
</g>
<g>
	<path fill="#AD5151" d="M117.3,458.8L80.7,458l2.6,4.3l34.5,0.7C117.4,461.6,117.3,460.2,117.3,458.8L117.3,458.8z M117.5,473.8
		l-27.9-0.6l1.7,2.8c4.1,6.7,12.8,9,19.7,5.2C114.1,479.6,116.3,476.9,117.5,473.8L117.5,473.8z M118.4,466.3l-33.2-0.7l2.6,4.3
		l30.7,0.6C118.6,469.2,118.6,467.7,118.4,466.3L118.4,466.3L118.4,466.3z M118.8,451.4c3.3-7,3-15.5-1.5-22.6
		c-6.4-9.8-19.4-13.4-29.8-8.1c-12.1,6.1-16.3,21-9.6,32.5l0.9,1.5l38.8,0.8C117.8,454.1,118.2,452.7,118.8,451.4L118.8,451.4z
		 M93.7,438.8c-1.4-2.4-0.6-5.4,1.8-6.8c2.4-1.4,5.4-0.6,6.8,1.8c1.4,2.4,0.6,5.4-1.8,6.8S95.1,441.1,93.7,438.8z"/>
	<path fill="#994848" d="M117.5,473.7l-27.9-0.6l-1.9-3.3l30.6,0.6C118.2,471.6,117.9,472.7,117.5,473.7L117.5,473.7L117.5,473.7z"
		/>
	<path fill="#994848" d="M118.4,466.3l-33.2-0.7l-1.9-3.3l34.5,0.7c0.1,0.4,0.2,0.9,0.3,1.3c0,0.1,0.1,0.2,0.1,0.3
		C118.2,465.1,118.3,465.7,118.4,466.3L118.4,466.3L118.4,466.3z"/>
	<path fill="#994848" d="M117.3,458.8L80.7,458l-1.9-3.3l38.8,0.8C117.4,456.6,117.3,457.7,117.3,458.8L117.3,458.8L117.3,458.8z"/>
	<path opacity="0.1" enable-background="new    " d="M87.7,469.9l1.9,3.3l1.7,2.8c3,5,8.5,7.5,14,7l-20.1-34.3
		c-7.2-12.2,7.8-25.8,13.7-30.4c-3.8-0.2-7.8,0.6-11.4,2.4c-12.1,6.1-16.3,21-9.6,32.5l0.9,1.5l1.9,3.3l2.6,4.3l1.9,3.3L87.7,469.9
		L87.7,469.9L87.7,469.9z"/>
</g>
<g>
	<path fill="#9AC422" d="M229.6,597.6l-5.5,0.7c-0.5,1.7-0.8,3.4-1,5.1c-0.1,1.6-0.1,3.3,0,4.9c0.2,2.5,0.7,5.1,1.5,7.6
		c-3.2-3.5-6.5-6.9-10.1-10l-4.5,3.8c2.6,3.6,5.5,6.9,8.5,10.2c0,0,0,0,0.1,0.1c-1.2-0.9-2.4-1.7-3.6-2.5c-3.4-2.2-6.9-4.3-10.5-6.3
		l-3.5,4.6c1.4,0.8,2.7,1.6,4.1,2.4c2,1.2,4.1,2.5,6,3.8c2.6,1.7,5.1,3.5,7.5,5.5c1.7,1.5,3.2,3.2,4.8,4.9c2,2.3,3.9,4.6,5.6,7.1
		l0,0c1.6,1.9,5.8,1.3,9.6-1.3c3.8-2.7,5.8-6.7,4.4-8.7c-0.8-1.3-2.7-3.7-3.5-4.9c-1.2-1.8-2.6-3.6-3.9-5.3l-1.3-1.7
		c-1-1.3-1.8-3.2-2.2-5C230.6,607.6,230.8,602.4,229.6,597.6L229.6,597.6L229.6,597.6z"/>
	<path fill="#88B212" d="M228.2,631c-3.8-4.6-19.7-14.2-19.7-14.2l-0.5,3.2c1.1,0.7,2.1,1.4,3.2,2c2.6,1.7,5.1,3.5,7.5,5.5
		c1.7,1.5,3.2,3.2,4.8,4.9c2,2.3,3.9,4.6,5.6,7.1l0,0c1.6,1.9,5.8,1.3,9.6-1.3c3.9-2.7,5.8-6.7,4.4-8.7c-0.6-1-2-2.9-3-4.2
		C236.2,627.9,231.6,635.1,228.2,631L228.2,631L228.2,631z"/>
	<path fill="#3E662D" d="M229.2,581.8C229.2,581.8,229.1,581.9,229.2,581.8c0.4-1.3,0.1-2.9-0.9-4.2c-1.6-2-4.4-2.3-6.4-0.8
		c-0.6,0.5-1.1,1.1-1.4,1.8c-0.1-0.9-0.5-1.7-1.1-2.4c-1.8-2.2-5-2.6-7.3-0.8c-1.2,0.9-1.9,2.3-2,3.7c-0.2-0.7-0.6-1.3-1.1-1.9
		c-2.3-3-6.6-3.5-9.6-1.1c-1.6,1.3-2.5,3.2-2.6,5.1c-1.9-2.4-5.4-2.8-7.9-0.9c-2.1,1.7-2.7,4.6-1.5,6.9c-1.2-0.3-2.4-0.1-3.5,0.7
		c-1.7,1.3-2,3.9-0.7,5.6c0.2,0.3,0.5,0.5,0.8,0.7c-1-0.2-2,0-2.8,0.6c-1.4,1.1-1.7,3.2-0.5,4.7c0.2,0.2,0.3,0.4,0.5,0.5
		c-0.3,0.2-0.5,0.3-0.8,0.5c-2.4,1.9-2.9,5.5-0.9,7.9c0.7,0.9,1.7,1.6,2.8,1.9c-2,2.4-2.1,6,0,8.5s5.8,3.3,8.7,1.7
		c0.1,1,0.4,2,1.1,2.9c1.7,2.2,5,2.6,7.2,0.8c1.5-1.2,2.2-3.2,1.8-5c0.1,0.1,0.1,0.2,0.2,0.3c2.1,2.6,5.9,3.1,8.5,1
		c2.2-1.8,2.9-4.8,1.8-7.3c2.1,1.1,4.7,0.9,6.6-0.6c1.7-1.3,2.5-3.4,2.3-5.5c1.2,0.5,2.6,0.4,3.8-0.5c0.7-0.6,1.2-1.4,1.4-2.3
		c1.3,1,3.2,1.1,4.5,0c1.3-1.1,1.8-3.1,0.9-4.6c1.1,0,2.3-0.3,3.2-1.1c2.2-1.7,2.6-5,0.8-7.2c-0.7-0.8-1.6-1.4-2.5-1.7
		c0.8-0.1,1.5-0.4,2.1-0.9c2-1.6,2.3-4.4,0.8-6.4C234.1,580.5,231.2,580.2,229.2,581.8L229.2,581.8L229.2,581.8z M227.2,598.1
		L227.2,598.1L227.2,598.1L227.2,598.1L227.2,598.1L227.2,598.1z"/>
	<path fill="#487534" d="M235.6,582.6c-0.6-0.7-1.4-1.3-2.2-1.5c-1.4-0.5-3-0.2-4.3,0.7c0.4-1.4,0.1-2.9-0.8-4.1
		c-1.6-2-4.4-2.3-6.4-0.8c-0.6,0.5-1.1,1.1-1.4,1.8c-0.1-0.9-0.5-1.7-1.1-2.4c-1.8-2.2-5-2.6-7.3-0.8c-1.2,0.9-1.9,2.3-2,3.7
		c-0.2-0.7-0.6-1.3-1.1-1.9c-2.3-3-6.6-3.5-9.6-1.1c-1.6,1.3-2.5,3.2-2.6,5.1c-1.9-2.4-5.4-2.8-7.9-0.9c-2.1,1.7-2.7,4.6-1.5,6.9
		c-1.2-0.3-2.4-0.1-3.5,0.7c-1.7,1.3-2,3.9-0.7,5.6c0.2,0.2,0.3,0.4,0.5,0.5c1.1,0.2,2.2,0,3.2-0.7c0,0,0.1,0,0.1-0.1
		c-0.5,1.3-0.5,2.9,0.4,4.2c1.3,2.1,4.1,2.6,6.2,1.3c0.6-0.4,1.1-1,1.5-1.6c0,0.8,0.3,1.7,0.8,2.4c1.5,2.3,4.6,3,7,1.5
		c1.2-0.8,2-2.1,2.2-3.4c0.2,0.7,0.5,1.3,0.9,2c2,3.1,6.1,3.9,9.2,1.9c1.7-1.1,2.7-2.9,3-4.7c1.7,2.5,5,3.2,7.5,1.6
		c2.2-1.5,3-4.2,2.1-6.6c1.1,0.4,2.4,0.3,3.4-0.4c0.5-0.3,0.9-0.8,1.2-1.3c0.8-0.1,1.7-0.4,2.4-1
		C236.9,587.5,237.2,584.6,235.6,582.6L235.6,582.6L235.6,582.6z"/>
</g>
<g>
	<path fill="#29ABE2" d="M359.2,729.1c0,0-16.6,12.7-38.7-4.1c-0.2-0.1-0.3-0.3-0.5-0.4c-6.2-4.8-11.2-10.7-15.1-16.6
		c-5.6-8.4-9.2-16.9-11.3-22.8c-3.3,1-8.2,1.8-13,0.3c-9-2.7-14.8-12.1-14.8-12.1s8.1-4.6,16.7-2.4c-4.9-8.1-4-18.2-4-18.2
		s10,2.6,15.5,10.9c3,4.5,4.1,9.7,4.4,13.5c5.8,0.1,14.2,0.7,23.3,3.5c6.5,2,13.2,5,19.5,9.7c0.2,0.1,0.4,0.3,0.5,0.4
		C364,707.5,359.2,729.2,359.2,729.1L359.2,729.1L359.2,729.1z"/>
	<path fill="#0E85AF" d="M323.9,714.2c-0.1-0.2-0.2-0.4-0.1-0.6c0.7-3.1,1.7-5.7,3.1-8c1.7-2.8,4.1-5.2,7-7.1c0.3-0.2,0.7-0.1,1,0.3
		s0.1,0.8-0.2,1c-2.8,1.9-5,4.2-6.7,6.8c-1.3,2.1-2.3,4.7-2.9,7.6c-0.1,0.4-0.4,0.6-0.8,0.5C324.1,714.5,324,714.4,323.9,714.2
		L323.9,714.2L323.9,714.2z"/>
	<path fill="#0E85AF" d="M327.4,723.9c0,0-0.1-0.3-0.1-0.4c0-0.4-0.4-8.8,3.9-15.6c4.3-6.9,11.5-9.5,11.8-9.7
		c0.3-0.1,0.8,0.1,0.9,0.5c0.1,0.4,0,0.8-0.4,0.9c0,0-7.1,2.6-11.1,9.2c-4,6.5-3.7,14.7-3.7,14.8c0,0.4-0.3,0.7-0.7,0.7
		C327.8,724.2,327.6,724.1,327.4,723.9L327.4,723.9L327.4,723.9z"/>
	<path fill="#0E85AF" d="M341.8,711.4c1,1.5,2.9,1.9,4.2,0.9c1.3-1,1.6-3,0.6-4.5c-1-1.5-2.9-1.9-4.2-0.9
		C341,707.9,340.8,709.9,341.8,711.4z"/>
	<path fill="#29ABE2" d="M341.3,690.3c-6.2-4.6-13-7.7-19.5-9.7c-0.9-5.4-0.3-9.7-0.3-9.7s10.9,3.2,16.8,12.4
		C339.7,685.6,340.7,687.9,341.3,690.3L341.3,690.3L341.3,690.3z"/>
	<path fill="#0E85AF" d="M320.1,724.6c-2.2,0.1-4.6,0-7-0.7c-9.9-2.7-16.5-12.8-16.5-12.8s3.4-2.1,8.3-3.1
		C308.9,713.9,313.9,719.8,320.1,724.6z"/>
	<path fill="#0E85AF" d="M359.6,726.4c-2.1,1.5-17.8,11.3-38.4-4.3c-0.2-0.1-0.3-0.3-0.5-0.4c-6.2-4.8-11.2-10.7-15.1-16.6
		c-5.6-8.4-9.2-16.9-11.3-22.8c-3.3,1-8.2,1.8-13,0.3c-6.4-1.9-11.1-7.3-13.4-10.2c-1.2,0.5-2,0.9-2,0.9s5.8,9.4,14.8,12.1
		c4.8,1.5,9.6,0.7,13-0.3c2.1,5.9,5.7,14.4,11.3,22.8c4,6,9,11.8,15.1,16.6c0.2,0.1,0.3,0.3,0.5,0.4c22.1,16.8,38.7,4.1,38.7,4.1
		S359.5,728.1,359.6,726.4L359.6,726.4z"/>
	<path fill="#0E85AF" d="M321.8,677.6c0,0-0.2-0.1-0.3-0.1c0.1,1,0.2,2,0.4,3.1c6.5,2,13.2,5,19.5,9.7c-0.4-1.3-0.9-2.7-1.5-4.1
		C334,682.2,327.8,679.5,321.8,677.6L321.8,677.6L321.8,677.6z"/>
</g>
<g>
	<path fill="#F15A24" d="M148.5,517.5c3.7,10.3,7,21.2,10,31.7c0.5,1.7,1.8,6.3,2.3,8c0.5,1.9-0.5,4.9-3,4.3c-1.2-0.3-2-0.9-2.6-1.9
		l-1.5-2.4l-2.9-4.7c-3.7-6.1-7.7-12.9-11.2-19.2c-1.8-3.2-3.6-6.4-5.3-9.7c-2-3.8-0.5-8.5,3.4-10.5
		C141.8,511.1,147,513.2,148.5,517.5L148.5,517.5z"/>
	<path fill="#D6532B" d="M159,558.6c-1.2-0.3-2-0.9-2.6-1.9l-1.5-2.4l-2.9-4.7c-3.7-6.1-7.7-12.9-11.2-19.2
		c-1.8-3.2-3.6-6.4-5.3-9.7c-0.8-1.5-1-3.3-0.7-4.9c-1.5,2.3-1.7,5.2-0.4,7.8c1.7,3.3,3.5,6.5,5.3,9.7c3.5,6.3,7.5,13,11.2,19.2
		l2.9,4.7l1.5,2.4c0.6,0.9,1.4,1.5,2.6,1.9c2.1,0.5,3.2-1.6,3.1-3.4C160.4,558.6,159.8,558.8,159,558.6L159,558.6L159,558.6z"/>
	<path fill="#9AC422" d="M144.3,500c0,0-4.1,2-5.7,5.8c-1.7-3.8-6-5.7-6-5.7s-1.5,4.4,0.1,8.2c-3.9-1.4-8.2,0.3-8.2,0.3s2,4.2,6,5.8
		c3.4,1.3,7.2,0.2,8.1-0.1l0,0c0,0,0,0,0.1-0.1c0.1,0,0.1,0,0.1,0l0,0c0.9-0.5,4.2-2.5,5.6-5.9C146,504.3,144.3,499.9,144.3,500
		L144.3,500L144.3,500z"/>
	<path fill="#8AA526" d="M144.9,506.7c0,0.1-0.1,0.2-0.1,0.3c-1.3,3.4-4.7,5.4-5.6,5.9l0,0c0,0,0,0-0.1,0c-0.1,0-0.1,0.1-0.1,0.1
		l0,0c-0.9,0.3-4.7,1.4-8.1,0.1c-2.7-1.1-4.6-3.4-5.4-4.8c-0.6,0.2-0.9,0.3-0.9,0.3s2,4.2,6,5.8c3.4,1.3,7.2,0.2,8.1-0.1l0,0
		c0,0,0,0,0.1-0.1c0.1,0,0.1,0,0.1,0l0,0c0.9-0.5,4.2-2.5,5.6-5.9C144.7,507.7,144.8,507.2,144.9,506.7L144.9,506.7z"/>
</g>
<g>
	<path fill="#AD5151" d="M1028.9,76.7l-22.6,28.8l5,0.6l21.3-27.1C1031.3,78.3,1030.1,77.5,1028.9,76.7L1028.9,76.7z M1041.1,85.5
		l-17.2,21.9l3.3,0.4c7.9,0.8,14.9-4.8,16-12.6C1043.7,91.7,1042.9,88.3,1041.1,85.5L1041.1,85.5z M1035.6,80.3l-20.5,26.2l5,0.6
		l18.9-24.1C1038,81.9,1036.9,81,1035.6,80.3L1035.6,80.3L1035.6,80.3z M1024,71c-3.6-6.8-10.6-11.8-19-12.3
		c-11.7-0.8-22.3,7.5-24.4,19c-2.4,13.3,7,25.7,20.2,27.2l1.7,0.2l23.9-30.5C1025.5,73.4,1024.6,72.3,1024,71L1024,71z M998.8,83.5
		c-2.7-0.3-4.7-2.8-4.4-5.5c0.3-2.7,2.8-4.7,5.5-4.4s4.7,2.8,4.4,5.5S1001.5,83.8,998.8,83.5z"/>
	<path fill="#994848" d="M1041,85.5l-17.2,21.9l-3.8-0.4l18.9-24.1C1039.8,83.7,1040.5,84.5,1041,85.5L1041,85.5L1041,85.5z"/>
	<path fill="#994848" d="M1035.6,80.3l-20.5,26.2l-3.8-0.4l21.3-27.1c0.4,0.2,0.8,0.4,1.2,0.5c0.1,0,0.2,0.1,0.3,0.1
		C1034.6,79.7,1035.1,80,1035.6,80.3L1035.6,80.3L1035.6,80.3z"/>
	<path fill="#994848" d="M1028.9,76.7l-22.6,28.8l-3.8-0.4l23.9-30.5C1027.2,75.3,1028,76,1028.9,76.7L1028.9,76.7L1028.9,76.7z"/>
	<path opacity="0.1" enable-background="new    " d="M1020.1,107l3.8,0.4l3.3,0.4c5.8,0.6,11.1-2.3,14-7l-39.5-4.5
		c-14-1.6-15.9-21.7-16.1-29.2c-2.4,3-4.2,6.6-4.9,10.6c-2.4,13.3,7,25.7,20.2,27.2l1.7,0.2l3.8,0.4l5,0.6l3.8,0.4L1020.1,107
		L1020.1,107L1020.1,107z"/>
</g>
<g>
	<path fill="#F9D53D" d="M930.8,68.1c2.8-2.9,7.8-3.7,11-1.8l6.7-6.9l-77-44l-32.1,33.2c-3,3.1-2.6,7.3,1,9.4l11.5,6.6
		c3.5-3.6,9.5-4.6,13.6-2.2c4.1,2.3,4.6,7.1,1.1,10.6l37.9,21.6c3.6,2,8.9,1.1,12-2l15.3-15.8C928.4,74.9,928,71,930.8,68.1
		L930.8,68.1z"/>
	<path fill="#E8B321" d="M871.5,15.5c6.9-7.1,19-9.1,27.1-4.5c1.5,0.8,2.7,1.8,3.7,2.9l46.3,45.5l-77-44"/>
	<path fill="#E8B321" d="M872.8,38.7c2.3,1.3,5.7,0.7,7.6-1.3s1.7-4.7-0.6-6c-2.3-1.3-5.7-0.7-7.6,1.3
		C870.3,34.7,870.6,37.4,872.8,38.7z"/>
	<path fill="#E8B321" d="M893.1,61.5c4.1,2.3,10.2,1.3,13.6-2.3c3.5-3.6,2.9-8.4-1.1-10.7c-4.1-2.3-10.2-1.3-13.6,2.3
		C888.6,54.4,889.1,59.2,893.1,61.5z"/>
	<path fill="#E8B321" d="M903,83.7c1.8,1,4.4,0.6,5.9-1c1.5-1.6,1.3-3.6-0.5-4.6c-1.8-1-4.4-0.6-5.9,1
		C901.1,80.6,901.3,82.7,903,83.7z"/>
	<path fill="#E8B321" d="M856,50.1c1.5,0.8,3.7,0.5,4.9-0.8c1.2-1.3,1.1-3-0.4-3.8c-1.5-0.8-3.7-0.5-4.9,0.8S854.6,49.2,856,50.1z"
		/>
	<path fill="#E8B321" d="M924.2,60.1c2,1.1,5,0.6,6.6-1.1c1.7-1.7,1.4-4.1-0.5-5.2c-2-1.1-5-0.6-6.7,1.1
		C921.9,56.6,922.2,59,924.2,60.1L924.2,60.1z"/>
	<path fill="#E8B321" d="M879.1,72.1c2,1.2,5,0.6,6.7-1.1c1.7-1.8,1.5-4.1-0.5-5.3c-2-1.2-5-0.6-6.7,1.1
		C876.8,68.6,877.1,71,879.1,72.1z"/>
	<path fill="#E8B321" d="M847.6,57.1c-3.6-2-4-6.3-1-9.4l26.5-31.5l-1.6-0.9l-32.1,33.2c-3,3.1-2.6,7.3,1,9.4l11.5,6.6
		c1.1-1.2,2.5-2,4-2.6L847.6,57.1L847.6,57.1z"/>
	<path fill="#E8B321" d="M868.7,69.2c-0.3,1.3-1,2.5-2.1,3.7l37.9,21.6c2.5,1.5,5.9,1.4,8.8,0.2L868.7,69.2L868.7,69.2z"/>
</g>
</svg>
