<?xml version="1.0" encoding="UTF-8"?>
<svg id="animated-svg2" data-name="animated-svg2" xmlns="http://www.w3.org/2000/svg" viewBox="0 0 807.96 276.54">
  <g>
    <path d="m114.54,234.01l-2.04.67c-.08.69-.06,1.35,0,2,.07.64.19,1.26.36,1.87.28.93.63,1.89,1.11,2.76-1.45-1.1-2.96-2.14-4.56-3.05l-1.43,1.78c1.25,1.17,2.61,2.21,3.98,3.23,0,.01.02.02.04.02-.51-.24-1.03-.46-1.55-.68-1.45-.6-2.93-1.14-4.46-1.61l-.99,2c.57.19,1.16.4,1.73.61.86.31,1.73.64,2.57.99,1.1.46,2.21.95,3.23,1.54.77.44,1.46.97,2.16,1.49.93.71,1.83,1.46,2.65,2.29h0c.73.61,2.3.08,3.53-1.21,1.24-1.29,1.72-2.95,1.01-3.63-.39-.42-1.29-1.22-1.69-1.62-.61-.59-1.23-1.16-1.87-1.72l-.63-.55c-.49-.44-.92-1.1-1.22-1.74-.84-1.69-1.16-3.67-1.92-5.41h-.01Z" fill="#9ac422" stroke-width="0"/>
    <path d="m116.44,246.78c-1.79-1.47-8.53-3.94-8.53-3.94l.06,1.23c.46.18.91.35,1.36.54,1.1.46,2.21.95,3.23,1.54.77.44,1.46.97,2.16,1.49.93.71,1.83,1.46,2.65,2.29h0c.73.61,2.3.08,3.53-1.21,1.27-1.32,1.72-2.95,1.01-3.63-.31-.34-.97-.94-1.43-1.36-1.24,1.32-2.45,4.37-4.05,3.07h0Z" fill="#88b212" stroke-width="0"/>
    <path d="m113.2,228.08s-.02.02-.03.03c.06-.56-.14-1.15-.6-1.55-.74-.64-1.86-.55-2.5.19-.2.23-.33.5-.39.78-.11-.32-.3-.61-.58-.85-.84-.72-2.11-.63-2.83.21-.38.44-.54,1.01-.47,1.55-.14-.24-.33-.46-.54-.65-1.1-.95-2.77-.82-3.71.28-.53.61-.72,1.39-.61,2.13-.91-.78-2.27-.67-3.05.23-.68.79-.69,1.94-.07,2.74-.46-.03-.93.15-1.26.53-.55.64-.48,1.61.16,2.16.11.09.23.17.34.23-.38-.01-.75.13-1.02.45-.46.54-.4,1.35.14,1.81.07.06.14.11.22.15-.09.08-.18.16-.26.26-.78.91-.68,2.28.23,3.05.35.3.76.46,1.18.51-.57,1.06-.34,2.42.61,3.23.95.82,2.45.84,3.42.01.1.38.31.74.63,1.01.82.71,2.07.61,2.78-.21.5-.58.6-1.37.32-2.03.04.04.08.08.12.11.98.84,2.46.73,3.31-.24.71-.83.75-2.02.14-2.88.86.26,1.84.01,2.46-.71.55-.64.7-1.49.46-2.24.5.11,1.03-.04,1.39-.45.24-.28.35-.63.34-.97.57.3,1.29.18,1.72-.33.43-.51.45-1.3.02-1.81.43-.08.84-.3,1.15-.66.71-.82.61-2.07-.21-2.78-.32-.27-.69-.43-1.08-.47.28-.1.54-.27.74-.51.64-.74.55-1.86-.19-2.49-.74-.64-1.86-.55-2.5.19v.02Zm.47,6.3h-.01s0,0,0,0h0s0,0,0,0Z" fill="#3e662d" stroke-width="0"/>
    <path d="m115.69,227.89c-.28-.24-.61-.38-.95-.41-.57-.07-1.16.14-1.57.6.05-.55-.16-1.12-.6-1.51-.74-.64-1.86-.55-2.5.19-.2.23-.33.5-.39.78-.11-.32-.3-.61-.58-.85-.84-.72-2.11-.63-2.83.21-.38.44-.54,1.01-.47,1.55-.14-.24-.33-.46-.54-.65-1.1-.95-2.77-.82-3.71.28-.53.61-.72,1.39-.61,2.13-.91-.78-2.27-.67-3.05.23-.68.79-.69,1.94-.08,2.74-.46-.03-.93.15-1.26.53-.55.64-.48,1.61.16,2.16.08.06.15.12.23.17.42,0,.83-.17,1.15-.49.01,0,.02-.02.03-.03-.11.54.03,1.12.45,1.54.66.68,1.75.7,2.43.04.21-.21.36-.45.45-.73.08.32.24.61.48.87.75.77,1.98.79,2.76.04.41-.4.6-.93.59-1.46.12.24.27.47.47.68.98,1.01,2.6,1.04,3.62.05.56-.55.82-1.29.77-2.01.81.84,2.14.85,2.97.04.72-.71.84-1.81.31-2.64.45.07.92-.06,1.26-.4.17-.17.3-.37.37-.58.31-.1.6-.28.83-.54.65-.75.56-1.89-.19-2.54h0Z" fill="#487534" stroke-width="0"/>
  </g>
  <g>
    <path d="m81.02,212.22s-8.11,4.35-16.63-3.36c-.06-.06-.13-.12-.19-.18-2.38-2.2-4.16-4.78-5.5-7.35-1.89-3.61-2.88-7.21-3.4-9.67-1.54.26-3.68.35-5.69-.45-3.73-1.5-5.63-5.53-5.63-5.53,0,0,3.87-1.48,7.49-.23-1.6-3.48-.51-7.48-.51-7.48,0,0,4.18,1.5,6.05,5.05,1.01,1.93,1.12,4.07,1.01,5.62,2.51.28,6.17.91,9.95,2.44,2.69,1.08,5.43,2.6,7.86,4.75.08.05.14.11.2.17,8.53,7.73,4.99,16.22,4.99,16.22h0Z" fill="#29abe2" stroke-width="0"/>
    <path d="m66.57,204.66c-.04-.07-.05-.18-.01-.26.5-1.19,1.14-2.22,1.92-3.08.93-1.03,2.13-1.89,3.56-2.55.15-.08.33,0,.41.14s0,.33-.14.41c-1.36.64-2.49,1.45-3.37,2.42-.73.8-1.34,1.79-1.8,2.91-.06.16-.24.22-.4.17-.06-.03-.12-.08-.15-.14h0Z" fill="#0e85af" stroke-width="0"/>
    <path d="m67.45,208.69s-.05-.12-.03-.17c.01-.15.42-3.53,2.77-6.1,2.34-2.59,5.67-3.32,5.81-3.35.17-.04.32.08.36.23.04.17-.06.32-.23.36-.02.01-3.28.74-5.48,3.18-2.2,2.43-2.62,5.74-2.62,5.77-.02.17-.16.28-.33.26-.1,0-.18-.07-.23-.16h-.02Z" fill="#0e85af" stroke-width="0"/>
    <path d="m74.59,204.32c.35.64,1.15.89,1.79.54s.89-1.15.54-1.79-1.15-.89-1.79-.54-.89,1.15-.54,1.79Z" fill="#0e85af" stroke-width="0"/>
    <path d="m75.82,195.82c-2.42-2.15-5.16-3.67-7.86-4.75-.01-2.22.52-3.91.52-3.91,0,0,4.55,1.77,6.48,5.74.47.96.74,1.95.87,2.91h-.01Z" fill="#29abe2" stroke-width="0"/>
    <path d="m64.19,208.66c-.96-.05-1.99-.21-2.99-.59-4.14-1.52-6.35-5.88-6.35-5.88,0,0,1.63-.69,3.84-.89,1.33,2.57,3.12,5.15,5.5,7.35Z" fill="#0e85af" stroke-width="0"/>
    <path d="m81.35,211.14c-1.02.49-8.57,3.75-16.51-3.43-.06-.06-.13-.12-.19-.18-2.38-2.2-4.16-4.78-5.5-7.35-1.89-3.61-2.88-7.21-3.4-9.67-1.54.26-3.68.35-5.69-.45-2.65-1.07-4.38-3.41-5.15-4.67-.58.15-.93.28-.93.28,0,0,1.89,4.03,5.63,5.53,2.02.81,4.16.71,5.69.45.52,2.46,1.53,6.05,3.4,9.67,1.33,2.57,3.12,5.15,5.5,7.35.06.06.13.12.19.18,8.53,7.73,16.63,3.36,16.63,3.36,0,0,.17-.39.33-1.07Z" fill="#0e85af" stroke-width="0"/>
    <path d="m68.15,189.87s-.1-.04-.14-.05c-.03.39-.05.81-.04,1.26,2.69,1.08,5.43,2.6,7.86,4.75-.08-.55-.21-1.12-.39-1.7-2.28-1.89-4.8-3.25-7.28-4.25h0Z" fill="#0e85af" stroke-width="0"/>
  </g>
  <g>
    <path d="m146.57,262.38c2.92,3.08,5.76,6.39,8.49,9.65.45.54,1.62,1.96,2.05,2.49.47.58.58,1.84-.39,2-.48.07-.85-.02-1.22-.25l-.89-.61-1.77-1.22c-2.27-1.58-4.73-3.36-6.95-5.02-1.14-.86-2.28-1.72-3.38-2.61-1.29-1.05-1.49-2.94-.45-4.23,1.12-1.41,3.27-1.49,4.51-.19Z" fill="#f15a24" stroke-width="0"/>
    <path d="m156.66,275.29c-.48.07-.85-.02-1.22-.25l-.89-.61-1.77-1.22c-2.27-1.58-4.73-3.36-6.95-5.02-1.14-.86-2.28-1.72-3.38-2.61-.52-.43-.87-1-1.02-1.6-.17,1.03.2,2.12,1.07,2.83,1.11.9,2.25,1.75,3.38,2.61,2.23,1.66,4.68,3.44,6.95,5.02l1.77,1.22.89.61c.37.22.74.31,1.22.25.82-.14.87-1.05.58-1.68-.11.23-.31.4-.63.46h0Z" fill="#d6532b" stroke-width="0"/>
    <path d="m142.34,256.85s-1.14,1.34-1.11,2.95c-1.21-1.07-2.99-1.07-2.99-1.07,0,0,.14,1.77,1.31,2.89-1.61.11-2.85,1.36-2.85,1.36,0,0,1.38,1.18,3.03,1.11,1.42-.06,2.57-1.04,2.85-1.3h0s.01,0,.03-.03c.02-.02.03-.03.03-.03h0c.24-.31,1.11-1.54,1.05-2.96-.07-1.65-1.37-2.92-1.37-2.92h.01Z" fill="#9ac422" stroke-width="0"/>
    <path d="m143.62,259.14s0,.07,0,.12c.06,1.42-.81,2.65-1.05,2.95h0s-.01.01-.03.04c-.02.02-.03.04-.03.04h0c-.29.26-1.43,1.24-2.85,1.29-1.14.05-2.15-.5-2.66-.85-.18.15-.28.25-.28.25,0,0,1.38,1.18,3.03,1.11,1.42-.06,2.57-1.04,2.85-1.3h0s.01,0,.03-.03c.02-.02.03-.03.03-.03h0c.24-.31,1.11-1.54,1.05-2.96-.01-.22-.04-.43-.09-.63Z" fill="#8aa526" stroke-width="0"/>
  </g>
  <g>
    <path d="m184.16,14.96l-.8,2.21,7.68,2.78.8-2.21-7.68-2.78Z" fill="#8cc63f" stroke-width="0"/>
    <path d="m192.41,16.72l-.55-2.28-8.97,2.16.55,2.28,8.97-2.16Z" fill="#7faf33" stroke-width="0"/>
    <path d="m180.31,15.44l-1.03,2.11,10.16,4.96,1.03-2.11-10.16-4.96Z" fill="#83b732" stroke-width="0"/>
    <path d="m180.64,17.84l11.41-3.98-.77-2.21-10.96,3.82-15.78-.93-.14,2.34,16.23.97v-.02s0,.01,0,.01Z" fill="#8cc63f" stroke-width="0"/>
    <path d="m171.28,14.93l-6.27-.55c-.76-.07-1.42.51-1.47,1.27-.04.76.55,1.4,1.3,1.43l6.29.2.14-2.34h0Z" fill="#ecedd1" stroke-width="0"/>
    <path d="m171.28,14.93l-.03.42,9.78.58,10.46-3.65-.23-.64-10.96,3.82-9.03-.53Z" fill="#83b732" stroke-width="0"/>
    <path d="m163.94,16.1c.04-.76.71-1.34,1.47-1.27l5.85.51.03-.42-6.27-.55c-.76-.07-1.42.51-1.47,1.27-.03.49.2.92.57,1.18-.12-.21-.18-.46-.16-.72h0Z" fill="#dbdbc6" stroke-width="0"/>
  </g>
  <g>
    <path d="m206.27,26.21s-.32,7.21,8.76,10.64c.07.02.14.05.21.07,2.57.95,5.21,1.33,7.68,1.41,3.46.12,6.59-.39,8.67-.85.37,1.17,1.1,2.72,2.46,3.88,2.54,2.14,6.33,2.12,6.33,2.12,0,0-.3-3.24-2.61-5.38,3.26-.04,5.92-2.16,5.92-2.16,0,0-2.7-2.46-6.12-2.58-1.86-.06-3.53.58-4.69,1.18-1.15-1.69-3-4.06-5.57-6.22-1.83-1.54-4.01-2.97-6.56-3.96-.07-.04-.14-.06-.21-.08-9.09-3.43-14.28,1.94-14.28,1.94h.01Z" fill="#29abe2" stroke-width="0"/>
    <path d="m217.43,33.89c.07,0,.15-.03.2-.08.73-.76,1.28-1.56,1.65-2.4.44-1.01.66-2.15.63-3.38,0-.13-.12-.23-.26-.24s-.25.11-.26.24c.02,1.18-.18,2.25-.6,3.2-.34.79-.87,1.55-1.56,2.26-.1.09-.08.25.02.34.05.03.1.06.16.06h.01Z" fill="#0e85af" stroke-width="0"/>
    <path d="m214.01,34.63s.11,0,.14-.04c.11-.06,2.55-1.49,3.65-4.02,1.11-2.53.44-5.13.41-5.24-.03-.13-.18-.2-.31-.18-.14.03-.22.15-.19.28,0,.02.65,2.57-.39,4.95-1.05,2.38-3.42,3.79-3.45,3.8-.12.07-.15.21-.07.32.04.07.12.1.21.11h.01Z" fill="#0e85af" stroke-width="0"/>
    <path d="m214.71,28.1c-.62-.03-1.11-.51-1.08-1.09s.55-1.01,1.17-.99,1.11.51,1.08,1.09-.55,1.01-1.17.99Z" fill="#0e85af" stroke-width="0"/>
    <path d="m220.76,24.36c2.54.99,4.73,2.42,6.56,3.96,1.7-.74,2.8-1.68,2.8-1.68,0,0-3.05-2.62-6.81-2.65-.91,0-1.77.14-2.56.36h0Z" fill="#29abe2" stroke-width="0"/>
    <path d="m215.25,36.92c.39.67.91,1.34,1.56,1.92,2.7,2.41,6.86,2.51,6.86,2.51,0,0-.08-1.39-.75-3.02-2.47-.08-5.11-.47-7.68-1.41Z" fill="#0e85af" stroke-width="0"/>
    <path d="m206.96,25.61c0,.89.31,7.33,8.77,10.53.07.02.14.05.21.07,2.57.95,5.21,1.33,7.68,1.41,3.46.12,6.59-.39,8.67-.85.37,1.17,1.1,2.72,2.46,3.88,1.8,1.52,4.24,1.95,5.49,2.07.1.46.13.75.13.75,0,0-3.79.02-6.33-2.12-1.37-1.15-2.09-2.7-2.46-3.88-2.08.46-5.21.96-8.67.85-2.47-.08-5.11-.47-7.68-1.41-.07-.02-.14-.05-.21-.07-9.09-3.43-8.76-10.64-8.76-10.64,0,0,.23-.25.7-.6Z" fill="#0e85af" stroke-width="0"/>
    <path d="m228.17,27.78s.07.06.09.08c-.29.15-.6.31-.95.46-1.83-1.54-4.01-2.97-6.56-3.96.45-.13.94-.23,1.45-.29,2.3.98,4.27,2.3,5.96,3.72h.01Z" fill="#0e85af" stroke-width="0"/>
  </g>
  <g>
    <path d="m32.76,148.48l-12.35,6.85,1.69.95,11.64-6.46c-.38-.41-.7-.86-.98-1.34h0Zm3,4.96l-9.42,5.22,1.11.62c2.68,1.45,6.03.53,7.59-2.08.7-1.16.92-2.5.71-3.77Zm-1.16-2.67l-11.23,6.23,1.69.95,10.35-5.74c-.2-.51-.47-.99-.81-1.43h0Zm-2.75-5.06c-.26-2.97-2-5.77-4.9-7.23-4.04-2.04-9.06-.69-11.52,3.11-2.84,4.38-1.36,10.18,3.11,12.7l.59.33,13.09-7.27c-.19-.53-.32-1.08-.37-1.64Zm-10.85.69c-.92-.52-1.25-1.69-.73-2.6.52-.92,1.69-1.25,2.6-.73.92.52,1.25,1.69.73,2.6-.52.92-1.69,1.25-2.6.73Z" fill="#ad5151" stroke-width="0"/>
    <path d="m35.75,153.44l-9.42,5.22-1.27-.72,10.35-5.74c.15.4.27.82.34,1.24h0Z" fill="#994848" stroke-width="0"/>
    <path d="m34.61,150.77l-11.23,6.23-1.28-.72,11.64-6.46c.11.13.23.25.35.37.02.03.05.05.08.08.16.16.3.33.43.5h0Z" fill="#994848" stroke-width="0"/>
    <path d="m32.76,148.48l-12.35,6.85-1.28-.72,13.09-7.27c.15.39.32.77.54,1.13h0Z" fill="#994848" stroke-width="0"/>
    <path d="m25.07,157.95l1.27.72,1.11.62c1.97,1.07,4.31.85,6.03-.38l-13.38-7.52c-4.76-2.67-2.4-10.11-1.34-12.82-1.32.69-2.48,1.71-3.33,3.02-2.84,4.38-1.36,10.18,3.11,12.7l.59.33,1.28.72,1.69.95,1.28.72,1.69.95h-.02Z" isolation="isolate" opacity=".1" stroke-width="0"/>
  </g>
  <g>
    <path d="m17.22,57.65c-.83-1.07-2.38-1.24-3.47-.38l-1.98-2.55,25.27-20.13,9.52,12.26c.9,1.16.68,2.86-.49,3.79l-3.78,3.01c-1.02-1.32-2.92-1.52-4.25-.46-1.33,1.06-1.58,2.98-.56,4.3l-12.42,9.9c-1.17.93-2.86.75-3.76-.41l-4.53-5.83c1.08-.86,1.29-2.43.46-3.5Z" fill="#f9d53d" stroke-width="0"/>
    <path d="m37.06,34.63c-2.04-2.63-5.85-3.04-8.51-.92-.48.38-.89.82-1.22,1.3l-15.57,19.72,25.27-20.13" fill="#e8b321" stroke-width="0"/>
    <path d="m36.18,44c-.75.6-1.82.48-2.4-.26s-.43-1.82.31-2.42c.75-.6,1.82-.48,2.4.26.57.74.43,1.82-.31,2.42Z" fill="#e8b321" stroke-width="0"/>
    <path d="m29.29,53.8c-1.34,1.06-3.25.86-4.27-.46-1.02-1.32-.77-3.25.56-4.32,1.34-1.06,3.25-.86,4.27.46,1.02,1.32.77,3.25-.56,4.32Z" fill="#e8b321" stroke-width="0"/>
    <path d="m25.72,63c-.58.46-1.41.37-1.86-.2-.45-.57-.34-1.41.24-1.88.58-.46,1.41-.37,1.86.2.45.57.34,1.41-.24,1.88Z" fill="#e8b321" stroke-width="0"/>
    <path d="m41.29,48.01c-.48.38-1.17.31-1.53-.17-.37-.47-.28-1.17.2-1.55.48-.38,1.17-.31,1.53.17s.28,1.17-.2,1.55Z" fill="#e8b321" stroke-width="0"/>
    <path d="m19.48,54.23c-.65.52-1.59.42-2.09-.23-.5-.64-.38-1.59.27-2.11.65-.52,1.59-.42,2.09.23.5.65.38,1.59-.27,2.11Z" fill="#e8b321" stroke-width="0"/>
    <path d="m33.54,57.6c-.66.52-1.6.42-2.11-.23-.51-.65-.38-1.6.28-2.13.66-.52,1.6-.42,2.11.23.51.65.38,1.6-.28,2.13Z" fill="#e8b321" stroke-width="0"/>
    <path d="m43.8,50.56c1.17-.93,1.39-2.64.49-3.79l-7.78-11.75.53-.42,9.52,12.26c.9,1.16.68,2.86-.49,3.79l-3.78,3.01c-.33-.43-.76-.73-1.22-.92l2.73-2.18Z" fill="#e8b321" stroke-width="0"/>
    <path d="m36.88,56.09c.07.5.27.98.6,1.4l-12.42,9.9c-.83.67-1.91.76-2.8.35l14.62-11.65Z" fill="#e8b321" stroke-width="0"/>
  </g>
  <g>
    <path d="m79.97,24.68c-5.7,2.07-11.68,3.91-17.5,5.63-.96.28-3.5,1.01-4.43,1.27-1.04.29-2.74-.29-2.4-1.65.19-.67.51-1.11,1.02-1.46l1.3-.82,2.62-1.62c3.37-2.08,7.1-4.29,10.55-6.26,1.77-1,3.56-2.01,5.36-2.94,2.11-1.1,4.71-.28,5.81,1.83,1.2,2.27.09,5.15-2.32,6.02Z" fill="#f15a24" stroke-width="0"/>
    <path d="m57.27,30.56c.19-.67.51-1.11,1.02-1.46l1.3-.82,2.62-1.62c3.37-2.08,7.1-4.29,10.55-6.26,1.77-1,3.56-2.01,5.36-2.94.86-.44,1.8-.57,2.68-.42-1.26-.81-2.9-.95-4.33-.21-1.81.94-3.58,1.95-5.36,2.94-3.45,1.97-7.18,4.18-10.55,6.26l-2.62,1.62-1.3.82c-.5.35-.83.79-1.02,1.46-.29,1.15.88,1.74,1.88,1.72-.24-.28-.35-.63-.24-1.09h0Z" fill="#d6532b" stroke-width="0"/>
    <path d="m89.64,22.29s-1.11-2.26-3.24-3.14c2.1-.97,3.11-3.32,3.11-3.32,0,0-2.41-.83-4.54.08.78-2.17-.16-4.51-.16-4.51,0,0-2.34,1.14-3.18,3.34-.73,1.9-.11,3.96.07,4.49h0s.01.02.03.05c.01.04.02.06.02.06h0c.26.49,1.38,2.33,3.27,3.07,2.2.85,4.62-.12,4.62-.12h0Z" fill="#9ac422" stroke-width="0"/>
    <path d="m85.9,22.66c-.05-.02-.1-.04-.16-.06-1.9-.73-3.01-2.58-3.27-3.07h0s0-.02-.02-.06c-.02-.04-.03-.05-.03-.05h0c-.18-.52-.81-2.59-.07-4.49.59-1.52,1.88-2.53,2.63-3.01-.09-.33-.17-.52-.17-.52,0,0-2.34,1.14-3.18,3.34-.73,1.9-.11,3.96.07,4.49h0s.01.02.03.05c.01.04.02.06.02.06h0c.26.49,1.38,2.33,3.27,3.07.29.11.58.19.88.25Z" fill="#8aa526" stroke-width="0"/>
  </g>
  <g>
    <path d="m6.06,88.2l3.01.44,1.53-10.48-3.01-.44-1.53,10.48Z" fill="#8cc63f" stroke-width="0"/>
    <path d="m6.14,77.27l-2.76,1.29,5.08,10.82,2.76-1.29-5.08-10.82Z" fill="#7faf33" stroke-width="0"/>
    <path d="m7.67,92.97l2.95.76,3.65-14.19-2.95-.76-3.65,14.19Z" fill="#83b732" stroke-width="0"/>
    <path d="m10.63,91.93l-8.03-13.45-2.61,1.56,7.71,12.92,2.93,20.28,3.01-.44-3-20.87h-.02s.02,0,.02,0Z" fill="#8cc63f" stroke-width="0"/>
    <path d="m9.38,104.57l.94,8.11c.11.98,1.01,1.67,1.99,1.53.97-.14,1.64-1.06,1.48-2.03l-1.39-8.05-3.01.44h0Z" fill="#ecedd1" stroke-width="0"/>
    <path d="m9.38,104.57l.54-.08-1.81-12.58-7.36-12.33L0,80.04l7.71,12.92,1.68,11.61Z" fill="#83b732" stroke-width="0"/>
    <path d="m12.78,113.58c-.97.14-1.88-.55-1.99-1.53l-.88-7.56-.54.08.94,8.11c.11.98,1.01,1.67,1.99,1.54.62-.09,1.12-.49,1.35-1.03-.24.21-.54.34-.88.39h0Z" fill="#dbdbc6" stroke-width="0"/>
  </g>
  <g>
    <path d="m126.36,20.55l1.2-1.93c-.4-.62-.87-1.14-1.36-1.63-.49-.47-1.01-.9-1.56-1.28-.86-.57-1.8-1.11-2.78-1.48,1.93-.1,3.87-.28,5.79-.62l-.05-2.42c-1.81-.09-3.63-.02-5.44.08-.01,0-.03,0-.05,0,.58-.16,1.16-.33,1.73-.5,1.59-.5,3.16-1.07,4.72-1.73l-.55-2.3c-.6.23-1.22.46-1.82.69-.91.33-1.84.66-2.76.95-1.21.38-2.44.73-3.68.95-.93.16-1.84.21-2.77.26-1.24.05-2.48.06-3.72-.05h0c-1.01.01-1.92,1.5-2.05,3.39-.13,1.89.61,3.58,1.65,3.64.6.08,1.88.12,2.48.17.9.07,1.79.11,2.69.13l.89.02c.69.02,1.49.27,2.18.58,1.83.8,3.45,2.2,5.25,3.1h.02Z" fill="#9ac422" stroke-width="0"/>
    <path d="m116.11,11.46c2.45-.03,9.63-2.6,9.63-2.6l-.88-.96c-.49.17-.98.33-1.47.49-1.21.38-2.44.73-3.68.95-.93.16-1.84.21-2.77.26-1.24.05-2.48.06-3.72-.05h0c-1.01.01-1.92,1.5-2.05,3.39-.13,1.94.61,3.58,1.65,3.64.49.07,1.43.1,2.09.14.11-1.91-.98-5.23,1.21-5.25h0Z" fill="#88b212" stroke-width="0"/>
    <path d="m131.49,24.47s0-.03,0-.04c.33.5.9.84,1.54.85,1.04.01,1.89-.82,1.9-1.85,0-.32-.08-.63-.22-.9.31.18.66.29,1.05.29,1.17.02,2.14-.92,2.15-2.1.01-.62-.25-1.19-.67-1.58.28.1.58.15.88.16,1.55.03,2.81-1.22,2.83-2.75.01-.86-.36-1.63-.96-2.15,1.27.01,2.31-1,2.33-2.27.02-1.11-.76-2.04-1.8-2.28.39-.29.66-.76.66-1.29.01-.89-.7-1.63-1.6-1.64-.15,0-.3.02-.43.05.32-.25.52-.62.53-1.06.01-.75-.59-1.37-1.34-1.38-.1,0-.19,0-.28.02.02-.13.03-.25.04-.39.01-1.27-1-2.31-2.27-2.33-.49,0-.93.14-1.31.39C134.26.96,133.16.01,131.83,0c-1.33-.01-2.57.99-2.79,2.32-.34-.25-.75-.39-1.2-.4-1.16-.02-2.1.91-2.12,2.07-.01.81.44,1.52,1.12,1.88-.06,0-.12-.01-.17,0-1.38-.02-2.5,1.08-2.53,2.45-.01,1.16.77,2.15,1.85,2.44-.88.37-1.51,1.24-1.52,2.26-.01.89.45,1.69,1.15,2.14-.48.25-.81.73-.82,1.31,0,.39.14.76.39,1.02-.67.15-1.17.73-1.17,1.44,0,.71.52,1.36,1.22,1.49-.3.36-.48.81-.48,1.32-.02,1.16.91,2.1,2.07,2.12.44,0,.85-.12,1.19-.35-.16.27-.25.59-.26.92-.01,1.04.82,1.89,1.85,1.9,1.03.02,1.89-.82,1.9-1.85h-.02Zm-4.67-4.81h0s0-.01,0,0h0s0,0,0,0Z" fill="#3e662d" stroke-width="0"/>
    <path d="m129.59,26.32c.39,0,.76-.11,1.06-.31.51-.33.85-.9.87-1.55.33.49.89.8,1.52.82,1.04.01,1.89-.82,1.9-1.85,0-.32-.08-.63-.22-.9.31.18.66.29,1.05.29,1.17.02,2.14-.92,2.15-2.1.01-.62-.25-1.19-.67-1.58.28.1.58.15.88.16,1.55.03,2.81-1.22,2.83-2.75.01-.86-.36-1.63-.96-2.15,1.27.01,2.31-1,2.33-2.27.02-1.11-.76-2.04-1.8-2.28.39-.29.66-.76.66-1.29.01-.89-.7-1.63-1.6-1.64-.11,0-.21,0-.3.02-.33.29-.56.71-.61,1.18,0,.01,0,.03,0,.04-.28-.52-.79-.89-1.42-.95-1-.1-1.9.62-2,1.63-.03.31.01.62.13.89-.28-.2-.62-.33-.99-.38-1.13-.12-2.15.7-2.27,1.84-.06.6.14,1.17.52,1.59-.26-.12-.55-.2-.84-.23-1.49-.16-2.83.93-2.98,2.42-.09.83.21,1.6.74,2.16-1.23-.13-2.32.77-2.45,1.99-.11,1.07.55,2.05,1.55,2.36-.41.25-.7.68-.75,1.19-.03.25.01.5.1.72-.19.29-.3.64-.3,1.01-.02,1.05.83,1.92,1.89,1.93h-.01Z" fill="#487534" stroke-width="0"/>
  </g>
  <g>
    <path d="m275.74,68.47c-3.29-3.07-6.52-6.4-9.62-9.66-.51-.54-1.85-1.97-2.33-2.5-.54-.59-.73-1.91.28-2.14.5-.1.9-.04,1.31.18l.98.58,1.95,1.18c2.51,1.53,5.23,3.25,7.69,4.86,1.26.84,2.52,1.67,3.75,2.55,1.44,1.02,1.77,3.02.75,4.45-1.1,1.56-3.37,1.79-4.76.5Z" fill="#f15a24" stroke-width="0"/>
    <path d="m264.21,55.46c.5-.1.9-.04,1.31.18l.98.58,1.95,1.18c2.51,1.53,5.23,3.25,7.69,4.86,1.26.84,2.52,1.67,3.75,2.55.58.42.98,1,1.19,1.63.11-1.11-.35-2.24-1.32-2.93-1.23-.88-2.49-1.71-3.75-2.55-2.47-1.62-5.18-3.34-7.69-4.86l-1.95-1.18-.98-.58c-.4-.21-.8-.28-1.31-.18-.86.2-.85,1.17-.5,1.82.1-.25.3-.44.64-.52h0Z" fill="#d6532b" stroke-width="0"/>
    <path d="m280.58,74.05s1.12-1.5.99-3.2c1.35,1.06,3.24.93,3.24.93,0,0-.26-1.87-1.58-2.97,1.69-.22,2.93-1.63,2.93-1.63,0,0-1.54-1.16-3.28-.98-1.5.16-2.65,1.26-2.94,1.56h0s-.01.01-.02.03c-.02.02-.03.04-.03.04h0c-.23.34-1.08,1.7-.92,3.2.18,1.74,1.64,3.01,1.64,3.01h-.01Z" fill="#9ac422" stroke-width="0"/>
    <path d="m279.08,71.71s0-.08-.02-.12c-.16-1.5.69-2.86.92-3.2h0s.01-.02.03-.04c.02-.03.02-.04.02-.04h0c.29-.29,1.44-1.4,2.94-1.56,1.2-.12,2.31.39,2.88.72.18-.17.29-.28.29-.28,0,0-1.54-1.16-3.28-.98-1.5.16-2.65,1.26-2.94,1.56h0s-.01.01-.02.03c-.02.02-.03.04-.03.04h0c-.23.34-1.08,1.7-.92,3.2.03.23.07.45.13.66Z" fill="#8aa526" stroke-width="0"/>
  </g>
  <g>
    <path d="m313.22,88.06c1.16-.76,1.47-2.31.71-3.47l2.75-1.81,17.81,27.01-13.22,8.68c-1.25.82-2.94.47-3.76-.78l-2.67-4.04c1.42-.93,1.81-2.83.87-4.26-.94-1.43-2.84-1.82-4.26-.89l-8.76-13.28c-.83-1.25-.48-2.94.77-3.76l6.29-4.13c.76,1.16,2.32,1.48,3.48.72Z" fill="#f9d53d" stroke-width="0"/>
    <path d="m334.44,109.81c2.83-1.86,3.61-5.67,1.74-8.51-.34-.51-.73-.96-1.19-1.33l-18.32-17.19,17.81,27.01" fill="#e8b321" stroke-width="0"/>
    <path d="m325.11,108.21c-.53-.8-.31-1.87.49-2.4s1.87-.3,2.4.5c.53.8.31,1.87-.49,2.4-.8.52-1.87.3-2.4-.5Z" fill="#e8b321" stroke-width="0"/>
    <path d="m315.92,100.53c-.94-1.43-.55-3.34.87-4.28,1.42-.93,3.34-.53,4.28.89.94,1.43.55,3.34-.87,4.28-1.42.93-3.34.53-4.28-.89Z" fill="#e8b321" stroke-width="0"/>
    <path d="m307.02,96.23c-.41-.62-.24-1.45.38-1.86.62-.41,1.45-.23,1.86.39.41.62.24,1.45-.38,1.86-.62.41-1.45.23-1.86-.39Z" fill="#e8b321" stroke-width="0"/>
    <path d="m320.6,113.07c-.34-.51-.2-1.2.31-1.53.51-.34,1.2-.19,1.54.32.34.51.2,1.2-.31,1.53s-1.2.19-1.54-.32Z" fill="#e8b321" stroke-width="0"/>
    <path d="m316.43,90.6c-.46-.7-.27-1.63.43-2.09.7-.46,1.63-.26,2.09.44.46.7.27,1.63-.43,2.09-.7.46-1.63.26-2.09-.44Z" fill="#e8b321" stroke-width="0"/>
    <path d="m311.7,104.53c-.46-.7-.27-1.65.43-2.11.7-.46,1.65-.26,2.11.44.46.7.27,1.65-.43,2.11-.7.46-1.65.26-2.11-.44Z" fill="#e8b321" stroke-width="0"/>
    <path d="m317.8,115.4c.83,1.25,2.51,1.6,3.76.78l12.55-6.96.37.57-13.22,8.68c-1.25.82-2.94.47-3.76-.78l-2.67-4.04c.46-.3.81-.71,1.04-1.16l1.93,2.92Z" fill="#e8b321" stroke-width="0"/>
    <path d="m312.9,108.01c-.51.03-1.01.2-1.46.49l-8.76-13.28c-.59-.89-.58-1.98-.09-2.85l10.31,15.63Z" fill="#e8b321" stroke-width="0"/>
  </g>
  <g>
    <path d="m425.44,146.54l10.24-9.73-1.88-.49-9.65,9.17c.47.31.9.66,1.28,1.05h0Zm-4.15-4.06l7.81-7.42-1.23-.33c-2.96-.73-5.97,1-6.83,3.92-.39,1.3-.26,2.65.25,3.83Zm1.79,2.3l9.3-8.85-1.88-.49-8.58,8.15c.32.45.71.84,1.14,1.18h0Zm3.93,4.21c.99,2.81,3.38,5.08,6.56,5.77,4.42.96,8.94-1.6,10.38-5.9,1.65-4.95-1.23-10.2-6.2-11.51l-.65-.17-10.85,10.32c.32.46.58.96.77,1.49Zm10.33-3.39c1.03.27,1.63,1.32,1.36,2.34-.27,1.02-1.32,1.63-2.34,1.36-1.02-.27-1.63-1.32-1.36-2.34.27-1.02,1.32-1.63,2.34-1.36Z" fill="#ad5151" stroke-width="0"/>
    <path d="m421.3,142.49l7.81-7.42,1.41.38-8.58,8.15c-.25-.35-.47-.72-.64-1.12h0Z" fill="#994848" stroke-width="0"/>
    <path d="m423.08,144.78l9.3-8.85,1.42.37-9.65,9.17c-.14-.09-.28-.18-.43-.27-.03-.02-.06-.04-.1-.06-.19-.12-.37-.24-.54-.38h0Z" fill="#994848" stroke-width="0"/>
    <path d="m425.44,146.54l10.24-9.73,1.42.37-10.85,10.32c-.24-.34-.51-.66-.81-.95h0Z" fill="#994848" stroke-width="0"/>
    <path d="m430.52,135.44l-1.41-.38-1.23-.33c-2.18-.54-4.39.26-5.74,1.88l14.84,3.93c5.28,1.4,4.86,9.19,4.51,12.08,1.1-1,1.97-2.28,2.46-3.76,1.65-4.95-1.23-10.2-6.2-11.51l-.65-.17-1.42-.37-1.88-.49-1.42-.37-1.88-.49h.01Z" isolation="isolate" opacity=".1" stroke-width="0"/>
  </g>
  <g>
    <path d="m380.34,125.86l-1.86,2.41,8.38,6.47,1.86-2.41-8.38-6.47Z" fill="#8cc63f" stroke-width="0"/>
    <path d="m389.83,131.3l.22-3.04-11.93-.88-.22,3.04,11.93.88Z" fill="#7faf33" stroke-width="0"/>
    <path d="m375.4,124.93l-2.11,2.2,10.58,10.14,2.11-2.2-10.58-10.14Z" fill="#83b732" stroke-width="0"/>
    <path d="m374.85,128.02l15.66-.4-.08-3.04-15.04.39-19.11-7.39-1.09,2.84,19.66,7.61v-.02s0,.02,0,.02Z" fill="#8cc63f" stroke-width="0"/>
    <path d="m364.45,120.74l-7.53-3.16c-.91-.38-1.95.06-2.31.98-.35.92.12,1.95,1.05,2.28l7.69,2.73,1.09-2.84h0Z" fill="#ecedd1" stroke-width="0"/>
    <path d="m364.45,120.74l-.2.51,11.85,4.59,14.35-.37-.03-.89-15.04.39-10.94-4.23Z" fill="#83b732" stroke-width="0"/>
    <path d="m354.93,119.28c.35-.92,1.4-1.37,2.31-.98l7.02,2.94.2-.51-7.53-3.16c-.91-.38-1.95.06-2.31.98-.23.59-.12,1.22.23,1.68-.06-.31-.04-.64.09-.96h0Z" fill="#dbdbc6" stroke-width="0"/>
  </g>
  <g>
    <path d="m484.08,158.93l1.66-1.56c-.23-.7-.54-1.33-.89-1.93-.35-.59-.74-1.13-1.17-1.64-.68-.78-1.45-1.54-2.3-2.16,1.89.41,3.81.74,5.75.91l.58-2.35c-1.73-.56-3.5-.97-5.27-1.34-.01,0-.03,0-.05,0,.6,0,1.2-.02,1.8-.04,1.66-.07,3.33-.21,5.01-.44l.07-2.36c-.64.07-1.3.13-1.94.19-.96.08-1.95.16-2.91.19-1.27.05-2.55.07-3.8-.04-.94-.08-1.83-.28-2.74-.48-1.21-.28-2.41-.59-3.57-1.02h0c-.98-.25-2.25.95-2.87,2.74-.62,1.79-.34,3.61.64,3.94.56.23,1.79.6,2.35.81.85.3,1.7.57,2.57.83l.86.25c.66.2,1.37.65,1.95,1.13,1.56,1.25,2.76,3.02,4.27,4.36h.02Z" fill="#9ac422" stroke-width="0"/>
    <path d="m476.56,147.48c2.38.61,9.97,0,9.97,0l-.6-1.16c-.52.03-1.04.07-1.55.09-1.27.05-2.55.07-3.8-.04-.94-.08-1.83-.28-2.74-.48-1.21-.28-2.41-.59-3.57-1.02h0c-.98-.25-2.25.95-2.87,2.74-.64,1.84-.34,3.61.64,3.94.45.19,1.36.47,1.99.68.6-1.82.41-5.3,2.53-4.76h0Z" fill="#88b212" stroke-width="0"/>
    <path d="m488.02,164.05s.01-.03.01-.04c.19.57.65,1.04,1.27,1.22,1,.28,2.03-.3,2.32-1.29.09-.31.09-.63.02-.93.25.26.57.45.93.56,1.13.32,2.31-.33,2.63-1.47.17-.6.07-1.21-.24-1.7.24.17.52.3.81.38,1.49.43,3.03-.44,3.45-1.92.24-.82.08-1.66-.37-2.33,1.22.34,2.49-.36,2.84-1.58.3-1.07-.2-2.17-1.15-2.67.46-.18.83-.56.98-1.07.24-.86-.26-1.76-1.12-2-.14-.04-.3-.06-.43-.06.37-.15.67-.46.78-.89.21-.72-.21-1.48-.94-1.68-.1-.02-.19-.04-.28-.05.06-.12.1-.24.14-.36.34-1.22-.36-2.49-1.58-2.84-.47-.13-.94-.11-1.37.03.07-1.28-.74-2.48-2.03-2.84-1.28-.36-2.74.29-3.3,1.52-.26-.33-.63-.57-1.05-.69-1.11-.32-2.27.33-2.58,1.44-.22.78.03,1.58.59,2.1-.05-.02-.11-.04-.16-.05-1.32-.37-2.7.39-3.08,1.71-.32,1.12.18,2.28,1.15,2.84-.94.13-1.78.81-2.05,1.78-.24.86,0,1.75.56,2.36-.53.11-.98.5-1.14,1.05-.11.37-.06.77.11,1.09-.68-.03-1.32.4-1.51,1.09-.19.68.15,1.45.79,1.76-.38.27-.67.66-.81,1.14-.32,1.11.33,2.27,1.44,2.58.43.12.86.1,1.24-.03-.23.22-.4.5-.49.83-.28,1,.3,2.03,1.29,2.32.99.29,2.03-.3,2.32-1.29h-.02Zm-3.26-5.86h0s0-.01,0,0h0s0,0,0,0Z" fill="#3e662d" stroke-width="0"/>
    <path d="m485.7,165.34c.37.11.76.09,1.1-.03.58-.19,1.05-.65,1.24-1.27.2.56.65,1.01,1.25,1.18,1,.28,2.03-.3,2.32-1.29.09-.31.09-.63.02-.93.25.26.57.45.93.56,1.13.32,2.31-.33,2.63-1.47.17-.6.07-1.21-.24-1.7.24.17.52.3.81.38,1.49.43,3.03-.44,3.45-1.92.24-.82.08-1.66-.37-2.33,1.22.34,2.49-.36,2.84-1.58.3-1.07-.2-2.17-1.15-2.67.46-.18.83-.56.98-1.07.24-.86-.26-1.76-1.12-2-.1-.03-.2-.05-.3-.06-.4.2-.73.54-.89.98,0,.01-.01.03-.01.04-.13-.57-.53-1.06-1.12-1.29-.94-.36-1.99.11-2.36,1.05-.11.29-.15.6-.11.9-.22-.27-.51-.48-.85-.62-1.07-.41-2.26.12-2.67,1.19-.22.57-.17,1.17.08,1.67-.22-.18-.47-.34-.76-.44-1.4-.54-2.97.16-3.51,1.56-.3.78-.21,1.6.16,2.28-1.15-.44-2.44.14-2.88,1.29-.38,1.01,0,2.12.88,2.68-.46.13-.85.47-1.04.95-.09.24-.12.49-.09.72-.26.23-.46.54-.55.89-.29,1.01.3,2.07,1.32,2.36h0Z" fill="#487534" stroke-width="0"/>
  </g>
  <g>
    <path d="m542.34,151.21c-4.5-.02-9.13-.27-13.62-.56-.74-.05-2.7-.19-3.41-.25-.8-.07-1.83-.9-1.25-1.76.3-.42.64-.64,1.08-.75l1.11-.23,2.24-.46c2.88-.58,6.04-1.17,8.95-1.65,1.49-.24,2.99-.49,4.48-.68,1.75-.23,3.35,1.01,3.57,2.76.26,1.89-1.26,3.6-3.16,3.6Z" fill="#f15a24" stroke-width="0"/>
    <path d="m525.04,149.49c.3-.42.64-.64,1.08-.75l1.11-.23,2.24-.46c2.88-.59,6.04-1.17,8.95-1.65,1.49-.24,2.99-.49,4.48-.68.71-.09,1.4.07,1.98.39-.67-.89-1.78-1.4-2.96-1.25-1.5.19-2.99.44-4.48.68-2.91.49-6.07,1.07-8.95,1.65l-2.24.46-1.11.23c-.44.12-.78.34-1.08.76-.5.73.17,1.44.87,1.68-.09-.25-.08-.53.11-.82h0Z" fill="#d6532b" stroke-width="0"/>
    <path d="m549.68,152.02s-.19-1.86-1.45-3.02c1.71-.14,3.01-1.51,3.01-1.51,0,0-1.46-1.19-3.18-1.11,1.1-1.31,1.04-3.18,1.04-3.18,0,0-1.92.19-3.07,1.51-.99,1.13-1.09,2.73-1.1,3.14h0s0,.02,0,.04c0,.03,0,.05,0,.05h0c.06.41.36,1.98,1.49,2.97,1.31,1.15,3.24,1.1,3.24,1.1h0Z" fill="#9ac422" stroke-width="0"/>
    <path d="m546.99,151.32s-.06-.05-.1-.08c-1.13-.99-1.43-2.57-1.49-2.97h0s0-.02,0-.05c0-.03,0-.05,0-.05h0c0-.41.1-2.01,1.1-3.14.8-.91,1.96-1.28,2.6-1.42.02-.25.02-.4.02-.4,0,0-1.92.19-3.07,1.51-.99,1.13-1.09,2.73-1.1,3.14h0s0,.02,0,.04c0,.03,0,.05,0,.05h0c.06.41.36,1.98,1.49,2.97.18.15.36.28.55.4Z" fill="#8aa526" stroke-width="0"/>
  </g>
  <g>
    <path d="m576.23,139.82s3.35,6.39,12.93,4.78c.07-.01.14-.03.22-.04,2.7-.47,5.17-1.47,7.34-2.64,3.05-1.64,5.5-3.65,7.06-5.1.91.83,2.32,1.8,4.08,2.11,3.27.57,6.53-1.35,6.53-1.35,0,0-1.89-2.65-4.96-3.33,2.8-1.67,4.02-4.85,4.02-4.85,0,0-3.57-.76-6.58.85-1.63.88-2.76,2.28-3.46,3.38-1.84-.88-4.63-2-7.94-2.57-2.35-.41-4.96-.55-7.66-.12-.08,0-.15.02-.22.03-9.58,1.61-11.37,8.86-11.37,8.86h.01Z" fill="#29abe2" stroke-width="0"/>
    <path d="m589.74,140.84c.06-.03.12-.1.14-.17.25-1.02.32-1.99.22-2.9-.12-1.1-.51-2.19-1.16-3.24-.06-.11-.22-.14-.34-.08s-.16.22-.1.33c.61,1.01.98,2.04,1.09,3.07.1.85.03,1.78-.21,2.74-.04.13.05.25.19.28.06,0,.12,0,.17-.03h.01Z" fill="#0e85af" stroke-width="0"/>
    <path d="m587.16,143.2s.09-.06.1-.1c.06-.11,1.45-2.57,1.13-5.31-.31-2.74-2.2-4.66-2.29-4.74-.09-.1-.26-.09-.36,0-.11.09-.11.24-.02.34.01.02,1.86,1.9,2.15,4.48.29,2.58-1.05,5-1.07,5.02-.07.12-.02.26.1.31.07.04.16.03.23-.01h.02Z" fill="#0e85af" stroke-width="0"/>
    <path d="m584.48,137.2c-.55.29-1.21.11-1.48-.4s-.04-1.15.52-1.44,1.21-.11,1.48.4.04,1.15-.52,1.44Z" fill="#0e85af" stroke-width="0"/>
    <path d="m587.82,130.93c2.7-.43,5.3-.29,7.66.12,1.1-1.49,1.57-2.87,1.57-2.87,0,0-3.95-.73-7.22,1.14-.79.45-1.46,1.01-2.03,1.6h0Z" fill="#29abe2" stroke-width="0"/>
    <path d="m589.38,144.56c.68.38,1.46.7,2.32.87,3.55.73,7.19-1.28,7.19-1.28,0,0-.77-1.16-2.17-2.23-2.17,1.18-4.65,2.16-7.34,2.64Z" fill="#0e85af" stroke-width="0"/>
    <path d="m576.53,138.95c.45.76,3.96,6.18,12.87,4.69.07-.01.14-.03.22-.04,2.7-.47,5.17-1.47,7.34-2.64,3.05-1.64,5.5-3.65,7.06-5.1.91.83,2.32,1.8,4.08,2.11,2.32.41,4.65-.45,5.79-.97.32.35.49.58.49.58,0,0-3.26,1.92-6.53,1.35-1.77-.31-3.17-1.28-4.08-2.11-1.56,1.44-4.01,3.45-7.06,5.1-2.17,1.18-4.65,2.16-7.34,2.64-.07.01-.14.03-.22.04-9.58,1.61-12.93-4.78-12.93-4.78,0,0,.08-.33.3-.87Z" fill="#0e85af" stroke-width="0"/>
    <path d="m595.95,130.16s.09.02.12.02c-.17.27-.36.57-.59.87-2.35-.41-4.96-.55-7.66-.12.32-.34.7-.67,1.1-.98,2.48-.31,4.85-.16,7.02.21h.01Z" fill="#0e85af" stroke-width="0"/>
  </g>
  <g>
    <path d="m643.06,120.52c-.46-1.32-1.9-2.02-3.21-1.57l-1.1-3.14,30.61-10.57,5.29,15.11c.5,1.43-.25,2.99-1.67,3.48l-4.58,1.58c-.57-1.62-2.33-2.48-3.94-1.93-1.62.56-2.46,2.31-1.89,3.94l-15.05,5.19c-1.42.49-2.98-.27-3.48-1.7l-2.52-7.19c1.31-.45,2-1.89,1.54-3.21Z" fill="#f9d53d" stroke-width="0"/>
    <path d="m669.36,105.28c-1.13-3.24-4.67-4.96-7.88-3.85-.58.2-1.11.47-1.58.83l-21.16,13.55,30.61-10.57" fill="#e8b321" stroke-width="0"/>
    <path d="m665.57,113.99c-.91.31-1.9-.17-2.22-1.08s.16-1.9,1.06-2.22c.91-.31,1.9.17,2.22,1.08.32.91-.16,1.9-1.06,2.22Z" fill="#e8b321" stroke-width="0"/>
    <path d="m655.87,121.03c-1.62.56-3.39-.31-3.96-1.94-.57-1.63.28-3.4,1.9-3.96,1.62-.56,3.39.31,3.96,1.94.57,1.63-.28,3.4-1.9,3.96Z" fill="#e8b321" stroke-width="0"/>
    <path d="m649.54,128.63c-.7.24-1.47-.13-1.72-.84-.25-.71.12-1.48.83-1.72.7-.24,1.47.13,1.72.84.25.71-.12,1.48-.83,1.72Z" fill="#e8b321" stroke-width="0"/>
    <path d="m669.22,119.63c-.58.2-1.22-.11-1.42-.69-.2-.58.1-1.22.68-1.42.58-.2,1.22.11,1.42.69s-.1,1.22-.68,1.42Z" fill="#e8b321" stroke-width="0"/>
    <path d="m646.31,118.02c-.79.27-1.66-.15-1.94-.95-.28-.8.14-1.66.93-1.93.79-.27,1.66.15,1.94.95.28.8-.14,1.66-.93,1.93Z" fill="#e8b321" stroke-width="0"/>
    <path d="m658.76,126.16c-.8.28-1.67-.15-1.95-.95-.28-.8.14-1.68.94-1.95.8-.28,1.67.15,1.95.95.28.8-.14,1.68-.94,1.95Z" fill="#e8b321" stroke-width="0"/>
    <path d="m670.82,122.96c1.42-.49,2.17-2.05,1.67-3.48l-3.77-14.02.64-.22,5.29,15.11c.5,1.43-.25,2.99-1.67,3.48l-4.58,1.58c-.18-.53-.5-.97-.88-1.31l3.31-1.14Z" fill="#e8b321" stroke-width="0"/>
    <path d="m662.44,125.87c-.09.5-.05,1.04.13,1.55l-15.05,5.19c-1.01.35-2.07.06-2.8-.63l17.71-6.11Z" fill="#e8b321" stroke-width="0"/>
  </g>
  <g>
    <path d="m714.31,85.94l.88,2.91,10.13-3.07-.88-2.91-10.13,3.07Z" fill="#8cc63f" stroke-width="0"/>
    <path d="m724.24,81.36l-2.34-1.94-7.63,9.21,2.34,1.94,7.63-9.21Z" fill="#7faf33" stroke-width="0"/>
    <path d="m710.68,89.43l.57,2.99,14.4-2.74-.57-2.99-14.4,2.74Z" fill="#83b732" stroke-width="0"/>
    <path d="m712.89,91.66l8.75-12.99-2.52-1.7-8.41,12.47-17.1,11.28,1.68,2.54,17.6-11.6v-.02s0,.01,0,.01Z" fill="#8cc63f" stroke-width="0"/>
    <path d="m700.92,95.91l-6.94,4.3c-.84.52-1.08,1.63-.54,2.46.54.82,1.66,1.03,2.46.47l6.69-4.68-1.68-2.54h0Z" fill="#ecedd1" stroke-width="0"/>
    <path d="m700.92,95.91l.3.46,10.61-6.99,8.02-11.91-.74-.49-8.41,12.47-9.79,6.46Z" fill="#83b732" stroke-width="0"/>
    <path d="m694.21,102.83c-.54-.82-.3-1.94.54-2.46l6.47-4.01-.3-.46-6.94,4.3c-.84.52-1.08,1.63-.54,2.46.35.53.92.8,1.51.79-.29-.13-.54-.34-.73-.63h0Z" fill="#dbdbc6" stroke-width="0"/>
  </g>
  <g>
    <path d="m758.32,68.99l-7.48-11.98-.86,1.74,7.05,11.3c.39-.4.83-.75,1.29-1.05h0Zm-4.8,3.25l-5.7-9.13-.57,1.14c-1.31,2.75-.22,6.05,2.47,7.48,1.2.64,2.54.79,3.8.52Zm2.61-1.29l-6.8-10.89-.86,1.74,6.27,10.04c.5-.22.97-.52,1.39-.88h0Zm4.91-3.01c2.96-.41,5.66-2.29,6.97-5.26,1.83-4.14.22-9.08-3.7-11.35-4.52-2.61-10.24-.84-12.52,3.76l-.3.6,7.93,12.7c.52-.22,1.06-.38,1.62-.45Zm-1.25-10.8c.47-.95,1.62-1.33,2.56-.86.94.47,1.33,1.62.86,2.56-.47.94-1.62,1.33-2.56.86-.94-.47-1.33-1.62-.86-2.56Z" fill="#ad5151" stroke-width="0"/>
    <path d="m753.51,72.23l-5.7-9.13.65-1.31,6.27,10.04c-.39.17-.8.32-1.22.4h0Z" fill="#994848" stroke-width="0"/>
    <path d="m756.12,70.95l-6.8-10.89.65-1.32,7.05,11.3c-.12.12-.24.24-.35.37-.03.03-.05.05-.08.09-.15.16-.31.31-.48.46h0Z" fill="#994848" stroke-width="0"/>
    <path d="m758.32,68.99l-7.48-11.98.65-1.32,7.93,12.7c-.38.17-.75.36-1.1.6h0Z" fill="#994848" stroke-width="0"/>
    <path d="m748.46,61.79l-.65,1.31-.57,1.14c-.96,2.03-.63,4.35.69,6.01l6.82-13.75c2.43-4.89,9.97-2.92,12.74-2-.76-1.28-1.84-2.39-3.19-3.17-4.52-2.61-10.24-.84-12.52,3.76l-.3.6-.65,1.32-.86,1.74-.65,1.32-.86,1.74v-.02Z" isolation="isolate" opacity=".1" stroke-width="0"/>
  </g>
  <g>
    <path d="m799.68,31.22l-.76-2.15c-.73-.07-1.44-.03-2.12.05-.68.09-1.34.23-1.97.42-.99.31-1.99.71-2.9,1.25,1.13-1.57,2.2-3.19,3.13-4.91l-1.92-1.47c-1.21,1.36-2.28,2.82-3.33,4.3-.01,0-.02.03-.03.04.24-.55.46-1.11.68-1.66.6-1.55,1.14-3.14,1.6-4.77l-2.14-1.01c-.19.61-.4,1.24-.6,1.85-.31.91-.64,1.85-.99,2.75-.46,1.18-.95,2.36-1.55,3.47-.45.83-.99,1.57-1.53,2.33-.74,1-1.5,1.98-2.36,2.87h0c-.63.8-.03,2.44,1.36,3.73,1.4,1.28,3.17,1.76,3.87.98.44-.42,1.27-1.4,1.68-1.84.61-.66,1.21-1.33,1.78-2.02l.57-.68c.45-.53,1.14-1,1.81-1.34,1.77-.93,3.87-1.32,5.7-2.17h0Z" fill="#9ac422" stroke-width="0"/>
    <path d="m786.18,33.54c1.51-1.93,3.98-9.15,3.98-9.15l-1.3.09c-.18.49-.35.98-.54,1.45-.46,1.18-.95,2.36-1.55,3.47-.45.83-.99,1.57-1.53,2.33-.74,1-1.5,1.98-2.36,2.87h0c-.63.8-.03,2.44,1.36,3.73,1.43,1.32,3.17,1.76,3.87.98.36-.34.98-1.05,1.41-1.55-1.43-1.28-4.7-2.5-3.35-4.22h0Z" fill="#88b212" stroke-width="0"/>
    <path d="m805.94,29.65s-.02-.02-.03-.03c.6.05,1.22-.18,1.63-.68.66-.8.54-1.98-.26-2.64-.25-.21-.54-.33-.84-.39.34-.13.64-.34.88-.63.74-.91.62-2.25-.3-2.99-.48-.4-1.08-.55-1.66-.46.25-.15.48-.36.68-.59.98-1.19.8-2.95-.38-3.93-.66-.54-1.5-.73-2.28-.59.8-.98.66-2.43-.32-3.23-.86-.71-2.07-.68-2.91-.01.02-.49-.18-.98-.59-1.32-.69-.57-1.72-.47-2.28.22-.1.12-.17.25-.23.37,0-.4-.16-.8-.5-1.07-.58-.48-1.44-.4-1.91.19-.06.08-.11.15-.16.24-.08-.1-.18-.18-.28-.27-.98-.8-2.43-.67-3.23.32-.31.38-.47.82-.52,1.27-1.14-.58-2.57-.31-3.41.72-.84,1.03-.83,2.62.07,3.63-.4.11-.78.35-1.06.69-.74.89-.6,2.21.29,2.94.63.52,1.47.6,2.17.3-.04.04-.08.08-.11.13-.87,1.06-.72,2.63.34,3.5.9.74,2.16.74,3.06.08-.26.92.03,1.95.82,2.59.69.57,1.6.7,2.39.43-.11.53.07,1.09.51,1.46.3.25.68.36,1.04.34-.3.61-.16,1.37.39,1.81.55.45,1.39.44,1.92-.02.09.46.33.88.73,1.2.89.74,2.21.6,2.94-.29.28-.34.44-.74.47-1.15.11.3.3.56.56.78.8.66,1.98.54,2.64-.26.66-.8.54-1.98-.26-2.64h-.02Zm-6.67.65h0s0-.01,0,0h0s0,0,0,0Z" fill="#3e662d" stroke-width="0"/>
    <path d="m806.2,32.29c.25-.3.39-.66.42-1.02.06-.61-.18-1.23-.67-1.65.59.04,1.18-.19,1.59-.68.66-.8.54-1.98-.26-2.64-.25-.21-.54-.33-.84-.39.34-.13.64-.34.88-.63.74-.91.62-2.25-.3-2.99-.48-.4-1.08-.55-1.66-.46.25-.15.48-.36.68-.59.98-1.19.8-2.95-.38-3.93-.66-.54-1.5-.73-2.28-.59.8-.98.66-2.43-.32-3.23-.86-.71-2.07-.68-2.91-.01.02-.49-.18-.98-.59-1.32-.69-.57-1.72-.47-2.28.22-.07.08-.12.17-.17.25.02.44.2.88.54,1.21,0,.01.02.02.03.03-.58-.11-1.19.06-1.63.51-.71.72-.7,1.87.02,2.58.22.22.49.37.78.46-.33.09-.65.27-.91.53-.8.81-.79,2.12.02,2.93.43.43,1,.62,1.57.59-.25.13-.5.3-.71.52-1.05,1.07-1.04,2.79.03,3.84.59.58,1.38.84,2.15.77-.87.88-.85,2.29.03,3.15.77.75,1.94.84,2.81.26-.06.48.09.97.46,1.33.18.18.4.3.62.38.11.33.31.63.6.86.81.67,2.01.55,2.69-.27h-.02Z" fill="#487534" stroke-width="0"/>
  </g>
</svg>