<?xml version="1.0" encoding="utf-8"?>
<!-- Generator: Adobe Illustrator 28.0.0, SVG Export Plug-In . SVG Version: 6.00 Build 0)  -->
<svg version="1.1" id="animated-svg4" xmlns="http://www.w3.org/2000/svg" xmlns:xlink="http://www.w3.org/1999/xlink" x="0px"
	 y="0px" viewBox="0 0 1366 768" enable-background="new 0 0 1366 768" xml:space="preserve">
<g>
	<path fill="#F15A24" d="M1107.1,509c-1.6,10.9-3.8,22-6.1,32.7c-0.4,1.8-1.3,6.4-1.8,8.2c-0.5,1.9-2.9,4.1-4.7,2.4
		c-0.9-0.9-1.3-1.8-1.5-2.8l-0.2-2.7l-0.3-5.5c-0.4-7.2-0.7-15-0.9-22.2c-0.1-3.7-0.2-7.4-0.1-11c0.1-4.3,3.6-7.7,7.9-7.7
		C1104.1,500.3,1107.8,504.5,1107.1,509L1107.1,509z"/>
	<path fill="#D6532B" d="M1097,550.2c-0.9-0.9-1.3-1.8-1.5-2.8l-0.2-2.7l-0.3-5.5c-0.4-7.2-0.7-15-0.9-22.2c-0.1-3.7-0.2-7.4-0.1-11
		c0-1.7,0.7-3.4,1.6-4.7c-2.4,1.3-4,3.8-4.1,6.7c0,3.7,0,7.3,0.1,11c0.2,7.1,0.5,15,0.9,22.2l0.3,5.5l0.2,2.7
		c0.1,1.1,0.5,2.1,1.5,2.8c1.6,1.4,3.5,0.1,4.3-1.5C1098.2,550.9,1097.5,550.8,1097,550.2L1097,550.2L1097,550.2z"/>
	<path fill="#9AC422" d="M1111.6,491.6c0,0-4.6-0.2-7.8,2.4c0.3-4.2-2.7-7.8-2.7-7.8s-3.4,3.1-3.7,7.3c-2.7-3.1-7.3-3.6-7.3-3.6
		s-0.2,4.7,2.6,8c2.4,2.8,6.2,3.5,7.2,3.7l0,0l0.1,0c0.1,0,0.1,0,0.1,0l0,0c1,0,4.9-0.2,7.6-2.6
		C1111.1,496.2,1111.6,491.6,1111.6,491.6L1111.6,491.6L1111.6,491.6z"/>
	<path fill="#8AA526" d="M1109,497.9c-0.1,0.1-0.1,0.1-0.2,0.2c-2.8,2.4-6.6,2.5-7.6,2.6l0,0c0,0,0,0-0.1,0c-0.1,0-0.1,0-0.1,0l0,0
		c-1-0.2-4.8-0.9-7.2-3.7c-1.9-2.3-2.4-5.1-2.5-6.7c-0.6-0.2-1-0.2-1-0.2s-0.2,4.7,2.6,8c2.4,2.8,6.2,3.5,7.2,3.7l0,0l0.1,0
		c0.1,0,0.1,0,0.1,0l0,0c1,0,4.9-0.2,7.6-2.6C1108.3,498.7,1108.6,498.2,1109,497.9z"/>
</g>
<g>
	<path fill="#8CC63F" d="M947.5,225.3l5.3-2.1l-7.3-18.5l-5.3,2.1L947.5,225.3z"/>
	<path fill="#7FAF33" d="M937.4,207.3l-3.3,4.7l18.4,12.9l3.3-4.7L937.4,207.3z"/>
	<path fill="#83B732" d="M954.6,231.5l5.5-1.5l-7.3-26.6l-5.5,1.5L954.6,231.5z"/>
	<path fill="#8CC63F" d="M958.5,227.1l-25.7-14.4l-2.8,5l24.7,13.9l23.8,30.4l4.5-3.5L958.5,227.1L958.5,227.1L958.5,227.1
		L958.5,227.1z"/>
	<path fill="#ECEDD1" d="M968.3,248.9l9.1,12.4c1.1,1.5,3.2,1.8,4.7,0.6c1.5-1.1,1.7-3.3,0.5-4.7l-9.8-11.8L968.3,248.9L968.3,248.9
		z"/>
	<path fill="#83B732" d="M968.3,248.9l0.8-0.6l-14.7-18.8l-23.6-13.2l-0.8,1.4l24.7,13.9L968.3,248.9L968.3,248.9z"/>
	<path fill="#DBDBC6" d="M982.3,260.4c-1.5,1.1-3.6,0.9-4.7-0.6l-8.5-11.5l-0.8,0.6l9.1,12.4c1.1,1.5,3.2,1.8,4.7,0.6
		c0.9-0.7,1.4-1.8,1.2-3C983.1,259.5,982.8,260,982.3,260.4L982.3,260.4L982.3,260.4z"/>
</g>
<g>
	<path fill="#AD5151" d="M1057.1,427l30.5-20.1l-4.6-2.1l-28.8,19.1C1055.4,424.8,1056.3,425.8,1057.1,427L1057.1,427z
		 M1048.4,414.8l23.3-15.4l-3-1.4c-7.2-3.2-15.7-0.2-19.2,6.9C1047.9,408,1047.5,411.5,1048.4,414.8L1048.4,414.8z M1051.9,421.5
		l27.7-18.4l-4.6-2.1l-25.5,16.9C1050.1,419.2,1050.9,420.5,1051.9,421.5L1051.9,421.5L1051.9,421.5z M1060.1,434
		c1.2,7.6,6.3,14.4,14.1,17.7c10.8,4.5,23.5,0,29.1-10.3c6.5-11.9,1.5-26.6-10.6-32.1l-1.6-0.7l-32.3,21.4
		C1059.4,431.2,1059.8,432.6,1060.1,434L1060.1,434z M1087.9,430.1c2.5,1.2,3.5,4.1,2.4,6.5c-1.2,2.5-4.1,3.5-6.5,2.4
		c-2.5-1.2-3.5-4.1-2.4-6.5C1082.4,430,1085.4,428.9,1087.9,430.1z"/>
	<path fill="#994848" d="M1048.4,414.8l23.3-15.4l3.4,1.6l-25.5,16.9C1049,417,1048.6,415.9,1048.4,414.8L1048.4,414.8L1048.4,414.8
		z"/>
	<path fill="#994848" d="M1051.9,421.5l27.7-18.4l3.4,1.6l-28.8,19.1c-0.3-0.3-0.7-0.6-0.9-0.8c-0.1-0.1-0.2-0.1-0.3-0.2
		C1052.7,422.3,1052.3,421.9,1051.9,421.5L1051.9,421.5L1051.9,421.5z"/>
	<path fill="#994848" d="M1057.1,427l30.5-20.1l3.4,1.6l-32.3,21.4C1058.3,428.9,1057.7,427.9,1057.1,427L1057.1,427L1057.1,427z"/>
	<path opacity="0.1" enable-background="new    " d="M1075.1,401l-3.4-1.6l-3-1.4c-5.3-2.4-11.3-1.3-15.5,2.2l36.1,16.8
		c12.8,5.9,8.3,25.6,6,32.8c3.2-2.1,6.1-4.9,8-8.5c6.5-11.9,1.5-26.6-10.6-32.1l-1.6-0.7l-3.4-1.6l-4.6-2.1l-3.4-1.6L1075.1,401
		L1075.1,401L1075.1,401z"/>
</g>
<g>
	<path fill="#F15A24" d="M1027.8,308.1c7.6,12.7,14.8,26.2,21.7,39.3c1.2,2.1,4,7.9,5.1,10c1.2,2.3,0.5,6.7-2.8,6.5
		c-1.6-0.1-2.9-0.7-4-1.7l-2.5-2.7l-5.1-5.5c-6.5-7.1-13.6-15-19.9-22.4c-3.2-3.7-6.5-7.6-9.6-11.5c-3.6-4.5-2.8-11.1,1.7-14.7
		C1017.1,301.5,1024.6,302.7,1027.8,308.1L1027.8,308.1z"/>
	<path fill="#D6532B" d="M1052.4,359.7c-1.6-0.1-2.9-0.7-4-1.7l-2.5-2.7l-5.1-5.5c-6.5-7.1-13.6-15-19.9-22.4
		c-3.2-3.7-6.5-7.6-9.6-11.5c-1.4-1.8-2.2-4-2.3-6.3c-1.3,3.4-0.9,7.4,1.5,10.5c3.1,3.9,6.3,7.6,9.6,11.5
		c6.3,7.3,13.4,15.2,19.9,22.4l5.1,5.5l2.5,2.7c1.1,1,2.3,1.7,4,1.7c2.8,0.2,3.8-2.9,3.2-5.3
		C1054.4,359.3,1053.5,359.8,1052.4,359.7L1052.4,359.7L1052.4,359.7z"/>
	<path fill="#9AC422" d="M1017.5,286.1c0,0-4.9,3.8-6,9.3c-3.3-4.5-9.4-5.9-9.4-5.9s-0.9,6.1,2.3,10.9c-5.6-0.9-10.8,2.5-10.8,2.5
		s3.8,5.1,9.5,6.1c4.9,0.8,9.6-1.6,10.7-2.3l0,0l0.1-0.1c0.1-0.1,0.1-0.1,0.1-0.1l0,0c1-0.8,5-4.4,5.8-9.3
		C1020.9,291.4,1017.5,286.1,1017.5,286.1L1017.5,286.1L1017.5,286.1z"/>
	<path fill="#8AA526" d="M1020.1,294.8c0,0.1-0.1,0.2-0.1,0.4c-0.8,4.9-4.8,8.4-5.8,9.3l0,0c0,0-0.1,0.1-0.1,0.1s-0.1,0.1-0.1,0.1
		l0,0c-1.2,0.7-5.9,3.2-10.7,2.3c-3.9-0.7-6.9-3.4-8.4-4.9c-0.8,0.4-1.2,0.7-1.2,0.7s3.8,5.1,9.5,6.1c4.9,0.8,9.6-1.6,10.7-2.3l0,0
		l0.1-0.1c0.1-0.1,0.1-0.1,0.1-0.1l0,0c1-0.8,5-4.4,5.8-9.3C1020.1,296.3,1020.1,295.6,1020.1,294.8L1020.1,294.8z"/>
</g>
<g>
	<path fill="#9AC422" d="M902.7,136l-5.5,0.9c-0.5,1.8-0.7,3.5-0.8,5.2s0,3.3,0.1,4.9c0.3,2.5,0.8,5,1.7,7.5
		c-3.3-3.4-6.7-6.7-10.4-9.7l-4.4,4c2.7,3.5,5.8,6.7,8.8,9.9l0.1,0c-1.2-0.8-2.5-1.6-3.7-2.4c-3.5-2.1-7.1-4.1-10.7-5.9l-3.3,4.7
		c1.4,0.8,2.8,1.5,4.2,2.3c2,1.1,4.1,2.4,6.1,3.6c2.6,1.6,5.3,3.3,7.6,5.2c1.8,1.4,3.3,3.1,4.9,4.7c2,2.2,4.1,4.5,5.9,7l0,0
		c1.7,1.8,5.9,1.2,9.5-1.7c3.6-2.8,5.6-6.8,4.1-8.8c-0.8-1.3-2.8-3.6-3.7-4.9c-1.3-1.8-2.7-3.5-4.1-5.1l-1.4-1.6
		c-1.1-1.3-1.9-3.2-2.4-4.9C904,146,904,140.8,902.7,136L902.7,136L902.7,136z"/>
	<path fill="#88B212" d="M902.3,169.4c-4-4.4-20.3-13.6-20.3-13.6l-0.4,3.2c1,0.6,2.2,1.3,3.2,1.9c2.6,1.6,5.3,3.3,7.6,5.2
		c1.8,1.4,3.3,3.1,4.9,4.7c2,2.2,4.1,4.5,5.9,7l0,0c1.7,1.8,5.9,1.2,9.5-1.7c3.8-2.8,5.6-6.8,4.1-8.8c-0.7-1-2.1-2.9-3.1-4.1
		C910.2,166.2,905.8,173.4,902.3,169.4L902.3,169.4L902.3,169.4z"/>
	<path fill="#3E662D" d="M901.7,120.2c0,0,0,0.1-0.1,0.1c0.4-1.3,0.1-3-0.9-4.2c-1.6-1.9-4.5-2.2-6.4-0.6c-0.6,0.5-1.1,1.1-1.3,1.9
		c-0.2-0.8-0.5-1.7-1.1-2.4c-1.8-2.2-5.2-2.4-7.3-0.6c-1.1,1-1.8,2.4-1.8,3.8c-0.3-0.6-0.7-1.3-1.1-1.9c-2.4-2.9-6.7-3.2-9.6-0.8
		c-1.6,1.3-2.4,3.2-2.4,5.2c-2-2.4-5.5-2.7-7.9-0.7c-2.1,1.8-2.6,4.7-1.3,7c-1.2-0.2-2.5,0-3.4,0.8c-1.7,1.4-1.8,3.9-0.5,5.6
		c0.2,0.3,0.5,0.5,0.8,0.7c-1-0.2-2,0.1-2.8,0.8c-1.4,1.2-1.6,3.2-0.4,4.7c0.2,0.2,0.3,0.3,0.5,0.5c-0.3,0.1-0.5,0.4-0.8,0.6
		c-2.4,2-2.7,5.5-0.7,7.9c0.7,0.9,1.8,1.5,2.9,1.8c-1.9,2.5-1.9,6,0.3,8.5s6,3.2,8.8,1.5c0.1,1,0.5,2,1.2,2.8
		c1.8,2.2,5.1,2.4,7.2,0.6c1.5-1.2,2.1-3.3,1.6-5c0.1,0.1,0.1,0.3,0.3,0.3c2.1,2.5,6,2.9,8.5,0.7c2.2-1.8,2.7-4.8,1.6-7.3
		c2.1,1,4.7,0.8,6.5-0.8c1.7-1.4,2.5-3.6,2-5.5c1.2,0.5,2.7,0.3,3.8-0.6c0.8-0.6,1.1-1.5,1.3-2.4c1.3,1,3.3,1,4.6-0.2
		c1.3-1.1,1.6-3.1,0.8-4.6c1.1,0,2.3-0.4,3.2-1.2c2.2-1.8,2.4-5.1,0.6-7.2c-0.8-0.8-1.6-1.4-2.6-1.6c0.8-0.1,1.5-0.5,2.1-1
		c1.9-1.6,2.2-4.5,0.6-6.4C906.5,118.8,903.7,118.6,901.7,120.2L901.7,120.2L901.7,120.2z M900.3,136.6L900.3,136.6L900.3,136.6
		L900.3,136.6L900.3,136.6z"/>
	<path fill="#487534" d="M908.1,120.8c-0.6-0.8-1.5-1.2-2.2-1.4c-1.5-0.4-3.1-0.1-4.2,0.9c0.3-1.4,0.1-3-0.9-4.1
		c-1.6-1.9-4.5-2.2-6.4-0.6c-0.6,0.5-1.1,1.1-1.3,1.9c-0.2-0.8-0.5-1.7-1.1-2.4c-1.8-2.2-5.2-2.4-7.3-0.6c-1.1,1-1.8,2.4-1.8,3.8
		c-0.3-0.6-0.7-1.3-1.1-1.9c-2.4-2.9-6.7-3.2-9.6-0.8c-1.6,1.3-2.4,3.2-2.4,5.2c-2-2.4-5.5-2.7-7.9-0.7c-2.1,1.8-2.6,4.7-1.3,7
		c-1.2-0.2-2.5,0-3.4,0.8c-1.7,1.4-1.8,3.9-0.5,5.6c0.2,0.2,0.4,0.4,0.5,0.5c1,0.1,2.2-0.1,3.1-0.8c0,0,0-0.1,0.1-0.1
		c-0.5,1.3-0.4,2.9,0.5,4.2c1.5,2.1,4.2,2.5,6.2,1.1c0.6-0.4,1.1-1,1.4-1.7c0.1,0.8,0.3,1.6,0.9,2.4c1.6,2.2,4.7,2.8,7,1.2
		c1.2-0.8,1.9-2.2,2.1-3.5c0.2,0.6,0.5,1.3,0.9,2c2.1,2.9,6.3,3.7,9.2,1.6c1.6-1.2,2.6-2.9,2.8-4.8c1.7,2.5,5.1,3.1,7.5,1.3
		c2.1-1.5,2.9-4.4,1.8-6.6c1.2,0.3,2.4,0.2,3.4-0.5c0.6-0.3,0.9-0.8,1.2-1.4c0.9-0.1,1.7-0.4,2.3-1
		C909.6,125.7,909.9,122.8,908.1,120.8L908.1,120.8L908.1,120.8z"/>
</g>
<g>
	<path fill="#F9D53D" d="M381.5,582.1c1.4-3,0.3-6.7-2.6-8.3l3.3-7.1l64.8,37.9l-16,34.1c-1.5,3.2-5.2,4.4-8.1,2.7l-9.8-5.7
		c1.7-3.7,0.3-8.3-3.1-10.2s-7.5-0.7-9.2,3L369,609.8c-3-1.8-4.2-5.9-2.8-9l7.6-16.2C376.7,586.2,380.1,585.1,381.5,582.1
		L381.5,582.1z"/>
	<path fill="#E8B321" d="M447.1,604.7c3.4-7.3,0.7-16.4-6.1-20.4c-1.2-0.8-2.6-1.2-3.8-1.5l-54.8-16L447.1,604.7"/>
	<path fill="#E8B321" d="M427.1,612c-1.9-1.2-2.7-3.7-1.8-5.8s3.3-2.8,5.2-1.7s2.7,3.7,1.8,5.8S429.1,613.1,427.1,612z"/>
	<path fill="#E8B321" d="M400.7,606c-3.4-2-4.8-6.6-3.1-10.2s5.9-5.1,9.3-3.1s4.8,6.6,3.1,10.2C408.3,606.7,404.1,608,400.7,606z"/>
	<path fill="#E8B321" d="M378.6,606.9c-1.5-0.8-2-2.8-1.3-4.5c0.7-1.6,2.5-2.2,4.1-1.3c1.5,0.8,2,2.8,1.3,4.5
		C381.9,607.2,380,607.8,378.6,606.9z"/>
	<path fill="#E8B321" d="M423.8,627.7c-1.2-0.8-1.7-2.3-1.1-3.7s2.1-1.8,3.4-1.1c1.2,0.8,1.7,2.3,1.1,3.7
		C426.5,627.9,425,628.4,423.8,627.7z"/>
	<path fill="#E8B321" d="M390.6,583.9c-1.7-1-2.3-3.3-1.5-5c0.8-1.8,2.9-2.5,4.5-1.5c1.7,1,2.3,3.3,1.6,5.1
		C394.3,584.3,392.2,584.9,390.6,583.9L390.6,583.9z"/>
	<path fill="#E8B321" d="M397,619.6c-1.7-1-2.4-3.2-1.6-5.1s2.9-2.5,4.6-1.5c1.7,1,2.4,3.2,1.6,5.1
		C400.7,619.9,398.6,620.5,397,619.6z"/>
	<path fill="#E8B321" d="M421,636.1c3,1.8,6.6,0.5,8.1-2.7l16.6-29.6l1.3,0.8l-16,34.1c-1.5,3.2-5.2,4.4-8.1,2.7l-9.8-5.7
		c0.6-1.2,0.8-2.5,0.7-3.7L421,636.1L421,636.1z"/>
	<path fill="#E8B321" d="M403.2,625.7c-1,0.6-1.7,1.6-2.3,2.8l-31.9-18.6c-2.1-1.3-3.3-3.6-3.4-6L403.2,625.7L403.2,625.7z"/>
</g>
<g>
	<path fill="#8CC63F" d="M542.4,656l-3.8,4.2l14.8,13.4l3.8-4.2L542.4,656z"/>
	<path fill="#7FAF33" d="M559.5,667.5l0.9-5.6l-22.2-3.4l-0.9,5.6L559.5,667.5z"/>
	<path fill="#83B732" d="M533.3,653.5l-4.3,3.9l18.4,20.5l4.3-3.9L533.3,653.5z"/>
	<path fill="#8CC63F" d="M531.8,659.2l29.5,1.4l0.3-5.7l-28.3-1.4l-34.8-16.6l-2.4,5.2L531.8,659.2L531.8,659.2L531.8,659.2
		L531.8,659.2z"/>
	<path fill="#ECEDD1" d="M513.3,644.1l-13.7-7c-1.6-0.8-3.7-0.2-4.4,1.6c-0.8,1.6-0.1,3.7,1.7,4.4l14,6.2L513.3,644.1L513.3,644.1
		L513.3,644.1z"/>
	<path fill="#83B732" d="M513.3,644.1l-0.5,0.9l21.6,10.3l27,1.3l0-1.7l-28.3-1.4L513.3,644.1L513.3,644.1z"/>
	<path fill="#DBDBC6" d="M495.7,640c0.8-1.6,2.8-2.4,4.4-1.6l12.8,6.5l0.5-0.9l-13.7-7c-1.6-0.8-3.7-0.2-4.4,1.6
		c-0.5,1.1-0.4,2.2,0.2,3.2C495.3,641.1,495.4,640.5,495.7,640L495.7,640L495.7,640z"/>
</g>
<g>
	<path fill="#AD5151" d="M629.6,705.6l25.1-26.6l-4.9-1l-23.6,25.1C627.5,703.8,628.6,704.7,629.6,705.6L629.6,705.6z M618.4,695.7
		l19.1-20.3l-3.2-0.6c-7.7-1.4-15.3,3.5-17.1,11.1C616.3,689.3,616.9,692.7,618.4,695.7L618.4,695.7z M623.3,701.4l22.8-24.2l-4.9-1
		l-21,22.4C621,699.6,622.2,700.6,623.3,701.4L623.3,701.4L623.3,701.4z M634.1,711.7c3,7.1,9.5,12.6,17.8,14
		c11.6,1.8,22.9-5.4,26-16.7c3.6-13.1-4.7-26.2-17.7-28.9l-1.7-0.3L631.9,708C632.8,709.1,633.6,710.4,634.1,711.7L634.1,711.7z
		 M660.3,701.5c2.7,0.6,4.4,3.2,3.8,5.9c-0.6,2.7-3.2,4.4-5.9,3.8c-2.7-0.6-4.4-3.2-3.8-5.9C655,702.6,657.6,701,660.3,701.5z"/>
	<path fill="#994848" d="M618.4,695.8l19.1-20.3l3.7,0.8l-21,22.3C619.5,697.7,618.9,696.7,618.4,695.8L618.4,695.8L618.4,695.8z"/>
	<path fill="#994848" d="M623.3,701.4l22.8-24.2l3.7,0.8l-23.6,25.1c-0.4-0.2-0.8-0.5-1.2-0.6c-0.1-0.1-0.2-0.1-0.3-0.1
		C624.4,702.1,623.8,701.7,623.3,701.4L623.3,701.4L623.3,701.4z"/>
	<path fill="#994848" d="M629.6,705.6l25.1-26.6l3.7,0.8L631.9,708C631.2,707.2,630.5,706.3,629.6,705.6L629.6,705.6L629.6,705.6z"
		/>
	<path opacity="0.1" enable-background="new    " d="M641.2,676.2l-3.7-0.8l-3.2-0.6c-5.7-1.1-11.3,1.3-14.6,5.7l38.9,8.1
		c13.9,2.8,13.9,23.1,13.4,30.5c2.7-2.7,4.8-6.2,5.9-10.1c3.6-13.1-4.7-26.2-17.7-28.9l-1.7-0.3l-3.7-0.8l-4.9-1l-3.7-0.8
		L641.2,676.2L641.2,676.2L641.2,676.2z"/>
</g>
<g>
	<path fill="#9AC422" d="M920.7,718.2l2.4-5c-1.2-1.3-2.4-2.5-3.8-3.6c-1.3-0.9-2.7-1.9-4.1-2.6c-2.2-1.2-4.7-2.1-7.2-2.8
		c4.7-0.8,9.3-1.8,13.9-3.2l-0.8-5.8c-4.4,0.3-8.8,0.9-13.2,1.7c0,0,0,0-0.1,0c1.4-0.5,2.7-1.1,4-1.7c3.7-1.7,7.3-3.5,11-5.5l-2-5.4
		c-1.4,0.8-2.8,1.4-4.2,2.2c-2.1,1-4.3,2.1-6.4,3c-2.8,1.3-5.7,2.4-8.7,3.4c-2.2,0.6-4.4,1-6.7,1.4c-3,0.5-6,0.8-9,0.9l0,0
		c-2.5,0.3-4.2,4.2-4.1,8.8c0.2,4.7,2.5,8.5,5,8.4c1.5,0,4.6-0.3,6-0.3c2.2,0,4.4-0.3,6.6-0.4l2.1-0.2c1.6-0.1,3.7,0.2,5.4,0.8
		C911.8,713.7,916.1,716.7,920.7,718.2L920.7,718.2L920.7,718.2z"/>
	<path fill="#88B212" d="M893.3,699.1c5.9-0.7,22.6-9,22.6-9l-2.4-2.1c-1.2,0.6-2.3,1-3.4,1.6c-2.8,1.3-5.7,2.4-8.7,3.4
		c-2.2,0.6-4.4,1-6.7,1.4c-3,0.5-6,0.8-9,0.9l0,0c-2.5,0.3-4.2,4.2-4.1,8.8c0.2,4.7,2.5,8.5,5,8.4c1.2,0,3.5-0.1,5.2-0.3
		C891.6,707.5,888,699.8,893.3,699.1L893.3,699.1L893.3,699.1z"/>
	<path fill="#3E662D" d="M934.3,726.4C934.3,726.4,934.3,726.2,934.3,726.4c0.9,1,2.4,1.6,4,1.5c2.5-0.3,4.3-2.5,4.1-5
		c-0.1-0.8-0.3-1.5-0.8-2.1c0.8,0.4,1.7,0.5,2.6,0.4c2.8-0.3,4.9-2.8,4.6-5.7c-0.1-1.5-0.9-2.8-2-3.7c0.7,0.2,1.4,0.2,2.2,0.1
		c3.8-0.3,6.5-3.7,6.1-7.5c-0.2-2-1.4-3.8-2.9-4.9c3-0.3,5.3-3.1,5-6.2c-0.3-2.7-2.4-4.7-5-5c0.9-0.9,1.4-2,1.3-3.3
		c-0.2-2.1-2.2-3.8-4.3-3.6c-0.4,0-0.7,0.2-1,0.3c0.7-0.7,1.1-1.7,1-2.7c-0.2-1.8-1.8-3.2-3.7-2.9c-0.3,0.1-0.5,0-0.7,0.2
		c0-0.4,0-0.6,0-0.9c-0.3-3-3.1-5.4-6.2-5c-1.1,0.1-2.3,0.6-3.1,1.3c-1-3-3.9-5-7.2-4.6c-3.2,0.4-5.9,3.1-6.1,6.4
		c-0.9-0.5-1.9-0.7-3-0.6c-2.8,0.3-4.9,2.8-4.5,5.6c0.2,1.9,1.5,3.6,3.3,4.2c-0.1,0-0.2,0-0.4,0c-3.3,0.4-5.8,3.3-5.4,6.6
		c0.3,2.8,2.5,5,5.2,5.4c-2.1,1.2-3.3,3.5-3,5.9c0.2,2.1,1.5,3.9,3.4,4.9c-1.1,0.7-1.7,2-1.6,3.5c0.1,0.9,0.5,1.8,1.2,2.4
		c-1.5,0.6-2.6,2.1-2.4,3.8s1.6,3.2,3.4,3.2c-0.6,0.9-1,2.1-0.8,3.3c0.3,2.8,2.8,4.9,5.6,4.5c1.1-0.2,2-0.6,2.8-1.2
		c-0.3,0.7-0.5,1.5-0.4,2.3c0.3,2.5,2.5,4.3,5,4.1C932.8,731.2,934.6,728.9,934.3,726.4L934.3,726.4L934.3,726.4z M921.6,715.9
		L921.6,715.9L921.6,715.9L921.6,715.9L921.6,715.9L921.6,715.9z"/>
	<path fill="#487534" d="M930.2,731.4c0.9-0.1,1.8-0.5,2.4-1.1c1.2-0.9,1.8-2.4,1.7-4c1,1.1,2.4,1.6,3.9,1.5c2.5-0.3,4.3-2.5,4.1-5
		c-0.1-0.8-0.3-1.5-0.8-2.1c0.8,0.4,1.7,0.5,2.6,0.4c2.8-0.3,4.9-2.8,4.6-5.7c-0.1-1.5-0.9-2.8-2-3.7c0.7,0.2,1.4,0.2,2.2,0.1
		c3.8-0.3,6.5-3.7,6.1-7.5c-0.2-2-1.4-3.8-2.9-4.9c3-0.3,5.3-3.1,5-6.2c-0.3-2.7-2.4-4.7-5-5c0.9-0.9,1.4-2,1.3-3.3
		c-0.2-2.1-2.2-3.8-4.3-3.6c-0.3,0.1-0.5,0-0.7,0.2c-0.8,0.8-1.2,1.9-1.1,3.1c0,0-0.1,0.1,0,0.1c-0.8-1.1-2.2-2-3.8-1.9
		c-2.5,0-4.4,2.1-4.4,4.5c0,0.7,0.3,1.5,0.5,2.1c-0.7-0.4-1.6-0.7-2.5-0.6c-2.7,0-5,2.3-5,5.1c0,1.4,0.7,2.8,1.7,3.7
		c-0.7-0.2-1.4-0.3-2.2-0.3c-3.7,0-6.6,3.1-6.5,6.7c0,2,1,3.8,2.4,5.1c-3,0.1-5.4,2.5-5.4,5.5c0.1,2.7,1.9,4.8,4.4,5.3
		c-0.9,0.7-1.5,1.9-1.5,3.1c0,0.6,0.2,1.2,0.5,1.7c-0.3,0.7-0.6,1.6-0.4,2.6C925.4,729.8,927.6,731.6,930.2,731.4L930.2,731.4
		L930.2,731.4z"/>
</g>
<g>
	<path fill="#29ABE2" d="M998.1,657.1c0,0-7.2-19.6,15.4-35.7c0.2-0.2,0.4-0.2,0.5-0.4c6.4-4.5,13.5-7.5,20.3-9.5
		c9.7-2.8,18.9-3.8,25.1-4c0-3.4,0.7-8.4,3.6-12.5c5.3-7.8,16-10.5,16-10.5s2,9.1-2.7,16.7c9.2-2.3,18.6,1.6,18.6,1.6
		s-5.5,8.8-15,11.6c-5.2,1.5-10.5,1-14.2,0.2c-1.8,5.5-4.9,13.3-10.3,21.2c-3.8,5.6-8.7,11.1-15.1,15.7c-0.2,0.2-0.4,0.3-0.5,0.4
		C1017.3,668.1,998,657.1,998.1,657.1L998.1,657.1L998.1,657.1z"/>
	<path fill="#0E85AF" d="M1022.9,627.9c0.2,0,0.4-0.1,0.6,0.1c2.8,1.6,4.9,3.3,6.7,5.3c2.2,2.5,3.7,5.5,4.7,8.8
		c0.1,0.3-0.1,0.7-0.6,0.9s-0.8-0.1-0.9-0.5c-1-3.2-2.5-6-4.5-8.4c-1.6-1.9-3.8-3.6-6.4-5c-0.4-0.2-0.5-0.6-0.2-0.9
		C1022.5,628,1022.6,627.9,1022.9,627.9L1022.9,627.9L1022.9,627.9z"/>
	<path fill="#0E85AF" d="M1012.6,628.3c0,0,0.3,0,0.4,0c0.4,0.1,8.5,2.2,13.7,8.4c5.3,6.2,5.6,13.8,5.8,14.2c0,0.3-0.3,0.7-0.7,0.7
		c-0.4,0-0.8-0.2-0.7-0.6c0,0-0.4-7.6-5.5-13.3c-5-5.8-12.9-7.9-13-7.9c-0.4-0.1-0.6-0.5-0.5-0.9
		C1012.2,628.6,1012.3,628.5,1012.6,628.3L1012.6,628.3L1012.6,628.3z"/>
	<path fill="#0E85AF" d="M1020.2,645.8c-1.7,0.5-2.7,2.2-2.1,3.7c0.6,1.5,2.4,2.4,4.1,1.9s2.7-2.2,2.1-3.7
		C1023.8,646.1,1021.9,645.3,1020.2,645.8z"/>
	<path fill="#29ABE2" d="M1040.5,651.6c6.2-4.6,11.2-10.1,15.1-15.7c5.4,0.7,9.4,2.6,9.4,2.6s-6.3,9.5-16.8,12.4
		C1045.5,651.5,1043,651.7,1040.5,651.6L1040.5,651.6L1040.5,651.6z"/>
	<path fill="#0E85AF" d="M1014.1,621.1c0.6-2.1,1.4-4.4,2.8-6.5c5.5-8.6,17.1-11.9,17.1-11.9s1,3.9,0.5,8.8
		C1027.6,613.6,1020.5,616.6,1014.1,621.1z"/>
	<path fill="#0E85AF" d="M1000.6,658.3c-0.8-2.5-5.5-20.4,15.5-35.4c0.2-0.2,0.4-0.2,0.5-0.4c6.4-4.5,13.5-7.5,20.3-9.5
		c9.7-2.8,18.9-3.8,25.1-4c0-3.4,0.7-8.4,3.6-12.5c3.7-5.5,10.3-8.4,13.7-9.8c-0.1-1.3-0.3-2.2-0.3-2.2s-10.7,2.7-16,10.5
		c-2.9,4.1-3.5,9-3.6,12.5c-6.3,0.2-15.4,1.2-25.1,4c-6.9,2-13.9,5.1-20.3,9.5c-0.2,0.2-0.4,0.2-0.5,0.4
		c-22.6,16.1-15.4,35.7-15.4,35.7S999,657.7,1000.6,658.3L1000.6,658.3z"/>
	<path fill="#0E85AF" d="M1058.4,636.7c0,0,0.2-0.2,0.2-0.3c-1-0.2-2-0.4-3.1-0.5c-3.8,5.6-8.7,11.1-15.1,15.7
		c1.4,0,2.8-0.1,4.4-0.2C1050.4,647,1054.8,641.9,1058.4,636.7L1058.4,636.7L1058.4,636.7z"/>
</g>
<g>
	<path fill="#F15A24" d="M798,723.7c-10.9-0.7-22.2-2-33.1-3.4c-1.8-0.2-6.5-0.8-8.3-1.1c-1.9-0.3-4.3-2.4-2.8-4.5
		c0.8-1,1.6-1.5,2.8-1.6l2.8-0.4l5.5-0.8c7.1-1,14.9-2,22.1-2.7c3.7-0.4,7.3-0.8,11-1c4.3-0.3,8,2.9,8.3,7.3
		C806.5,720.1,802.5,724,798,723.7L798,723.7z"/>
	<path fill="#D6532B" d="M756.1,717c0.8-1,1.6-1.5,2.8-1.6l2.8-0.4l5.5-0.8c7.1-1,14.9-2,22.1-2.7c3.7-0.4,7.3-0.8,11-1
		c1.7-0.1,3.4,0.4,4.8,1.3c-1.5-2.3-4.1-3.6-7-3.5c-3.7,0.3-7.4,0.6-11,1c-7.2,0.7-14.9,1.7-22.1,2.7l-5.5,0.8l-2.8,0.4
		c-1.1,0.2-1.9,0.7-2.8,1.6c-1.3,1.7,0.2,3.6,1.9,4.2C755.5,718.3,755.6,717.7,756.1,717L756.1,717L756.1,717z"/>
	<path fill="#9AC422" d="M815.7,726.7c0,0-0.2-4.6-3.1-7.5c4.2-0.1,7.6-3.3,7.6-3.3s-3.4-3.1-7.6-3.2c2.8-3,3-7.6,3-7.6
		s-4.6,0.2-7.7,3.2c-2.5,2.6-3,6.5-3.1,7.5l0,0c0,0,0,0,0.1,0.1c0,0.1,0,0.1,0,0.1l0,0c0.1,1,0.6,4.8,3.2,7.5
		C811.1,726.6,815.8,726.8,815.7,726.7L815.7,726.7L815.7,726.7z"/>
	<path fill="#8AA526" d="M809.3,724.6c-0.1,0-0.1-0.2-0.2-0.2c-2.6-2.5-3.1-6.5-3.2-7.5l0,0c0,0,0,0,0-0.1c0-0.1-0.1-0.1-0.1-0.1
		l0,0c0.1-0.9,0.6-4.9,3.1-7.5c2.1-2,4.9-2.9,6.5-3.1c0.1-0.6,0.1-0.9,0.1-0.9s-4.6,0.2-7.7,3.2c-2.5,2.6-3,6.5-3.1,7.5l0,0
		c0,0,0,0,0.1,0.1c0,0.1,0,0.1,0,0.1l0,0c0.1,1,0.6,4.8,3.2,7.5C808.5,724.1,808.9,724.3,809.3,724.6L809.3,724.6z"/>
</g>
<g>
	<path fill="#AD5151" d="M840.9,57.7l-34.4,12.6l3.9,3.1l32.4-11.8C842.1,60.3,841.5,59,840.9,57.7L840.9,57.7z M846.6,71.6
		l-26.2,9.6l2.6,2.1c6.3,4.8,15.2,3.8,20.2-2.3C845.5,78.3,846.7,75,846.6,71.6L846.6,71.6z M844.7,64.3l-31.2,11.5l3.9,3.1
		l28.8-10.5C845.9,66.9,845.4,65.6,844.7,64.3L844.7,64.3L844.7,64.3z M839.7,50.3c0.5-7.7-2.8-15.6-9.7-20.5
		c-9.5-6.8-22.9-5.4-30.7,3.3c-9,10-7.6,25.5,2.9,33.8l1.3,1.1l36.4-13.4C839.7,53.1,839.5,51.7,839.7,50.3L839.7,50.3z M811.7,47.7
		c-2.1-1.7-2.5-4.9-0.8-7s4.9-2.5,7-0.8c2.1,1.7,2.5,4.9,0.8,7S813.8,49.3,811.7,47.7z"/>
	<path fill="#994848" d="M846.5,71.6l-26.2,9.6l-3-2.3l28.8-10.5C846.4,69.4,846.6,70.5,846.5,71.6L846.5,71.6L846.5,71.6z"/>
	<path fill="#994848" d="M844.7,64.3l-31.2,11.5l-3-2.3l32.4-11.8c0.2,0.4,0.5,0.8,0.8,1.1c0.1,0.1,0.1,0.2,0.2,0.2
		C844.1,63.3,844.4,63.8,844.7,64.3L844.7,64.3L844.7,64.3z"/>
	<path fill="#994848" d="M840.9,57.7l-34.4,12.6l-3-2.3l36.4-13.4C840.2,55.6,840.5,56.7,840.9,57.7L840.9,57.7L840.9,57.7z"/>
	<path opacity="0.1" enable-background="new    " d="M817.4,78.9l3,2.3l2.6,2.1c4.6,3.6,10.6,3.9,15.6,1.4l-31.2-24.6
		c-11.1-8.7-2.1-26.8,1.7-33.3c-3.6,1.3-7,3.4-9.7,6.4c-9,10-7.6,25.5,2.9,33.8l1.3,1.1l3,2.3l3.9,3.1l3,2.3L817.4,78.9L817.4,78.9
		L817.4,78.9z"/>
</g>
<g>
	<path fill="#F15A24" d="M326.7,555.3c-11-9.9-21.8-20.7-32.1-31.4c-1.7-1.7-6.1-6.4-7.8-8.1c-1.8-1.8-2.4-6.3,0.8-7
		c1.6-0.3,2.9-0.1,4.3,0.5l3.2,1.9l6.5,3.8c8.3,4.9,17.4,10.4,25.5,15.7c4.2,2.7,8.4,5.4,12.5,8.2c4.8,3.3,5.9,9.8,2.7,14.6
		C338.8,558.6,331.3,559.5,326.7,555.3L326.7,555.3z"/>
	<path fill="#D6532B" d="M288.2,513c1.6-0.3,2.9-0.1,4.3,0.5l3.2,1.9l6.5,3.8c8.3,4.9,17.4,10.4,25.5,15.7c4.2,2.7,8.4,5.4,12.5,8.2
		c1.9,1.4,3.2,3.2,4,5.3c0.3-3.6-1.2-7.4-4.5-9.6c-4.1-2.8-8.2-5.5-12.5-8.2c-8.2-5.1-17.2-10.7-25.5-15.7l-6.5-3.8l-3.2-1.9
		c-1.4-0.6-2.7-0.9-4.3-0.5c-2.8,0.7-2.8,3.9-1.6,6C286.4,513.9,287.1,513.3,288.2,513L288.2,513L288.2,513z"/>
	<path fill="#9AC422" d="M342.9,573.4c0,0,3.6-5,3.1-10.6c4.5,3.4,10.7,2.9,10.7,2.9s-1-6.1-5.3-9.8c5.6-0.8,9.6-5.5,9.6-5.5
		s-5.1-3.8-10.8-3.1c-5,0.6-8.7,4.3-9.6,5.3l0,0l0,0.1c0,0.1-0.1,0.2-0.1,0.2l0,0c-0.7,1.1-3.5,5.6-2.9,10.6
		C338,569.3,342.9,573.4,342.9,573.4L342.9,573.4L342.9,573.4z"/>
	<path fill="#8AA526" d="M337.9,565.8c0-0.1,0-0.2-0.1-0.4c-0.6-5,2.2-9.4,2.9-10.6l0,0c0,0,0-0.1,0.1-0.2s0.1-0.2,0.1-0.2l0,0
		c0.9-1,4.7-4.7,9.6-5.3c4-0.4,7.6,1.2,9.5,2.2c0.6-0.6,0.9-1,0.9-1s-5.1-3.8-10.8-3.1c-5,0.6-8.7,4.3-9.6,5.3l0,0l0,0.1
		c0,0.1-0.1,0.2-0.1,0.2l0,0c-0.7,1.1-3.5,5.6-2.9,10.6C337.4,564.3,337.6,565.1,337.9,565.8L337.9,565.8z"/>
</g>
</svg>
