<?xml version="1.0" encoding="UTF-8"?>
<svg id="animated-svg1" data-name="Ebene 1" xmlns="http://www.w3.org/2000/svg" viewBox="0 0 423.15 382.59">
  <g>
    <path d="m84.07,50.02l-.25,2.94c.82.47,1.68.81,2.53,1.08.84.26,1.7.44,2.55.55,1.33.16,2.73.22,4.09.08-2.17,1.25-4.3,2.6-6.32,4.13l1.48,2.76c2.15-.96,4.21-2.11,6.24-3.3.02,0,.03-.02.05-.03-.58.52-1.14,1.06-1.7,1.6-1.54,1.52-3.02,3.1-4.43,4.77l1.99,2.33c.55-.62,1.14-1.25,1.7-1.87.85-.92,1.74-1.84,2.63-2.72,1.18-1.15,2.39-2.28,3.69-3.26.98-.74,2.01-1.32,3.05-1.93,1.4-.79,2.83-1.53,4.32-2.13h0c1.17-.61,1.34-2.87.38-5.13-.96-2.26-2.81-3.77-4.05-3.23-.75.26-2.24.97-2.96,1.27-1.07.45-2.14.93-3.19,1.44l-1.04.5c-.81.38-1.88.57-2.86.61-2.59.15-5.28-.51-7.89-.48h-.02Z" fill="#9ac422" strokeWidth="0"/>
    <path d="m101.26,54.49c-2.82,1.47-9.59,8.67-9.59,8.67l1.59.59c.47-.48.94-.96,1.41-1.43,1.18-1.15,2.39-2.28,3.69-3.26.98-.74,2.01-1.32,3.05-1.93,1.4-.79,2.83-1.53,4.32-2.13h0c1.17-.61,1.34-2.87.38-5.13-.99-2.32-2.81-3.77-4.05-3.23-.6.21-1.72.72-2.5,1.08,1,2.28,4.21,5.46,1.7,6.78h0Z" fill="#88b212" strokeWidth="0"/>
    <path d="m75.83,48.52s.01.04.02.05c-.67-.38-1.53-.44-2.28-.07-1.2.6-1.7,2.05-1.11,3.26.18.38.46.68.78.91-.47-.03-.94.06-1.38.28-1.36.67-1.93,2.33-1.25,3.69.35.73.99,1.22,1.71,1.43-.38.05-.76.16-1.12.34-1.8.88-2.53,3.06-1.65,4.85.49,1,1.37,1.67,2.37,1.92-1.48.73-2.08,2.51-1.35,3.99.64,1.29,2.08,1.92,3.42,1.57-.28.57-.31,1.26,0,1.88.51,1.04,1.78,1.47,2.82.96.17-.09.34-.2.47-.32-.22.47-.24,1.03.02,1.53.43.87,1.49,1.24,2.36.8.11-.06.22-.12.31-.19.05.16.11.31.19.47.73,1.48,2.52,2.09,3.99,1.35.57-.28,1-.71,1.29-1.22,1.04,1.29,2.87,1.74,4.42.97,1.55-.77,2.38-2.65,1.86-4.33.54.08,1.1,0,1.62-.25,1.35-.66,1.89-2.29,1.23-3.63-.46-.94-1.41-1.5-2.4-1.51.07-.03.14-.05.2-.09,1.6-.79,2.26-2.72,1.47-4.32-.67-1.35-2.16-2.04-3.57-1.73.79-.95,1.01-2.32.42-3.5-.51-1.04-1.51-1.69-2.59-1.79.41-.57.51-1.33.18-2-.22-.45-.61-.79-1.05-.96.68-.56.92-1.53.5-2.35-.41-.82-1.4-1.27-2.28-1,.13-.59.08-1.22-.22-1.81-.66-1.35-2.29-1.89-3.63-1.23-.51.26-.91.65-1.17,1.11.02-.41-.05-.83-.25-1.22-.6-1.2-2.05-1.7-3.26-1.11-1.21.59-1.7,2.05-1.11,3.26h.03Zm8.22,2.8v.02s0,0,0,0h0s0-.01,0-.01Z" fill="#3e662d" strokeWidth="0"/>
    <path d="m76.94,45.26c-.45.22-.81.57-1.04.98-.39.68-.44,1.54-.09,2.3-.67-.36-1.5-.4-2.23-.05-1.2.6-1.7,2.05-1.11,3.26.18.38.46.68.78.91-.47-.03-.94.06-1.38.28-1.36.67-1.93,2.33-1.25,3.69.35.73.99,1.22,1.71,1.43-.38.05-.76.16-1.12.34-1.8.88-2.53,3.06-1.65,4.85.49,1,1.37,1.67,2.37,1.92-1.48.73-2.08,2.51-1.35,3.99.64,1.29,2.08,1.92,3.42,1.57-.28.57-.31,1.26,0,1.88.51,1.04,1.78,1.47,2.82.96.12-.06.23-.13.34-.21.21-.53.23-1.15,0-1.72,0-.02-.01-.04-.02-.05.63.43,1.44.56,2.2.26,1.22-.47,1.82-1.84,1.35-3.06-.15-.38-.38-.7-.68-.95.44.07.91.02,1.36-.14,1.38-.53,2.06-2.08,1.54-3.47-.28-.73-.85-1.27-1.53-1.54.37-.02.75-.09,1.11-.23,1.81-.7,2.72-2.74,2.02-4.55-.39-1.01-1.19-1.73-2.13-2.06,1.49-.58,2.23-2.25,1.65-3.74-.51-1.3-1.84-2.04-3.18-1.81.33-.53.41-1.2.17-1.81-.12-.31-.31-.57-.54-.78.05-.45-.03-.91-.24-1.34-.6-1.22-2.08-1.73-3.32-1.12h.02Z" fill="#487534" strokeWidth="0"/>
  </g>
  <g>
    <path d="m212.48,18.54s-.99,12.62-16.26,16.75c-.12.03-.23.06-.35.09-4.32,1.13-8.63,1.26-12.6.89-5.58-.5-10.48-2.02-13.72-3.25-.84,1.97-2.34,4.52-4.76,6.25-4.52,3.2-10.58,2.4-10.58,2.4,0,0,1.16-5.58,5.3-8.83-5.22-.73-9.03-4.97-9.03-4.97,0,0,4.84-3.73,10.34-3.24,2.99.27,5.54,1.73,7.26,3.01,2.19-2.7,5.65-6.47,10.23-9.7,3.25-2.31,7.04-4.36,11.35-5.56.12-.05.23-.08.35-.11,15.29-4.13,22.48,6.28,22.48,6.28h-.02Z" fill="#29abe2" strokeWidth="0"/>
    <path d="m192.98,29.65c-.11,0-.24-.08-.31-.18-1.01-1.47-1.73-2.97-2.14-4.51-.5-1.85-.61-3.87-.31-6.02.02-.23.24-.38.47-.36s.38.24.36.47c-.28,2.05-.18,3.96.29,5.7.38,1.44,1.07,2.88,2.03,4.25.14.18.08.44-.1.58-.08.05-.18.08-.27.07h-.02Z" fill="#0e85af" strokeWidth="0"/>
    <path d="m198.31,31.63s-.17-.03-.22-.09c-.16-.13-3.77-3.11-5.01-7.74-1.25-4.63.37-9.03.44-9.22.07-.22.33-.32.53-.24.22.07.32.31.24.53,0,.04-1.58,4.35-.4,8.71,1.18,4.36,4.7,7.3,4.74,7.32.18.15.2.4.05.58-.08.11-.22.15-.35.14l-.02.02Z" fill="#0e85af" strokeWidth="0"/>
    <path d="m198.55,20.11c1,.08,1.88-.67,1.96-1.67s-.67-1.88-1.67-1.96-1.88.67-1.96,1.67.67,1.88,1.67,1.96Z" fill="#0e85af" strokeWidth="0"/>
    <path d="m189.64,12.37c-4.28,1.21-8.08,3.25-11.35,5.56-2.58-1.63-4.14-3.51-4.14-3.51,0,0,5.43-3.95,11.47-3.23,1.45.17,2.81.6,4.02,1.15v.02Z" fill="#29abe2" strokeWidth="0"/>
    <path d="m195.85,35.38c-.77,1.08-1.73,2.15-2.9,3.03-4.84,3.66-11.52,2.98-11.52,2.98,0,0,.42-2.4,1.83-5.11,3.97.37,8.28.21,12.6-.89Z" fill="#0e85af" strokeWidth="0"/>
    <path d="m211.48,17.36c-.2,1.55-2.03,12.71-16.25,16.56-.12.03-.23.06-.35.09-4.31,1.13-8.63,1.26-12.6.89-5.58-.5-10.48-2.02-13.72-3.25-.84,1.97-2.34,4.52-4.76,6.25-3.21,2.28-7.21,2.54-9.24,2.49-.25.78-.37,1.28-.37,1.28,0,0,6.07.8,10.58-2.4,2.44-1.73,3.92-4.28,4.76-6.25,3.24,1.23,8.14,2.73,13.72,3.25,3.97.37,8.28.21,12.6-.89.12-.03.23-.06.35-.09,15.29-4.13,16.26-16.75,16.26-16.75,0,0-.32-.48-.99-1.18Z" fill="#0e85af" strokeWidth="0"/>
    <path d="m177.05,16.82s-.12.09-.16.12c.43.32.9.66,1.43.99,3.25-2.31,7.04-4.36,11.35-5.56-.7-.32-1.46-.59-2.26-.81-3.89,1.24-7.33,3.14-10.33,5.26h-.02Z" fill="#0e85af" strokeWidth="0"/>
  </g>
  <g>
    <path d="m8.54,93.07c4.89-3.18,10.09-6.2,15.17-9.07.84-.47,3.06-1.71,3.88-2.15.91-.5,2.63-.32,2.61,1.02-.03.66-.24,1.15-.64,1.59l-1.04,1.05-2.1,2.09c-2.71,2.68-5.72,5.56-8.52,8.15-1.45,1.32-2.9,2.65-4.38,3.92-1.74,1.49-4.35,1.28-5.84-.45-1.62-1.87-1.2-4.8.86-6.14Z" fill="#f15a24" strokeWidth="0"/>
    <path d="m28.52,82.64c-.03.66-.24,1.15-.64,1.59l-1.04,1.05-2.1,2.09c-2.71,2.68-5.72,5.56-8.52,8.15-1.45,1.32-2.9,2.65-4.38,3.92-.71.6-1.56.92-2.42.98,1.36.49,2.92.26,4.1-.74,1.49-1.27,2.93-2.6,4.38-3.92,2.8-2.6,5.82-5.47,8.52-8.15l2.1-2.09,1.04-1.05c.39-.44.61-.92.64-1.59.02-1.14-1.21-1.44-2.13-1.2.28.21.47.52.46.96h0Z" fill="#d6532b" strokeWidth="0"/>
    <path d="m0,97.41s1.53,1.88,3.72,2.24c-1.75,1.37-2.19,3.78-2.19,3.78,0,0,2.43.25,4.23-1.06-.26,2.2,1.13,4.19,1.13,4.19,0,0,1.95-1.58,2.25-3.82.27-1.94-.76-3.73-1.04-4.19h0s-.02-.02-.04-.04c-.02-.03-.04-.05-.04-.05h0c-.35-.4-1.8-1.88-3.73-2.16-2.24-.32-4.3,1.12-4.3,1.12v-.02Z" fill="#9ac422" strokeWidth="0"/>
    <path d="m3.42,96.26c.05,0,.1.01.16.02,1.94.27,3.38,1.76,3.73,2.16h0s.01.02.04.05c.03.03.04.04.04.04h0c.28.45,1.32,2.25,1.04,4.19-.22,1.55-1.21,2.78-1.81,3.39.16.28.27.45.27.45,0,0,1.95-1.58,2.25-3.82.27-1.94-.76-3.73-1.04-4.19h0s-.02-.02-.04-.04c-.02-.03-.04-.05-.04-.05h0c-.35-.4-1.8-1.88-3.73-2.16-.3-.04-.59-.06-.87-.04Z" fill="#8aa526" strokeWidth="0"/>
  </g>
  <g>
    <path d="m382.39,258.34l2,2.3,7.99-6.95-2-2.3-7.99,6.95Z" fill="#8cc63f" strokeWidth="0"/>
    <path d="m389.58,250.11l-2.93-.81-3.2,11.52,2.93.81,3.2-11.52Z" fill="#7faf33" strokeWidth="0"/>
    <path d="m380.51,263.01l1.74,2.5,12.02-8.38-1.74-2.5-12.02,8.38Z" fill="#83b732" strokeWidth="0"/>
    <path d="m383.44,264.15l2.67-15.43-2.99-.52-2.57,14.82-11,17.29,2.57,1.63,11.32-17.79h-.02s.02,0,.02,0Z" fill="#8cc63f" strokeWidth="0"/>
    <path d="m374.25,272.92l-4.57,6.76c-.56.82-.32,1.93.51,2.46.83.53,1.94.27,2.44-.58l4.19-7.01-2.57-1.63h0Z" fill="#ecedd1" strokeWidth="0"/>
    <path d="m374.25,272.92l.46.3,6.82-10.72,2.45-14.15-.87-.15-2.57,14.82-6.3,9.9Z" fill="#83b732" strokeWidth="0"/>
    <path d="m370.96,281.98c-.83-.53-1.07-1.65-.51-2.46l4.26-6.3-.46-.3-4.57,6.76c-.56.82-.32,1.93.51,2.46.53.34,1.17.36,1.7.1-.32,0-.63-.09-.92-.27h0Z" fill="#dbdbc6" strokeWidth="0"/>
  </g>
  <g>
    <path d="m326.28,333.8s6.85,6.37,17.86.28c.08-.05.17-.1.25-.14,3.09-1.74,5.69-4.03,7.84-6.4,3.03-3.32,5.15-6.84,6.44-9.28,1.47.62,3.62,1.2,5.9.82,4.24-.71,7.41-4.47,7.41-4.47,0,0-3.45-2.42-7.5-1.94,2.7-3.25,2.83-7.66,2.83-7.66,0,0-4.7.61-7.68,3.88-1.62,1.78-2.39,3.97-2.77,5.62-2.63-.28-6.53-.45-10.82.28-3.06.51-6.3,1.47-9.42,3.16-.09.04-.18.09-.26.13-11.02,6.1-10.08,15.73-10.08,15.73h.01Z" fill="#29abe2" strokeWidth="0"/>
    <path d="m343.24,329.22c.06-.07.1-.17.09-.27-.14-1.36-.46-2.57-.98-3.64-.62-1.29-1.57-2.45-2.81-3.46-.12-.11-.33-.08-.45.06s-.1.34.02.45c1.18.97,2.07,2.07,2.66,3.28.49,1,.8,2.16.92,3.44,0,.18.17.29.35.26.07-.02.14-.05.2-.11h.01Z" fill="#0e85af" strokeWidth="0"/>
    <path d="m341.09,333.22s.08-.11.08-.17c.03-.16.67-3.77-.91-6.98-1.56-3.22-4.7-4.74-4.84-4.81-.15-.08-.35,0-.43.16-.09.16-.03.34.12.43.02.02,3.09,1.52,4.56,4.55,1.47,3.03.87,6.56.86,6.6-.03.18.08.32.26.34.1.01.21-.04.28-.12h.02Z" fill="#0e85af" strokeWidth="0"/>
    <path d="m335.23,327.04c-.55.59-1.44.66-1.98.15s-.54-1.4,0-1.99,1.44-.66,1.98-.15.54,1.4,0,1.99Z" fill="#0e85af" strokeWidth="0"/>
    <path d="m336.62,317.93c3.11-1.68,6.36-2.64,9.42-3.16.7-2.3.69-4.18.69-4.18,0,0-5.15.81-8.34,4.5-.77.89-1.35,1.86-1.79,2.83h.01Z" fill="#29abe2" strokeWidth="0"/>
    <path d="m344.4,333.92c.99.17,2.08.23,3.21.07,4.66-.64,8.24-4.67,8.24-4.67,0,0-1.44-1.09-3.61-1.8-2.15,2.37-4.76,4.65-7.84,6.4Z" fill="#0e85af" strokeWidth="0"/>
    <path d="m326.27,332.61c.88.74,7.5,5.85,17.76.18.08-.05.17-.1.25-.14,3.09-1.74,5.69-4.03,7.84-6.4,3.03-3.32,5.15-6.84,6.44-9.28,1.47.62,3.62,1.2,5.9.82,3.01-.5,5.49-2.55,6.66-3.69.54.29.85.5.85.5,0,0-3.16,3.76-7.41,4.47-2.29.39-4.42-.2-5.9-.82-1.29,2.44-3.42,5.95-6.44,9.28-2.15,2.37-4.76,4.65-7.84,6.4-.08.05-.17.1-.25.14-11.02,6.1-17.86-.28-17.86-.28,0,0-.05-.44,0-1.19Z" fill="#0e85af" strokeWidth="0"/>
    <path d="m346.22,313.49s.11-.02.15-.02c-.09.41-.2.85-.35,1.32-3.06.51-6.3,1.47-9.42,3.16.25-.56.56-1.12.93-1.68,2.9-1.45,5.86-2.29,8.68-2.77h.01Z" fill="#0e85af" strokeWidth="0"/>
  </g>
  <g>
    <path d="m265.83,2l4.01,19.01,1.93-1.84-3.78-17.92c-.7.33-1.42.58-2.16.75h0Zm7.74-1.93l3.06,14.49,1.27-1.21c2.99-2.94,3.14-7.71.34-10.83-1.24-1.39-2.91-2.22-4.67-2.46Zm-3.98.44l3.65,17.28,1.93-1.84L271.81.01c-.75.05-1.5.22-2.21.49h-.01Zm-7.77,1.57c-4.01-.87-8.39.29-11.49,3.51-4.32,4.49-4.58,11.63-.58,16.41,4.61,5.51,12.83,5.92,17.95,1.05l.67-.64-4.26-20.15c-.77.04-1.54-.01-2.3-.18Zm-3.49,14.54c-1.06,1.01-2.72.96-3.72-.09-1-1.05-.96-2.72.09-3.72,1.05-1,2.72-.96,3.72.09,1,1.05.96,2.72-.09,3.72Z" fill="#ad5151" strokeWidth="0"/>
    <path d="m273.56.08l3.06,14.49-1.46,1.38L271.8.02c.59-.04,1.18-.03,1.77.06h0Z" fill="#994848" strokeWidth="0"/>
    <path d="m269.58.51l3.65,17.28-1.46,1.39-3.78-17.92c.21-.09.42-.2.62-.31.05-.02.09-.05.14-.07.27-.14.55-.26.84-.36h0Z" fill="#994848" strokeWidth="0"/>
    <path d="m265.83,2l4.01,19.01-1.46,1.39-4.26-20.15c.57-.04,1.14-.12,1.7-.26h0Z" fill="#994848" strokeWidth="0"/>
    <path d="m275.16,15.96l1.46-1.38,1.27-1.21c2.2-2.16,2.86-5.32,1.94-8.09l-15.31,14.54c-5.44,5.17-14.27-.93-17.4-3.43.38,2.01,1.25,3.95,2.63,5.6,4.61,5.51,12.83,5.92,17.95,1.05l.67-.64,1.46-1.39,1.93-1.84,1.46-1.39,1.93-1.84v.02Z" isolation="isolate" opacity=".1" strokeWidth="0"/>
  </g>
  <g>
    <path d="m407.78,75.82c1.41-1.12,3.46-.88,4.57.54l3.36-2.66-26.01-32.91-16.15,12.77c-1.52,1.21-1.78,3.43-.58,4.95l3.89,4.93c1.74-1.37,4.24-1.08,5.61.66,1.37,1.74,1.08,4.24-.66,5.61l12.79,16.18c1.21,1.52,3.43,1.78,4.95.58l7.68-6.07c-1.12-1.41-.88-3.46.54-4.57Z" fill="#f9d53d" strokeWidth="0"/>
    <path d="m389.67,40.85c3.46-2.73,8.49-2.15,11.22,1.31.49.62.89,1.3,1.15,2l13.68,29.55-26.01-32.91" fill="#e8b321" strokeWidth="0"/>
    <path d="m387.8,52.99c.77.97,2.18,1.14,3.16.37s1.14-2.18.37-3.16c-.77-.97-2.18-1.14-3.16-.37-.97.77-1.14,2.18-.37,3.16Z" fill="#e8b321" strokeWidth="0"/>
    <path d="m393.5,67.43c1.37,1.74,3.9,2.03,5.64.66,1.74-1.37,2.03-3.9.66-5.64-1.37-1.74-3.9-2.03-5.64-.66-1.74,1.37-2.03,3.9-.66,5.64Z" fill="#e8b321" strokeWidth="0"/>
    <path d="m395.15,80.14c.6.76,1.7.88,2.45.29.76-.6.88-1.7.29-2.45-.6-.76-1.7-.88-2.45-.29-.76.6-.88,1.7-.29,2.45Z" fill="#e8b321" strokeWidth="0"/>
    <path d="m379.95,56.58c.49.62,1.4.73,2.02.24.62-.49.73-1.4.24-2.02-.49-.62-1.4-.73-2.02-.24s-.73,1.4-.24,2.02Z" fill="#e8b321" strokeWidth="0"/>
    <path d="m405.96,70.83c.67.85,1.91.99,2.75.32.85-.67.99-1.91.32-2.76-.67-.85-1.91-.99-2.76-.32-.85.67-.99,1.91-.32,2.76Z" fill="#e8b321" strokeWidth="0"/>
    <path d="m386.83,71c.68.86,1.92,1,2.78.33.86-.68,1-1.92.33-2.78-.68-.86-1.92-1-2.78-.33-.86.68-1,1.92-.33,2.78Z" fill="#e8b321" strokeWidth="0"/>
    <path d="m375.91,59.08c-1.21-1.52-.94-3.75.58-4.95l13.75-12.64-.55-.69-16.15,12.77c-1.52,1.21-1.78,3.43-.58,4.95l3.89,4.93c.56-.45,1.21-.7,1.86-.81l-2.81-3.56Z" fill="#e8b321" strokeWidth="0"/>
    <path d="m383.03,68.11c-.25.61-.66,1.17-1.21,1.6l12.79,16.18c.86,1.09,2.21,1.51,3.48,1.27l-15.05-19.04Z" fill="#e8b321" strokeWidth="0"/>
  </g>
  <g>
    <path d="m421.01,117.39c-.47,7.85-1.37,15.91-2.33,23.72-.16,1.29-.6,4.69-.77,5.93-.19,1.38-1.76,3.11-3.2,2.01-.7-.56-1.05-1.18-1.21-1.96l-.3-1.97-.58-3.95c-.74-5.08-1.44-10.66-2.01-15.78-.27-2.63-.55-5.27-.74-7.89-.22-3.07,2.1-5.75,5.17-5.97,3.32-.26,6.17,2.55,5.97,5.86Z" fill="#f15a24" strokeWidth="0"/>
    <path d="m416.3,147.41c-.7-.56-1.05-1.18-1.21-1.96l-.3-1.97-.58-3.95c-.74-5.08-1.44-10.66-2.01-15.78-.27-2.63-.55-5.27-.74-7.89-.09-1.25.25-2.43.88-3.41-1.61,1.08-2.62,2.96-2.48,5.04.18,2.63.47,5.26.74,7.89.57,5.12,1.27,10.69,2.01,15.78l.58,3.95.3,1.97c.16.78.51,1.4,1.21,1.96,1.22.94,2.53-.15,3.01-1.35-.45.14-.94.09-1.41-.27h0Z" fill="#d6532b" strokeWidth="0"/>
    <path d="m423.15,104.66s-3.27.15-5.41,2.23c-.08-3-2.34-5.4-2.34-5.4,0,0-2.23,2.44-2.25,5.44-2.18-2.04-5.45-2.14-5.45-2.14,0,0,.15,3.37,2.33,5.51,1.88,1.84,4.66,2.17,5.37,2.22h0s.03,0,.08,0c.05,0,.09,0,.09,0h0c.72-.07,3.48-.45,5.33-2.32,2.14-2.18,2.23-5.55,2.23-5.55v.02Z" fill="#9ac422" strokeWidth="0"/>
    <path d="m421.66,109.28c-.05.05-.1.1-.15.16-1.84,1.88-4.62,2.25-5.33,2.32h0s-.03,0-.09,0c-.06,0-.08.01-.08.01h0c-.72-.06-3.5-.38-5.37-2.23-1.5-1.48-2.04-3.54-2.23-4.68-.44-.06-.7-.07-.7-.07,0,0,.15,3.37,2.33,5.51,1.88,1.84,4.66,2.17,5.37,2.22h0s.03,0,.08,0c.05,0,.09,0,.09,0h0c.72-.07,3.48-.45,5.33-2.32.29-.29.53-.59.75-.92Z" fill="#8aa526" strokeWidth="0"/>
  </g>
  <g>
    <path d="m338.3,21.87l2.64-1.52-5.28-9.18-2.64,1.52,5.28,9.18Z" fill="#8cc63f" strokeWidth="0"/>
    <path d="m331.59,13.23l-1.36,2.72,10.69,5.36,1.36-2.72-10.69-5.36Z" fill="#7faf33" strokeWidth="0"/>
    <path d="m342.51,24.62l2.79-1.23-5.91-13.41-2.79,1.23,5.91,13.41Z" fill="#83b732" strokeWidth="0"/>
    <path d="m344.19,21.97l-14.63-5.59-1.08,2.84,14.05,5.37,14.85,14.12,2.09-2.2-15.28-14.53-.02.02v-.02Z" fill="#8cc63f" strokeWidth="0"/>
    <path d="m351.04,32.67l5.75,5.79c.69.7,1.83.68,2.51-.03.68-.71.63-1.85-.1-2.51l-6.07-5.46-2.09,2.2h0Z" fill="#ecedd1" strokeWidth="0"/>
    <path d="m351.04,32.67l.38-.4-9.21-8.76-13.41-5.13-.31.83,14.05,5.37,8.5,8.08Z" fill="#83b732" strokeWidth="0"/>
    <path d="m359.29,37.65c-.68.71-1.82.73-2.51.03l-5.37-5.39-.38.4,5.75,5.79c.69.7,1.83.68,2.51-.03.43-.46.57-1.08.43-1.65-.06.31-.21.6-.45.85h0Z" fill="#dbdbc6" strokeWidth="0"/>
  </g>
  <g>
    <path d="m411.66,202.41l-1.96-2.21c-.91.27-1.74.66-2.53,1.09-.77.43-1.49.92-2.16,1.46-1.03.86-2.04,1.82-2.88,2.91.6-2.43,1.09-4.91,1.38-7.43l-3.02-.84c-.79,2.22-1.38,4.5-1.92,6.79-.01.01,0,.04-.01.06.02-.78.02-1.56.01-2.33-.03-2.16-.15-4.33-.39-6.5l-3.06-.17c.07.83.12,1.69.18,2.52.07,1.25.13,2.53.15,3.78.02,1.64,0,3.31-.19,4.92-.14,1.21-.43,2.36-.71,3.54-.4,1.56-.85,3.11-1.45,4.6h0c-.37,1.27,1.14,2.95,3.45,3.81,2.3.86,4.67.57,5.13-.7.32-.72.85-2.29,1.13-3.02.41-1.09.8-2.19,1.16-3.3l.35-1.1c.28-.85.89-1.75,1.53-2.49,1.68-1.98,4.01-3.47,5.8-5.38v-.02Z" fill="#9ac422" strokeWidth="0"/>
    <path d="m396.55,211.75c.88-3.06.34-12.93.34-12.93l-1.52.74c.02.67.05,1.34.06,2.01.02,1.64,0,3.31-.19,4.92-.14,1.21-.43,2.36-.71,3.54-.4,1.56-.85,3.11-1.45,4.6h0c-.37,1.27,1.14,2.95,3.45,3.81,2.36.89,4.67.57,5.13-.7.26-.58.66-1.74.95-2.55-2.34-.85-6.86-.72-6.08-3.45h0Z" fill="#88b212" strokeWidth="0"/>
    <path d="m418.42,197.48s-.03-.01-.06-.02c.74-.22,1.37-.81,1.63-1.6.4-1.28-.31-2.64-1.59-3.05-.4-.13-.81-.14-1.2-.06.34-.32.61-.72.75-1.19.45-1.45-.35-3.01-1.81-3.45-.77-.24-1.57-.13-2.21.25.23-.31.4-.66.53-1.04.61-1.91-.47-3.94-2.37-4.54-1.06-.33-2.15-.16-3.03.39.49-1.57-.39-3.24-1.95-3.73-1.37-.43-2.82.18-3.5,1.39-.22-.6-.69-1.09-1.35-1.3-1.11-.35-2.29.27-2.64,1.38-.06.19-.09.38-.1.56-.19-.48-.58-.88-1.12-1.05-.93-.29-1.92.22-2.21,1.16-.03.12-.06.24-.07.36-.15-.08-.3-.13-.47-.19-1.57-.49-3.24.38-3.73,1.95-.19.6-.17,1.21,0,1.77-1.65-.14-3.24.88-3.75,2.53-.51,1.65.27,3.56,1.85,4.33-.43.33-.77.79-.94,1.34-.45,1.43.35,2.95,1.78,3.4,1,.32,2.06.01,2.75-.7-.03.07-.06.14-.08.21-.53,1.7.41,3.51,2.11,4.05,1.44.45,2.96-.16,3.72-1.39.14,1.23.98,2.33,2.24,2.72,1.11.35,2.27.07,3.08-.64.13.69.61,1.28,1.33,1.51.48.15.99.1,1.42-.1-.06.88.48,1.72,1.35,1.99.88.27,1.88-.14,2.3-.96.33.5.83.9,1.46,1.09,1.43.45,2.95-.35,3.4-1.78.17-.55.16-1.11,0-1.61.28.3.63.53,1.05.66,1.28.4,2.64-.31,3.05-1.59.41-1.28-.31-2.64-1.59-3.05l-.02.02Zm-7.7,4.02h-.01s0-.01.01-.01h0s0,.01,0,.01Z" fill="#3e662d" strokeWidth="0"/>
    <path d="m420.01,200.53c.15-.48.15-.98,0-1.43-.23-.75-.81-1.39-1.61-1.65.73-.24,1.33-.81,1.58-1.58.4-1.28-.31-2.64-1.59-3.05-.4-.13-.81-.14-1.2-.06.34-.32.61-.72.75-1.19.45-1.45-.35-3.01-1.81-3.45-.77-.24-1.57-.13-2.21.25.23-.31.4-.66.53-1.04.61-1.91-.47-3.94-2.37-4.54-1.06-.33-2.15-.16-3.03.39.49-1.57-.39-3.24-1.95-3.73-1.37-.43-2.82.18-3.5,1.39-.22-.6-.69-1.09-1.35-1.3-1.11-.35-2.29.27-2.64,1.38-.04.13-.07.26-.08.39.24.52.67.96,1.24,1.19.01.01.03.01.06.02-.75.15-1.4.65-1.71,1.41-.5,1.21.07,2.59,1.28,3.09.38.16.77.21,1.16.17-.35.27-.64.64-.84,1.08-.56,1.37.08,2.93,1.45,3.51.73.3,1.51.26,2.17-.05-.24.28-.45.6-.6.96-.75,1.79.11,3.85,1.9,4.6,1,.41,2.07.33,2.96-.12-.61,1.48.09,3.17,1.56,3.78,1.29.53,2.75.07,3.5-1.05.16.6.58,1.12,1.19,1.38.31.13.63.17.93.15.29.35.68.61,1.14.75,1.3.41,2.69-.31,3.1-1.63h-.02Z" fill="#487534" strokeWidth="0"/>
  </g>
  <g>
    <path d="m303.91,369.19c-4.56,3.64-9.43,7.15-14.21,10.51-.79.55-2.88,2-3.65,2.52-.86.58-2.58.58-2.7-.76-.04-.66.12-1.17.48-1.64l.93-1.14,1.88-2.28c2.43-2.93,5.15-6.09,7.69-8.95,1.31-1.46,2.62-2.92,3.97-4.33,1.58-1.65,4.2-1.7,5.85-.12,1.8,1.7,1.66,4.66-.26,6.2Z" fill="#f15a24" strokeWidth="0"/>
    <path d="m285.04,381.52c-.04-.66.12-1.17.48-1.64l.93-1.14,1.88-2.28c2.43-2.93,5.15-6.09,7.69-8.95,1.31-1.46,2.62-2.92,3.97-4.33.64-.67,1.46-1.07,2.32-1.21-1.4-.35-2.93.03-4.01,1.14-1.36,1.41-2.67,2.87-3.97,4.33-2.54,2.86-5.26,6.01-7.69,8.95l-1.88,2.28-.93,1.14c-.35.48-.51.98-.48,1.64.09,1.14,1.34,1.32,2.24.99-.3-.18-.51-.47-.55-.91h0Z" fill="#d6532b" strokeWidth="0"/>
    <path d="m311.98,364.04s-1.71-1.72-3.92-1.87c1.61-1.53,1.81-3.98,1.81-3.98,0,0-2.45-.01-4.11,1.47.04-2.21-1.54-4.06-1.54-4.06,0,0-1.78,1.76-1.87,4.02-.08,1.95,1.12,3.64,1.45,4.06h0s.02.02.05.04c.02.03.04.05.04.05h0c.39.36,1.97,1.7,3.93,1.78,2.26.1,4.17-1.53,4.17-1.53v.02Z" fill="#9ac422" strokeWidth="0"/>
    <path d="m308.7,365.52c-.05,0-.1,0-.16,0-1.95-.08-3.53-1.42-3.93-1.79h0s-.01-.02-.04-.05c-.03-.03-.05-.04-.05-.04h0c-.33-.42-1.53-2.11-1.45-4.07.07-1.56.94-2.88,1.47-3.55-.18-.27-.31-.42-.31-.42,0,0-1.78,1.76-1.87,4.02-.08,1.95,1.12,3.64,1.45,4.06h0s.02.02.05.04c.02.03.04.05.04.05h0c.39.36,1.97,1.7,3.93,1.78.3.01.59,0,.87-.04Z" fill="#8aa526" strokeWidth="0"/>
  </g>
</svg>