<svg width="298" height="343" viewBox="0 0 298 343" fill="none" xmlns="http://www.w3.org/2000/svg">
<path d="M246.575 144.242L220.795 138.922C215.721 145.715 211.874 152.917 208.6 160.201C205.408 167.403 202.871 174.769 200.989 182.217C198.206 193.838 196.16 206.115 195.996 218.309C187.239 197.767 177.582 177.47 166.124 157.991L140.098 168.14C146.318 188.191 154.338 207.588 162.686 226.821C162.686 226.985 162.85 227.149 162.932 227.312C158.922 221.665 154.748 216.1 150.574 210.616C138.788 195.393 126.348 180.58 113.008 166.339L90.2555 181.48C95.1661 187.045 100.158 192.856 104.987 198.503C112.189 207.015 119.473 215.854 126.266 224.693C135.187 236.315 143.944 248.264 151.228 260.786C156.712 270.198 160.804 279.937 165.06 289.84C170.543 303.099 175.618 316.521 179.301 330.352C179.301 330.352 179.301 330.352 179.382 330.352C183.475 341.319 203.281 345.248 224.314 339.11C245.348 332.971 260.652 318.24 257.215 306.7C255.66 299.825 250.995 285.83 249.113 279.119C246.248 269.134 243.138 259.231 239.782 249.41L236.427 239.67C233.89 232.059 233.399 222.402 234.053 213.726C235.445 190.647 244.12 167.567 246.657 144.405L246.575 144.242Z" fill="#9AC422"/>
<path d="M188.794 291.64C178.728 265.123 122.174 197.603 122.174 197.603L115.299 211.025C119.064 215.69 122.829 220.355 126.43 225.02C135.351 236.642 144.108 248.591 151.392 261.113C156.876 270.525 160.968 280.264 165.224 290.167C170.707 303.426 175.781 316.848 179.464 330.68C179.464 330.68 179.464 330.68 179.546 330.68C183.638 341.646 203.444 345.575 224.478 339.437C246.084 333.135 260.816 318.567 257.379 307.027C256.151 301.462 252.795 291.068 250.504 283.784C229.307 290.249 197.715 315.293 188.712 291.64H188.794Z" fill="#88B212"/>
<path d="M268.509 72.9564C268.509 72.9564 268.182 73.0382 268.018 73.12C272.11 67.5547 273.502 60.0252 271.046 52.9867C267.036 41.6924 254.678 35.7997 243.383 39.7281C239.864 40.9558 236.836 43.0837 234.463 45.7027C235.199 41.6105 234.954 37.3547 233.481 33.1807C228.979 20.4132 214.902 13.6203 202.135 18.2035C195.342 20.5769 190.267 25.6512 187.648 31.7894C187.648 28.352 186.994 24.9146 185.848 21.559C179.955 4.6994 161.459 -4.05779 144.681 1.8349C135.351 5.10861 128.476 12.2289 125.202 20.8224C120.292 6.991 105.151 -0.211182 91.3194 4.61755C79.2067 8.87338 72.1682 20.9861 73.805 33.2626C69.0581 30.1525 63.0018 29.1704 57.1909 31.2165C47.4516 34.6539 42.2955 45.3753 45.7329 55.1146C46.3058 56.7515 47.1242 58.3065 48.0245 59.616C44.0961 57.1607 39.1855 56.4241 34.4386 58.1428C26.2543 61.0073 21.9166 70.01 24.863 78.1943C25.2722 79.2583 25.6814 80.2404 26.2543 81.1407C24.7811 81.3862 23.3898 81.7954 21.9166 82.2865C8.08518 87.197 0.801167 102.338 5.71174 116.169C7.59413 121.489 10.9497 125.745 15.1237 128.855C2.60171 136.712 -3.29098 152.426 1.86512 166.912C7.02122 181.398 22.8169 190.81 38.2034 187.946C36.8939 192.611 36.9757 197.685 38.6944 202.514C43.1139 215.117 56.9454 221.665 69.5492 217.245C78.3882 214.135 84.2809 206.36 85.4267 197.603C85.5904 198.258 85.7541 198.913 85.9996 199.485C91.3194 214.463 107.688 222.32 122.665 217.082C135.351 212.58 142.962 200.14 141.735 187.291C149.264 195.311 161.213 198.667 172.262 194.739C182.001 191.301 188.794 183.117 190.84 173.705C195.424 177.961 202.053 179.598 208.355 177.388C212.611 175.915 215.966 172.805 217.93 169.122C222.186 175.751 230.534 178.861 238.227 176.078C245.921 173.296 250.913 165.03 249.522 156.927C254.596 158.728 260.243 158.891 265.727 156.927C278.33 152.508 284.878 138.676 280.458 126.072C278.74 121.244 275.711 117.315 271.865 114.533C275.466 115.187 279.231 114.942 282.914 113.632C294.208 109.622 300.101 97.2637 296.172 85.9694C292.244 74.6751 279.804 68.7824 268.509 72.7108V72.9564ZM235.036 142.768C235.036 142.768 234.954 142.768 234.872 142.768C234.872 142.768 234.872 142.768 234.954 142.687C234.954 142.687 234.954 142.687 234.954 142.768H235.036Z" fill="#3E662D"/>
<path d="M296.172 86.2151C294.699 81.9593 291.998 78.44 288.561 75.9847C282.914 71.8107 275.384 70.4194 268.264 72.7929C272.192 67.2276 273.42 59.9435 271.046 53.0687C267.036 41.7744 254.678 35.8817 243.383 39.8102C239.864 41.0378 236.836 43.1657 234.463 45.7847C235.199 41.6926 234.954 37.4367 233.48 33.2628C228.979 20.4953 214.902 13.7023 202.135 18.2855C195.342 20.659 190.267 25.7332 187.648 31.8714C187.648 28.434 186.994 24.9966 185.848 21.6411C179.955 4.78144 161.459 -3.97576 144.681 1.91693C135.351 5.19064 128.476 12.311 125.202 20.9045C120.292 7.07303 105.151 -0.129144 91.3194 4.69959C79.2066 8.95542 72.1682 21.0682 73.805 33.3446C69.0581 30.2346 63.0017 29.2525 57.1909 31.2985C47.4516 34.7359 42.2955 45.4573 45.7329 55.1967C46.1421 56.3425 46.6332 57.4064 47.2061 58.3885C51.7074 60.8438 57.1091 61.6622 62.4289 60.2709C62.5925 60.2709 62.7562 60.1891 62.9199 60.1072C58.4185 65.1815 56.4543 72.22 58.2549 79.2584C61.1194 90.5528 72.5774 97.3457 83.8717 94.4812C87.3909 93.581 90.501 91.8623 93.0381 89.4888C91.9741 93.3354 91.8923 97.5094 92.8744 101.683C96.1481 114.451 109.079 122.144 121.929 118.952C128.722 117.234 134.041 112.732 137.151 107.003C136.906 110.277 137.151 113.714 138.052 117.07C142.308 133.848 159.413 143.996 176.19 139.74C185.521 137.367 192.723 131.065 196.651 123.044C200.17 136.876 214.247 145.142 227.997 141.623C240.028 138.513 247.967 127.464 247.394 115.433C251.731 118.87 257.542 120.344 263.271 118.87C266.136 118.134 268.673 116.742 270.719 114.942C274.647 115.842 278.821 115.679 282.832 114.205C294.29 110.195 300.346 97.5913 296.254 86.0514L296.172 86.2151Z" fill="#487534"/>
</svg>
