<svg width="1355" height="748" viewBox="0 0 1355 748" fill="none" xmlns="http://www.w3.org/2000/svg">
<path d="M1354.58 134.76C1354.58 134.76 1354.58 415.525 1024.14 533.388C1021.62 534.23 1019.09 535.072 1016.57 535.914C923.117 568.326 827.985 578.849 739.588 577.587C615.412 576.324 504.284 551.067 430.62 529.599C415.466 574.64 386.842 633.571 336.33 676.086C242.04 754.801 106.497 747.646 106.497 747.646C106.497 747.646 122.493 622.206 208.364 543.07C91.7646 535.914 0 448.779 0 448.779C0 448.779 100.604 357.857 223.097 359.12C289.605 359.961 348.537 387.743 388.947 413C432.725 349.438 502.6 260.199 598.153 180.642C665.924 123.815 746.323 72.0398 839.351 37.9438C841.876 36.681 844.402 35.839 846.928 34.9971C1177.79 -82.8656 1355 134.76 1355 134.76H1354.58Z" fill="#29ABE2"/>
<path d="M942.902 414.262C940.376 414.262 937.43 413 935.746 410.895C910.91 380.166 892.389 348.175 880.603 314.921C866.291 274.932 860.398 230.312 863.345 182.325C863.345 177.274 867.975 173.486 873.026 173.486C878.077 173.486 881.866 178.116 881.866 183.167C879.34 229.05 884.812 271.143 898.282 308.607C909.227 339.756 926.906 370.485 950.479 399.109C953.846 402.897 953.004 408.79 949.216 412.158C947.532 413.421 945.427 414.262 943.323 414.262H942.902Z" fill="#0E85AF"/>
<path d="M1064.13 448.779C1064.13 448.779 1060.34 448.358 1059.08 447.095C1055.29 444.57 970.263 384.797 934.904 284.613C899.124 184.43 927.327 84.2468 928.59 80.0374C929.853 74.9862 935.325 72.4605 939.955 73.7233C945.006 74.9861 947.532 80.0374 946.269 85.0886C946.269 85.9305 918.908 184.009 952.583 278.299C986.259 372.589 1069.18 431.521 1070.03 431.942C1074.23 434.888 1075.08 440.361 1072.13 444.57C1070.45 447.096 1067.5 448.358 1064.55 448.358L1064.13 448.779Z" fill="#0E85AF"/>
<path d="M1049.4 193.691C1071.72 193.691 1089.81 175.599 1089.81 153.281C1089.81 130.963 1071.72 112.871 1049.4 112.871C1027.08 112.871 1008.99 130.963 1008.99 153.281C1008.99 175.599 1027.08 193.691 1049.4 193.691Z" fill="#0E85AF"/>
<path d="M838.93 37.9437C746.324 72.0397 665.924 123.815 597.732 180.642C537.959 149.071 500.075 110.345 500.075 110.345C500.075 110.345 613.307 13.5292 748.007 19.0014C780.42 20.2642 811.148 27.4201 838.93 37.5226V37.9437Z" fill="#29ABE2"/>
<path d="M1016.15 535.914C1000.99 561.17 981.628 586.426 957.214 607.894C856.609 697.133 707.597 693.766 707.597 693.766C707.597 693.766 712.649 639.885 739.168 577.587C827.565 578.849 922.697 567.905 1016.15 535.914Z" fill="#0E85AF"/>
<path d="M1330.59 110.345C1328.9 144.862 1307.86 394.899 1000.15 504.764C997.624 505.606 995.098 506.448 992.572 507.29C899.124 539.702 803.992 550.225 715.595 548.963C591.418 547.7 480.291 522.444 406.626 500.976C391.473 546.016 362.849 604.947 312.336 647.462C245.407 703.447 157.431 716.075 112.391 718.601C108.181 736.28 106.497 747.646 106.497 747.646C106.497 747.646 242.04 754.801 336.33 676.086C387.263 633.571 415.466 574.64 430.62 529.599C504.284 551.067 615.412 575.903 739.589 577.586C827.986 578.849 923.118 567.905 1016.57 535.913C1019.09 535.072 1021.62 534.23 1024.14 533.388C1355 415.525 1354.58 134.759 1354.58 134.759C1354.58 134.759 1346.58 124.657 1330.59 110.345Z" fill="#0E85AF"/>
<path d="M568.267 158.332C568.267 158.332 565.741 160.436 564.899 161.278C575.002 167.592 585.946 174.328 598.153 180.642C665.924 123.815 746.324 72.0396 839.351 37.9436C823.355 32.0505 806.097 27.4201 787.996 24.0526C704.23 58.1485 631.408 106.135 568.688 158.332H568.267Z" fill="#0E85AF"/>
</svg>
