<svg width="255" height="224" viewBox="0 0 255 224" fill="none" xmlns="http://www.w3.org/2000/svg">
<path d="M205.913 93.936L92.4788 196.894L112.694 202.705L219.663 105.64C214.67 102.202 210.087 98.2737 205.995 93.936H205.913ZM249.863 138.95L163.355 217.437L176.613 221.284C208.532 229.959 241.596 211.953 251.663 180.526C256.165 166.531 255.182 151.881 249.863 138.95ZM231.039 113.578L127.917 207.207L148.132 213.017L243.233 126.755C239.878 121.844 235.786 117.425 231.121 113.66L231.039 113.578ZM189.463 66.9278C179.396 36.1549 154.106 10.9473 119.814 2.68118C72.0999 -8.85867 22.4212 17.8221 5.80713 64.0633C-13.3441 117.343 16.6104 174.96 70.1356 190.429L77.1741 192.475L197.401 83.2964C194.046 78.2222 191.345 72.7387 189.463 66.9278ZM76.6012 101.056C65.5525 97.8644 59.2506 86.3246 62.4424 75.3577C65.6343 64.3907 77.1741 58.007 88.1411 61.1988C99.108 64.3907 105.492 75.9306 102.3 86.8975C99.108 97.8644 87.5682 104.248 76.6012 101.056Z" fill="#AD5151"/>
<path d="M249.781 138.949L163.273 217.437L148.05 213.017L243.151 126.755C245.77 130.601 248.062 134.694 249.781 139.031V138.949Z" fill="#994848"/>
<path d="M231.039 113.578L127.917 207.206L112.612 202.787L219.581 105.721C221.054 106.785 222.609 107.767 224.164 108.749C224.491 108.995 224.819 109.159 225.228 109.404C227.274 110.714 229.156 112.105 231.039 113.66V113.578Z" fill="#994848"/>
<path d="M205.913 93.936L92.4787 196.894L77.1741 192.475L197.401 83.2964C199.938 87.0612 202.721 90.5804 205.913 93.8541V93.936Z" fill="#994848"/>
<path opacity="0.1" d="M148.05 213.017L163.273 217.437L176.531 221.283C200.02 227.667 224.164 219.565 239.305 202.296L79.3839 155.973C22.5031 139.522 28.9687 55.1424 33.47 23.8784C21.2754 34.4361 11.5361 48.1039 5.80713 64.0633C-13.3441 117.343 16.6104 174.96 70.1356 190.429L77.1741 192.475L92.4788 196.894L112.694 202.705L127.999 207.125L148.214 212.935L148.05 213.017Z" fill="black"/>
</svg>
