<svg width="823" height="705" viewBox="0 0 823 705" fill="none" xmlns="http://www.w3.org/2000/svg">
<path d="M696.911 266.057C689.067 236.781 706.427 206.713 735.703 198.868L717.033 129.19L34.5951 312.048L124.338 646.973C132.81 678.592 165.477 697.452 197.095 688.979L299.271 661.602C289.622 625.591 310.84 588.841 346.85 579.192C382.86 569.543 419.61 590.761 429.259 626.771L764.769 536.872C796.388 528.4 815.248 495.733 806.776 464.114L764.101 304.849C734.824 312.694 704.756 295.334 696.911 266.057Z" fill="#F9D53D"/>
<path d="M35.1233 312.847C15.9039 241.119 58.5536 167.248 130.281 148.029C143.163 144.577 156.223 142.96 168.953 143.629L717.326 129.11L34.888 311.969" fill="#E8B321"/>
<path d="M210.483 422.751C230.694 417.335 242.689 396.56 237.273 376.349C231.857 356.138 211.083 344.144 190.871 349.559C170.66 354.975 158.666 375.749 164.081 395.961C169.497 416.172 190.272 428.166 210.483 422.751Z" fill="#E8B321"/>
<path d="M471.839 430.854C507.895 421.193 529.293 384.131 519.632 348.074C509.97 312.017 472.908 290.619 436.851 300.281C400.794 309.942 379.397 347.004 389.058 383.061C398.72 419.118 435.782 440.516 471.839 430.854Z" fill="#E8B321"/>
<path d="M679.434 490.076C695.118 485.874 704.425 469.753 700.223 454.069C696.02 438.385 679.899 429.077 664.215 433.28C648.531 437.482 639.224 453.603 643.426 469.287C647.629 484.971 663.75 494.279 679.434 490.076Z" fill="#E8B321"/>
<path d="M213.662 568.125C226.598 564.659 234.274 551.363 230.808 538.428C227.342 525.492 214.046 517.816 201.111 521.282C188.176 524.748 180.499 538.044 183.965 550.979C187.431 563.914 200.727 571.591 213.662 568.125Z" fill="#E8B321"/>
<path d="M607.641 260.794C625.265 256.072 635.724 237.956 631.001 220.332C626.279 202.708 608.164 192.249 590.539 196.971C572.915 201.693 562.456 219.809 567.178 237.433C571.901 255.057 590.016 265.517 607.641 260.794Z" fill="#E8B321"/>
<path d="M482.651 557.865C500.437 553.099 510.992 534.818 506.227 517.032C501.461 499.246 483.179 488.691 465.393 493.457C447.607 498.222 437.052 516.504 441.818 534.29C446.584 552.076 464.865 562.631 482.651 557.865Z" fill="#E8B321"/>
<path d="M225.433 647.184C193.815 655.656 161.148 636.796 152.676 605.177L48.9406 308.205L34.5951 312.048L124.338 646.973C132.81 678.592 165.477 697.452 197.095 688.979L299.271 661.602C296.133 649.891 296.451 638.196 299.21 627.415L225.433 647.184Z" fill="#E8B321"/>
<path d="M412.589 597.348C420.369 605.304 426.199 615.352 429.258 626.77L764.768 536.87C787.311 530.83 802.889 512.849 807.53 491.524L412.589 597.348Z" fill="#E8B321"/>
</svg>
