<svg width="445" height="428" viewBox="0 0 445 428" fill="none" xmlns="http://www.w3.org/2000/svg">
<path d="M301.253 183.826C271.666 244.479 238.094 305.331 204.786 364.05C199.246 373.721 184.6 399.192 179.157 408.464C173.088 418.784 155.004 427.303 147.205 413.837C143.543 407.069 142.725 401.042 144.076 394.291L148.183 377.717L156.575 344.527C167.459 301.84 180.224 255.368 192.598 212.94C199.067 191.229 205.547 169.402 212.686 147.988C221.055 122.903 248.195 109.368 273.281 117.736C300.476 126.6 313.756 158.207 301.253 183.826Z" fill="#F15A24"/>
<path d="M165.148 406.179C161.485 399.411 160.667 393.384 162.019 386.633L166.125 370.059L174.518 336.869C185.401 294.181 198.166 247.709 210.541 205.282C217.009 183.571 223.489 161.744 230.629 140.33C234.059 130.164 240.632 121.876 248.82 116.193C232.468 119.455 218.288 131.033 212.571 147.977C205.368 169.443 198.951 191.217 192.483 212.929C180.108 255.356 167.343 301.828 156.46 344.516L148.067 377.705L143.96 394.279C142.673 400.978 143.427 407.058 147.09 413.826C153.68 425.309 167.631 420.94 175.39 413.057C171.345 412.667 167.688 410.681 165.084 406.231L165.148 406.179Z" fill="#D6532B"/>
<path d="M360.107 90.0152C360.107 90.0152 333.735 80.4726 309.908 89.8954C319.164 65.887 309.125 39.3755 309.125 39.3755C309.125 39.3755 283.475 51.3633 273.433 75.0626C262.914 51.7122 237.257 40.1976 237.257 40.1976C237.257 40.1976 227.342 67.4082 237.615 91.493C246.455 112.29 267.371 123.989 272.873 126.794L272.81 126.847C272.81 126.847 273.093 126.932 273.492 127.029C273.88 127.241 274.163 127.327 274.163 127.327C274.163 127.327 274.163 127.327 274.227 127.275C280.113 129.126 303.256 135.266 324.105 126.489C348.242 116.28 360.066 89.8362 360.066 89.8362L360.107 90.0152Z" fill="#9AC422"/>
<path d="M333.076 121.756C332.529 121.995 331.981 122.233 331.369 122.524C310.572 131.365 287.377 125.161 281.491 123.31L281.427 123.362C281.427 123.362 281.207 123.225 280.756 123.064C280.305 122.904 280.074 122.882 280.074 122.882C280.074 122.882 280.074 122.882 280.137 122.83C274.635 120.024 253.656 108.378 244.879 87.5283C237.855 70.8717 240.362 52.7437 242.633 43.1072C239.375 41.2182 237.31 40.2608 237.31 40.2608C237.31 40.2608 227.395 67.4714 237.667 91.5562C246.508 112.354 267.423 124.052 272.926 126.858L272.862 126.91C272.862 126.91 273.146 126.996 273.545 127.092C273.932 127.305 274.216 127.39 274.216 127.39C274.216 127.39 274.216 127.39 274.279 127.338C280.165 129.189 303.308 135.329 324.158 126.552C327.382 125.172 330.333 123.591 333.076 121.756Z" fill="#8AA526"/>
</svg>
