<svg width="764" height="1060" viewBox="0 0 764 1060" fill="none" xmlns="http://www.w3.org/2000/svg">
<path d="M267.32 356.3L330.775 408.075L510.874 187.349L447.42 135.574L267.32 356.3Z" fill="#8CC63F"/>
<path d="M420.284 105.027L338.797 96.8467L306.663 416.959L388.15 425.139L420.284 105.027Z" fill="#7FAF33"/>
<path d="M238.728 488.656L296.311 546.891L576.639 269.701L519.056 211.466L238.728 488.656Z" fill="#83B732"/>
<path d="M321.491 505.486L321.887 84.1825L240.18 84.1627L239.74 488.843L27.219 997.497L102.685 1028.98L321.568 505.707L320.971 505.417L321.491 505.486Z" fill="#8CC63F"/>
<path d="M118.062 780.046L27.6869 980.201C16.6863 1004.37 27.9977 1032.74 52.4593 1043.14C76.8443 1053.32 104.98 1041.35 114.565 1016.67L193.605 811.751L118.139 780.268L118.062 780.046Z" fill="#ECEDD1"/>
<path d="M118.062 780.046L131.708 785.751L263.645 470.385L264.001 84.1099L240.18 84.1628L239.74 488.843L118.062 780.046Z" fill="#83B732"/>
<path d="M72.0326 1035.12C47.6477 1024.94 36.2595 996.354 47.26 972.182L131.41 785.606L117.763 779.901L27.3882 980.056C16.3877 1004.23 27.6991 1032.59 52.1608 1043C67.8204 1049.5 84.8609 1047.07 97.5939 1037.94C89.1504 1039.38 80.3827 1038.44 71.9558 1034.9L72.0326 1035.12Z" fill="#DBDBC6"/>
</svg>
