<?xml version="1.0" encoding="UTF-8"?>
<svg id="cookie_image" data-name="Ebene 1" xmlns="http://www.w3.org/2000/svg" xmlns:xlink="http://www.w3.org/1999/xlink" viewBox="0 0 659.02 659.02">
  <defs>
    <linearGradient id="b" data-name="Unbenannter Verlauf 319" x1="464.82" y1="-345.95" x2="473.86" y2="-335.26" gradientTransform="translate(376.01 1015.05) rotate(-69.47)" gradientUnits="userSpaceOnUse">
      <stop offset="0" stop-color="#703511"/>
      <stop offset="1" stop-color="#4e2a12"/>
    </linearGradient>
  </defs>
  <path d="m128.25,266.71c25.96-80,97.82-135.9,179.67-149.76,100.48-17.01,209.76,33.59,259.25,123.22,21.47,38.88,5.29,40.63-28.85,53.53-14.43,15.52-32.99,6.71-43.47,20.56-7.1,9.39-4.34,17.95-6.01,26.04-1.38,6.69-6.61,19.06-7.89,25.34-2.49,12.25,3.22,25.4-9.93,33.65-4.49,2.82-18.33,4.47-23.64,10.37-11.59,12.89,2.51,26.36-12.62,37.99-7.47,5.74-24.08,7.68-21.82,21.2,2.8,16.72,24.93,15.37,32.35,28.39,1.58,5.46,12.43,33.56,12.63,35.43,2.01,18.47-19.69,22.5-33.55,26.15-65.38,17.23-132.97,4.76-190.68-29.74-86.43-51.68-137.2-164.52-105.45-262.38Z" style="fill: #4f2811; stroke-width: 0px;"/>
  <g>
    <path d="m537.58,277.14l4.91-4.57c3.59-.03,17.72,1.21,17.29-3.4-.32-3.48-32.7-50.93-36.75-59.41-39.33-34.47-86.65-65.97-139.03-75.01-26.16-4.52-72.13-.89-97.75,7.98-.73,1.31.08,1.3.03,1.35-7.25,7.33-4.24,7.39-14.68,12.12,4.14-5.33,8.75-11.12,1.05-15.63,72.74-24.31,146.45-14.65,210.92,27.71,27.85,18.3,65,57.67,79.22,87.86,12.47,26.47-10.05,12.14-21.64,25-1-1.1-2.62-3.17-3.57-4.01Z" style="fill: #cc7c1f; stroke-width: 0px;"/>
    <path d="m429.21,398.33c.32-.27,3.48-2.27,4.21-2.69,17.88-10.2,45.11,11.43,28.46-23.25.95-6.44,11.98-32.03,11.1-35.35-2.08-7.85-22.83,1.77-20.26-25.74,1.12-11.98,6.29-29.25,19.62-32.43,1.96-.47,4.05-.06,6.03-.41,12.87-1.35,9.18-15.39,31.37-3.21,1.2-.04,6.57-7.88,7.92-9.05,5.56-4.79,17.09.01,16.42,7.48-16.18-11.82-17.11,7.46-20.13,7.41-25.27-15.74-16.78.74-31.19,2.74-16.06-3.44-24.55,17-25.53,29.68-1.22,15.71,9.94,15.91,21.63,20.65.28,1.2,1.8,3.71,1.73,6.79q-6.08,14.81-12.16,29.62c-2.17,8.56,14.29,21.98-3.29,25.19-14.69,2.69-30.81-10.36-51.21,37.69-9.81-4.79-20.6-2.04-22.35,9.78-1.48,10,13.48,24.62,12.54,29.25-6.26,8.38-3.38,22.28,6.71,26.27-2.08,4.11-10.15-1.01-13.46-6.11-5.55-8.53-1.03-14.67.54-23.55-7.48-14.35-17.11-16.58-8.74-33.7,7.14-14.61,18.24-6.14,20.54-7.79,4.29-8.15,12.82-23.52,19.5-29.27Z" style="fill: #cc7c1f; stroke-width: 0px;"/>
    <path d="m232.45,496.05c8.73,2.67,15.82,8.31,23.42,13.04-1.63-.18-17.82-5.15-16.33-1.31.44,1.13,13.37,10.56,21.02,11.61,3.09,2.7,17.28,3.42,23,2.74l.47.18c-.46,2.82,1.36,5.94,3.52,7.72,17.74,14.69,22.37-7.16,32.24-1.28.89,1.05,2.73,2.48,3.92,3.07-.68.52-.93.84-1.17,1.7-2.58,9.26,7.9,13.19,12.82,8.54-5.06,10.31.75,4.38,2.81,9.6-51.78-6.32-97.9-27.48-135.98-63.19,5.81-1.93,2.77-2.51,1.11-6.53,9.06,6.09,18.14,12.34,29.15,14.12Z" style="fill: #e49732; stroke-width: 0px;"/>
    <path d="m323.71,531.82c4.69,2.34,9.05,5.48,14.57,5.99.33-.19,3.68-6.22,3.8-6.59,3.93,6.69,7.98,5.41,11.01,6.26,10.58,2.95,10.24,2.12,20.72-1.85,4.46,1.71,10.87,1.49,14.63,2.27,3.58.75.47,4.61,17.73,1.83,2.92,3.71-1.75,5.51-.82,7.17.25.44,8.2-3.4,3.16,2.25-24.52,4.98-45.53,5.52-70.34,2.5-2.06-5.22-7.87.72-2.81-9.6,3.88-3.68-4.66-2.89-12.82-8.54.24-.85.49-1.18,1.17-1.7Z" style="fill: #cc7c1f; stroke-width: 0px;"/>
    <path d="m482.75,283.84c-15.85,18.92-7.8,33.45-3.89,50.33-11.69-4.74-22.85-4.93-21.63-20.65.98-12.68,9.47-33.12,25.53-29.68Z" style="fill: #a65d16; stroke-width: 0px;"/>
    <path d="m408.51,549.15c5.04-5.65-2.91-1.81-3.16-2.25-.94-1.66,3.73-3.46.82-7.17,3.81-.61,40.47-8.73,30.89-16.2-3.91-3.04-15.64-.31-17.74-23.19,1,.14,4.05-.4,5.62-.03-2.35,21.32,26.53,21.54,23.46,33.61-1.84,7.22-32.31,13.7-39.87,15.24Z" style="fill: #cc7c1f; stroke-width: 0px;"/>
    <g>
      <path d="m230.81,159.62c3.18.78,6.23,6.28,8.2,7.34,7.82,4.23,10.51-7.24-3.34-10.33,15.29-8.6,20.48-10.54,36.98-16.05,7.71,4.51,3.09,10.29-1.05,15.63-6.13,2.78-14.8,4.93-17.32,6.33-6.32,3.51-5.19,5.44-6.26,6.73-8.22,9.99-15.75-3.85-24.82-5.02,2.57-1.67,4.98-3.07,7.61-4.63Z" style="fill: #e49732; stroke-width: 0px;"/>
      <path d="m235.67,156.63c13.86,3.09,11.16,14.56,3.34,10.33-1.96-1.06-5.02-6.56-8.2-7.34,1.68-1,2.94-1.91,4.86-2.99Z" style="fill: #f1ae43; stroke-width: 0px;"/>
    </g>
    <path d="m347.22,516.06c5.04-.34,11.58,2.2,12.62,7.66,1.68,8.88-6.01,10.84-6.75,13.76-3.02-.84-7.07.44-11.01-6.26,1.18-3.59-.56-1.5-.82-3.51,7.59,0,10.7-7.87,5.96-11.65Z" style="fill: #f1ae43; stroke-width: 0px;"/>
    <path d="m451.83,242.37c.67,2.14,24.2,30.08,26.53,36.09-1.97.35-4.06-.06-6.03.41q-11.57-19.01-23.14-38.03c1.88.63.21,1.5,2.63,1.52Z" style="fill: #f1ae43; stroke-width: 0px;"/>
    <path d="m248.02,169.26c1.06-1.29-.06-3.23,6.26-6.73-1.25,1.78,9.87-1.04,9.22,5.32-.81,7.91-14.99,11.22-15.48,1.41Z" style="fill: #f1ae43; stroke-width: 0px;"/>
    <g>
      <path d="m230.34,488.85c.78-1.67,1.68-2.96,3.63-1.85,6.99,5.71,28.73,16.64,32.66,19.7,1.88,1.47,2.63,3.52,1.38,5.59-2.89,4.79-9.31-1.45-12.14-3.21-7.59-4.72-14.69-10.37-23.42-13.04-.84-1.45-2.4-2.87-2.52-4.68-.04-.63.13-1.92.41-2.52Z" style="fill: #f7da8d; stroke-width: 0px;"/>
      <path d="m222.79,479.09c1.51-.18,3.99-1.07,5.44-1.7,4.88,3.73-1.27,10.62,2.11,11.47-.28.6-.45,1.88-.41,2.52-4.83,4.62-11.7-3.25-7.15-12.29Z" style="fill: #f6c35b; stroke-width: 0px;"/>
    </g>
    <path d="m419.71,376.63c3.36,6.62,8.78,13.42,13.7,19.01-.74.42-3.89,2.42-4.21,2.69q-7.06-10.38-14.11-20.77c.24-.01,3.84-.77,4.62-.94Z" style="fill: #f1ae43; stroke-width: 0px;"/>
    <path d="m283.55,522.12c-5.72.68-19.91-.04-23-2.74,5.96.81,21.1-4.61,22.06-4.02.58.35.66,5.63.94,6.76Z" style="fill: #e49732; stroke-width: 0px;"/>
    <path d="m284.02,522.3c1.85-.69,4.64-8.05,6.67-7.11.61.28,2.64,12.3,2.38,12.9-.77,1.76-4.63.14-5.53,1.93-2.15-1.78-3.97-4.9-3.52-7.72Z" style="fill: #f1ae43; stroke-width: 0px;"/>
    <path d="m446.32,345.48c-.18-1.54-.89-9.86-.88-10.47,0-.22.41-3.39.55-4.33,7,2.61,4.28,32.4,1.48,24.58-.17-.46-.96-8.2-1.15-9.77Z" style="fill: #f6c35b; stroke-width: 0px;"/>
    <path d="m337.33,509.69c-3.25-.14-11.77,3.74-8.19,7.61,2.97,3.21,6.62-1.62,2.93,2.16-2.14,2.2-2,2.81-2.16,2.93-8.71,6.61-5.64-19.15,7.43-12.7Z" style="fill: #f1ae43; stroke-width: 0px;"/>
    <g>
      <path d="m451.83,242.37c21.7,3.89,36.44-18.52,29.06-37.7,13.39-25.56,18.42,5.28,31.31,11.19l8.81,14.25-6.73,6.56c2.87,11.67,10.98,5.31,15.07,7.51,6.22,3.34-1.5,11.2-.64,13.11,6.15,4,9.64,9.4,13.76,15.3l-4.91,4.57c-1.19-1.05-2.31-2.57-3.51-3.45.67-7.47-10.86-12.27-16.42-7.48-1.35,1.17-6.72,9-7.92,9.05-22.18-12.19-18.5,1.85-31.37,3.21-2.33-6.02-25.86-33.95-26.53-36.09Z" style="fill: #f1ae43; stroke-width: 0px;"/>
      <path d="m475.92,256.46c9.35-3.57,9.6,2.05,13.76,8.89-1.47,1.01-6,7.14-7.52,6.53l-6.24-15.42Z" style="fill: #f1ae43; stroke-width: 0px;"/>
      <path d="m480.25,204.96c.39.2.47.04.64-.29,7.38,19.18-7.37,41.59-29.06,37.7-.3-.97-1.03-.91-.35-1.2,20.18,3.68,33.23-18.37,28.77-36.21Z" style="fill: #e49732; stroke-width: 0px;"/>
      <path d="m506.64,251.41c.12-.25,4.62-1.37,5.41-.91.6.35,6.19,11.59,5.71,12.55-.07.14-2.18,1.56-2.9,1.32-.73-.24-8.57-12.27-8.23-12.96Z" style="fill: #f1ae43; stroke-width: 0px;"/>
    </g>
    <path d="m322.54,533.51c8.16,5.64,16.7,4.86,12.82,8.54-4.92,4.66-15.4.73-12.82-8.54Z" style="fill: #f1ae43; stroke-width: 0px;"/>
    <g>
      <path d="m542.49,272.57c-4.12-5.9-7.61-11.3-13.76-15.3-.87-1.91,6.86-9.77.64-13.11-4.1-2.2-12.21,4.15-15.07-7.51l6.73-6.56-8.81-14.25c-12.9-5.91-17.93-36.75-31.31-11.19-.18.33-.26.5-.64.29-3.11-12.44-16.87-17.09-27.92-19.53-5.89-1.3-14.68-.4-19.55-4.12-2.49-1.9-7.95-17.46-15.99-21.47l-10.06,6.91c-27.59-32.92-35.67,27.4-71.76-19.39-9.75,2.82-16.67-1.07-19.43-.87-1.96.14-10.23,5.8-12.4,6.03-9.21,1.01-8.96-9.83-16.86-8.45.05-.05-.76-.04-.03-1.35,25.62-8.87,71.6-12.5,97.75-7.98,52.37,9.04,99.7,40.54,139.03,75.01,4.05,8.47,36.43,55.93,36.75,59.41.43,4.61-13.7,3.38-17.29,3.4Z" style="fill: #cc7c1f; stroke-width: 0px;"/>
      <g>
        <path d="m433.79,157.93c2.4-9.64,22.57,8.34,10.69,10.67-6.07,1.19-11.43-7.69-10.69-10.67Z" style="fill: #f1ae43; stroke-width: 0px;"/>
        <path d="m364.61,141.64c2.03-10.17,20.25,1.96,11.59,7.54-4.19,2.7-12.63-2.35-11.59-7.54Z" style="fill: #f1ae43; stroke-width: 0px;"/>
        <path d="m355.2,156.8c.42-9.63,16.01-3.35,14.81,1.81-1.15,4.9-15.02,3.14-14.81-1.81Z" style="fill: #f1ae43; stroke-width: 0px;"/>
        <path d="m448.49,179.98c10.29-12.68,18.04-1.51,16.68,2.51-1.32,3.91-13.18-1.63-16.68-2.51Z" style="fill: #f1ae43; stroke-width: 0px;"/>
        <path d="m341.26,148.38c.14-1.19,14.08-8.18,13.63-5.04-.14.99-14.26,10.29-13.63,5.04Z" style="fill: #f1ae43; stroke-width: 0px;"/>
        <path d="m341.9,143.82c2.84-6.73,14.76-7.58,11.82-3.05-.44.68-11.7,3.65-11.82,3.05Z" style="fill: #e49732; stroke-width: 0px;"/>
      </g>
    </g>
    <g>
      <path d="m227.74,438.76c18.33,8.27,14.45,35.72-5.66,37.92-.79-2.86-3.01-2.71-3.22-2.81,2.58-1.66,4.43-.38,9.48-3.93,20.9-14.7-7.69-39.83-20.38-22.58-1.68-1.8.83-3.82,2.48-5.21,4.67-3.92,11.51-4.39,17.29-3.4Z" style="fill: #f9d774; stroke-width: 0px;"/>
      <path d="m222.08,476.69c20.11-2.2,23.99-29.65,5.66-37.92.19.03.98-.73,3.86.38,13.08,5.04,15.55,30.04-3.37,38.24-1.45.63-3.93,1.52-5.44,1.7-3.73.45-6.91.24-10.3-1.72-9.27-5.37,1.93-.68,3.34-.35,2.03.47,4.26-.11,6.26-.33Z" style="fill: #e49732; stroke-width: 0px;"/>
      <g>
        <path d="m207.97,447.37c12.68-17.25,41.27,7.88,20.38,22.58-2.51,1.29-12.12.33-13.81-.9-.38-.36-.58-1.77-.64-1.84-3.28-3.9-4.41-8.52-5.68-13.34-.78-2.97.21-3.61.06-3.72-.68-.45-1.32.5-1.99.32.4-.98,1.08-2.27,1.7-3.1Z" style="fill: url(#b); stroke-width: 0px;"/>
        <path d="m206.27,450.48c.67.18,1.31-.78,1.99-.32.15.1-.84.75-.06,3.72-1.6,4.5,1.24,11.83,5.68,13.34.06.07.27,1.49.64,1.84,1.69,1.23,11.3,2.19,13.81.9-5.04,3.55-6.89,2.26-9.48,3.93-2.3-1.07-4.39-1.44-5.38-2.02-7.09-4.14-10.31-13.86-7.21-21.39Z" style="fill: #4f2811; stroke-width: 0px;"/>
        <path d="m208.2,453.87c1.27,4.82,2.4,9.44,5.68,13.34-4.44-1.51-7.28-8.84-5.68-13.34Z" style="fill: #fdddc1; stroke-width: 0px;"/>
      </g>
    </g>
    <g>
      <path d="m452.33,185.42c11.06,2.44,24.81,7.09,27.92,19.53,4.46,17.84-8.59,39.89-28.77,36.21-.68.28.05.23.35,1.2-2.43-.02-.75-.89-2.63-1.52-6.78-2.26-11-2.85-16.21-8.74-3.48-3.94-7.77-15.21-3.17-15.07.97,15.15,18.41,24.36,32.2,19.53,23.2-8.13,17.4-49.69-12.9-45.41-7.14,1.01-12.77,5.46-16.09,11.6-4.52-.99,4.77-10.71,9.27-13.35,5.3-3.1,9.85-2.2,10.03-3.98Z" style="fill: #f6c35b; stroke-width: 0px;"/>
      <g>
        <path d="m431.09,207.91c2.43-4.23,5.66-11.94,6.23-8.08,5.42-9.48,18.51.6,22.68,7.16,7.47,11.77,2.46,33.87-14.73,26.52-5.87-2.51-11.83-9.44-13.03-15.82-1-5.34,1.73-10.12-1.85-7.9.13-.62.52-1.24.7-1.87Z" style="fill: #6d3612; stroke-width: 0px;"/>
        <path d="m433.02,202.76c3.32-6.14,8.95-10.59,16.09-11.6,1.37,3.76,9.75,2.88,15.45,7.92,6.2,5.48,6.1,18.21,5.08,25.66q-3.82,5.91-7.63,11.83c-13.78,4.83-31.23-4.38-32.2-19.53-.09-1.47.27-5.76.58-7.26,3.58-2.23.84,2.56,1.85,7.9,1.2,6.38,7.16,13.31,13.03,15.82,17.19,7.35,22.21-14.75,14.73-26.52-4.17-6.56-17.26-16.64-22.68-7.16-.57-3.87-3.8,3.84-6.23,8.08.38-1.34-.11-1.37,1.93-5.15Z" style="fill: #4f2811; stroke-width: 0px;"/>
        <path d="m449.11,191.16c30.3-4.28,36.1,37.28,12.9,45.41q3.82-5.91,7.63-11.83c1.02-7.45,1.12-20.18-5.08-25.66-5.7-5.04-14.08-4.16-15.45-7.92Z" style="fill: #4f2811; stroke-width: 0px;"/>
      </g>
    </g>
    <g>
      <path d="m445.44,335.01c0,.61.7,8.93.88,10.47-.59,15.01-12.01,27.91-26.61,31.15-.78.17-4.39.92-4.62.94-9.45.58-13.43-1.24-20.49-6.6,39.62,15.72,54.98-34.38,35.38-50.29-2-3.9-17.69-20.09-18.09-22.26-.16-.84.04-1.14.82-.76.88.43,11.17,12.52,13.23,14.56,7.54,7.5,15.31,11.56,19.5,22.78Z" style="fill: #e49732; stroke-width: 0px;"/>
      <g>
        <path d="m429.98,320.68c19.6,15.91,4.24,66.01-35.38,50.29-36.96-28.09,3.56-76.11,35.38-50.29Z" style="fill: #f9d774; stroke-width: 0px;"/>
        <path d="m417.07,366.56c7.73-8.33,13.01-19.55,9.43-30.9-5.11-16.24-23.18-14.24-24.62-14.82-1.08-.44-.08-.98-.82-1.37,31.01-9.65,45.41,34.63,16,47.1Z" style="fill: #4f2811; stroke-width: 0px;"/>
        <g>
          <path d="m401.07,319.46c.74.4-.26.94.82,1.37,1.44.58,19.51-1.41,24.62,14.82,3.57,11.35-1.71,22.58-9.43,30.9-31.59,13.39-48.9-36.86-16-47.1Z" style="fill: #4f2811; stroke-width: 0px;"/>
          <path d="m386.42,337.2c6.39-26.69,42.32-9.89,36.7,13.21-6.95,28.57-42.55,11.22-36.7-13.21Z" style="fill: #6d3612; stroke-width: 0px;"/>
        </g>
      </g>
    </g>
    <g>
      <path d="m337.33,509.69c2.4,1.18,3.2.38,4.51,4.36.51.33,2.63-.18,5.38,2.02,4.74,3.78,1.63,11.66-5.96,11.65-4.38,0-8.49-2.02-11.36-5.32.16-.12.02-.73,2.16-2.93-.71,3.2,7.43,6.07,10.48,5.52,5.8-1.04,7.53-10.79-2.35-9.42-.01-6.49-11.58-3.74-11.06,1.73-3.58-3.87,4.94-7.75,8.19-7.61Z" style="fill: #a65d16; stroke-width: 0px;"/>
      <g>
        <path d="m332.07,519.46c3.69-3.79.04,1.05-2.93-2.16-.52-5.48,11.05-8.22,11.06-1.73,9.87-1.37,8.15,8.38,2.35,9.42-3.05.55-11.18-2.33-10.48-5.52Z" style="fill: #c38010; stroke-width: 0px;"/>
        <path d="m334.55,518.53c.71-5.35,4.9,4.74,7.81-1.61,6.5,6.52-8.42,6.2-7.81,1.61Z" style="fill: #dd940c; stroke-width: 0px;"/>
      </g>
    </g>
    <g>
      <path d="m223.21,164.24c9.07,1.17,16.6,15.01,24.82,5.02.49,9.81,14.67,6.49,15.48-1.41.65-6.36-10.47-3.54-9.22-5.32,2.52-1.4,11.19-3.55,17.32-6.33,10.45-4.73,7.43-4.8,14.68-12.12,7.9-1.38,7.64,9.46,16.86,8.45,2.17-.24,10.44-5.89,12.4-6.03,2.76-.2,9.68,3.69,19.43.87,36.09,46.79,44.17-13.53,71.76,19.39l10.06-6.91c8.04,4.01,13.5,19.57,15.99,21.47,4.86,3.71,13.66,2.81,19.55,4.12-.18,1.79-4.73.88-10.03,3.98-4.5,2.63-13.79,12.36-9.27,13.35-2.04,3.78-1.54,3.81-1.93,5.15-.18.63-.57,1.25-.7,1.87-.31,1.5-.68,5.79-.58,7.26-4.6-.15-.32,11.13,3.17,15.07,5.21,5.89,9.44,6.48,16.21,8.74q11.57,19.01,23.14,38.03c-13.33,3.18-18.5,20.45-19.62,32.43-2.57,27.51,18.18,17.89,20.26,25.74.88,3.33-10.15,28.91-11.1,35.35,16.65,34.68-10.58,13.05-28.46,23.25-4.93-5.59-10.35-12.39-13.7-19.01,14.6-3.24,26.02-16.13,26.61-31.15.19,1.57.98,9.31,1.15,9.77,2.8,7.82,5.53-21.97-1.48-24.58-.14.94-.55,4.11-.55,4.33-4.19-11.23-11.96-15.29-19.5-22.78-2.06-2.05-12.35-14.13-13.23-14.56-.78-.38-.98-.08-.82.76.41,2.17,16.09,18.36,18.09,22.26-31.82-25.83-72.33,22.2-35.38,50.29,7.06,5.36,11.03,7.18,20.49,6.6q7.06,10.38,14.11,20.77c-6.69,5.75-15.21,21.12-19.5,29.27-2.3,1.65-13.4-6.81-20.54,7.79-8.37,17.12,1.26,19.35,8.74,33.7-1.58,8.89-6.09,15.02-.54,23.55,3.32,5.1,11.38,10.22,13.46,6.11,2.19.87,5.98,1.24,8.49,1.58,2.11,22.88,13.84,20.15,17.74,23.19,9.58,7.46-27.08,15.58-30.89,16.2-17.26,2.78-14.15-1.08-17.73-1.83-3.76-.79-10.17-.56-14.63-2.27-10.47,3.97-10.13,4.8-20.72,1.85.74-2.92,8.43-4.87,6.75-13.76-1.03-5.46-7.57-8-12.62-7.66-2.76-2.2-4.88-1.68-5.38-2.02-1.31-3.98-2.11-3.18-4.51-4.36-13.07-6.45-16.14,19.31-7.43,12.7,2.86,3.3,6.97,5.31,11.36,5.32.26,2.01,2-.08.82,3.51-.12.36-3.47,6.4-3.8,6.59-5.52-.51-9.89-3.65-14.57-5.99-1.19-.59-3.03-2.02-3.92-3.07-9.87-5.89-14.51,15.97-32.24,1.28.9-1.79,4.76-.18,5.53-1.93.26-.6-1.77-12.62-2.38-12.9-2.03-.94-4.82,6.43-6.67,7.11l-.47-.18c-.28-1.13-.36-6.4-.94-6.76-.96-.59-16.1,4.83-22.06,4.02-7.64-1.04-20.58-10.47-21.02-11.61-1.49-3.84,14.7,1.13,16.33,1.31,2.83,1.76,9.26,8,12.14,3.21,1.25-2.07.5-4.12-1.38-5.59-3.94-3.06-25.67-14-32.66-19.7-1.95-1.11-2.85.18-3.63,1.85-3.38-.85,2.77-7.74-2.11-11.47,18.92-8.2,16.46-33.21,3.37-38.24-2.88-1.11-3.67-.35-3.86-.38-5.79-.99-12.62-.52-17.29,3.4-1.65,1.39-4.17,3.41-2.48,5.21-.61.83-1.29,2.12-1.7,3.1-3.1,7.53.12,17.24,7.21,21.39.99.58,3.08.95,5.38,2.02.21.1,2.43-.06,3.22,2.81-2,.22-4.24.8-6.26.33-1.41-.33-12.6-5.01-3.34.35,3.39,1.96,6.57,2.17,10.3,1.72-4.55,9.03,2.32,16.91,7.15,12.29.12,1.81,1.68,3.23,2.52,4.68-11.01-1.77-20.09-8.03-29.15-14.12,1.66,4.01,4.71,4.6-1.11,6.53-69.83-65.5-94.29-172.91-44.47-257.7,16.6-28.25,38.29-48.87,65.48-66.51Z" style="fill: #f1ae43; stroke-width: 0px;"/>
      <g>
        <path d="m150.2,334.99c-1.71,4.95-.1,7.62.24,10.77.88,8.24,2.73,17.55,4.84,25.57,2.58,9.81,9.58,26.59,9.26,28.03-.64,2.89-5.29,8.75-10.36-2.28-5.32-11.56-10.84-40.31-11.5-53.42-.4-8,.87-65.82,10.41-64.17,6.48,1.12-.24,19.4-2,33.15-.66,5.15-1.34,14.68-1.69,20.19-.04.63-.17,2.13.79,2.16Z" style="fill: #f7da8d; stroke-width: 0px;"/>
        <path d="m291.36,226.06c5.31,4.82,14.36,7.58,21.36,4.26l1.23.99c-3.9,2.16-6.78,1.96-6.2,3.02,4.63,6.53,32.65,44.13,33.73,46.8.65,1.59,1.85,10.93,1.41,13.34-13.27-20.09-27.16-39.76-39.24-60.61l-12.9-1.9,4.51,10.77-.97.44c-7.28-11.8-16.25-22.54-23.43-34.4-7.25-11.98-18.5-32.38-5.1-16.32,2.57,3.08,12.65,17.83,15.64,22.41,4.54,6.93,8.6,18.63,9.95,11.2Z" style="fill: #f1ae43; stroke-width: 0px;"/>
        <path d="m150.2,334.99c6.27-18.09,27.98-3.63,27.36,6.77-.75,12.64-19.19,24.12-27.12,3.99-.34-3.15-1.95-5.82-.24-10.77Z" style="fill: #4f2811; stroke-width: 0px;"/>
        <path d="m230.98,363.09c1.78,1.21,3.44,2.04,5.62,2.1,8.52,16.03,46.17,63.9,50.34,75.17.81,2.2,1.11,7.31,2.17,9.89l-.97.44q-29.63-42.06-59.27-84.12c-1.21-3.45,2.35-.63,2.1-3.48Z" style="fill: #f1ae43; stroke-width: 0px;"/>
        <path d="m391.45,208.28c3.66-3.94,58.28,82.32,63.45,86.49.07.66-3.89,3.36-4.86,2.99-1.2-.46-13.38-18.07-15.23-20.65-15.73-22.03-29.98-45.32-43.37-68.83Z" style="fill: #f1ae43; stroke-width: 0px;"/>
        <path d="m248.2,335.64c.06-.66.42-.68.97-.44,1.1.48,13.85,15.88,15.63,18.13,5.04,6.37,35.7,50.25,36.93,54.67.44,1.58.47,6.62,0,8.54-6.71-8.78-53.95-76.07-53.53-80.91Z" style="fill: #f1ae43; stroke-width: 0px;"/>
        <path d="m220.95,429.81c32.53-2.01,31.49-48.43-1.25-47.99-7.17-11.07-15.21-21.89-21.32-33.61-9.8-18.82-5.76-16.03,4.8-1.41,7.79,10.8,14.26,23,22.02,33.87,25.3,2.94,32.2,41.85,5.94,49.74-7.78,2.34-21.91-.22-17.67-1.28,2.46-.03,5.04.82,7.49.67Z" style="fill: #f1ae43; stroke-width: 0px;"/>
        <path d="m325.16,409.57c5.19,1.71,10.08,1.52,15.33.4,21.32-4.56,30.87-29.02,20.81-47.73-1.03-1.92-3.02-3.53-4.16-5.29-5.03-7.79-10.81-15.07-15.7-22.96-14.45-23.37-10.45-20.79,4.33-1.58,8.8,11.45,25.18,36.05,23.46,50.7-1.46,12.51-11.08,23.96-23.01,27.96-5.5,1.84-18.39,3.18-21.07-1.48Z" style="fill: #e49732; stroke-width: 0px;"/>
        <path d="m329.93,177.24c.26-2.99,3.75,6.66,7.17,2.95,3.88,6.29,40.13,51.8,38.51,54.73-.59,1.07-4.33.37-5.41.91q-20.13-29.29-40.26-58.59Z" style="fill: #f1ae43; stroke-width: 0px;"/>
        <path d="m402.85,190.66c.69-3.38,4.05-9.29,8.22-8.4,1.25.27,18.11,8.59,7.29,16.88-6.18,4.73-17.29.25-15.51-8.48Z" style="fill: #f1ae43; stroke-width: 0px;"/>
        <path d="m193.88,198.38c5.59-14.32,24.58,4.63,10.54,14.62-8.54,6.08-12.96-8.43-10.54-14.62Z" style="fill: #f1ae43; stroke-width: 0px;"/>
        <path d="m205.78,303.47c9.7,8.7,24.86,29.52,31.33,41.09.81,1.46,2.54,4.69,1.76,6-1.07-.4-4.6-.77-5.68-.52-6.77-13.43-22.22-33.54-27.41-46.57Z" style="fill: #f1ae43; stroke-width: 0px;"/>
        <path d="m307.99,364.16c-1.88,3.35-2.18,4.22-2.98,7.96-1.92-.4.53-2.57.23-4.18-.15-.78-8.4-10.76-9.66-12.69-6.95-10.65-13.45-21.6-20.18-32.38.98.25,2.52.11,2.84.26,4.16,2.01,25.44,34.56,29.75,41.04Z" style="fill: #f1ae43; stroke-width: 0px;"/>
        <path d="m348.92,287.66c3.78,5.65,10.31,9.19,16.68,11.05,26.41,7.72,45.28-20.47,36.67-42.33,3.58-3.69,5.63,13.02,3.79,19.84-6.02,22.21-30.24,33.42-50.29,20.95-1.79-1.12-9.46-8.22-6.85-9.51Z" style="fill: #e49732; stroke-width: 0px;"/>
        <path d="m183.58,311.44c2.29-9.86,19.34,1.81,13.87,10-3.69,5.53-15.12-4.64-13.87-10Z" style="fill: #f1ae43; stroke-width: 0px;"/>
        <path d="m278.21,477.94c-.89,2.33-1.49,5.99-1.58,8.49-3.98-3.46-24.02-35.03-24.51-37.21-.05-.21.3-1.03.67-1.08,5.09,4.18,22.14,29.49,23.89,30.3,1.02.47.73-.71,1.52-.5Z" style="fill: #f1ae43; stroke-width: 0px;"/>
        <path d="m374.82,420.95c1.25-6.51,10.74-6.64,13.23,1.75,4.71,15.88-14.83,6.61-13.23-1.75Z" style="fill: #f1ae43; stroke-width: 0px;"/>
        <path d="m157.65,410.65c2.7-10.46,22.35,1.06,11.88,8.19-5.27,3.59-13.36-2.46-11.88-8.19Z" style="fill: #f1ae43; stroke-width: 0px;"/>
        <path d="m329.75,169.16c1.42-9.74,11.84-.1,12.67-.33-.31-2.23,7.9-3.93,8.37-3.81,6.56,1.75-8.01,3.68-14.27,13.88-1.35.2-7.05-7.8-6.76-9.74Z" style="fill: #f1ae43; stroke-width: 0px;"/>
        <path d="m170.77,374.19c11.11,12.17,18.72,27.78,26.39,42.18-12.32-11.58-19.48-27.03-26.39-42.18Z" style="fill: #f1ae43; stroke-width: 0px;"/>
        <path d="m184.99,428.89c.25-.68.36-1.41.85-1.55,2.26,9.01,10.21,20.59,4.4,22.47-2.98.96-7.56-2.82-8.05-4.88-.19-.79,2.52-15.27,2.8-16.04Z" style="fill: #f1ae43; stroke-width: 0px;"/>
        <path d="m305.03,189.54c-1.59.17-5.88.47-6.67.71-3.86-6.85-8.31-13.42-11.51-20.59l.97-.44c5.72,6.67,12.17,13.82,17.22,20.33Z" style="fill: #f1ae43; stroke-width: 0px;"/>
        <path d="m385.67,178.09c-4.25-.93-9.56-.58-10.3,4.69q-4.63-4.4-9.25-8.8l.35-.94c10.46.85,10.38-1.25,19.2,5.05Z" style="fill: #f1ae43; stroke-width: 0px;"/>
        <path d="m330.09,259.52c1.11-7.64,11.59-2.5,9.19,3.97-2.48,6.69-9.83.46-9.19-3.97Z" style="fill: #f9d774; stroke-width: 0px;"/>
        <path d="m385.11,516.1c1.38-3.9,15.13-1.53,11.41,3.74-1.66,2.35-13.09.98-11.41-3.74Z" style="fill: #f9d774; stroke-width: 0px;"/>
        <path d="m331.49,481.08c.16-5.23,8.5-7.51,9.6-2.81,1.27,5.43-9.75,7.6-9.6,2.81Z" style="fill: #f1ae43; stroke-width: 0px;"/>
        <path d="m237.13,430.8c.21-2.21,15.75-13.02,10.88-3.4-2.01,3.96-11.13,5.99-10.88,3.4Z" style="fill: #f1ae43; stroke-width: 0px;"/>
        <path d="m238.09,473.87c.21-1.75,5.92-2.89,7.05-2.43,5.31,2.12-7.71,7.87-7.05,2.43Z" style="fill: #f1ae43; stroke-width: 0px;"/>
        <path d="m170.77,374.19c-.15-.17-2.01-.99-2.96-3.51,1.08-.94,2.6,2.73,2.96,3.51Z" style="fill: #f1ae43; stroke-width: 0px;"/>
        <path d="m205.78,303.47c-.05-.14-2.81-2.86.12-1.02.37.23-.16.99-.12,1.02Z" style="fill: #f1ae43; stroke-width: 0px;"/>
        <g>
          <path d="m219.69,381.83c32.75-.44,33.78,45.98,1.25,47.99l1.11-4.39c27.68-3.75,20.05-46.49-8.21-39.38.4-1.93-.73-1.72-1.82-2.28,2.01-.7,5.64-1.91,7.67-1.94Z" style="fill: #f9d774; stroke-width: 0px;"/>
          <path d="m212.03,383.76c1.08.56,2.22.35,1.82,2.28-2.24.56-5.47,2.23-7.25,3.69-.28.23-.56.51-.82.76-11.92,11.29-6.37,31.72,10.44,34.87.47,1.99-.61.02-2.49.94-.57.28-1.7,4.79-9.74-1.78-8.08-6.61-15.04-32.72,8.05-40.76Z" style="fill: #f7da8d; stroke-width: 0px;"/>
          <g>
            <path d="m205.77,390.49c-.51,3.15-1.87,6.09-2.39,9.25-1.55,9.33,1.23,15.94,10.02,20.3.13.18-1.85,1.55,2.52,2.54.31.07,5.83-.74,6.2-.88,12.97-4.96,6.91-28.11-6.28-31.71-1.41-.39-4.15.19-5.38.12-.97-.05-.3-1.28-.59-1.29-1.34-.01-2.68,2.42-3.28.91,1.78-1.46,5.02-3.13,7.25-3.69,28.26-7.11,35.9,35.63,8.21,39.38-2.25.31-3.57.37-5.85-.06-16.8-3.15-22.35-23.58-10.44-34.87Z" style="fill: #4f2811; stroke-width: 0px;"/>
            <path d="m205.77,390.49c.26-.25.54-.54.82-.76.6,1.51,1.93-.92,3.28-.91.28,0-.39,1.23.59,1.29,1.23.07,3.98-.5,5.38-.12,13.19,3.61,19.25,26.76,6.28,31.71-.38.14-5.9.95-6.2.88-4.37-.99-2.39-2.36-2.52-2.54-.06-.08.43-.51.12-1.02-.6-.97-9.36-3.13-10.13-19.28.53-3.16,1.88-6.1,2.39-9.25Z" style="fill: #6d3612; stroke-width: 0px;"/>
            <path d="m203.38,399.74c.78,16.15,9.54,18.3,10.13,19.28.31.51-.17.95-.12,1.02-8.79-4.36-11.57-10.98-10.02-20.3Z" style="fill: #fdddc1; stroke-width: 0px;"/>
          </g>
        </g>
        <g>
          <path d="m311.85,462.24c20.58,10.56,19.58,34.44,1.9,47.69l-3.57-1.87c25.25-14.85,8.39-51.64-18.87-42.3-3.38,1.16-5.72,2.32-8.25,4.92-1.04.09-2.5.54-2.25-1.11.42-2.84,14.06-11.42,31.04-7.33Z" style="fill: #f9d774; stroke-width: 0px;"/>
          <path d="m313.74,509.94c17.68-13.26,18.68-37.14-1.9-47.69.26.06,3.13-.41,5.27.9,21.9,12.94,13.43,48.9-11.21,51.33,2.5-1.87,5.28-2.62,7.84-4.54Z" style="fill: #f1ae43; stroke-width: 0px;"/>
          <g>
            <path d="m291.31,465.76c27.25-9.34,44.12,27.45,18.87,42.3-.55.32-4.12,1.67-4.97,1.88-2.68-1.87,4.97-3.24,6.87-12.64,1.63-8.03-4.25-23.77-11.81-27.64-4.51-2.31-9.97-1.74-8.96-3.89Z" style="fill: #4f2811; stroke-width: 0px;"/>
            <g>
              <path d="m278.21,477.94c1.06-2.78,2.79-5.14,4.85-7.26,2.53-2.6,4.86-3.76,8.25-4.92-1.01,2.15,4.45,1.58,8.96,3.89,7.56,3.87,13.43,19.61,11.81,27.64-1.9,9.4-9.55,10.77-6.87,12.64-14.91,3.61-29.09-8.5-28.57-23.51.09-2.5.68-6.16,1.58-8.49Z" style="fill: #4f2811; stroke-width: 0px;"/>
              <path d="m290.86,504.04c-5.85-4.71-11.08-16.46-9.17-23.99l-.73.53c0-.05-.93-.17-.85-.58,4.09-19.92,22.27-5.47,25.87,6.48,3.39,11.28-1.87,28.24-15.12,17.56Z" style="fill: #6d3612; stroke-width: 0px;"/>
              <path d="m280.96,480.58l.73-.53c-1.91,7.53,3.33,19.28,9.17,23.99-9.53-5.11-11.47-13.55-9.9-23.46Z" style="fill: #fdddc1; stroke-width: 0px;"/>
            </g>
          </g>
        </g>
        <g>
          <path d="m238.3,203.8c3.13-11.01,17.38-8.56,18.84-.42.64,3.55-.96,6.29-.87,6.61.21.8,4.96,1.45,2.69,4.21-.86,1.05-3.66-1.71-3.89-1.72-.68-.04-5.6,6.29-12.29,2.87-3.8-1.94-5.58-7.68-4.48-11.56Z" style="fill: #f1ae43; stroke-width: 0px;"/>
          <path d="m244.26,200.69c1.74-4.27,6.71,1.17,3.81,4.09-1.97,1.99-4.43-2.57-3.81-4.09Z" style="fill: #f1ae43; stroke-width: 0px;"/>
        </g>
        <g>
          <path d="m385.67,178.09c3.23,2.31,8.35,4.57,5.07,10.71-3.92,7.34-16.42,1.51-15.36-6.02.74-5.26,6.05-5.62,10.3-4.69Z" style="fill: #c38010; stroke-width: 0px;"/>
          <path d="m377.62,183.88c1.28-3.39,6.75,1.71,4.27,4.27-1.58,1.63-4.73-3.05-4.27-4.27Z" style="fill: #f7da8d; stroke-width: 0px;"/>
        </g>
        <g>
          <path d="m233.19,350.04c1.08-.25,4.6.12,5.68.52,10.41,3.91,4.55,14.83-2.27,14.63-2.18-.06-3.84-.89-5.62-2.1-6.46-4.41-2.55-11.95,2.22-13.05Z" style="fill: #9d6514; stroke-width: 0px;"/>
          <path d="m231.09,359.93c8.86,1.12,1.69-12.47-.88-1.93-2.72-8.86,11.4-7.09,11.85-1.7.33,3.9-5.89,8.62-10.97,3.63Z" style="fill: #dd940c; stroke-width: 0px;"/>
          <path d="m231.09,359.93c-.39-.38-.7-1.35-.88-1.93,2.57-10.54,9.73,3.05.88,1.93Z" style="fill: #f7da8d; stroke-width: 0px;"/>
        </g>
        <g>
          <path d="m213.35,226.22c20.28,11.27,13.45,43.94-9.28,48.31-6.86,1.32-15.52.35-21.3-3.7-.15-.1-1.71-2.48-2.11-2.92,7.21-1.01.55-1.38.82-5.03,3.53,4.31,7.95,7.09,13.46,8.24,7.82,1.64,19.25-4.52,22.96-11.42,15.13-28.13-26.48-46.51-38.78-23.33-.23.43-.33.95-.53,1.4l-2.69.06c6.23-15.38,23.52-19.34,37.45-11.61Z" style="fill: #f9d774; stroke-width: 0px;"/>
          <path d="m182.77,270.83c5.78,4.05,14.44,5.03,21.3,3.7,22.73-4.37,29.56-37.04,9.28-48.31.65-2.33,6.66,2.65,8.61,4.82,11.57,12.89,5.6,41.57-17.65,45.71-8.98,1.6-25.94-1.61-21.54-5.93Z" style="fill: #cd922b; stroke-width: 0px;"/>
          <path d="m175.9,237.83l2.69-.06c-3.53,8.08-2.76,18.21,2.88,25.1-.26,3.65,6.39,4.03-.82,5.03-7.39-8.11-8.79-20.12-4.76-30.08Z" style="fill: #f7da8d; stroke-width: 0px;"/>
          <g>
            <path d="m178.59,237.77c.2-.45.3-.97.53-1.4,1.96.62,2.08-3.78,3.69-1.29-1.62,2.9-1.92,6.04-2.39,9.25-1.36,9.27,2.78,18.67,12.71,20.24,1.23,1.85-2.4.61-2.19,1.58.79,3.77,16.26.89,15.15-16.22-.33-5.05-5.81-14.37-9.81-17.29-3.45-2.52-6.16-1.38-5.97-3.3,4.82-1.49,16.02.33,18.38,5.81-.32-2.17,3.21,4.37,3.31,4.71,1.94,6.51,1.2,16.84-2.56,22.53-1.65,2.5-5.91,3.85-6.73,6.56-1.09-2.54-2.25,1.1-2.9,1.32-1.23.42-4.16-.75-4.86.85-5.51-1.16-9.93-3.93-13.46-8.24-5.65-6.89-6.41-17.03-2.88-25.1Z" style="fill: #4f2811; stroke-width: 0px;"/>
            <path d="m194.94,271.12c.69-1.6,3.62-.43,4.86-.85.65-.22,1.8-3.86,2.9-1.32.81-2.71,5.07-4.06,6.73-6.56,3.76-5.69,4.51-16.02,2.56-22.53-.1-.34-3.63-6.88-3.31-4.71-2.36-5.48-13.55-7.3-18.38-5.81-2.28.71-6.33,3.66-7.49,5.74-1.61-2.5-1.73,1.91-3.69,1.29,12.3-23.18,53.91-4.8,38.78,23.33-3.71,6.91-15.14,13.06-22.96,11.42Z" style="fill: #4f2811; stroke-width: 0px;"/>
            <path d="m182.81,235.08c1.16-2.08,5.21-5.03,7.49-5.74-.19,1.92,2.52.78,5.97,3.3,4,2.92,9.48,12.24,9.81,17.29,1.11,17.11-14.36,19.98-15.15,16.22-.2-.97,3.42.27,2.19-1.58-8.28-4.55-11.84-10.95-12.71-20.24.47-3.21.78-6.34,2.39-9.25Z" style="fill: #6d3612; stroke-width: 0px;"/>
            <path d="m180.41,244.32c.87,9.29,4.43,15.7,12.71,20.24-9.93-1.57-14.07-10.97-12.71-20.24Z" style="fill: #fdddc1; stroke-width: 0px;"/>
          </g>
        </g>
        <g>
          <path d="m340.43,448.65c5.42-13.68,26.86-18.04,38.36-6.19,10.54,10.86,2.86,32.99-10.86,37.58-18.54,6.19-34.24-14.33-27.49-31.38Z" style="fill: #f9d774; stroke-width: 0px;"/>
          <path d="m353.15,440.33c5.46,1.13,9.76.8,14.63,4.41,8.33,6.16,8.44,25.23-3.99,31.34-2.88,1.41-4.64-.33-4.71,1.17-4.54-.63-5.76-1.57-9.19-3.97,3.66-.82,4.36.96,5.74,1.08,17.47,1.54,14.82-27.58-5.17-31.83-4.47,1.55-5.95,6.09-8.19,9.75,1.83-6.66,4.66-9.57,10.88-11.94Z" style="fill: #4f2811; stroke-width: 0px;"/>
          <path d="m359.08,477.26c.07-1.51,1.83.24,4.71-1.17,12.43-6.11,12.32-25.18,3.99-31.34-4.88-3.61-9.17-3.29-14.63-4.41,18.87-7.22,33.72,14.89,21.76,30.3-3.24,4.18-10.49,7.36-15.83,6.62Z" style="fill: #4f2811; stroke-width: 0px;"/>
          <g>
            <path d="m342.27,452.28c2.24-3.65,3.72-8.19,8.19-9.75,19.98,4.25,22.64,33.37,5.17,31.83-1.37-.12-2.07-1.9-5.74-1.08-6.58-4.61-9.76-13.22-7.62-21Z" style="fill: #6d3612; stroke-width: 0px;"/>
            <path d="m344.82,454.03c1.85-7.71.81,1.97,1.99,6.09,1.82,6.33,11.57,13.97,4.25,9.33-3.93-2.49-7.31-10.96-6.24-15.42Z" style="fill: #fdddc1; stroke-width: 0px;"/>
          </g>
        </g>
        <g>
          <path d="m295.53,263.4c28.08,24.88,4.25,63.45-24.49,55.43l2.16-2.93c.13.03,2.38-.09,2.69-.06,30.6,3.11,39.75-50.65,1.79-53.25.6-2.92-3.37-2.74-3.34-3.92,3.6-.19,7.08.6,10.65.78,3.4,1.53,7.15,2.42,10.54,3.94Z" style="fill: #f6c35b; stroke-width: 0px;"/>
          <path d="m271.04,318.83c28.74,8.02,52.57-30.55,24.49-55.43,4.98,2.25,6.95,3.04,10.71,7.75,18.09,22.62-2.26,51.35-27.95,50.4-11.28-.42-16.41-2.77-22.6-11.66,4.98,4.04,8.96,7.16,15.34,8.95Z" style="fill: #e49732; stroke-width: 0px;"/>
          <path d="m274.34,258.67c-.04,1.18,3.94,1,3.34,3.92-6.98-.48-14.38,2.02-19.25,7.21-14.95,15.93-5.85,41.28,14.77,46.11l-2.16,2.93c-6.38-1.78-10.36-4.91-15.34-8.95-18.46-26.56-.91-50.19,18.64-51.22Z" style="fill: #f7da8d; stroke-width: 0px;"/>
          <g>
            <path d="m277.68,262.59c37.96,2.61,28.81,56.36-1.79,53.25,32.88-5.93,12.16-65.68-17.46-46.05,4.87-5.18,12.27-7.69,19.25-7.21Z" style="fill: #4f2811; stroke-width: 0px;"/>
            <g>
              <path d="m258.43,269.8c29.62-19.63,50.34,40.12,17.46,46.05-.31-.03-2.56.09-2.69.06-20.62-4.83-29.72-30.18-14.77-46.11Z" style="fill: #4f2811; stroke-width: 0px;"/>
              <path d="m270.28,309.47c-9.65-6.01-14.62-14.29-15.52-25.57,2.05-14.21,9.83-20.94,21.65-10.05,10.74,9.9,14.55,34.23,2.42,37.74-5.81,1.68-8.15-1.89-8.55-2.13Z" style="fill: #6d3612; stroke-width: 0px;"/>
              <path d="m254.75,283.9c.9,11.27,5.87,19.56,15.52,25.57-10.97-3.26-17.12-14.47-15.52-25.57Z" style="fill: #fdddc1; stroke-width: 0px;"/>
            </g>
          </g>
        </g>
        <g>
          <path d="m402.27,256.38c8.61,21.86-10.26,50.05-36.67,42.33l2.34-3.4c1.65.48,2.9.47,4.56.64,27.42,2.87,41.74-46.29,5.12-53.61-.45-2.15-3.67-3.74-4.92-3.98,12.86-.57,24.73,5.72,29.56,18.01Z" style="fill: #f1ae43; stroke-width: 0px;"/>
          <path d="m372.71,238.37c1.25.24,4.46,1.82,4.92,3.98-8.48-1.69-17.12,1.72-22.76,8.03-14.08,15.75-7.32,39.03,13.07,44.94l-2.34,3.4c-6.38-1.86-12.9-5.4-16.68-11.05-4.24-6.34-5.75-20.04-3.67-27.27,4.01-13.97,18.69-23.68,27.46-22.02Z" style="fill: #f7da8d; stroke-width: 0px;"/>
          <g>
            <path d="m377.62,242.35c36.62,7.32,22.3,56.48-5.12,53.61l6.29-1.12c.48-3.7,4.04-3.12,6.61-7.67,2.73-4.83,2.86-17.09,1.45-22.41-3.17-11.94-16.85-24.7-28.6-16.31-1.73.28-1.88,1.89-3.39,1.93,5.64-6.31,14.28-9.72,22.76-8.03Z" style="fill: #4f2811; stroke-width: 0px;"/>
            <path d="m354.86,250.38c1.52-.05,1.67-1.66,3.39-1.93-4.19,6.86-6.32,7.44-6.6,16.21-1.95,8.44,2.37,19.7,10.55,23.17-2.29,2,9.18,7.03,14.02,3.91,16.6-10.71-4-45.53-17.96-43.3,11.75-8.39,25.43,4.38,28.6,16.31,1.41,5.32,1.27,17.59-1.45,22.41-2.57,4.55-6.13,3.97-6.61,7.67l-6.29,1.12c-1.66-.17-2.91-.16-4.56-.64-20.4-5.9-27.15-29.18-13.07-44.94Z" style="fill: #4f2811; stroke-width: 0px;"/>
            <path d="m358.26,248.44c13.96-2.23,34.56,32.58,17.96,43.3-4.84,3.12-16.31-1.91-14.02-3.91-5.78-6.2-10.83-14.37-10.55-23.17.28-8.77,2.42-9.35,6.6-16.21Z" style="fill: #6d3612; stroke-width: 0px;"/>
            <path d="m351.65,264.66c-.28,8.8,4.77,16.97,10.55,23.17-8.18-3.46-12.5-14.73-10.55-23.17Z" style="fill: #fdddc1; stroke-width: 0px;"/>
          </g>
        </g>
        <g>
          <path d="m313.95,231.32l-1.23-.99c16.85-7.99,16.59-35.95-1.95-41.84,17.23.52,26.22,30.03,3.18,42.84Z" style="fill: #e49732; stroke-width: 0px;"/>
          <g>
            <path d="m298.36,190.25c.79-.24,5.09-.53,6.67-.71,1.86-.21,4.37.1,5.73-1.06,18.55,5.89,18.8,33.85,1.95,41.84-7.01,3.32-16.05.56-21.36-4.26-9.43-8.55-9.49-30.84,7-35.82Z" style="fill: #f9d774; stroke-width: 0px;"/>
            <path d="m287.48,206.46c1.91,3.53,2.43,1.45,3.22-1.46-.7,6.27,2.18,15.36,8.64,16.85-5.67-4.36-7.27-11.08-8.29-17.79.2-1.46.93-4.62-1.58-4.33,9.78-17.99,40.88-1.92,28.77,20.12-8.89,16.19-33.44,6-30.76-13.38Z" style="fill: #4f2811; stroke-width: 0px;"/>
            <path d="m289.47,199.73c2.51-.29,1.78,2.87,1.58,4.33-.04.29-.27.62-.35.94-.78,2.92-1.3,5-3.22,1.46.28-2.06,1.02-4.94,1.99-6.73Z" style="fill: #4f2811; stroke-width: 0px;"/>
            <path d="m291.05,204.06c1.02,6.71,2.62,13.42,8.29,17.79-6.46-1.49-9.34-10.58-8.64-16.85.08-.31.31-.64.35-.94Z" style="fill: #fdddc1; stroke-width: 0px;"/>
          </g>
        </g>
        <g>
          <path d="m357.14,356.94c1.14,1.77,3.12,3.37,4.16,5.29,10.06,18.71.51,43.18-20.81,47.73l.64-4.56c25.5-7.96,26.83-50.76-5.18-53.19-2.66-2.75-3.83-.15-4.62-3.33,9.5-.77,17.99,3.15,25.81,8.06Z" style="fill: #f6c35b; stroke-width: 0px;"/>
          <path d="m307.99,364.16c4.35-7.76,14.4-14.56,23.34-15.29.79,3.18,1.96.58,4.62,3.33-2.82-.21-8.17,1.27-11,2.29-2.26.82-3.34,1.51-5.32,2.81-17.77,11.68-13.59,34.83-.04,44.3,6.19,4.32,13.05,5.77,20.43,3.91.23-.06.91-.05,1.11-.12l-.64,4.56c-5.25,1.12-10.14,1.31-15.33-.4-14.29-4.7-23.23-23.04-20.15-37.44.8-3.74,1.1-4.61,2.98-7.96Z" style="fill: #f7da8d; stroke-width: 0px;"/>
          <g>
            <path d="m335.96,352.21c32,2.43,30.68,45.23,5.18,53.19-.2.06-.88.06-1.11.12l9.5-11.12c8.39-11.99,4.51-33.4-10.64-37.89-7.74-2.29-15.32,2.36-13.93-2.01,2.83-1.02,8.18-2.5,11-2.29Z" style="fill: #4f2811; stroke-width: 0px;"/>
            <path d="m324.96,354.5c-1.39,4.37,6.19-.28,13.93,2.01,15.15,4.49,19.03,25.9,10.64,37.89l-9.5,11.12c-7.38,1.86-14.23.41-20.43-3.91,3.02-3.49,10.95,5.87,21.21-2.47,8.44-6.86,10.79-20.73,5.05-29.88-6.07-9.65-16.02-10.63-26.22-11.95,1.98-1.3,3.07-2,5.32-2.81Z" style="fill: #4f2811; stroke-width: 0px;"/>
            <g>
              <path d="m319.63,357.31c10.21,1.33,20.16,2.3,26.22,11.95,5.75,9.15,3.39,23.02-5.05,29.88-10.26,8.34-18.19-1.02-21.21,2.47-13.56-9.47-17.74-32.62.04-44.3Z" style="fill: #6d3612; stroke-width: 0px;"/>
              <path d="m312.54,384.82c.07-.3.16-.62.5-.61,5.84,13.3,17.88,13.71,17.65,14.88-10.58,1.13-18.79-11.45-18.15-14.27Z" style="fill: #fdddc1; stroke-width: 0px;"/>
            </g>
          </g>
        </g>
        <g>
          <path d="m220.38,187.48c2.2-8.63,19.05-5.01,16.15,3.91-2.68,8.26-17.83,2.65-16.15-3.91Z" style="fill: #a65d16; stroke-width: 0px;"/>
          <g>
            <path d="m222.08,188.65c.67-6.92,12.86-5.24,12,.75-1.07,7.38-12.42,3.62-12-.75Z" style="fill: #cc7c1f; stroke-width: 0px;"/>
            <path d="m223.83,188.24c.22-3.78,9.34-2.64,6.26,1.81-1.07,1.55-6.39.41-6.26-1.81Z" style="fill: #f1ae43; stroke-width: 0px;"/>
          </g>
        </g>
      </g>
    </g>
  </g>
</svg>