<?xml version="1.0" encoding="UTF-8"?>
<svg id="Ebene_1" data-name="Ebene 1" xmlns="http://www.w3.org/2000/svg" viewBox="0 0 88.34 88.34">
  <defs>
    <style>
      .cls-1 {
        stroke-miterlimit: 10;
      }

      .cls-1, .cls-2 {
        fill: none;
        stroke: #000;
        stroke-linecap: round;
        stroke-width: 2px;
      }

      .cls-2 {
        stroke-linejoin: round;
      }
    </style>
  </defs>
  <line class="cls-1" x1="21.78" y1="67.02" x2="66.56" y2="22.24"/>
  <g>
    <path class="cls-2" d="m36.55,27.41c4.21,0,7.62,3.41,7.62,7.62"/>
    <path class="cls-2" d="m45.74,25.25c-2.33,2.33-2.46,5.97-2.46,5.97,0,0,3.64-.13,5.97-2.46s2.46-5.97,2.46-5.97c0,0-3.64.13-5.97,2.46Z"/>
    <path class="cls-2" d="m53.24,33.34c-3.13-.71-6.32.04-9.07,1.85-2.75-1.81-5.94-2.56-9.07-1.85-7.1,1.6-11.24,10.06-9.25,18.88,1.99,8.82,9.36,14.68,16.46,13.07.64-.15,1.26-.35,1.86-.6.59.25,1.21.46,1.86.6,7.1,1.6,14.47-4.25,16.46-13.07,1.99-8.82-2.15-17.28-9.25-18.88Z"/>
    <path class="cls-2" d="m29.04,46.04c.18-1.56.6-3.05,1.25-4.39,1.17-2.39,2.98-4.04,5.12-4.68"/>
  </g>
</svg>