<svg id="calender" xmlns="http://www.w3.org/2000/svg" viewBox="0 0 43.72 46.67"
  stroke="currentColor">
  <line x1="1.04" y1="12.74" x2="42.77" y2="12.74"
    style="fill: none; stroke-miterlimit: 10; stroke-width: 2px;" />
  <path
    d="m37.34,3.95h2.59c1.54,0,2.79,1.25,2.79,2.78v36.16c0,1.54-1.25,2.78-2.79,2.78H3.78c-1.54,0-2.78-1.25-2.78-2.78V6.73c0-1.54,1.25-2.78,2.78-2.78h2.64"
    style="fill: none; stroke-linecap: round; stroke-miterlimit: 10; stroke-width: 2px;" />
  <line x1="13.57" y1="3.95" x2="30.23" y2="3.95"
    style="fill: none; stroke-linecap: round; stroke-miterlimit: 10; stroke-width: 2px;" />
  <path
    d="m11.97,2.99v1.93c0,1.1-.89,1.99-1.99,1.99s-1.99-.89-1.99-1.99v-1.93c0-1.1.89-1.99,1.99-1.99.55,0,1.04.22,1.4.58s.58.86.58,1.4h0Z"
    style="fill: none; stroke-miterlimit: 10; stroke-width: 2px;" />
  <path
    d="m35.77,2.99v1.93c0,1.1-.89,1.99-1.99,1.99s-1.99-.89-1.99-1.99v-1.93c0-1.1.89-1.99,1.99-1.99.55,0,1.05.22,1.41.58s.58.86.58,1.4h0Z"
    style="fill: none; stroke-miterlimit: 10; stroke-width: 2px;" />
</svg>