<svg id="Erdnuss" xmlns="http://www.w3.org/2000/svg" viewBox="0 0 42.23 44.67" stroke="currentColor" fill= "currentColor" >
  <path d="m9.08,2c3.9,0,8.16,2.03,11.12,5.3,1.89,2.08,2.76,4.91,3.43,7.66.64,2.62,2.53,4.72,5.08,5.6,2.67.93,5.4,2.08,7.29,4.16,4.65,5.14,5.66,13.07,2.07,16.32-1.18,1.07-2.88,1.63-4.92,1.63-3.9,0-8.16-2.03-11.12-5.3-1.89-2.08-2.76-4.91-3.43-7.66-.64-2.62-2.53-4.72-5.08-5.6-2.67-.93-5.4-2.08-7.29-4.16-2.33-2.57-3.85-5.93-4.17-9.21-.3-3.04.47-5.63,2.1-7.11,1.18-1.07,2.88-1.63,4.92-1.63M9.08,0C6.64,0,4.43.7,2.82,2.15-1.57,6.13-.76,15.21,4.75,21.29c2.25,2.49,5.44,3.78,8.11,4.71,1.92.67,3.32,2.21,3.8,4.19.67,2.75,1.64,6.05,3.89,8.53,3.5,3.86,8.38,5.95,12.6,5.95,2.44,0,4.65-.7,6.26-2.15,4.39-3.98,3.58-13.06-1.93-19.14-2.25-2.49-5.44-3.78-8.11-4.71-1.92-.67-3.32-2.21-3.8-4.19-.67-2.75-1.64-6.05-3.89-8.53C18.18,2.09,13.3,0,9.08,0h0Z"/>
  <line x1="2.82" y1="2.15" x2="39.42" y2="42.53" style=" stroke-miterlimit: 10; stroke-width: 2px;"/>
  <path d="m5.17,3.4c2.48,0,7.37,2.48,11.54,7.08,2,2.21,3.31,4.78,4.43,7.23.95,2.08,2.63,3.94,4.61,5.09,2.33,1.35,4.76,2.91,6.76,5.11,5.63,6.22,6.64,12.18,5.58,13.14-.17.15-.53.24-.99.24-2.48,0-7.37-2.48-11.54-7.08-2-2.21-3.31-4.78-4.43-7.23-.95-2.08-2.63-3.94-4.61-5.09-2.33-1.35-4.76-2.91-6.76-5.11C4.13,10.56,3.12,4.6,4.18,3.64c.17-.15.53-.24.99-.24m0-2c-.96,0-1.76.24-2.34.76-2.57,2.33-.08,9.89,5.44,15.97,2.25,2.49,4.98,4.19,7.24,5.5,1.62.94,3.02,2.48,3.8,4.19,1.08,2.38,2.51,5.26,4.77,7.74,4.29,4.73,9.65,7.74,13.02,7.74.96,0,1.76-.24,2.34-.76,2.57-2.33.08-9.89-5.44-15.97-2.25-2.49-4.98-4.19-7.24-5.5-1.62-.94-3.02-2.48-3.8-4.19-1.08-2.38-2.51-5.26-4.77-7.74C13.9,4.41,8.54,1.4,5.17,1.4h0Z"/>
</svg>