<?xml version="1.0" encoding="UTF-8"?>
<svg id="Ebene_1" data-name="Ebene 1" xmlns="http://www.w3.org/2000/svg" viewBox="0 0 88.34 88.34">
  <defs>
    <style>
      .cls-1 {
        fill: #fff;
      }

      .cls-2 {
        stroke-linecap: round;
      }

      .cls-2, .cls-3 {
        fill: none;
        stroke: #000;
        stroke-miterlimit: 10;
        stroke-width: 2px;
      }
    </style>
  </defs>
  <g>
    <g>
      <path class="cls-1" d="m54.63,65.64c-4.2,0-8.8-2.54-11.71-6.46-1.71-2.31-2.32-5.2-2.71-7.99-.32-2.27-1.7-4.12-3.78-5.09-2.55-1.18-5.15-2.59-6.87-4.9-2.09-2.81-3.28-6.33-3.28-9.65,0-3.2,1.1-5.85,3.01-7.27,1.16-.86,2.69-1.32,4.41-1.32,4.2,0,8.8,2.54,11.71,6.46,1.71,2.31,2.32,5.21,2.71,7.99.32,2.27,1.7,4.12,3.78,5.09,2.55,1.18,5.15,2.59,6.87,4.9,4.29,5.77,4.42,13.84.27,16.92-1.16.86-2.69,1.32-4.41,1.32h0Z"/>
      <path d="m33.71,23.96c3.83,0,8.22,2.43,10.91,6.06,1.58,2.13,2.15,4.88,2.52,7.53.36,2.57,1.99,4.76,4.35,5.85,2.43,1.13,4.9,2.46,6.48,4.59,1.96,2.64,3.08,5.94,3.08,9.06,0,2.88-.95,5.23-2.61,6.46-.99.73-2.31,1.12-3.82,1.12-3.83,0-8.22-2.43-10.91-6.06-1.58-2.13-2.15-4.88-2.52-7.53-.36-2.57-1.99-4.76-4.35-5.85-2.43-1.13-4.9-2.46-6.48-4.59-3.91-5.26-4.14-12.8-.47-15.52.99-.73,2.31-1.12,3.82-1.12m0-2c-1.88,0-3.62.49-5.01,1.52-4.53,3.37-4.6,12.05.06,18.32,1.9,2.56,4.8,4.08,7.25,5.21,1.76.81,2.94,2.4,3.21,4.32.38,2.67.99,5.88,2.9,8.45,3.24,4.36,8.24,6.86,12.51,6.86,1.88,0,3.62-.49,5.01-1.52,4.53-3.37,4.6-12.05-.06-18.32-1.9-2.56-4.8-4.08-7.25-5.21-1.76-.81-2.94-2.4-3.21-4.32-.38-2.67-.99-5.88-2.9-8.45-3.24-4.36-8.24-6.86-12.51-6.86h0Z"/>
    </g>
    <line class="cls-3" x1="28.7" y1="23.47" x2="59.64" y2="65.12"/>
    <path d="m30.52,24.96c2.33,0,6.89,2.9,10.5,7.75,1.69,2.27,2.68,4.82,3.51,7.23.71,2.08,2.15,4.01,3.93,5.3,2.07,1.49,4.23,3.18,5.91,5.45,4.65,6.26,5.13,12.06,4.09,12.84-.12.09-.34.13-.61.13-2.33,0-6.89-2.9-10.5-7.75-1.69-2.27-2.68-4.82-3.51-7.23-.71-2.08-2.15-4.01-3.93-5.3-2.07-1.49-4.23-3.18-5.91-5.45-4.65-6.26-5.13-12.06-4.09-12.84.12-.09.34-.13.61-.13m0-2c-.71,0-1.32.17-1.81.53-2.66,1.97-.99,9.36,3.67,15.64,1.9,2.56,4.33,4.43,6.35,5.88,1.45,1.04,2.63,2.63,3.21,4.32.81,2.35,1.89,5.21,3.8,7.78,3.81,5.13,8.92,8.56,12.1,8.56.71,0,1.32-.17,1.81-.53,2.66-1.97.99-9.36-3.67-15.64-1.9-2.56-4.33-4.43-6.35-5.88-1.45-1.04-2.63-2.63-3.21-4.32-.81-2.35-1.89-5.21-3.8-7.78-3.81-5.13-8.92-8.56-12.1-8.56h0Z"/>
  </g>
  <line class="cls-2" x1="21.78" y1="66.56" x2="66.56" y2="21.78"/>
</svg>