<?xml version="1.0" encoding="UTF-8"?>
<svg id="Ebene_1" data-name="Ebene 1" xmlns="http://www.w3.org/2000/svg" viewBox="0 0 88.34 88.34">
  <defs>
    <style>
      .cls-1, .cls-2 {
        stroke-miterlimit: 10;
      }

      .cls-1, .cls-2, .cls-3 {
        fill: none;
        stroke: #000;
        stroke-width: 2px;
      }

      .cls-1, .cls-3 {
        stroke-linecap: round;
      }

      .cls-3 {
        stroke-linejoin: round;
      }
    </style>
  </defs>
  <line class="cls-1" x1="21.78" y1="66.56" x2="66.56" y2="21.78"/>
  <g>
    <path class="cls-2" d="m70.42,44.17s-3.57,10.05-16.91,10.05c-.1,0-.2,0-.31,0-3.76-.04-7.29-.87-10.45-2.04-4.43-1.63-8.08-3.94-10.45-5.65-1.12,1.42-2.89,3.17-5.25,4.04-4.37,1.62-9.13-.36-9.13-.36,0,0,2.17-4.28,6.25-6.03-4.08-1.75-6.25-6.03-6.25-6.03,0,0,4.76-1.98,9.13-.36,2.36.87,4.13,2.62,5.25,4.04,2.37-1.71,6.02-4.02,10.45-5.65,3.15-1.17,6.69-2,10.45-2.04.1,0,.2,0,.31,0,13.34,0,16.91,10.05,16.91,10.05Z"/>
    <path class="cls-3" d="m51,39.72c-.49,1.3-.94,3.01-.87,4.87.05,1.49.43,2.86.87,4"/>
    <path class="cls-3" d="m56.14,36.97s-2.31,3.22-2.31,7.2,2.31,7.2,2.31,7.2"/>
    <circle cx="61" cy="42.67" r="1.54"/>
    <g>
      <path class="cls-2" d="m53.2,34.13c-3.76.04-7.29.87-10.45,2.04-1.74-1.9-2.61-3.76-2.61-3.76,0,0,5.29-2.02,10.03-.11,1.14.46,2.15,1.11,3.02,1.83Z"/>
      <path class="cls-2" d="m53.2,54.21c-.87.72-1.88,1.37-3.02,1.83-4.75,1.92-10.03-.1-10.03-.1,0,0,.87-1.86,2.61-3.76,3.15,1.17,6.69,2,10.45,2.04Z"/>
    </g>
  </g>
</svg>