<?xml version="1.0" encoding="UTF-8"?>
<svg id="Ebene_1" data-name="Ebene 1" xmlns="http://www.w3.org/2000/svg" viewBox="0 0 88.34 88.34">
  <defs>
    <style>
      .cls-1 {
        stroke-miterlimit: 10;
      }

      .cls-1, .cls-2 {
        fill: none;
        stroke: #000;
        stroke-width: 2px;
      }

      .cls-2 {
        stroke-linecap: round;
        stroke-linejoin: round;
      }
    </style>
  </defs>
  <path class="cls-1" d="m64.99,32.36s1.32,9.61-9.46,15.2c-.08.04-.17.09-.25.12-3.05,1.54-6.26,2.35-9.3,2.73-4.26.53-8.18.2-10.81-.19-.31,1.62-1.01,3.77-2.55,5.46-2.86,3.14-7.53,3.53-7.53,3.53,0,0-.04-4.37,2.53-7.49-4.03.29-7.58-2.26-7.58-2.26,0,0,3.02-3.59,7.23-4.12,2.28-.28,4.43.39,5.93,1.07,1.2-2.37,3.19-5.77,6.08-8.94,2.06-2.27,4.57-4.42,7.59-6.02.08-.05.16-.09.25-.13,10.78-5.58,17.87,1.04,17.87,1.04Z"/>
  <path class="cls-2" d="m47.54,37c.1,1.26.4,2.84,1.18,4.34.62,1.21,1.47,2.19,2.28,2.95"/>
  <path class="cls-2" d="m50.43,32.52s-.52,3.57,1.15,6.79c1.66,3.21,4.88,4.85,4.88,4.85"/>
  <circle cx="54.62" cy="34.42" r="1.4"/>
  <g>
    <path class="cls-1" d="m46.87,31.45c-3.02,1.6-5.53,3.75-7.59,6.02-2.2-.81-3.68-1.94-3.68-1.94,0,0,3.43-3.85,8.06-4.29,1.12-.11,2.2,0,3.21.21Z"/>
    <path class="cls-1" d="m55.28,47.68c-.4.94-.95,1.89-1.68,2.74-3.03,3.53-8.15,4.12-8.15,4.12,0,0-.07-1.87.53-4.13,3.04-.38,6.25-1.19,9.3-2.73Z"/>
  </g>
</svg>