<svg id="Flexitarisch-color" xmlns="http://www.w3.org/2000/svg" viewBox="0 0 64.26 77.16">
  <g>
    <g>
      <path
        d="m55.6,30.09c.11.08.23.15.34.21l-9.87,13.45,3.76,2.76,9.85-13.43s.06.05.09.07c1.25.92,3.01.65,3.93-.6s.65-3.01-.6-3.93c-.94-.69-2.16-.71-3.1-.15.25-1.07-.14-2.23-1.07-2.91-1.25-.92-3.01-.65-3.93.6-.92,1.25-.65,3.01.6,3.93Z"
        style="fill: #e6e6e6;" />
      <path
        d="m63.17,31.23c-.92,1.25-2.68,1.52-3.93.6-.03-.02-.06-.05-.09-.07l-9.85,13.43-2.78-2.04-.44.6,3.76,2.76,9.85-13.43s.06.05.09.07c1.25.92,3.01.65,3.93-.6.75-1.02.71-2.39-.02-3.35.09.69-.07,1.42-.52,2.03Z"
        style="fill: #ccc;" />
    </g>
    <path
      d="m38.51,42.51h0c-1.6.71-3.05,1.84-4.16,3.35-3.4,4.63-2.4,11.13,2.23,14.53,4.63,3.4,11.13,2.4,14.53-2.23,1.07-1.46,1.71-3.11,1.93-4.79h0v-.02c.04-.32.07-.63.08-.95l.78-9.42-5.89-4.33-9.01,3.67c-.13.05-.26.1-.39.16l-.09.04h0Z"
      style="fill: #cc954c;" />
    <path
      d="m51.08,51.9v.02h0c-.22,1.68-.85,3.33-1.93,4.79-3.15,4.3-8.98,5.46-13.51,2.89.29.27.6.53.94.78,4.63,3.4,11.13,2.4,14.53-2.23,1.07-1.46,1.71-3.11,1.93-4.79h0v-.02c.04-.32.07-.63.08-.95l.78-9.42-1.96-1.44-.78,9.42c0,.32-.04.63-.08.95Z"
      style="fill: #bc8d55;" />
  </g>
  <g>
    <path
      d="m20.83,40.64c3.85,8.45,7.38,17.34,10.69,26.01.54,1.43,1.96,5.22,2.48,6.61.56,1.54-.11,4.21-2.23,3.86-1.04-.2-1.75-.65-2.35-1.38l-1.4-1.89-2.79-3.79c-3.58-4.9-7.4-10.31-10.82-15.34-1.74-2.59-3.49-5.18-5.14-7.82-1.93-3.08-.99-7.15,2.09-9.08,3.32-2.11,7.84-.76,9.47,2.81h0Z"
      style="fill: #f15a24;" />
    <path
      d="m32.53,74.54c-1.04-.2-1.75-.65-2.35-1.38l-1.4-1.89-2.79-3.79c-3.58-4.9-7.4-10.31-10.82-15.34-1.74-2.59-3.49-5.18-5.14-7.82-.78-1.26-1.09-2.67-.97-4.04-1.09,2.02-1.1,4.54.2,6.63,1.65,2.64,3.39,5.23,5.14,7.82,3.43,5.03,7.24,10.45,10.82,15.34l2.79,3.79,1.4,1.89c.6.73,1.31,1.18,2.35,1.38,1.79.3,2.55-1.56,2.4-3.08-.39.39-.93.61-1.63.49Z"
      style="fill: #d6532b;" />
    <path
      d="m16.02,26.17s-3.32,1.97-4.4,5.32c-1.74-3.09-5.43-4.34-5.43-4.34,0,0-.97,3.77.67,6.92-3.4-.93-6.86.79-6.86.79,0,0,2.03,3.43,5.48,4.45,2.98.89,6.06-.31,6.83-.66h0s.03-.01.08-.04h0c.06-.03.09-.04.09-.04h0c.71-.47,3.39-2.39,4.28-5.38,1.03-3.45-.74-7.02-.74-7.02Z"
      style="fill: #9ac422;" />
    <path
      d="m17.03,31.82c-.02.08-.04.16-.07.25-.89,2.98-3.57,4.9-4.28,5.37h0s-.03.03-.09.05h0s-.08.05-.08.05h0c-.78.33-3.85,1.53-6.83.65-2.39-.71-4.09-2.57-4.92-3.65-.48.18-.76.32-.76.32,0,0,2.03,3.43,5.48,4.45,2.98.89,6.06-.31,6.83-.66h0s.03-.01.08-.04h0c.06-.03.09-.04.09-.04h0c.71-.47,3.39-2.39,4.28-5.38.14-.46.22-.92.27-1.37Z"
      style="fill: #8aa526;" />
  </g>
  <g>
    <g>
      <rect x="43.36" y="8.4" width="14.38" height="4.13"
        transform="translate(6.22 36.92) rotate(-42.52)" style="fill: #8cc63f;" />
      <rect x="41.22" y="7.67" width="16.24" height="4.13"
        transform="translate(27.96 55.26) rotate(-76)" style="fill: #7faf33;" />
      <rect x="40.74" y="13.88" width="19.91" height="4.13"
        transform="translate(.43 33.21) rotate(-36.42)" style="fill: #83b732;" />
      <polygon
        points="45.48 21.64 48.55 .6 44.46 0 41.51 20.22 27.2 44.08 30.74 46.21 45.47 21.65 45.45 21.63 45.48 21.64"
        style="fill: #8cc63f;" />
      <path
        d="m33.32,33.88l-5.97,9.35c-.72,1.13-.37,2.63.78,3.32h0c1.15.69,2.64.29,3.3-.88l5.43-9.67-3.55-2.13h.01Z"
        style="fill: #ecedd1;" />
    </g>
    <polygon points="33.32 33.88 33.96 34.27 42.84 19.47 45.65 .18 44.46 0 41.51 20.22 33.32 33.88"
      style="fill: #83b732;" />
    <path
      d="m29.17,46.29c-1.15-.69-1.5-2.19-.78-3.32l5.56-8.71-.64-.38-5.97,9.35c-.72,1.13-.37,2.63.78,3.32.73.44,1.6.44,2.31.08-.43,0-.87-.1-1.26-.34Z"
      style="fill: #dbdbc6;" />
  </g>
  <g>
    <path
      d="m31.47,20.89c.33-.77,1.22-1.12,1.99-.79l.79-1.83-17.88-7.69-3.77,8.78c-.36.83.03,1.8.86,2.15l2.68,1.15c.4-.94,1.49-1.37,2.43-.97s1.37,1.49.97,2.43l8.79,3.78c.83.36,1.8-.03,2.15-.86l1.79-4.17c-.77-.33-1.12-1.22-.79-1.99h-.01Z"
      style="fill: #f9d53d;" />
    <path d="m16.35,10.6c.81-1.88,2.99-2.75,4.87-1.94.34.15.65.34.92.56l12.11,9.04-17.88-7.69"
      style="fill: #e8b321;" />
    <circle cx="18.69" cy="15.02" r="1.04" style="fill: #e8b321;" />
    <circle cx="24.52" cy="18.9" r="1.86" style="fill: #e8b321;" />
    <circle cx="27.59" cy="24.68" r=".81" style="fill: #e8b321;" />
    <circle cx="16.13" cy="18.56" r=".67" style="fill: #e8b321;" />
    <circle cx="29.98" cy="18.41" r=".91" style="fill: #e8b321;" />
    <circle cx="22.21" cy="22.69" r=".92" style="fill: #e8b321;" />
    <path
      d="m14.77,21.09c-.83-.36-1.22-1.32-.86-2.15l2.83-8.19-.37-.16-3.77,8.78c-.36.83.03,1.8.86,2.15l2.68,1.15c.13-.31.34-.56.58-.74l-1.93-.83h-.02Z"
      style="fill: #e8b321;" />
    <path
      d="m19.66,23.2c.03.3-.01.62-.14.92l8.79,3.78c.59.25,1.24.13,1.7-.25,0,0-10.35-4.45-10.35-4.45Z"
      style="fill: #e8b321;" />
  </g>
</svg>