<?xml version="1.0" encoding="UTF-8"?>
<svg id="Ebene_1" data-name="Ebene 1" xmlns="http://www.w3.org/2000/svg" viewBox="0 0 88.34 88.34">
  <defs>
    <style>
      .cls-1 {
        stroke-linejoin: round;
      }

      .cls-1, .cls-2 {
        fill: none;
        stroke: #000;
        stroke-width: 2px;
      }

      .cls-2 {
        stroke-miterlimit: 10;
      }
    </style>
  </defs>
  <path class="cls-1" d="m57.58,54.51c3.72-5.39,4.96-10.59,4.29-15.1,1.21.25,2.06.16,2.41-.34.04-.05.07-.11.09-.18,3.08,6.01,3.08,12.83-1.41,19.34-7.3,10.57-32.09,6.17-32.86,6.04.73.03,20.21.79,27.48-9.75Z"/>
  <path class="cls-1" d="m24.04,31.37c4.49-6.5,10.87-8.93,17.59-8.18-.05.04-.1.1-.14.15-.34.5-.12,1.33.54,2.37-4.46.98-8.87,3.98-12.6,9.37-7.27,10.54.35,28.48.64,29.15-.4-.67-13.32-22.3-6.02-32.87Z"/>
  <path class="cls-2" d="m41.49,23.34c.04-.05.08-.11.14-.15.77.09,1.55.21,2.33.39.13.02.26.05.39.09.39.09.77.19,1.16.3.26.07.52.15.78.23,2.6.83,5.2,2.09,7.71,3.73.14.08.27.17.4.25.14.09.27.18.4.27s.26.18.39.28c.12.09.25.18.38.28,1.09.79,2.11,1.63,3.07,2.5.32.29.62.59.93.89.2.2.39.4.59.61.19.2.38.41.57.62.19.21.37.42.54.63.14.16.28.33.41.5.22.26.42.53.62.81.16.21.3.41.45.62.29.41.56.82.81,1.25.15.24.29.48.43.73.13.24.27.48.39.73-.02.07-.05.12-.09.18-.34.5-1.2.59-2.41.34-1.62-.32-3.88-1.25-6.41-2.65-1.43-.79-2.95-1.73-4.49-2.79s-2.96-2.15-4.2-3.2c-2.2-1.88-3.88-3.65-4.75-5.05-.66-1.04-.88-1.87-.54-2.37Z"/>
  <path class="cls-1" d="m49.11,48.66c3.21-4.66,5.29-8.67,6.36-11.9,2.53,1.39,4.79,2.33,6.41,2.65.67,4.52-.57,9.71-4.29,15.1-7.27,10.54-26.75,9.78-27.48,9.75h-.01c.35-.16,11.72-5.02,19.02-15.6Z"/>
  <path class="cls-1" d="m29.43,35.09c3.72-5.39,8.14-8.4,12.6-9.37.87,1.4,2.55,3.18,4.75,5.05-2.64,2.14-5.66,5.51-8.87,10.17-7.3,10.57-7.81,22.93-7.83,23.31h-.01c-.29-.68-7.91-18.62-.64-29.16Z"/>
</svg>