<?xml version="1.0" encoding="UTF-8"?>
<svg id="Ebene_1" data-name="Ebene 1" xmlns="http://www.w3.org/2000/svg" viewBox="0 0 88.34 88.34">
  <defs>
    <style>
      .cls-1 {
        stroke-linejoin: round;
      }

      .cls-1, .cls-2, .cls-3 {
        fill: none;
        stroke: #000;
        stroke-width: 2px;
      }

      .cls-2 {
        stroke-linecap: round;
      }

      .cls-2, .cls-3 {
        stroke-miterlimit: 10;
      }
    </style>
  </defs>
  <g>
    <path class="cls-1" d="m31.38,54.04c-3.55-5.15-4.74-10.1-4.1-14.41-1.16.23-1.97.15-2.3-.33-.04-.05-.07-.11-.09-.17-2.94,5.73-2.94,12.24,1.34,18.45,6.96,10.09,30.62,5.89,31.36,5.76-.7.03-19.28.75-26.22-9.3Z"/>
    <path class="cls-1" d="m63.38,31.95c-4.28-6.21-10.37-8.52-16.78-7.81.05.04.1.1.13.15.33.47.12,1.27-.51,2.26,4.26.93,8.47,3.8,12.02,8.94,6.94,10.06-.33,27.17-.61,27.82.38-.64,12.71-21.28,5.75-31.37Z"/>
    <path class="cls-3" d="m46.73,24.3c-.04-.05-.08-.11-.13-.15-.74.08-1.48.2-2.22.37-.12.02-.25.05-.38.08-.37.09-.74.18-1.11.29-.25.07-.5.14-.74.22-2.48.79-4.96,1.99-7.35,3.56-.13.08-.26.16-.38.24-.13.08-.25.17-.38.25s-.25.17-.37.26c-.12.09-.24.17-.36.27-1.04.76-2.02,1.55-2.93,2.39-.3.28-.6.57-.89.85-.19.19-.38.38-.56.58-.18.19-.36.39-.54.59-.18.2-.35.4-.52.6-.14.16-.27.32-.39.48-.21.25-.4.51-.59.77-.15.2-.29.39-.43.6-.28.39-.54.79-.77,1.19-.14.23-.28.46-.41.7-.13.23-.25.46-.37.7.02.06.05.12.09.17.33.47,1.14.56,2.3.33,1.55-.3,3.7-1.2,6.12-2.53,1.36-.75,2.81-1.65,4.28-2.66s2.82-2.05,4.01-3.06c2.1-1.79,3.7-3.48,4.53-4.82.63-1,.84-1.79.51-2.26Z"/>
    <path class="cls-1" d="m39.46,48.46c-3.07-4.44-5.05-8.28-6.06-11.36-2.42,1.33-4.57,2.22-6.12,2.53-.64,4.31.54,9.26,4.1,14.41,6.94,10.06,25.52,9.33,26.22,9.3h.01c-.34-.15-11.19-4.79-18.15-14.88Z"/>
    <path class="cls-1" d="m58.24,35.5c-3.55-5.15-7.76-8.01-12.02-8.94-.83,1.34-2.43,3.03-4.53,4.82,2.52,2.04,5.4,5.26,8.47,9.7,6.96,10.09,7.45,21.88,7.47,22.25h.01c.27-.65,7.55-17.77.61-27.83Z"/>
    <path class="cls-1" d="m50.15,41.08c-3.07-4.44-5.95-7.66-8.47-9.7-1.19,1-2.54,2.05-4.01,3.06s-2.92,1.91-4.28,2.66c1.02,3.08,3,6.91,6.06,11.36,6.96,10.09,17.81,14.73,18.15,14.88h0s0,0,0,0c-.01-.37-.51-12.16-7.47-22.25Z"/>
  </g>
  <line class="cls-2" x1="21.78" y1="66.56" x2="66.56" y2="21.78"/>
</svg>