<?xml version="1.0" encoding="UTF-8"?>
<svg id="Ebene_1" data-name="Ebene 1" xmlns="http://www.w3.org/2000/svg" viewBox="0 0 46 46">
  <line x1="38.39" y1="7.61" x2=".71" y2="45.29" style="fill: none; stroke: #000; stroke-miterlimit: 10; stroke-width: 2px;"/>
  <g>
    <path d="m20.1,20.56c-.64,2.53-3.82,3.38-5.63,1.49l-1.34-1.39-1.38-1.35c-1.87-1.82-1.01-4.99,1.52-5.62l1.88-.46,1.86-.52c2.52-.71,4.83,1.62,4.11,4.13l-.54,1.86-.47,1.87h0Z" style="fill: none; stroke: #000; stroke-miterlimit: 10; stroke-width: 2px;"/>
    <path d="m27.75,16.3c-1.54,2.11-4.8,1.7-5.78-.72l-.72-1.79-.78-1.77c-1.06-2.39.93-5.01,3.51-4.65l1.91.27,1.92.21c2.6.28,3.88,3.31,2.27,5.37l-1.19,1.52-1.14,1.56Z" style="fill: none; stroke: #000; stroke-miterlimit: 10; stroke-width: 2px;"/>
    <path d="m35.64,8.35c-.48,1.88-2.84,2.51-4.18,1.11l-1-1.03-1.03-1c-1.39-1.35-.75-3.71,1.13-4.18l1.39-.35,1.38-.39c1.87-.53,3.59,1.2,3.05,3.07l-.4,1.38-.35,1.39h0Z" style="fill: none; stroke: #000; stroke-miterlimit: 10; stroke-width: 2px;"/>
    <path d="m40.66,8.2c-1.75.5-3.36-1.12-2.86-2.86l.37-1.29.33-1.3c.44-1.76,2.65-2.35,3.91-1.05l.93.96.96.93c1.3,1.26.71,3.47-1.05,3.91l-1.3.33s-1.29.37-1.29.37Z" style="fill: none; stroke: #000; stroke-miterlimit: 10; stroke-width: 2px;"/>
    <path d="m11.97,28.19c-.64,2.53-3.82,3.38-5.63,1.49l-1.34-1.39-1.38-1.35c-1.87-1.82-1.01-4.99,1.52-5.62l1.88-.46,1.86-.52c2.52-.71,4.83,1.62,4.11,4.13l-.54,1.86-.47,1.87h0Z" style="fill: none; stroke: #000; stroke-miterlimit: 10; stroke-width: 2px;"/>
    <path d="m25.7,25.63c-2.53.64-3.38,3.82-1.49,5.63l1.39,1.34,1.35,1.38c1.82,1.87,4.99,1.01,5.62-1.52l.46-1.88.52-1.86c.71-2.52-1.62-4.83-4.13-4.11l-1.86.54-1.87.47h.01Z" style="fill: none; stroke: #000; stroke-miterlimit: 10; stroke-width: 2px;"/>
    <path d="m29.97,17.98c-2.11,1.54-1.7,4.8.72,5.78l1.79.72,1.77.78c2.39,1.06,5.01-.93,4.65-3.51l-.27-1.91-.21-1.92c-.28-2.6-3.31-3.88-5.37-2.27l-1.52,1.19s-1.56,1.14-1.56,1.14Z" style="fill: none; stroke: #000; stroke-miterlimit: 10; stroke-width: 2px;"/>
    <path d="m37.92,10.09c-1.88.48-2.51,2.84-1.11,4.18l1.03,1,1,1.03c1.35,1.39,3.71.75,4.18-1.13l.35-1.39.39-1.38c.53-1.87-1.2-3.59-3.07-3.05l-1.38.4-1.39.35h0Z" style="fill: none; stroke: #000; stroke-miterlimit: 10; stroke-width: 2px;"/>
    <path d="m18.07,33.77c-2.53.64-3.38,3.82-1.49,5.63l1.39,1.34,1.35,1.38c1.82,1.87,4.99,1.01,5.62-1.52l.46-1.88.52-1.86c.71-2.52-1.62-4.83-4.13-4.11l-1.86.54-1.87.47h.01Z" style="fill: none; stroke: #000; stroke-miterlimit: 10; stroke-width: 2px;"/>
  </g>
  <line x1="9.95" y1="30.53" x2="11.59" y2="34.41" style="fill: none; stroke: #000; stroke-miterlimit: 10; stroke-width: 2px;"/>
  <line x1="17.57" y1="23.2" x2="17.99" y2="28.01" style="fill: none; stroke: #000; stroke-miterlimit: 10; stroke-width: 2px;"/>
  <line x1="24.59" y1="17.87" x2="23.86" y2="22.14" style="fill: none; stroke: #000; stroke-miterlimit: 10; stroke-width: 2px;"/>
  <line x1="33.55" y1="9.84" x2="33.77" y2="12.23" style="fill: none; stroke: #000; stroke-miterlimit: 10; stroke-width: 2px;"/>
  <line x1="15.29" y1="36.23" x2="11.41" y2="34.59" style="fill: none; stroke: #000; stroke-miterlimit: 10; stroke-width: 2px;"/>
  <line x1="22.63" y1="28.6" x2="17.81" y2="28.19" style="fill: none; stroke: #000; stroke-miterlimit: 10; stroke-width: 2px;"/>
  <line x1="27.95" y1="21.59" x2="23.68" y2="22.32" style="fill: none; stroke: #000; stroke-miterlimit: 10; stroke-width: 2px;"/>
  <line x1="35.99" y1="12.63" x2="33.59" y2="12.41" style="fill: none; stroke: #000; stroke-miterlimit: 10; stroke-width: 2px;"/>
</svg>