<svg id="magic" viewBox="0 0 17 17" fill="none" xmlns="http://www.w3.org/2000/svg">
<g clip-path="url(#clip0_2_6)">
<path d="M6.64742 8.86249C6.29867 8.74624 6.29867 8.25376 6.64742 8.13751L8.69447 7.45586C9.14447 7.30582 9.55333 7.05303 9.88866 6.71753C10.224 6.38202 10.4765 5.97302 10.6263 5.52294L11.308 3.47694C11.4242 3.12819 11.9167 3.12819 12.033 3.47694L12.7146 5.524C12.8646 5.97399 13.1174 6.38286 13.4529 6.71818C13.7885 7.0535 14.1975 7.30607 14.6475 7.45586L16.6935 8.13751C16.7699 8.16257 16.8364 8.21111 16.8835 8.27621C16.9307 8.3413 16.9561 8.41962 16.9561 8.5C16.9561 8.58037 16.9307 8.6587 16.8835 8.72379C16.8364 8.78888 16.7699 8.83742 16.6935 8.86249L14.6465 9.54414C14.1966 9.69407 13.7878 9.9467 13.4525 10.282C13.1172 10.6173 12.8645 11.0261 12.7146 11.476L12.033 13.5231C12.0079 13.5994 11.9594 13.6659 11.8943 13.7131C11.8292 13.7602 11.7508 13.7856 11.6705 13.7856C11.5901 13.7856 11.5118 13.7602 11.4467 13.7131C11.3816 13.6659 11.333 13.5994 11.308 13.5231L10.6263 11.476C10.4764 11.0261 10.2238 10.6173 9.88846 10.282C9.55315 9.9467 9.14436 9.69407 8.69447 9.54414L6.64742 8.86249ZM1.2587 12.945C1.21294 12.9298 1.17311 12.9006 1.14488 12.8615C1.11665 12.8225 1.10146 12.7755 1.10146 12.7273C1.10146 12.6791 1.11665 12.6321 1.14488 12.593C1.17311 12.5539 1.21294 12.5247 1.2587 12.5096L2.48673 12.1006C3.03416 11.9178 3.46323 11.4887 3.64606 10.9412L4.05504 9.71323C4.0702 9.66746 4.09939 9.62763 4.13847 9.59941C4.17755 9.57118 4.22454 9.55599 4.27275 9.55599C4.32096 9.55599 4.36794 9.57118 4.40702 9.59941C4.44611 9.62763 4.4753 9.66746 4.49045 9.71323L4.89944 10.9412C4.98939 11.2112 5.14099 11.4566 5.34222 11.6578C5.54345 11.859 5.78878 12.0106 6.05877 12.1006L7.28679 12.5096C7.33256 12.5247 7.37239 12.5539 7.40061 12.593C7.42884 12.6321 7.44403 12.6791 7.44403 12.7273C7.44403 12.7755 7.42884 12.8225 7.40061 12.8615C7.37239 12.9006 7.33256 12.9298 7.28679 12.945L6.05877 13.354C5.78878 13.4439 5.54345 13.5955 5.34222 13.7967C5.14099 13.998 4.98939 14.2433 4.89944 14.5133L4.49045 15.7413C4.4753 15.7871 4.44611 15.8269 4.40702 15.8551C4.36794 15.8834 4.32096 15.8986 4.27275 15.8986C4.22454 15.8986 4.17755 15.8834 4.13847 15.8551C4.09939 15.8269 4.0702 15.7871 4.05504 15.7413L3.64606 14.5133C3.5561 14.2433 3.4045 13.998 3.20328 13.7967C3.00205 13.5955 2.75672 13.4439 2.48673 13.354L1.2587 12.945ZM0.1501 5.47433C0.120009 5.4639 0.0939154 5.44435 0.0754483 5.4184C0.0569811 5.39245 0.0470576 5.36139 0.0470576 5.32955C0.0470576 5.2977 0.0569811 5.26664 0.0754483 5.24069C0.0939154 5.21474 0.120009 5.19519 0.1501 5.18476L0.968077 4.9121C1.33374 4.79057 1.62013 4.50417 1.74167 4.13851L2.01433 3.32053C2.02476 3.29044 2.04431 3.26435 2.07026 3.24588C2.09621 3.22741 2.12726 3.21749 2.15911 3.21749C2.19096 3.21749 2.22202 3.22741 2.24797 3.24588C2.27391 3.26435 2.29346 3.29044 2.3039 3.32053L2.57655 4.13851C2.6365 4.31871 2.73763 4.48245 2.87192 4.61674C3.0062 4.75103 3.16995 4.85216 3.35015 4.9121L4.16812 5.18476C4.19821 5.19519 4.22431 5.21474 4.24277 5.24069C4.26124 5.26664 4.27117 5.2977 4.27117 5.32955C4.27117 5.36139 4.26124 5.39245 4.24277 5.4184C4.22431 5.44435 4.19821 5.4639 4.16812 5.47433L3.35015 5.74699C3.16995 5.80694 3.0062 5.90806 2.87192 6.04235C2.73763 6.17664 2.6365 6.34038 2.57655 6.52058L2.3039 7.3375C2.29346 7.36759 2.27391 7.39369 2.24797 7.41215C2.22202 7.43062 2.19096 7.44054 2.15911 7.44054C2.12726 7.44054 2.09621 7.43062 2.07026 7.41215C2.04431 7.39369 2.02476 7.36759 2.01433 7.3375L1.74167 6.51952C1.62013 6.15386 1.33374 5.86747 0.968077 5.74593L0.151157 5.47433L0.1501 5.47433Z" fill="currentColor"/>
</g>
<defs>
<clipPath id="clip0_2_6">
<rect width="16.9091" height="16.9091" fill="white" transform="translate(0.0454712 16.9545) rotate(-90)"/>
</clipPath>
</defs>
</svg>
