<?xml version="1.0" encoding="UTF-8"?>
<svg id="Ebene_1" data-name="Ebene 1" xmlns="http://www.w3.org/2000/svg" viewBox="0 0 88.34 88.34">
  <defs>
    <style>
      .cls-1 {
        fill: none;
        stroke: #000;
        stroke-linecap: round;
        stroke-linejoin: round;
        stroke-width: 2px;
      }
    </style>
  </defs>
  <g>
    <polyline class="cls-1" points="35.55 66.04 32.72 66.04 32.72 32.7 51.44 32.7 51.44 43.08"/>
    <rect class="cls-1" x="23.36" y="32.7" width="9.36" height="33.34"/>
    <polyline class="cls-1" points="23.36 32.58 28.04 28.02 32.72 32.58"/>
    <polyline class="cls-1" points="51.37 32.58 46.69 28.02 28.04 28.02"/>
    <rect class="cls-1" x="28.17" y="23.02" width="18.22" height="5"/>
  </g>
  <g>
    <path class="cls-1" d="m37.4,49.26c0-3.02,2.45-5.47,5.47-5.47.55,0,1.07.08,1.57.23"/>
    <line class="cls-1" x1="66.15" y1="49.22" x2="44.22" y2="43.95"/>
    <circle class="cls-1" cx="43.14" cy="53.88" r="1.54"/>
    <circle class="cls-1" cx="53.32" cy="55.74" r="2.75"/>
    <circle class="cls-1" cx="60.49" cy="61.44" r="1.56"/>
    <path class="cls-1" d="m63.92,54.39c0-1.23,1-2.23,2.23-2.23v-2.94h-28.75v14.11c0,1.34,1.08,2.42,2.42,2.42h4.3c0-1.51,1.23-2.74,2.74-2.74s2.74,1.23,2.74,2.74h14.13c1.34,0,2.42-1.08,2.42-2.42v-6.71c-1.23,0-2.23-1-2.23-2.23Z"/>
  </g>
</svg>