<svg id="Nüsse" xmlns="http://www.w3.org/2000/svg" viewBox="0 0 62.48 53" stroke="currentColor">
  <g>
    <path d="m26.07,2c.19,0,.39,0,.58.01,1.99.1,3.89,1.1,5.65,2.17,1.02.62,2.17.95,3.34.95.97,0,1.91-.22,2.8-.65,1.74-.84,3.61-1.62,5.51-1.62h.33c2.5.12,4.98,1.06,6.8,2.56,1.65,1.35,2.55,2.98,2.47,4.47-.14,2.88-4.17,6.1-9.34,6.1-.19,0-.39,0-.58,0-1.99-.1-3.89-1.1-5.65-2.17-1.02-.62-2.17-.95-3.34-.95-.97,0-1.91.22-2.8.65-1.74.84-3.61,1.62-5.51,1.62h-.33c-5.41-.27-9.43-4-9.28-7.03.14-2.88,4.17-6.1,9.34-6.1h0M26.06,0C20.18,0,14.93,3.73,14.72,8.01c-.22,4.44,5.03,8.83,11.18,9.13.14,0,.28,0,.42,0,2.36,0,4.57-.94,6.38-1.81.62-.3,1.28-.45,1.93-.45.8,0,1.59.22,2.3.66,1.81,1.11,4.08,2.34,6.59,2.46.23,0,.45.02.68.02,5.88,0,11.13-3.73,11.34-8.01.22-4.44-5.03-8.83-11.18-9.13-.14,0-.28-.01-.42-.01-2.36,0-4.57.94-6.38,1.81-.62.3-1.28.45-1.93.45-.8,0-1.59-.22-2.3-.66C31.52,1.37,29.25.14,26.74.02c-.23-.01-.45-.02-.68-.02h0Z"/>
    <line x1="55.56" y1="10.01" x2="14.73" y2="8" style="fill: none;  stroke-miterlimit: 10; stroke-width: 2px;"/>
    <path d="m25.41,5.53c.35,0,.71,0,1.06.03,2.17.11,4.18.76,6.03,1.45.98.37,2.07.56,3.16.56.79,0,1.56-.1,2.29-.29,1.71-.45,3.55-.87,5.51-.87.21,0,.42,0,.63.02,5.91.29,9.34,2.72,9.45,3.47-.18.75-3.46,2.59-8.69,2.59-.35,0-.71,0-1.06-.03-2.17-.11-4.18-.76-6.03-1.45-.98-.37-2.07-.56-3.16-.56-.79,0-1.56.1-2.29.29-1.7.45-3.55.87-5.51.87-.21,0-.42,0-.63-.02-5.91-.29-9.34-2.72-9.45-3.47.18-.75,3.46-2.59,8.69-2.59h0m0-2c-5.67,0-10.56,2.04-10.68,4.47-.13,2.6,5.2,5.28,11.35,5.59.25.01.49.02.73.02,2.24,0,4.32-.49,6.02-.94.57-.15,1.17-.23,1.77-.23.84,0,1.69.15,2.46.43,1.83.69,4.12,1.46,6.63,1.58.39.02.78.03,1.16.03,5.67,0,10.56-2.04,10.68-4.47.13-2.6-5.2-5.28-11.35-5.59-.25-.01-.49-.02-.73-.02-2.24,0-4.32.49-6.02.94-.57.15-1.17.23-1.77.23-.84,0-1.69-.15-2.46-.43-1.83-.69-4.12-1.46-6.63-1.58-.39-.02-.78-.03-1.16-.03h0Z"/>
  </g>
  <g>
    <path d="m25.92,28.96c-.73-3.97-2.45-6.77-4.71-8.45.63-.42.97-.83.9-1.2,0-.04-.02-.08-.04-.12,3.96,1.28,6.93,4.25,7.81,9.04,1.43,7.79-11.29,16.67-11.69,16.95.33-.31,9.15-8.46,7.73-16.22Z" style="fill: none;  stroke-linejoin: round; stroke-width: 2px;"/>
    <path d="m1.23,33.49c-.88-4.79.85-8.62,4.1-11.23v.13c.07.37.52.63,1.27.8-1.52,2.37-2.13,5.6-1.4,9.57,1.42,7.76,12.56,12.26,12.98,12.43-.47-.12-15.52-3.91-16.95-11.7Z" style="fill: none;  stroke-linejoin: round; stroke-width: 2px;"/>
    <path d="m5.33,22.39s-.01-.09,0-.13c.37-.3.77-.58,1.18-.85.07-.05.14-.09.21-.13.21-.13.42-.26.64-.38.14-.08.29-.16.44-.24,1.49-.77,3.17-1.36,4.98-1.73.1-.03.19-.04.28-.06.1-.02.19-.04.29-.06s.19-.04.29-.05c.09,0,.19-.03.29-.04.82-.13,1.63-.21,2.43-.25.26,0,.53,0,.79-.02h.52c.17,0,.34,0,.52.02.17,0,.34.02.51.04.13,0,.27.02.4.04.21.02.42.05.62.08.16.02.31.05.47.08.31.05.6.11.9.19.17.04.34.08.5.13s.33.09.49.15c.02.04.03.08.04.12.07.37-.27.78-.9,1.2-.85.57-2.23,1.14-3.95,1.64-.97.28-2.04.53-3.17.74s-2.23.35-3.23.43c-1.78.14-3.28.1-4.27-.13-.74-.17-1.2-.43-1.27-.8h0Z" style="fill: none;  stroke-miterlimit: 10; stroke-width: 2px;"/>
    <path d="m19.68,30.1c-.63-3.43-1.47-6.08-2.42-7.96,1.71-.5,3.1-1.07,3.95-1.64,2.26,1.68,3.98,4.48,4.71,8.45,1.42,7.76-7.39,15.92-7.73,16.22h0c.09-.22,2.92-7.29,1.49-15.08h0Z" style="fill: none;  stroke-linejoin: round; stroke-width: 2px;"/>
    <path d="m5.19,32.76c-.73-3.97-.11-7.2,1.4-9.57.99.23,2.49.28,4.27.13-.22,2.08-.06,4.87.56,8.3,1.43,7.79,6.59,13.39,6.75,13.57h0c-.42-.17-11.56-4.66-12.98-12.42h0Z" style="fill: none;  stroke-linejoin: round; stroke-width: 2px;"/>
  </g>
  <g>
    <path d="m53.92,45.33c-6.55,6.55-14.06,6.47-18.77,1.81-.03-.03-.06-.06-.09-.09-.33-.33-.63-.67-.91-1.02-3.76-4.73-3.41-11.67,2.7-17.77,5.66-5.66,13.23-7.56,18.23-4.98.49.25,1.55-.04,2.46-.17h.01c.5-.07.95-.08,1.23.08.05.02.09.06.13.09.66.66-.42,3.02,0,3.83,2.58,5.01.68,12.58-4.98,18.24v-.02Z" style="fill: none;  stroke-linecap: round; stroke-linejoin: round; stroke-width: 2px;"/>
    <g>
      <path d="m52.65,29.52l-12.74,12.74-.38.29c-1.44,1.02-3.25,1.06-4.31,0-1.22-1.22-.98-3.42.53-4.92.75-.75,1.67-1.18,2.56-1.28,0-.05.02-.09.04-.14-.44-.12-.85-.34-1.18-.68-1.22-1.22-.98-3.42.53-4.92s3.71-1.74,4.92-.53l.12.12c.08-.06.16-.11.24-.17-.17-.88.17-1.92.96-2.72,1.15-1.15,2.84-1.33,3.77-.4.37.37.56.86.59,1.39.03-.74.37-1.53,1-2.16,1.16-1.16,2.84-1.33,3.77-.4s.75,2.62-.4,3.77h-.02Z" style="fill: none;  stroke-linecap: round; stroke-linejoin: round; stroke-width: 2px;"/>
      <path d="m51.56,44.49c-1.51,1.51-3.71,1.74-4.93.53-.33-.33-.55-.74-.67-1.18-.05,0-.09.03-.14.04-.1.89-.53,1.81-1.28,2.56-1.51,1.51-3.71,1.74-4.92.53-1.06-1.06-1.02-2.87,0-4.31l.29-.38,12.74-12.74c1.16-1.16,2.84-1.33,3.78-.4s.75,2.62-.4,3.77c-.63.63-1.42.96-2.16,1,.53.03,1.01.22,1.39.59.93.93.75,2.62-.4,3.77-.79.79-1.84,1.12-2.72.96-.05.08-.11.16-.17.24.04.03.08.08.12.11,1.22,1.22.98,3.42-.52,4.92h-.01Z" style="fill: none;  stroke-linecap: round; stroke-linejoin: round; stroke-width: 2px;"/>
    </g>
    <path d="m56.06,47.4c-6.6,6.6-14.99,5.67-20.74-.07-.06-.06-.12-.12-.19-.19,4.72,4.66,12.23,4.75,18.77-1.81,5.66-5.66,7.57-13.23,4.98-18.24-.42-.81.66-3.17,0-3.83-.04-.04-.08-.07-.13-.09.19.05.34.13.46.25.8.8-.14,3.3.41,4.25,3.41,5.84,2.1,14.04-3.58,19.72h.02Z" style="fill: none;  stroke-linecap: round; stroke-linejoin: round; stroke-width: 2px;"/>
  </g>
</svg>