<svg id="omnivor" xmlns="http://www.w3.org/2000/svg" viewBox="0 0 71.79 45.17" stroke="currentColor">
  <circle cx="18.32" cy="21.27" r="4.95"
    style="fill: none; stroke-linecap: round; stroke-linejoin: round; stroke-width: 2px;" />
  <line x1="38.51" y1="1.82" x2="58.55" y2="38.19"
    style="fill: none; stroke-linecap: round; stroke-linejoin: round; stroke-width: 2px;" />
  <line x1="44.31" y1="3.1" x2="62.42" y2="36.53"
    style="fill: none; stroke-linecap: round; stroke-linejoin: round; stroke-width: 2px;" />
  <line x1="50.58" y1="5.27" x2="66.51" y2="34.67"
    style="fill: none; stroke-linecap: round; stroke-linejoin: round; stroke-width: 2px;" />
  <path
    d="m70.51,27.75c-.17,1.01-.5,1.99-.97,2.92-2.15,4.19-6.32,7.32-11.65,7.56-.23,0-.47.02-.71.02-3.47,0-6.66-1.14-9.24-3.07-3.11-2.32-7.46-2.14-10.44.35-3.88,3.25-8.89,5.2-14.35,5.2-10.7,0-20.51-7.38-21.99-17.56h0c-.07-.53-.13-1.05-.16-1.58v-.04C1.4,11.7,8.88,3.59,18.58,1.88c3.28-.57,6.69-.88,10.18-.88.34,0,.68,0,1.01.01,12.83.21,24.36,4.49,32.56,11.25,2.26,1.86,4.72,5.22,6.7,8.25.01.02.02.03.03.05,1.39,2.14,1.87,4.72,1.45,7.18h0Z"
    style="fill: none; stroke-linecap: round; stroke-linejoin: round; stroke-width: 2px;" />
  <path
    d="m70.66,25.81c.37,2.14-.1,6.33-1.12,8.31-2.15,4.19-6.32,7.31-11.65,7.55-.23,0-.47.02-.71.02-3.47,0-6.66-1.14-9.24-3.07-3.11-2.32-7.46-2.14-10.44.35-3.88,3.25-8.89,5.2-14.35,5.2C11.9,44.17.61,35.31,1.16,23.16"
    style="fill: none; stroke-linecap: round; stroke-linejoin: round; stroke-width: 2px;" />
</svg>