<svg id="Omnivor-color" xmlns="http://www.w3.org/2000/svg" viewBox="0 0 63.9 59.08">
  <g>
    <g>
      <path
        d="m30.13,17.62l-3.15-.65c-.62.83-1.09,1.71-1.49,2.6-.39.88-.7,1.78-.93,2.69-.34,1.42-.59,2.92-.61,4.41-1.07-2.51-2.25-4.99-3.65-7.37l-3.18,1.24c.76,2.45,1.74,4.82,2.76,7.17,0,.02.02.04.03.06-.49-.69-1-1.37-1.51-2.04-1.44-1.86-2.96-3.67-4.59-5.41l-2.78,1.85c.6.68,1.21,1.39,1.8,2.08.88,1.04,1.77,2.12,2.6,3.2,1.09,1.42,2.16,2.88,3.05,4.41.67,1.15,1.17,2.34,1.69,3.55.67,1.62,1.29,3.26,1.74,4.95h0c.5,1.34,2.92,1.82,5.49,1.07s4.44-2.55,4.02-3.96c-.19-.84-.76-2.55-.99-3.37-.35-1.22-.73-2.43-1.14-3.63l-.41-1.19c-.31-.93-.37-2.11-.29-3.17.17-2.82,1.23-5.64,1.54-8.47v-.02Z"
        style="fill: #9ac422;" />
      <path
        d="m23.07,35.63c-1.23-3.24-8.14-11.49-8.14-11.49l-.84,1.64c.46.57.92,1.14,1.36,1.71,1.09,1.42,2.16,2.88,3.05,4.41.67,1.15,1.17,2.34,1.69,3.55.67,1.62,1.29,3.26,1.74,4.95h0c.5,1.34,2.92,1.82,5.49,1.07,2.64-.77,4.44-2.55,4.02-3.96-.15-.68-.56-1.95-.84-2.84-2.59.79-6.45,3.85-7.55.96h0Z"
        style="fill: #88b212;" />
    </g>
    <path
      d="m32.81,8.91s-.04.01-.06.02c.5-.68.67-1.6.37-2.46-.49-1.38-2-2.1-3.38-1.62-.43.15-.8.41-1.09.73h0c.09-.5.06-1.02-.12-1.53-.55-1.56-2.27-2.39-3.83-1.83-.83.29-1.45.91-1.77,1.66,0-.42-.08-.84-.22-1.25-.72-2.06-2.98-3.13-5.03-2.41-1.14.4-1.98,1.27-2.38,2.32C14.7.85,12.85-.03,11.16.56c-1.48.52-2.34,2-2.14,3.5-.58-.38-1.32-.5-2.03-.25-1.19.42-1.82,1.73-1.4,2.92.07.2.17.39.28.55-.48-.3-1.08-.39-1.66-.18-1,.35-1.53,1.45-1.17,2.45.05.13.1.25.17.36-.18.03-.35.08-.53.14-1.69.6-2.58,2.45-1.98,4.14.23.65.64,1.17,1.15,1.55-1.53.96-2.25,2.88-1.62,4.65s2.56,2.92,4.44,2.57c-.16.57-.15,1.19.06,1.78.54,1.54,2.23,2.34,3.77,1.8,1.08-.38,1.8-1.33,1.94-2.4.02.08.04.16.07.23.65,1.83,2.65,2.79,4.48,2.15,1.55-.55,2.48-2.07,2.33-3.64.92.98,2.38,1.39,3.73.91,1.19-.42,2.02-1.42,2.27-2.57.56.52,1.37.72,2.14.45.52-.18.93-.56,1.17-1.01.52.81,1.54,1.19,2.48.85s1.55-1.35,1.38-2.34c.62.22,1.31.24,1.98,0,1.54-.54,2.34-2.23,1.8-3.77-.21-.59-.58-1.07-1.05-1.41.44.08.9.05,1.35-.11,1.38-.49,2.1-2,1.62-3.38s-2-2.1-3.38-1.62v.03Zm-4.09,8.53h-.02,0s0,0,0,0h.01Z"
      style="fill: #3e662d;" />
    <path
      d="m36.19,10.53c-.18-.52-.51-.95-.93-1.25-.69-.51-1.61-.68-2.48-.39.48-.68.63-1.57.34-2.41-.49-1.38-2-2.1-3.38-1.62-.43.15-.8.41-1.09.73h0c.09-.5.06-1.02-.12-1.53-.55-1.56-2.27-2.39-3.83-1.83-.83.29-1.45.91-1.77,1.66,0-.42-.08-.84-.22-1.25-.72-2.06-2.98-3.13-5.03-2.41-1.14.4-1.98,1.27-2.38,2.32C14.7.86,12.85-.02,11.16.57c-1.48.52-2.34,2-2.14,3.5-.58-.38-1.32-.5-2.03-.25-1.19.42-1.82,1.73-1.4,2.92.05.14.11.27.18.39.55.3,1.21.4,1.86.23.02,0,.04-.01.06-.02-.55.62-.79,1.48-.57,2.34.35,1.38,1.75,2.21,3.13,1.86.43-.11.81-.32,1.12-.61h0c-.13.47-.14.98-.02,1.49.4,1.56,1.98,2.5,3.55,2.11.83-.21,1.48-.76,1.86-1.46-.03.4,0,.82.11,1.23.52,2.05,2.61,3.29,4.66,2.77,1.14-.29,2.02-1.06,2.5-2.04.43,1.69,2.15,2.7,3.83,2.27,1.47-.38,2.44-1.73,2.37-3.2.53.42,1.24.6,1.94.42.35-.09.66-.26.91-.48.48.11.99.09,1.48-.09,1.4-.49,2.14-2.03,1.64-3.44h0v.02Z"
      style="fill: #487534;" />
  </g>
  <g>
    <g>
      <path
        d="m57.96,27.44l-13.86,12.58,2.47.71,13.07-11.86c-.61-.42-1.17-.9-1.67-1.43h-.01Zm5.37,5.5l-10.57,9.59,1.62.47h0c3.9,1.06,7.94-1.14,9.17-4.98.55-1.71.43-3.5-.22-5.08Zm-2.3-3.1l-12.6,11.44,2.47.71,11.62-10.54c-.41-.6-.91-1.14-1.48-1.6h-.01Zm-5.08-5.7c-1.23-3.76-4.32-6.84-8.51-7.85-5.83-1.41-11.9,1.85-13.93,7.5-2.34,6.51,1.32,13.55,7.86,15.44l.86.25,14.69-13.34c-.41-.62-.74-1.29-.97-2Zm-13.79,4.17c-1.35-.39-2.12-1.8-1.73-3.14s1.8-2.12,3.14-1.73,2.12,1.8,1.73,3.14-1.8,2.12-3.14,1.73Z"
        style="fill: #ad5151;" />
      <path d="m63.32,32.94l-10.57,9.59-1.86-.54,11.62-10.54c.32.47.6.97.81,1.5h0Z"
        style="fill: #994848;" />
      <path
        d="m61.03,29.84l-12.6,11.44-1.87-.54,13.07-11.86c.18.13.37.25.56.37.04.03.08.05.13.08.25.16.48.33.71.52h0Z"
        style="fill: #994848;" />
      <path d="m57.96,27.44l-13.86,12.58-1.87-.54,14.69-13.34c.31.46.65.89,1.04,1.29h0Z"
        style="fill: #994848;" />
    </g>
    <path
      d="m50.89,41.99l1.86.54,1.62.47h0c2.87.78,5.82-.21,7.67-2.32l-19.54-5.66c-6.95-2.01-6.16-12.32-5.61-16.14-1.49,1.29-2.68,2.96-3.38,4.91-2.34,6.51,1.32,13.55,7.86,15.44l.86.25,1.87.54,2.47.71,1.87.54,2.47.71h-.02Z"
      style="isolation: isolate; opacity: .1;" />
  </g>
  <g>
    <path
      d="m52.07,49.87c0-1,.81-1.81,1.81-1.81v-2.38h-23.31v11.44c0,1.08.88,1.96,1.96,1.96h3.49c0-1.23.99-2.22,2.22-2.22s2.22.99,2.22,2.22h11.46c1.08,0,1.96-.88,1.96-1.96v-5.44c-1,0-1.81-.81-1.81-1.81Z"
      style="fill: #f9d53d;" />
    <path d="m30.58,45.71c0-2.45,1.99-4.44,4.44-4.44.44,0,.87.06,1.27.19l17.6,4.22h-23.31"
      style="fill: #e8b321;" />
    <circle cx="35.23" cy="49.46" r="1.25" style="fill: #e8b321;" />
    <circle cx="43.49" cy="50.97" r="2.23" style="fill: #e8b321;" />
    <circle cx="49.6" cy="55.89" r=".97" style="fill: #e8b321;" />
    <circle cx="34.09" cy="54.57" r=".8" style="fill: #e8b321;" />
    <circle cx="49.27" cy="47.85" r="1.09" style="fill: #e8b321;" />
    <circle cx="42.75" cy="56.24" r="1.1" style="fill: #e8b321;" />
    <path
      d="m33.79,57.99c-1.08,0-1.96-.88-1.96-1.96l-.77-10.35h-.49v11.44c0,1.08.88,1.96,1.96,1.96h3.49c0-.4.11-.77.29-1.09,0,0-2.52,0-2.52,0Z"
      style="fill: #e8b321;" />
    <path d="m40.18,58c.18.32.28.69.28,1.08h11.46c.77,0,1.42-.44,1.75-1.08h-13.49Z"
      style="fill: #e8b321;" />
  </g>
</svg>