<svg id="Pescetarisch-color" xmlns="http://www.w3.org/2000/svg" viewBox="0 0 64.21 47.55">
  <g>
    <g>
      <rect x="50.55" y="7.89" width="12.14" height="3.49"
        transform="translate(3.38 31.18) rotate(-31.69)" style="fill: #8cc63f;" />
      <rect x="48.89" y="7.09" width="13.71" height="3.49"
        transform="translate(24.31 55.72) rotate(-65.17)" style="fill: #7faf33;" />
      <rect x="47.48" y="12.47" width="16.8" height="3.49"
        transform="translate(-.66 25.52) rotate(-25.58)" style="fill: #83b732;" />
      <polygon
        points="50.64 18.1 56.53 1.14 53.24 0 47.58 16.29 31.93 33.81 34.53 36.13 50.64 18.11 50.62 18.09 50.64 18.1"
        style="fill: #8cc63f;" />
      <path
        d="m38.62,26.32l-6.43,6.8c-.78.82-.72,2.12.12,2.88h0c.84.75,2.14.66,2.87-.2l6.04-7.15-2.6-2.32h0Z"
        style="fill: #ecedd1;" />
    </g>
    <polygon points="38.62 26.32 39.09 26.74 48.8 15.88 54.2 .33 53.24 0 47.58 16.29 38.62 26.32"
      style="fill: #83b732;" />
    <path
      d="m33.21,35.95c-.84-.75-.9-2.06-.12-2.88l5.99-6.34-.47-.42-6.43,6.8c-.78.82-.72,2.12.12,2.88.54.48,1.26.62,1.9.43-.36-.06-.7-.22-.99-.48h0Z"
      style="fill: #dbdbc6;" />
  </g>
  <g>
    <g>
      <path
        d="m29.45,23.87l-3.05-.78c-.64.78-1.14,1.62-1.57,2.47-.42.84-.76,1.71-1.03,2.58-.4,1.37-.7,2.83-.79,4.28-.93-2.5-1.98-4.97-3.24-7.35l-3.16,1.07c.64,2.42,1.49,4.78,2.38,7.12,0,.02.02.04.02.06-.45-.7-.91-1.38-1.39-2.06-1.32-1.88-2.73-3.71-4.24-5.48l-2.79,1.68c.56.69,1.12,1.41,1.67,2.11.81,1.06,1.63,2.15,2.4,3.24,1.01,1.43,1.98,2.91,2.78,4.44.6,1.15,1.04,2.34,1.5,3.54.58,1.61,1.11,3.24,1.48,4.91h0c.43,1.33,2.77,1.91,5.31,1.28s4.44-2.29,4.1-3.69c-.15-.83-.63-2.52-.82-3.33-.29-1.21-.61-2.4-.95-3.6l-.35-1.18c-.26-.92-.27-2.08-.15-3.1.29-2.74,1.45-5.45,1.87-8.2h0Z"
        style="fill: #9ac422;" />
      <path
        d="m21.76,41.13c-1.05-3.22-7.44-11.57-7.44-11.57l-.89,1.56c.43.58.85,1.15,1.26,1.73,1.01,1.43,1.98,2.91,2.78,4.44.6,1.15,1.04,2.34,1.5,3.54.58,1.61,1.11,3.24,1.48,4.91h0c.43,1.33,2.77,1.91,5.31,1.28,2.61-.64,4.44-2.29,4.1-3.69-.12-.67-.46-1.93-.69-2.81-2.56.66-6.47,3.47-7.41.61h-.01Z"
        style="fill: #88b212;" />
    </g>
    <path
      d="m32.45,15.49s-.04,0-.06.02c.52-.64.73-1.53.47-2.38-.41-1.37-1.86-2.14-3.23-1.73-.43.13-.8.36-1.09.66h0c.11-.48.1-1-.05-1.5-.47-1.55-2.11-2.43-3.66-1.96-.82.25-1.46.83-1.8,1.55,0-.41-.04-.82-.16-1.23-.62-2.04-2.77-3.19-4.81-2.57-1.13.34-1.99,1.16-2.42,2.16-.51-1.67-2.28-2.62-3.95-2.11-1.47.44-2.37,1.85-2.24,3.32-.55-.4-1.27-.54-1.97-.33-1.18.36-1.85,1.61-1.49,2.79.06.2.15.38.25.55-.45-.31-1.04-.42-1.61-.25-.99.3-1.56,1.35-1.25,2.34.04.13.09.25.15.36-.17.02-.35.06-.52.11-1.68.51-2.63,2.28-2.12,3.96.19.64.57,1.17,1.06,1.56-1.53.87-2.32,2.71-1.79,4.47s2.37,2.96,4.22,2.7c-.18.55-.2,1.15-.02,1.74.46,1.52,2.07,2.39,3.6,1.93,1.07-.32,1.82-1.22,2-2.25.02.08.04.15.06.23.55,1.82,2.47,2.84,4.28,2.29,1.54-.47,2.51-1.91,2.44-3.45.86,1,2.26,1.46,3.6,1.05,1.18-.36,2.03-1.3,2.33-2.41.52.53,1.31.76,2.07.53.52-.16.93-.5,1.18-.94.47.81,1.45,1.23,2.38.94s1.57-1.25,1.45-2.22c.59.24,1.27.29,1.93.09,1.52-.46,2.39-2.07,1.93-3.6-.18-.58-.52-1.07-.96-1.42.42.1.88.09,1.32-.05,1.37-.41,2.14-1.86,1.73-3.23s-1.86-2.14-3.23-1.73h-.02Zm-4.37,8.15h-.02,0s.01,0,.01,0Z"
      style="fill: #3e662d;" />
    <path
      d="m35.67,17.22c-.16-.52-.46-.95-.85-1.26-.65-.53-1.54-.74-2.4-.49.5-.64.69-1.5.44-2.34-.41-1.37-1.86-2.14-3.23-1.73-.43.13-.8.36-1.09.66h0c.11-.48.1-1-.05-1.5-.47-1.55-2.11-2.43-3.66-1.96-.82.25-1.46.83-1.8,1.55,0-.41-.04-.82-.16-1.23-.62-2.04-2.77-3.19-4.81-2.57-1.13.34-1.99,1.16-2.42,2.16-.51-1.67-2.28-2.62-3.95-2.11-1.47.44-2.37,1.85-2.24,3.32-.55-.4-1.27-.54-1.97-.33-1.18.36-1.85,1.61-1.49,2.79.04.14.1.27.16.39.52.31,1.16.44,1.8.31.02,0,.04,0,.06,0-.56.58-.84,1.41-.66,2.26.28,1.36,1.61,2.23,2.97,1.95.43-.09.81-.28,1.12-.54h0c-.15.46-.18.95-.08,1.46.32,1.54,1.83,2.53,3.37,2.21.82-.17,1.48-.67,1.88-1.34-.05.39-.03.8.05,1.21.42,2.03,2.4,3.33,4.42,2.91,1.12-.23,2.02-.94,2.53-1.88.35,1.66,1.97,2.73,3.64,2.39,1.46-.3,2.46-1.58,2.46-3.01.49.43,1.18.64,1.87.49.34-.07.65-.22.91-.42.46.13.96.13,1.45-.02,1.39-.42,2.18-1.89,1.76-3.28h0l-.03-.04Z"
      style="fill: #487534;" />
  </g>
  <g>
    <path
      d="m63.33,32.99s0,6.67-7.85,9.47c-.06.02-.12.04-.18.06-2.22.77-4.48,1.02-6.58.99-2.95-.03-5.59-.63-7.34-1.14-.36,1.07-1.04,2.47-2.24,3.48-2.24,1.87-5.46,1.7-5.46,1.7,0,0,.38-2.98,2.42-4.86-2.77-.17-4.95-2.24-4.95-2.24,0,0,2.39-2.16,5.3-2.13,1.58.02,2.98.68,3.94,1.28,1.04-1.51,2.7-3.63,4.97-5.52,1.61-1.35,3.52-2.58,5.73-3.39.06-.03.12-.05.18-.07,7.86-2.8,12.07,2.37,12.07,2.37h0Z"
      style="fill: #29abe2;" />
    <path
      d="m53.55,39.63c-.06,0-.13-.03-.17-.08-.59-.73-1.03-1.49-1.31-2.28-.34-.95-.48-2.01-.41-3.15,0-.12.11-.21.23-.21s.21.11.21.23c-.06,1.09.07,2.09.39,2.98.26.74.68,1.47,1.24,2.15.08.09.06.23-.03.31-.04.03-.09.05-.14.05h-.01Z"
      style="fill: #0e85af;" />
    <path
      d="m56.43,40.45s-.09,0-.12-.04c-.09-.06-2.11-1.48-2.95-3.86-.85-2.38-.18-4.76-.15-4.86.03-.12.16-.18.27-.15.12.03.18.15.15.27,0,.02-.65,2.35.15,4.59s2.77,3.64,2.79,3.65c.1.07.12.2.05.3-.04.06-.11.09-.18.09h-.01Z"
      style="fill: #0e85af;" />
    <circle cx="56.08" cy="33.43" r=".96" style="fill: #0e85af;" />
    <g>
      <path
        d="m51.08,30.69c-2.2.81-4.11,2.04-5.73,3.39-1.42-.75-2.32-1.67-2.32-1.67,0,0,2.69-2.3,5.89-2.17.77.03,1.5.2,2.16.44h0Z"
        style="fill: #29abe2;" />
      <path
        d="m55.29,42.52c-.36.6-.82,1.2-1.4,1.71-2.39,2.12-5.93,2.04-5.93,2.04,0,0,.12-1.28.75-2.76,2.1.03,4.36-.23,6.58-.99Z"
        style="fill: #0e85af;" />
    </g>
    <path
      d="m62.76,32.41c-.04.82-.54,6.76-7.85,9.37-.06.02-.12.04-.18.06-2.22.77-4.48,1.02-6.58.99-2.95-.03-5.59-.63-7.34-1.14-.36,1.07-1.04,2.47-2.24,3.48-1.59,1.33-3.68,1.63-4.75,1.69-.1.42-.14.69-.14.69,0,0,3.22.17,5.46-1.7,1.21-1.01,1.88-2.41,2.24-3.48,1.75.51,4.39,1.1,7.34,1.14,2.1.03,4.36-.23,6.58-.99.06-.02.12-.04.18-.06,7.86-2.8,7.85-9.47,7.85-9.47,0,0-.19-.24-.57-.58Z"
      style="fill: #0e85af;" />
    <path
      d="m44.65,33.55s-.06.05-.08.07c.24.15.5.31.79.46,1.61-1.35,3.52-2.58,5.73-3.39-.38-.14-.79-.25-1.22-.33-1.99.81-3.72,1.95-5.21,3.19h0Z"
      style="fill: #0e85af;" />
  </g>
</svg>