<svg id="preparingTime" xmlns="http://www.w3.org/2000/svg" viewBox="0 0 37.48 48.01"
  stroke="currentColor">
  <path
    d="m8.91,40.48c.58,3.56,3.67,6.29,7.4,6.29h12.68c4.14,0,7.49-3.35,7.49-7.49v-18.51c0-4.14-3.35-7.49-7.49-7.49h-1.5c-1.63,0-2.95-1.32-2.95-2.95v-.56c0-1.09.39-2.12,1.04-3,.58-.78.85-1.81.63-2.9-.28-1.38-1.39-2.5-2.77-2.79-2.35-.49-4.42,1.29-4.42,3.55,0,.79.25,1.51.68,2.11.65.89,1.07,1.93,1.07,3.04v.56c0,1.63-1.32,2.95-2.95,2.95h-1.5c-4.14,0-7.49,3.35-7.49,7.49v14.38"
    style="fill: none;  stroke-miterlimit: 10; stroke-width: 2px;" />
  <g>
    <path d="m14.59,40.91l-5.63-5.63,17.36-17.36h0c.48,6.44-1.82,12.77-6.31,17.4l-5.42,5.58h0Z"
      style="fill: none;  stroke-miterlimit: 10; stroke-width: 2px;" />
    <path d="m21.82,26.86c-.93,2.32-2.31,4.45-4.08,6.28l-3.19,3.29"
      style="fill: none;  stroke-linecap: round; stroke-miterlimit: 10; stroke-width: 2px;" />
    <path
      d="m1.61,45.59h0c-.82-.82-.82-2.15,0-2.97l7.34-7.34,2.16,2.16-6.53,8.14c-.82.82-2.15.82-2.97,0h0Z"
      style="fill: none;  stroke-miterlimit: 10; stroke-width: 2px;" />
  </g>
</svg>