<?xml version="1.0" encoding="UTF-8"?>
<svg id="Ebene_1" data-name="Ebene 1" xmlns="http://www.w3.org/2000/svg" viewBox="0 0 44.88 44.88">
  <path d="m31.6,21.61l-19.85,19.85c-2.82,2.82-6.97,3.24-9.27.94h0c-2.3-2.3-1.88-6.45.94-9.27L23.27,13.28" style="fill: none; stroke: #000; stroke-miterlimit: 10; stroke-width: 2px;"/>
  <g>
    <path d="m26.79,17.77l-4.48-5.22c-1.36-1.58-1.82-3.74-1.22-5.74l1.49-4.99c.26-.87,1.38-1.11,1.97-.42l5.57,6.49-2.91,9.8c-.05.18-.29.23-.41.09h-.01Z" style="fill: none; stroke: #000; stroke-miterlimit: 10; stroke-width: 2px;"/>
    <path d="m27.64,16.95l2.88-9.8,8.2-2.41c.87-.26,1.68.55,1.43,1.43l-2.41,8.2-9.8,2.88c-.18.05-.35-.12-.3-.3Z" style="fill: none; stroke: #000; stroke-miterlimit: 10; stroke-width: 2px;"/>
    <path d="m27.11,18.09l5.22,4.48c1.58,1.36,3.74,1.82,5.74,1.22l4.99-1.49c.87-.26,1.11-1.38.42-1.97l-6.49-5.57-9.8,2.91c-.18.05-.23.29-.09.41h0Z" style="fill: none; stroke: #000; stroke-miterlimit: 10; stroke-width: 2px;"/>
  </g>
  <path d="m29.01,19.02l-19.85,19.85c-2.82,2.82-5.81,4.4-6.68,3.53h0c-.87-.87.71-3.86,3.53-6.68L25.86,15.87" style="fill: none; stroke: #000; stroke-miterlimit: 10; stroke-width: 2px;"/>
</svg>