<svg id="Senfglas" xmlns="http://www.w3.org/2000/svg" viewBox="0 0 33.67 46.56" stroke="currentColor">
  <rect x="1" y="1" width="31.67" height="2.61" style="fill: none;  stroke-miterlimit: 10; stroke-width: 2px;"/>
  <path d="m31.29,13H2.36l-1.07,13.52h3.54c2.22,2.78,6.75,4.69,11.99,4.69s9.77-1.91,11.99-4.69h3.54l-1.07-13.52h0Z" style="fill: none;  stroke-miterlimit: 10; stroke-width: 2px;"/>
  <path d="m32.5,28.3l-1.95-24.69H3.1l-1.95,24.69c0,4.54,1.94,8.62,5.03,11.48.66.61.69,1.63.07,2.27l-3.73,2.11c-.51.52-.14,1.4.59,1.4h27.42c.73,0,1.1-.88.59-1.4l-3.73-2.11c-.63-.64-.59-1.66.07-2.27,3.09-2.86,5.03-6.94,5.03-11.48h.01Z" style="fill: none;  stroke-miterlimit: 10; stroke-width: 2px;"/>
</svg>