<svg id="Sesam" xmlns="http://www.w3.org/2000/svg" viewBox="0 0 45.93 47.81" stroke="currentColor">
  <path d="m11.76,8.44c1.64,4.17.66,8.46-2.2,9.59s-6.51-1.34-8.15-5.51S3.61,2.93,3.61,2.93c0,0,6.51,1.34,8.15,5.51Z" style="fill: none;  stroke-miterlimit: 10; stroke-width: 2px;"/>
  <path d="m7.58,31.78c3.71-2.51,8.12-2.48,9.84.06s.11,6.64-3.6,9.16-9.84-.06-9.84-.06c0,0-.11-6.64,3.6-9.16Z" style="fill: none;  stroke-miterlimit: 10; stroke-width: 2px;"/>
  <path d="m27.04,37.53c.96-4.38,4.17-7.39,7.17-6.74s4.66,4.74,3.7,9.11-7.17,6.74-7.17,6.74c0,0-4.66-4.74-3.7-9.11Z" style="fill: none;  stroke-miterlimit: 10; stroke-width: 2px;"/>
  <path d="m44.86,10.06c-.7,4.43-3.73,7.62-6.77,7.14s-4.93-4.46-4.23-8.88c.7-4.43,6.77-7.14,6.77-7.14,0,0,4.93,4.46,4.23,8.88Z" style="fill: none;  stroke-miterlimit: 10; stroke-width: 2px;"/>
  <path d="m17.88,19.7c-.84-4.4.93-8.44,3.95-9.01s6.15,2.53,6.99,6.93c.84,4.4-3.95,9.01-3.95,9.01,0,0-6.15-2.53-6.99-6.93Z" style="fill: none;  stroke-miterlimit: 10; stroke-width: 2px;"/>
</svg>