<svg id="settings" xmlns="http://www.w3.org/2000/svg" viewBox="0 0 46.27 46.27"
  stroke="currentColor">
  <path
    d="m42.64,34.3l2.37-5.99-7.33-4.07c.07-.91.05-1.81-.05-2.7l7.19-4.31-2.56-5.91-8.06,2.31c-.58-.68-1.23-1.31-1.94-1.88l2.04-8.13-5.99-2.37-4.07,7.33c-.91-.07-1.81-.05-2.7.05l-4.31-7.19-5.91,2.56,2.31,8.06c-.68.58-1.31,1.23-1.88,1.94l-8.13-2.04-2.37,5.99,7.33,4.07c-.07.91-.05,1.81.05,2.7l-7.19,4.31,2.56,5.91,8.06-2.31c.58.68,1.23,1.31,1.94,1.88l-2.04,8.13,5.99,2.37,4.07-7.33c.91.07,1.81.05,2.7-.05l4.31,7.19,5.91-2.56-2.31-8.06c.68-.58,1.31-1.23,1.88-1.94,0,0,8.13,2.04,8.13,2.04Z"
    style="fill: none; stroke-miterlimit: 10; stroke-width: 2px;" />
  <circle cx="23.14" cy="23.13" r="8.11"
    style="fill: none; stroke-miterlimit: 10; stroke-width: 2px;" />
</svg>