<svg id="shoppinglist" xmlns="http://www.w3.org/2000/svg" viewBox="0 0 36.27 46.3"
  stroke="currentColor">
  <g>
    <rect x="1" y="1" width="34.27" height="44.3" rx="2.91" ry="2.91"
      style="fill: none; stroke-miterlimit: 10; stroke-width: 2px;" />
    <g>
      <line x1="12.81" y1="6.67" x2="30.56" y2="6.67"
        style="fill: none; stroke-miterlimit: 10; stroke-width: 2px;" />
      <line x1="12.81" y1="12.17" x2="30.56" y2="12.17"
        style="fill: none; stroke-miterlimit: 10; stroke-width: 2px;" />
      <line x1="12.81" y1="17.66" x2="30.56" y2="17.66"
        style="fill: none; stroke-miterlimit: 10; stroke-width: 2px;" />
      <line x1="12.81" y1="23.15" x2="30.56" y2="23.15"
        style="fill: none; stroke-miterlimit: 10; stroke-width: 2px;" />
      <line x1="12.81" y1="28.64" x2="30.56" y2="28.64"
        style="fill: none; stroke-miterlimit: 10; stroke-width: 2px;" />
      <line x1="12.81" y1="34.13" x2="30.56" y2="34.13"
        style="fill: none; stroke-miterlimit: 10; stroke-width: 2px;" />
      <line x1="12.81" y1="39.63" x2="30.56" y2="39.63"
        style="fill: none; stroke-miterlimit: 10; stroke-width: 2px;" />
    </g>
  </g>
  <polyline points="5.66 5.24 7.1 6.67 9.54 4.23"
    style="fill: none; stroke-miterlimit: 10; stroke-width: 2px;" />
  <polyline points="5.66 10.73 7.1 12.17 9.54 9.72"
    style="fill: none; stroke-miterlimit: 10; stroke-width: 2px;" />
  <polyline points="5.66 16.22 7.1 17.66 9.54 15.21"
    style="fill: none; stroke-miterlimit: 10; stroke-width: 2px;" />
  <polyline points="5.66 21.71 7.1 23.15 9.54 20.7"
    style="fill: none; stroke-miterlimit: 10; stroke-width: 2px;" />
  <polyline points="5.66 27.21 7.1 28.64 9.54 26.2"
    style="fill: none; stroke-miterlimit: 10; stroke-width: 2px;" />
  <polyline points="5.66 32.7 7.1 34.13 9.54 31.69"
    style="fill: none; stroke-miterlimit: 10; stroke-width: 2px;" />
  <polyline points="5.66 38.19 7.1 39.63 9.54 37.18"
    style="fill: none; stroke-miterlimit: 10; stroke-width: 2px;" />
</svg>