<?xml version="1.0" encoding="UTF-8"?>
<svg id="Ebene_1" data-name="Ebene 1" xmlns="http://www.w3.org/2000/svg" viewBox="0 0 88.34 88.34">
  <defs>
    <style>
      .cls-1 {
        stroke-miterlimit: 10;
      }

      .cls-1, .cls-2 {
        fill: none;
        stroke: #000;
        stroke-width: 2px;
      }

      .cls-2 {
        stroke-linecap: round;
        stroke-linejoin: round;
      }
    </style>
  </defs>
  <g>
    <path class="cls-1" d="m51.69,62.24s-11.21-2.82-14.03-8.9c-2.82-6.08-.17-13.28,5.9-16.1,9.79-4.54,6.62-10.25,6.62-10.25l-14.93,6.92c-8.61,3.99-12.35,14.2-8.36,22.81,6.47,13.95,22.08,9.42,24.8,5.52h0Z"/>
    <path class="cls-1" d="m50.15,27.01l.47-.22c1.22-.56,1.75-2.01,1.18-3.23h0c-.56-1.22-2.01-1.75-3.23-1.18l-15.72,7.29"/>
    <line class="cls-1" x1="37.51" y1="32.76" x2="40.48" y2="39.17"/>
    <circle cx="46.65" cy="30.5" r=".62"/>
  </g>
  <g>
    <path class="cls-2" d="m50.62,55.92c-.75,3.15,1.02,6.27,1.02,6.27,0,0,2.98-1.99,3.73-5.14s-1.02-6.27-1.02-6.27c0,0-2.98,1.99-3.73,5.14Z"/>
    <path class="cls-2" d="m57.91,61.18c-3.15-.75-6.27,1.02-6.27,1.02,0,0,1.99,2.98,5.14,3.73,3.15.75,6.27-1.02,6.27-1.02,0,0-1.99-2.98-5.14-3.73Z"/>
  </g>
</svg>