<?xml version="1.0" encoding="UTF-8"?>
<svg id="Ebene_1" data-name="Ebene 1" xmlns="http://www.w3.org/2000/svg" viewBox="0 0 88.34 88.34">
  <defs>
    <style>
      .cls-1 {
        fill: none;
        stroke: #000;
        stroke-linejoin: round;
        stroke-width: 2px;
      }
    </style>
  </defs>
  <ellipse class="cls-1" cx="33.76" cy="57.22" rx="6.63" ry="4.08" transform="translate(-16.3 13.54) rotate(-18.35)"/>
  <ellipse class="cls-1" cx="56.8" cy="33.99" rx="6.63" ry="4.08" transform="translate(.94 69.51) rotate(-63.35)"/>
  <path class="cls-1" d="m62.45,22.66c-1.73-.87-4.45.43-6.42,1.09-2.77.92-5.27,3.26-6.85,6.41-1.16,2.31-1.69,4.84-1.49,7.11.02.2.04.4.07.59-.27.07-.54.14-.81.23-1.95.65-3.82,1.84-5.42,3.46-1.81,1.84-3.1,4.08-3.61,6.31-.02.09-.03.17-.05.25-1.82-.19-3.84.02-5.89.7-6,1.99-10.01,7.23-9.84,12.25s9.21,5.94,15.21,3.95c4.23-1.4,7.15-4.3,7.97-7.5.96-.02,1.95-.19,2.95-.52,1.95-.65,3.82-1.84,5.42-3.46,1.81-1.84,3.1-4.08,3.61-6.31.24-1.03.3-2.03.22-2.98.02,0,.04-.01.07-.02,2.77-.92,5.27-3.26,6.85-6.41,2.84-5.65,2.37-12.97-1.98-15.16Z"/>
  <ellipse class="cls-1" cx="47.6" cy="47.55" rx="6.63" ry="4.08" transform="translate(-19.68 48.09) rotate(-45.43)"/>
</svg>