<?xml version="1.0" encoding="UTF-8"?>
<svg id="Ebene_1" data-name="Ebene 1" xmlns="http://www.w3.org/2000/svg" viewBox="0 0 88.34 88.34">
  <defs>
    <style>
      .cls-1 {
        stroke-linejoin: round;
      }

      .cls-1, .cls-2 {
        fill: none;
        stroke: #000;
        stroke-width: 2px;
      }

      .cls-2 {
        stroke-linecap: round;
        stroke-miterlimit: 10;
      }
    </style>
  </defs>
  <g>
    <ellipse class="cls-1" cx="32.58" cy="33.8" rx="3.83" ry="6.23" transform="translate(-7.73 9.74) rotate(-15.22)"/>
    <ellipse class="cls-1" cx="53.18" cy="56.61" rx="3.83" ry="6.23" transform="translate(-22.36 74.65) rotate(-60.22)"/>
    <path class="cls-1" d="m63.52,62.49c.9-1.58-.18-4.19-.69-6.08-.72-2.65-2.78-5.11-5.66-6.76-2.11-1.21-4.45-1.83-6.59-1.77-.19,0-.37.02-.56.03-.05-.26-.1-.51-.17-.77-.51-1.86-1.53-3.68-2.97-5.26-1.63-1.8-3.67-3.11-5.73-3.71-.08-.02-.16-.04-.24-.06.28-1.7.18-3.6-.36-5.56-1.56-5.73-6.27-9.76-10.99-9.86-4.57-.09-6.04,8.33-4.48,14.06,1.1,4.04,3.66,6.93,6.63,7.86-.03.9.08,1.84.34,2.79.51,1.86,1.53,3.68,2.97,5.26,1.63,1.8,3.67,3.11,5.73,3.71.95.27,1.89.39,2.78.36,0,.02,0,.04.01.06.72,2.65,2.78,5.11,5.66,6.76,5.15,2.95,12.05,2.89,14.32-1.08Z"/>
    <ellipse class="cls-1" cx="40.94" cy="47.28" rx="3.83" ry="6.23" transform="translate(-21.16 39.86) rotate(-42.29)"/>
  </g>
  <line class="cls-2" x1="21.78" y1="66.06" x2="66.56" y2="21.28"/>
</svg>