<?xml version="1.0" encoding="UTF-8"?>
<svg id="Ebene_1" data-name="Ebene 1" xmlns="http://www.w3.org/2000/svg" viewBox="0 0 88.34 88.34">
  <defs>
    <style>
      .cls-1 {
        fill: none;
        stroke: #000;
        stroke-linecap: round;
        stroke-linejoin: round;
        stroke-width: 2px;
      }
    </style>
  </defs>
  <path class="cls-1" d="m74.45,52.54c.18-6.32-4.12-11.95-10.18-13.76-.09-.03-.18-.05-.27-.08-4.06-1.12-7.76-3.38-10.13-6.86-4.12-6.03-11.17-9.9-19.1-9.55-11.05.5-20.13,9.39-20.83,20.43-.82,12.74,9.28,23.33,21.84,23.33h24.98c7.45-.12,13.49-6.09,13.69-13.52Z"/>
  <circle class="cls-1" cx="31.57" cy="41.63" r="4.68"/>
  <line class="cls-1" x1="41.43" y1="65.93" x2="67.09" y2="40.27"/>
  <line class="cls-1" x1="34.09" y1="65.99" x2="61.96" y2="38.13"/>
  <line class="cls-1" x1="48.56" y1="66.06" x2="71.26" y2="43.36"/>
</svg>