<svg id="switch" viewBox="0 0 25 21" fill="currentColor" xmlns="http://www.w3.org/2000/svg" stroke="currentColor" stroke-width="0">
<path d="M20.4545 5.7085L15.9091 10.7085H19.3182C19.3182 14.846 16.2614 18.2085 12.5 18.2085C11.3523 18.2085 10.2614 17.896 9.31818 17.3335L7.65909 19.1585C9.05682 20.1335 10.7159 20.7085 12.5 20.7085C17.5227 20.7085 21.5909 16.2335 21.5909 10.7085H25L20.4545 5.7085ZM5.68182 10.7085C5.68182 6.571 8.73864 3.2085 12.5 3.2085C13.6477 3.2085 14.7386 3.521 15.6818 4.0835L17.3409 2.2585C15.9432 1.2835 14.2841 0.708496 12.5 0.708496C7.47727 0.708496 3.40909 5.1835 3.40909 10.7085H0L4.54545 15.7085L9.09091 10.7085H5.68182Z" />
</svg>
