<svg id="threeDots" width="31" height="8" viewBox="0 0 31 8"
    xmlns="http://www.w3.org/2000/svg" fill="currentColor">
    <path
        d="M4.25 0C2.17893 0 0.5 1.67893 0.5 3.75C0.5 5.82107 2.17893 7.5 4.25 7.5C6.32107 7.5 8 5.82107 8 3.75C8 1.67893 6.32107 0 4.25 0ZM15.5 0C13.4289 0 11.75 1.67893 11.75 3.75C11.75 5.82107 13.4289 7.5 15.5 7.5C17.5711 7.5 19.25 5.82107 19.25 3.75C19.25 1.67893 17.5711 0 15.5 0ZM26.75 0C24.6789 0 23 1.67893 23 3.75C23 5.82107 24.6789 7.5 26.75 7.5C28.8211 7.5 30.5 5.82107 30.5 3.75C30.5 1.67893 28.8211 0 26.75 0Z"
    />
</svg>