<svg id="Vegan-color" xmlns="http://www.w3.org/2000/svg" viewBox="0 0 64.27 76.79">
  <g>
    <path
      d="m59.51,36.22c6.85,8.39,5.83,20.91,0,29.61-2.18,3.4-5.12,6.37-8.39,8.83-4.27,3.38-10.47,2.65-13.85-1.63-3.38-4.27-2.65-10.47,1.63-13.85,1.01-.8,2.17-1.38,3.34-1.72,1.63-.48,3.22-1.22,4.66-2.25,4.55-3.16,7.25-9.11,5.36-14.59-1.84-4.66,4.04-8.18,7.26-4.41h-.01Z"
      style="fill: #662d91;" />
    <path
      d="m59.51,36.22c-.42-.49-.89-.86-1.37-1.12,5.13,8.28,3.84,19.49-1.52,27.49-2.18,3.4-5.12,6.37-8.39,8.83-3.53,2.79-8.37,2.77-11.85.28.26.46.55.91.89,1.34,3.38,4.27,9.58,5,13.85,1.63,3.27-2.46,6.21-5.43,8.39-8.83,5.83-8.71,6.85-21.22,0-29.61h0Z"
      style="fill: #4f2672;" />
    <path
      d="m59.53,34.42c-.98-.43-2.07-.41-2.98-.25-.36-.83-.92-1.55-1.55-2.19l-1.43,1.18c.32.5.64,1.14.75,1.71-.98.42-2.24,1.18-2.89,2.43-.74,1.44-.46,3.17-.18,4.2.03.09.06.14.06.14,0,0,1.87-.41,3.23-1.64,1.12,1.61,3.12,2.4,3.12,2.4,0,0,1.23-1.92,1.13-3.95,1.72.11,3.36-.64,3.59-.75-.41-.96-1.3-2.6-2.85-3.29h0Z"
      style="fill: #487534;" />
    <path
      d="m59.15,34.28c1.09.8,1.76,2.05,2.09,2.85-.23.11-1.87.86-3.59.75.1,1.95-1.04,3.8-1.12,3.94.63.39,1.12.59,1.12.59,0,0,1.23-1.92,1.13-3.95,1.72.11,3.36-.64,3.59-.75-.41-.96-1.3-2.6-2.85-3.29-.12-.05-.25-.1-.38-.14h.01Z"
      style="fill: #3e662d;" />
  </g>
  <g>
    <g>
      <path
        d="m48.51,27.33l-2.88-2.31c-1.06.52-2.01,1.18-2.88,1.88-.86.7-1.64,1.45-2.35,2.26-1.09,1.28-2.12,2.68-2.92,4.2.21-3.13.29-6.27.1-9.43l-3.9-.39c-.49,2.9-.73,5.83-.91,8.77v.08c-.14-.96-.31-1.92-.48-2.88-.5-2.65-1.12-5.29-1.87-7.92l-3.8.44c.26,1.01.52,2.05.76,3.07.36,1.53.7,3.09.99,4.62.38,2.02.71,4.07.82,6.09.09,1.52-.02,3.01-.12,4.51-.16,2-.38,4-.79,5.96h0c-.18,1.63,2.04,3.38,5.06,3.95,3.1.58,5.86-.29,6.17-1.96.24-.95.55-3,.74-3.96.28-1.43.52-2.86.73-4.31l.2-1.43c.17-1.11.72-2.35,1.35-3.39,1.64-2.79,4.2-5.12,5.98-7.86h-.01Z"
        style="fill: #9ac422;" />
      <path
        d="m31.92,42.06c.43-3.95-2.35-15.98-2.35-15.98l-1.71,1.24c.18.82.35,1.65.5,2.46.38,2.02.71,4.07.82,6.09.09,1.52-.02,3.01-.12,4.51-.16,2-.38,4-.79,5.96h0c-.18,1.63,2.04,3.38,5.06,3.95,3.1.58,5.86-.29,6.17-1.96.2-.78.44-2.28.62-3.34-3.05-.54-8.6.58-8.21-2.94h0Z"
        style="fill: #88b212;" />
    </g>
    <path
      d="m55.78,19.82h-.07c.87-.44,1.52-1.28,1.65-2.32.22-1.66-.95-3.19-2.61-3.41-.52-.07-1.03,0-1.49.18h0c.35-.46.59-1.02.67-1.63.25-1.89-1.08-3.62-2.96-3.87-1-.13-1.96.18-2.67.78.21-.43.36-.9.42-1.4.33-2.48-1.41-4.75-3.89-5.08-1.37-.18-2.68.27-3.64,1.14.27-2.04-1.17-3.91-3.2-4.18-1.78-.24-3.44.83-4.01,2.46-.39-.69-1.09-1.2-1.94-1.31-1.44-.19-2.76.82-2.95,2.26-.03.24-.03.48,0,.71-.33-.55-.91-.96-1.6-1.05-1.21-.16-2.32.69-2.48,1.9-.02.15-.02.31,0,.46-.2-.06-.4-.11-.61-.13-2.04-.27-3.91,1.16-4.18,3.2-.1.78.04,1.53.37,2.18-2.06.19-3.79,1.78-4.08,3.91s1.1,4.32,3.2,4.94c-.46.5-.77,1.13-.87,1.85-.25,1.85,1.06,3.56,2.91,3.8,1.31.17,2.53-.42,3.23-1.44-.02.09-.04.18-.05.28-.29,2.21,1.26,4.23,3.47,4.53,1.87.25,3.61-.83,4.28-2.51.43,1.49,1.71,2.65,3.34,2.87,1.44.19,2.8-.4,3.65-1.45.3.82,1.03,1.45,1.95,1.57.63.08,1.24-.09,1.72-.43.11,1.09.95,2.01,2.09,2.16s2.28-.57,2.62-1.67c.52.55,1.21.93,2.02,1.03,1.85.25,3.56-1.06,3.8-2.91.09-.71-.04-1.39-.34-1.98.41.31.9.52,1.44.59,1.66.22,3.19-.95,3.41-2.61s-.95-3.19-2.61-3.41h.02Zm-8.62,6.6h-.02.02s0,0,0,0Z"
      style="fill: #3e662d;" />
    <path
      d="m58.39,23.23c.08-.63-.03-1.24-.3-1.76-.44-.88-1.29-1.53-2.33-1.68.84-.44,1.46-1.27,1.6-2.29.22-1.66-.95-3.19-2.61-3.41-.52-.07-1.03,0-1.49.18h0c.35-.46.59-1.02.67-1.63.25-1.89-1.08-3.62-2.96-3.87-1-.13-1.96.18-2.67.78.21-.43.36-.9.42-1.4.33-2.48-1.41-4.75-3.89-5.08-1.37-.18-2.68.27-3.64,1.14.27-2.04-1.17-3.91-3.2-4.18-1.78-.24-3.44.83-4.01,2.46-.39-.69-1.09-1.2-1.94-1.31-1.44-.19-2.76.82-2.95,2.26-.02.17-.03.33-.02.5.41.59,1.03,1.03,1.78,1.2.02,0,.04,0,.07.01-.88.35-1.58,1.11-1.8,2.1-.36,1.59.64,3.17,2.23,3.52.5.11,1,.09,1.46-.04h0c-.38.42-.66.93-.79,1.52-.41,1.8.73,3.59,2.53,4,.96.22,1.91,0,2.65-.52-.24.4-.42.84-.53,1.31-.53,2.37.95,4.72,3.32,5.25,1.31.3,2.62-.03,3.62-.78-.44,1.95.79,3.88,2.73,4.32,1.7.38,3.39-.5,4.09-2.03.32.7.95,1.25,1.76,1.44.4.09.8.08,1.18-.01.43.36.97.6,1.56.68,1.69.22,3.24-.97,3.47-2.66h0v-.02Z"
      style="fill: #487534;" />
  </g>
  <g>
    <path
      d="m18.46,33.2c3.41,7.48,6.53,15.35,9.47,23.03.48,1.27,1.74,4.62,2.19,5.85.5,1.37-.1,3.73-1.97,3.42-.92-.18-1.55-.57-2.08-1.22l-1.24-1.67-2.47-3.36c-3.17-4.33-6.55-9.13-9.58-13.58-1.54-2.29-3.09-4.59-4.55-6.92-1.71-2.73-.88-6.33,1.85-8.04,2.94-1.87,6.94-.67,8.38,2.49h0Z"
      style="fill: #f15a24;" />
    <path
      d="m28.82,63.22c-.92-.18-1.55-.57-2.08-1.22l-1.24-1.67-2.47-3.36c-3.17-4.33-6.55-9.13-9.58-13.58-1.54-2.29-3.09-4.59-4.55-6.92-.69-1.11-.96-2.37-.86-3.58-.96,1.79-.97,4.02.18,5.87,1.46,2.34,3.01,4.63,4.55,6.92,3.03,4.45,6.41,9.25,9.58,13.58l2.47,3.36,1.24,1.67c.53.64,1.16,1.04,2.08,1.22,1.59.27,2.26-1.38,2.12-2.72-.35.35-.82.54-1.44.44h0Z"
      style="fill: #d6532b;" />
    <path
      d="m14.2,20.4s-2.94,1.74-3.9,4.71c-1.54-2.73-4.81-3.84-4.81-3.84,0,0-.86,3.34.59,6.12-3.01-.82-6.08.7-6.08.7,0,0,1.79,3.04,4.85,3.94,2.64.78,5.36-.28,6.05-.58h0s.03-.01.07-.04h0s.08-.04.08-.04h0c.63-.42,3-2.12,3.79-4.76.91-3.06-.66-6.22-.66-6.22h.02Z"
      style="fill: #9ac422;" />
    <path
      d="m15.09,25.4c-.02.07-.04.14-.06.22-.78,2.64-3.16,4.34-3.79,4.75h0s-.03.02-.08.05h0s-.07.05-.07.05h0c-.69.29-3.41,1.36-6.05.57-2.11-.63-3.62-2.27-4.35-3.23-.43.16-.68.28-.68.28,0,0,1.79,3.04,4.85,3.94,2.64.78,5.36-.28,6.05-.58h0s.03-.01.07-.04h0s.08-.04.08-.04h0c.63-.42,3-2.12,3.79-4.76.12-.41.2-.81.24-1.21Z"
      style="fill: #8aa526;" />
  </g>
</svg>