<svg id="Vegetarisch-color" xmlns="http://www.w3.org/2000/svg" viewBox="0 0 63.89 53.3">
  <g>
    <path
      d="m46.11,15.64c-.18-1,.49-1.96,1.5-2.14l-.42-2.39-23.37,4.14,2.03,11.47c.19,1.09,1.23,1.81,2.32,1.62l3.5-.62c-.22-1.23.6-2.4,1.83-2.62s2.4.6,2.62,1.83l11.49-2.03c1.09-.19,1.81-1.23,1.62-2.32l-.97-5.45c-1,.18-1.96-.49-2.14-1.5h-.01Z"
      style="fill: #f9d53d;" />
    <path d="m23.82,15.28c-.44-2.46,1.2-4.8,3.66-5.24.44-.08.88-.09,1.31-.04l18.4,1.11-23.37,4.14"
      style="fill: #e8b321;" />
    <circle cx="29.15" cy="18.22" r="1.27" style="fill: #e8b321;" />
    <circle cx="37.7" cy="18.26" r="2.27" style="fill: #e8b321;" />
    <circle cx="44.7" cy="22.11" r=".98" style="fill: #e8b321;" />
    <circle cx="28.92" cy="23.54" r=".81" style="fill: #e8b321;" />
    <circle cx="42.94" cy="14.11" r="1.11" style="fill: #e8b321;" />
    <circle cx="37.89" cy="23.68" r="1.12" style="fill: #e8b321;" />
    <path
      d="m29.22,27.03c-1.09.19-2.12-.53-2.32-1.62l-2.61-10.24-.49.09,2.03,11.47c.19,1.09,1.23,1.81,2.32,1.62l3.5-.62c-.07-.4-.03-.79.1-1.15,0,0-2.53.45-2.53.45Z"
      style="fill: #e8b321;" />
    <path
      d="m35.63,25.9c.24.29.41.64.48,1.04l11.49-2.03c.77-.14,1.35-.7,1.56-1.4,0,0-13.53,2.39-13.53,2.39Z"
      style="fill: #e8b321;" />
  </g>
  <g>
    <path
      d="m62.18,22.42c2.09,9.39-3.71,18.91-11.81,23.49-3.09,1.83-6.6,3.01-10.18,3.66-4.74.97-9.37-2.08-10.34-6.81-.97-4.74,2.08-9.37,6.81-10.34,1.12-.23,2.27-.23,3.33-.04,1.48.27,3.04.31,4.6.08,4.87-.69,9.38-4.34,10.07-9.44.4-4.43,6.47-4.88,7.52-.6h0Z"
      style="fill: #662d91;" />
    <path
      d="m62.18,22.42c-.14-.56-.36-1.04-.64-1.43.77,8.61-4.73,16.99-12.16,21.2-3.09,1.83-6.6,3.01-10.18,3.66-3.91.8-7.75-1.14-9.51-4.5.02.47.07.94.17,1.42.97,4.74,5.6,7.79,10.34,6.81,3.57-.65,7.09-1.84,10.18-3.66,8.1-4.58,13.9-14.11,11.81-23.49h-.01Z"
      style="fill: #4f2672;" />
    <path
      d="m62.91,21c-.61-.73-1.48-1.15-2.27-1.39.04-.8-.11-1.6-.35-2.36l-1.61.37c.05.53.05,1.16-.09,1.65-.94-.06-2.25.04-3.26.77-1.16.85-1.63,2.33-1.82,3.26,0,.09-.01.13-.01.13,0,0,1.65.42,3.22,0,.25,1.72,1.52,3.15,1.52,3.15,0,0,1.74-1.03,2.47-2.68,1.32.78,2.92.83,3.14.84.06-.93,0-2.58-.95-3.74h0Z"
      style="fill: #487534;" />
    <path
      d="m62.67,20.74c.55,1.07.58,2.33.53,3.09-.23,0-1.82-.06-3.14-.84-.7,1.58-2.34,2.6-2.46,2.68.34.56.66.91.66.91,0,0,1.74-1.03,2.47-2.68,1.32.78,2.92.83,3.14.84.06-.93,0-2.58-.95-3.74-.08-.09-.16-.18-.24-.26h-.01Z"
      style="fill: #3e662d;" />
  </g>
  <g>
    <g>
      <rect x="4.89" y="6.1" width="15.6" height="4.48"
        transform="translate(3.81 20.66) rotate(-87.52)" style="fill: #8cc63f;" />
      <rect x="8.97" y="-.1" width="4.48" height="17.62"
        transform="translate(-2.88 7.02) rotate(-31)" style="fill: #7faf33;" />
      <rect x="6.21" y="10.2" width="21.59" height="4.48"
        transform="translate(2.17 27.4) rotate(-81.42)" style="fill: #83b732;" />
      <polygon
        points="17.37 20.79 3.6 2.3 0 4.98 13.24 22.75 20.57 52.03 24.92 50.94 17.38 20.8 17.35 20.81 17.37 20.79"
        style="fill: #8cc63f;" />
      <path
        d="m17.44,39.51l2.59,11.75c.31,1.42,1.74,2.3,3.15,1.95h0c1.41-.35,2.25-1.8,1.86-3.2l-3.25-11.58-4.35,1.09h0Z"
        style="fill: #ecedd1;" />
    </g>
    <polygon points="17.44 39.51 18.23 39.31 13.69 21.16 1.05 4.2 0 4.98 13.24 22.75 17.44 39.51"
      style="fill: #83b732;" />
    <path
      d="m23.78,52.21c-1.41.35-2.83-.53-3.15-1.95l-2.41-10.94-.78.2,2.59,11.75c.31,1.42,1.74,2.3,3.15,1.95.9-.22,1.56-.89,1.83-1.71-.32.33-.74.59-1.23.71h0Z"
      style="fill: #dbdbc6;" />
  </g>
</svg>