<?xml version="1.0" encoding="UTF-8"?>
<svg id="Ebene_1" data-name="Ebene 1" xmlns="http://www.w3.org/2000/svg" viewBox="0 0 88.34 88.34">
  <defs>
    <style>
      .cls-1 {
        fill: none;
        stroke: #000;
        stroke-linecap: round;
        stroke-linejoin: round;
        stroke-width: 2px;
      }
    </style>
  </defs>
  <path class="cls-1" d="m54.28,55.59c-9.05,9.06-19.43,8.94-25.95,2.5-.04-.04-.08-.08-.13-.13-.45-.45-.87-.92-1.25-1.41-5.19-6.54-4.71-16.13,3.73-24.57,7.82-7.82,18.28-10.46,25.2-6.89.68.35,2.15-.06,3.4-.23,0,0,.01,0,.02,0,.69-.09,1.31-.12,1.7.11.07.03.13.08.18.13.91.91-.58,4.17,0,5.29,3.57,6.92.93,17.38-6.89,25.21Z"/>
  <g>
    <path class="cls-1" d="m52.52,33.73l-17.61,17.61-.53.4c-1.99,1.41-4.5,1.47-5.96,0-1.68-1.68-1.35-4.72.73-6.81,1.03-1.03,2.31-1.64,3.53-1.77,0-.06.03-.13.05-.19-.61-.17-1.18-.48-1.64-.94-1.68-1.68-1.35-4.73.73-6.81s5.12-2.41,6.8-.73c.06.06.11.11.16.17.11-.08.22-.16.33-.23-.23-1.22.23-2.66,1.32-3.75,1.59-1.59,3.93-1.85,5.22-.56.51.51.78,1.19.81,1.92.04-1.02.51-2.11,1.38-2.98,1.6-1.6,3.93-1.85,5.22-.56s1.04,3.62-.56,5.22Z"/>
    <path class="cls-1" d="m51.02,54.42c-2.08,2.08-5.13,2.41-6.81.73-.46-.46-.76-1.02-.93-1.63-.07.02-.13.04-.19.05-.13,1.23-.74,2.5-1.77,3.53-2.09,2.09-5.13,2.41-6.81.73-1.46-1.46-1.4-3.96,0-5.96l.4-.53,17.61-17.61c1.6-1.6,3.93-1.85,5.22-.55s1.04,3.62-.56,5.22c-.87.87-1.96,1.33-2.98,1.38.73.04,1.4.3,1.92.81,1.29,1.29,1.03,3.62-.56,5.22-1.09,1.09-2.54,1.55-3.75,1.32-.07.11-.15.22-.23.33.06.05.11.11.17.16,1.68,1.68,1.35,4.73-.72,6.81Z"/>
  </g>
  <path class="cls-1" d="m57.24,58.45c-9.13,9.13-20.72,7.84-28.66-.1-.09-.09-.17-.17-.26-.26,6.52,6.44,16.9,6.56,25.95-2.5,7.82-7.82,10.46-18.28,6.89-25.21-.58-1.12.91-4.38,0-5.29-.05-.05-.11-.09-.18-.13.26.07.47.18.63.34,1.11,1.11-.19,4.57.57,5.88,4.71,8.07,2.9,19.41-4.95,27.27Z"/>
</svg>