<?xml version="1.0" encoding="UTF-8"?>
<svg id="Ebene_1" data-name="Ebene 1" xmlns="http://www.w3.org/2000/svg" viewBox="0 0 47.02 30.46">
  <path d="m17.61,27.42h13.23c8.35,0,15.18-6.83,15.18-15.18,0-3.11-2.52-5.64-5.64-5.64s-5.64,2.52-5.64,5.64c-.05,5.08-4.99,4.04-4.99,4.04" style="fill: none; stroke: #000; stroke-miterlimit: 10; stroke-width: 2px;"/>
  <path d="m14.07,23.46c-2.24.83-4.73-.32-5.56-2.57-1.03-2.8.4-5.91,3.21-6.95,3.51-1.29,7.39.5,8.68,4.01,1.61,4.38-.63,9.24-5.01,10.86-5.48,2.02-11.55-.79-13.57-6.26-2.52-6.85.99-14.44,7.83-16.96,8.56-3.15,18.05,1.23,21.2,9.79l-9.97,6.26" style="fill: none; stroke: #000; stroke-miterlimit: 10; stroke-width: 2px;"/>
  <line x1="37.72" y1="7.27" x2="35" y2="1" style="fill: none; stroke: #000; stroke-linecap: round; stroke-miterlimit: 10; stroke-width: 2px;"/>
  <line x1="43.29" y1="7.27" x2="46.01" y2="1" style="fill: none; stroke: #000; stroke-linecap: round; stroke-miterlimit: 10; stroke-width: 2px;"/>
</svg>