<svg id="Wein" xmlns="http://www.w3.org/2000/svg" viewBox="0 0 36.24 47.8" stroke="currentColor">
  <path d="m15.16,46.09l-4.62-2.17v-10.91c1.34-.26,2.57-.85,3.58-1.69,2.18-1.8,3.18-4.67,2.76-7.46l-1.56-10.36H2.65l-1.56,10.36c-.42,2.79.58,5.66,2.76,7.46,1.02.84,2.24,1.43,3.58,1.69v10.84l-4.62,2.24c-.43.21-.23.71.28.71h11.81c.51,0,.7-.51.27-.71h0Z" style="fill: none;  stroke-miterlimit: 10; stroke-width: 2px;"/>
  <g>
    <path d="m26.54,7.5v5.99c-2.91.79-5.05,3.43-5.05,6.57v25.11c0,.9.74,1.63,1.64,1.63h10.47c.91,0,1.64-.73,1.64-1.63v-25.11c0-3.14-2.14-5.77-5.05-6.57v-5.99" style="fill: none;  stroke-miterlimit: 10; stroke-width: 2px;"/>
    <line x1="21.49" y1="22.01" x2="35.24" y2="22.01" style="fill: none;  stroke-miterlimit: 10; stroke-width: 2px;"/>
    <line x1="21.49" y1="38.56" x2="35.24" y2="38.56" style="fill: none;  stroke-miterlimit: 10; stroke-width: 2px;"/>
    <rect x="25.98" y="1" width="4.77" height="6.51" style="fill: none;  stroke-miterlimit: 10; stroke-width: 2px;"/>
  </g>
</svg>