<?xml version="1.0" encoding="UTF-8"?>
<svg id="Ebene_1" data-name="Ebene 1" xmlns="http://www.w3.org/2000/svg" viewBox="0 0 88.34 88.34">
  <defs>
    <style>
      .cls-1 {
        fill: none;
        stroke: #000;
        stroke-linecap: round;
        stroke-linejoin: round;
        stroke-width: 2px;
      }
    </style>
  </defs>
  <path class="cls-1" d="m51.34,31.24c.04,5.17-3.82,9.39-3.82,9.39,0,0-3.92-4.16-3.96-9.33s3.82-9.39,3.82-9.39c0,0,3.92,4.16,3.96,9.33Z"/>
  <path class="cls-1" d="m44.64,38.04c.04,5.17-3.82,9.39-3.82,9.39,0,0-3.92-4.16-3.96-9.33s3.82-9.39,3.82-9.39c0,0,3.92,4.16,3.96,9.33Z"/>
  <path class="cls-1" d="m37.95,44.83c.04,5.17-3.82,9.39-3.82,9.39,0,0-3.92-4.16-3.96-9.33s3.82-9.39,3.82-9.39c0,0,3.92,4.16,3.96,9.33Z"/>
  <path class="cls-1" d="m31.26,51.63c.04,5.17-3.82,9.39-3.82,9.39,0,0-3.92-4.16-3.96-9.33s3.82-9.39,3.82-9.39c0,0,3.92,4.16,3.96,9.33Z"/>
  <line class="cls-1" x1="50.62" y1="37.48" x2="22.1" y2="66.44"/>
  <path class="cls-1" d="m56.85,36.67c-5.17.04-9.33,3.96-9.33,3.96,0,0,4.22,3.86,9.39,3.82s9.33-3.96,9.33-3.96c0,0-4.22-3.86-9.39-3.82Z"/>
  <path class="cls-1" d="m50.15,43.47c-5.17.04-9.33,3.96-9.33,3.96,0,0,4.22,3.86,9.39,3.82,5.17-.04,9.33-3.96,9.33-3.96,0,0-4.22-3.86-9.39-3.82Z"/>
  <path class="cls-1" d="m43.46,50.26c-5.17.04-9.33,3.96-9.33,3.96,0,0,4.22,3.86,9.39,3.82,5.17-.04,9.33-3.96,9.33-3.96,0,0-4.22-3.86-9.39-3.82Z"/>
  <path class="cls-1" d="m36.77,57.06c-5.17.04-9.33,3.96-9.33,3.96,0,0,4.22,3.86,9.39,3.82,5.17-.04,9.33-3.96,9.33-3.96,0,0-4.22-3.86-9.39-3.82Z"/>
  <path class="cls-1" d="m54.22,28.28c-3.63,3.68-3.8,9.4-3.8,9.4,0,0,5.72-.25,9.34-3.94,3.63-3.68,3.8-9.4,3.8-9.4,0,0-5.72.25-9.34,3.94Z"/>
</svg>