<svg xmlns="http://www.w3.org/2000/svg" width="100%" height="100%" viewBox="0 0 1000 1000"> <defs> <filter id="blur" x="-500" y="-500" width="2000" height="2000" filterUnits="userSpaceOnUse"> <feGaussianBlur in="SourceGraphic" stdDeviation="50"/> </filter> } <radialGradient id="radial-gradient" cx="50%" cy="50%" r="50%" fx="47%" fy="56%"> <stop offset="0%" stop-color="#007370"/> <stop offset="100%" stop-color="rgba(0,32,115,0.2)"/> </radialGradient> <filter id="noise"> <feTurbulence type="fractalNoise" baseFrequency="30" result="noisy"/> <feColorMatrix type="saturate" values="0"/> <feBlend in="SourceGraphic" in2="noisy" mode="multiply"/> </filter> <clipPath id="shape"> <path fill="currentColor" d="M398.5,345.5Q360,441,259.5,424.5Q159,408,83,329Q7,250,67,144Q127,38,240,55Q353,72,395,161Q437,250,398.5,345.5Z"/> </clipPath> </defs> <rect x="0" y="0" width="100%" height="100%" fill="#d6e5e3"/> <g> <g filter="url(#blur)"> <g transform="translate(262.3625178967078, 269.72955422314055)" opacity="1"> <svg xmlns="http://www.w3.org/2000/svg" width="500" height="500" viewBox="0 0 500 500"> <path fill="url(#radial-gradient)" d="M398.5,345.5Q360,441,259.5,424.5Q159,408,83,329Q7,250,67,144Q127,38,240,55Q353,72,395,161Q437,250,398.5,345.5Z"/> </svg> </g> </g> </g>  </svg>