<?xml version="1.0" encoding="utf-8"?>
<!-- Generator: Adobe Illustrator 27.4.0, SVG Export Plug-In . SVG Version: 6.00 Build 0)  -->
<svg version="1.1" id="Komponente_2_22" xmlns="http://www.w3.org/2000/svg" xmlns:xlink="http://www.w3.org/1999/xlink" x="0px"
	 y="0px" viewBox="0 0 303.2 181.2" style="enable-background:new 0 0 303.2 181.2;" xml:space="preserve">
<style type="text/css">
	.st0{clip-path:url(#SVGID_00000019647546209103748780000007450039975471345806_);}
</style>
<g>
	<defs>
		<rect id="SVGID_1_" x="46.5" width="303.2" height="181.2"/>
	</defs>
	<clipPath id="SVGID_00000071555433646624977680000008869970334663647631_">
		<use xlink:href="#SVGID_1_"  style="overflow:visible;"/>
	</clipPath>
	<g id="Gruppe_1" style="clip-path:url(#SVGID_00000071555433646624977680000008869970334663647631_);">
		<path id="Pfad_17" d="M46.5,16.1h39.7v14.4H73.6v55.2H59V30.5H46.5V16.1z"/>
		<path id="Pfad_18" d="M94.1,0h26l11.6,79.7h-16.6l-1.6-13.9h-12.8l-1.6,13.9H82.5L94.1,0z M111.4,51l-4.3-34.3L102.8,51H111.4z"/>
		<path id="Pfad_19" d="M150.5,66.5c0,3.7,1.7,6.7,5.9,6.7c4.2,0,5.9-2.6,5.9-6c0-2.8,0-5.8-7.3-9c-12.2-5.4-18.4-10.1-18.4-23.5
			s7.9-19.9,19.9-19.9c12,0,19.9,7.2,19.9,20.5v3.9h-14v-3.9c0-3.4-1.2-6.8-5.9-6.8c-4.7,0-5.9,3.1-5.9,6.2s0.9,5.4,8.5,8.8
			c9.6,4.4,17.2,9,17.2,23.6c0,12.1-5.5,19.9-19.9,19.9s-19.9-7.4-19.9-20.5v-5.8h14V66.5z"/>
		<path id="Pfad_20" d="M173.4,0h45.5v16.5h-14.4v63.3h-16.7V16.5h-14.4V0z"/>
		<path id="Pfad_21" d="M210.8,22.7h14.8l6.9,24.5l6.9-24.5h14.8l-14.4,46.5v23.1h-14.6V69.3L210.8,22.7z"/>
		<path id="Pfad_22" d="M84.7,158.7V89h18.4c16.3,0,21.3,11.3,21.3,21.9s-5,21.9-21.3,21.9h-4.3v25.9L84.7,158.7z M98.8,118.8h3.9
			c6.5,0,7.5-5,7.5-7.9c0-2.4-1-7.9-7.5-7.9h-3.9V118.8z"/>
		<path id="Pfad_23" d="M129.1,104.6h16.3v60.6h27.4v16h-43.7V104.6z"/>
		<path id="Pfad_24" d="M161.1,91.9h22.7l10.1,69.6h-14.5l-1.4-12.1h-11.1l-1.4,12.1H151L161.1,91.9z M176.2,136.4l-3.7-30l-3.7,30
			H176.2z"/>
		<path id="Pfad_25" d="M213.2,98.1l12.3,38.3V98.1h15.6v76.6h-15.8L213,136.4v38.3h-15.6V98.1H213.2z"/>
	</g>
</g>
</svg>
