<svg id="Komponente_2_22" data-name="Komponente 2 – 22" xmlns="http://www.w3.org/2000/svg" xmlns:xlink="http://www.w3.org/1999/xlink" width="303.172" height="181.208" viewBox="0 0 303.172 181.208">
  <defs>
    <clipPath id="clip-path">
      <rect id="Rechteck_1" data-name="Rechteck 1" width="303.172" height="181.208" fill="none"/>
    </clipPath>
  </defs>
  <g id="Gruppe_1" data-name="Gruppe 1" clip-path="url(#clip-path)">
    <path id="Pfad_1" data-name="Pfad 1" d="M225.6,170c-6.409,3.1-12.619-2.054-18.518-2.493-5.9-6.188-11.487-4.134-16.653-7.032-5.165-4.471-9.909-9.256-14.119-10.9-4.209-1.7-7.884-8.49-10.913-14.1-1.516-2.581-2.868-4.705-4.047-7.2a39.408,39.408,0,0,1-2.993-9.434c-.813-5.671-1.437-10.994-1.858-12.167-.42,1.033-.638-4.074-.638-6.332A101.734,101.734,0,0,1,156.5,89.86c.421-6.591,1.045-8.067,1.858-8.024.813-3.282,1.816-7.58,2.993-10.957,1.178-.386,2.531-5.92,4.047-5.678,1.514-.866,3.191-2.372,5.014-5.985,1.824-.631,3.795-5.416,5.9-8.118,2.1-.811,4.343-3.714,6.7-5.927,2.358-3.323,4.835-4.113,7.418-4.975,1.722.785,3.491-4.077,5.3-2.807q2.718-1.292,5.559-2.352a55.192,55.192,0,0,1,11.79-3.241c4.062-4.2,8.247-1.595,12.519-1.125,6.409,2.622,12.619,1.544,18.518,2.493,5.9-1.127,11.487,2.917,16.653,7.032,5.165-1.427,9.908,4.221,14.118,10.9,2.1,1.235,4.076,1.65,5.9,6.043,1.824,6.487,3.5,9.966,5.015,8.06,1.514-3.247,2.868,4.306,4.046,8.044,1.178,6.83,2.18,3.132,2.994,8.591.813,6.454,1.437,7.866,1.857,9.058.421-5.407.639,13.334.639,9.44,0-1.648-.217,6.33-.639,6.726-.21-1.381-.472,8.519-.781,3.753-.31-1.3-.669,3.125-1.075,8.02-.814,3.9-1.816,8.289-2.994,8.892-1.177,4.384-2.531,6.085-4.046,7.743-1.514,5.1-3.191,7.066-5.015,8.921s-3.795,3.087-5.9,5.182c-4.209.368-8.953,6.853-14.118,10.9-5.166,6.305-10.755,5.742-16.653,7.032-2.95.812-5.977,1.99-9.068,1.856-3.091-.936-6.246.7-9.45.637" transform="translate(7.836 1.447)" fill="#006837"/>
    <path id="Pfad_2" data-name="Pfad 2" d="M225.39,165.423a65.348,65.348,0,1,1,65.419-65.348,65.458,65.458,0,0,1-65.419,65.348" transform="translate(8.042 1.706)" fill="#009245"/>
    <path id="Pfad_3" data-name="Pfad 3" d="M286.283,99.873a61.1,61.1,0,1,1-61.1-61.033,61.067,61.067,0,0,1,61.1,61.033" transform="translate(8.249 1.908)" fill="#39b54a"/>
    <path id="Pfad_4" data-name="Pfad 4" d="M170,98.066c-.111-10.209,6.544-31.288,14.337-36.723s27.5,24.164,31.1,25.853-16.323-23.8-18.235-27.1-7.9-12.669,16.985-15.276,39.556,3.892,41.762,7.638S233.341,87.71,233.782,88.811s15.772-19.279,26.249-27.762S282.2,89.8,281.758,93.109s2.317,9.584-14.889,8.813-31.874-.551-29.557.991,34.851,4.407,40.034,7.161,0,14.542-5.736,22.695-10.476,10.907-16.322,4.076-20.4-27.1-21.506-25.228,15.331,17.517,19.521,30.737-13.234,11.568-18.639,12.008-31.983,4.076-27.792-7.272,16.874-36.245,13.565-35.364-19.631,29.085-24.815,30.958-6.727,1.873-13.234-7.492-18.307-24.237-6.618-26.771,41.579-6.721,36.506-7.161-42.2,3.526-42.278-3.195" transform="translate(8.546 2.172)" fill="#8cc63f"/>
    <path id="Pfad_5" data-name="Pfad 5" d="M219.864,89.094s-5-12.339-1.14-12.486,3.529,6.721,1.14,12.669" transform="translate(10.922 3.764)" fill="#e8e889"/>
    <path id="Pfad_6" data-name="Pfad 6" d="M224.888,88.619s-2.226-13.125,1.575-12.438,2,7.321-1.616,12.618" transform="translate(11.273 3.741)" fill="#e8e889"/>
    <path id="Pfad_7" data-name="Pfad 7" d="M232.671,91.878s9.037-9.783,10.817-6.359-4.577,6.057-10.983,6.437" transform="translate(11.689 4.166)" fill="#e8e889"/>
    <path id="Pfad_8" data-name="Pfad 8" d="M233.567,93.855s12.459-4.722,12.521-.863-6.8,3.377-12.705.859" transform="translate(11.733 4.494)" fill="#e8e889"/>
    <path id="Pfad_9" data-name="Pfad 9" d="M232.671,102.554s13.3.789,11.778,4.334-7.591.3-11.944-4.413" transform="translate(11.689 5.035)" fill="#e8e889"/>
    <path id="Pfad_10" data-name="Pfad 10" d="M232.4,104.884s12.193,5.372,9.526,8.163-7.219-2.365-9.654-8.3" transform="translate(11.677 5.147)" fill="#e8e889"/>
    <path id="Pfad_11" data-name="Pfad 11" d="M225.513,108.164s7.039,11.3,3.261,12.107-4.629-6.018-3.293-12.287" transform="translate(11.306 5.305)" fill="#e8e889"/>
    <path id="Pfad_12" data-name="Pfad 12" d="M222.38,108.764s3.28,12.9-.564,12.525-2.586-7.135.589-12.706" transform="translate(11.032 5.335)" fill="#e8e889"/>
    <path id="Pfad_13" data-name="Pfad 13" d="M215.789,105.152s-9.106,9.719-10.862,6.282,4.62-6.024,11.029-6.36" transform="translate(10.288 5.162)" fill="#e8e889"/>
    <path id="Pfad_14" data-name="Pfad 14" d="M214.347,102.589s-11.573,6.6-12.235,2.8,6.2-4.393,12.416-2.822" transform="translate(10.159 4.999)" fill="#e8e889"/>
    <path id="Pfad_15" data-name="Pfad 15" d="M213.321,92.608s-12.458-4.724-9.943-7.651,7.334,1.982,10.077,7.776" transform="translate(10.208 4.131)" fill="#e8e889"/>
    <path id="Pfad_16" data-name="Pfad 16" d="M212.641,94.784s-13.3.741-12.2-2.956,7.506-1.166,12.371,3.016" transform="translate(10.074 4.424)" fill="#e8e889"/>
    <path id="Pfad_17" data-name="Pfad 17" d="M0,15.37H39.71V29.739H27.149V84.989H12.561V29.739H0Z" transform="translate(0 0.755)" fill="#d9e021"/>
    <path id="Pfad_18" data-name="Pfad 18" d="M45.889,0H71.873l11.6,79.718H66.885l-1.625-13.9H52.5l-1.625,13.9H34.29ZM63.174,50.983l-4.292-34.3-4.291,34.3Z" transform="translate(1.724)" fill="#d9e021"/>
    <path id="Pfad_19" data-name="Pfad 19" d="M99.751,65.824c0,3.743,1.722,6.678,5.876,6.678s5.874-2.631,5.874-5.968c0-2.834,0-5.768-7.293-9.007-12.156-5.363-18.436-10.12-18.436-23.475s7.9-19.935,19.855-19.935,19.854,7.184,19.854,20.541V38.6H111.5V34.658c0-3.44-1.215-6.779-5.874-6.779s-5.876,3.136-5.876,6.173.912,5.362,8.51,8.8c9.623,4.352,17.22,9.006,17.22,23.577,0,12.143-5.471,19.936-19.854,19.936S85.772,78.98,85.772,65.824V60.056H99.751Z" transform="translate(4.312 0.694)" fill="#d9e021"/>
    <path id="Pfad_20" data-name="Pfad 20" d="M120.825,0H166.3V16.454H151.912V79.719h-16.7V16.454H120.825Z" transform="translate(6.074)" fill="#d9e021"/>
    <path id="Pfad_21" data-name="Pfad 21" d="M156.439,21.647h14.79l6.889,24.488,6.888-24.488H199.8L185.411,68.194V91.265H170.824V68.194Z" transform="translate(7.865 1.064)" fill="#d9e021"/>
    <path id="Pfad_22" data-name="Pfad 22" d="M36.365,154.5V84.88H54.8c16.309,0,21.273,11.333,21.273,21.857S71.11,128.593,54.8,128.593H50.547v25.9Zm14.182-39.868H54.4c6.483,0,7.5-4.958,7.5-7.893,0-2.429-1.014-7.893-7.5-7.893H50.547Z" transform="translate(1.828 4.17)" fill="#d9e021"/>
    <path id="Pfad_23" data-name="Pfad 23" d="M78.7,99.675h16.28v60.6h27.432v16.04H78.7Z" transform="translate(3.957 4.897)" fill="#d9e021"/>
    <path id="Pfad_24" data-name="Pfad 24" d="M109.644,87.611h22.691l10.13,69.618H127.98l-1.419-12.143H115.418L114,157.229H99.514Zm15.095,44.523-3.748-29.952-3.748,29.952Z" transform="translate(5.003 4.304)" fill="#d9e021"/>
    <path id="Pfad_25" data-name="Pfad 25" d="M159.54,93.526l12.266,38.317V93.526h15.611v76.636H171.584l-12.267-38.318v38.318H143.705V93.526Z" transform="translate(7.225 4.595)" fill="#d9e021"/>
  </g>
</svg>