<?xml version="1.0" encoding="utf-8"?>
<!-- Generator: Adobe Illustrator 27.4.0, SVG Export Plug-In . SVG Version: 6.00 Build 0)  -->
<svg version="1.1" id="Layer_1" xmlns="http://www.w3.org/2000/svg" xmlns:xlink="http://www.w3.org/1999/xlink" x="0px" y="0px"
	 viewBox="0 0 3500 2000" style="enable-background:new 0 0 3500 2000;" xml:space="preserve">
<style type="text/css">
	.st0{fill:#B75742;}
	.st1{fill:#F7A491;}
	.st2{fill:#355389;}
	.st3{fill:#F47458;}
	.st4{fill:#F7CC7F;}
	.st5{fill:#184655;}
	.st6{fill:#9BC1F9;}
	.st7{fill:#3C8F7C;}
	.st8{fill:#50BFA5;}
	.st9{fill:#466EB6;}
	.st10{fill:#86B1F2;}
	.st11{fill:#FAE0B2;}
	.st12{fill:#F48C7F;}
	.st13{fill:#13375B;}
	.st14{fill:#F8A492;}
	.st15{fill:#FFFC97;}
	.st16{fill:#FFFFE9;}
	.st17{fill:#F47257;}
	.st18{fill:#899DAD;}
	.st19{fill:#EBECED;}
	.st20{fill:#96D9C9;}
</style>
<g>
	<g>
		<path class="st0" d="M2856.01,1029.58c5.22-23.58,19.86-50.33,46.44-52.97c32.93-3.28,65.97,33.75,82.51,58.25
			c11.76,17.42,18.94,38.94,15,59.59c-6.17,32.32-40.51,55.12-73.3,52.43c-26.06-2.13-49.33-18.33-63.58-39.77
			C2848.86,1085.74,2850.62,1053.97,2856.01,1029.58z"/>
		<path class="st1" d="M2951.41,1142.5l26.14-13.24c0,0,27.65,67.4,31.07,87.08c1.24,7.15-3.79,80.74-5.87,95.58
			c0.7,28.66-9.47,35.19-14.93,44.03c0,0-11.66,6.02-12.13,5.14c-0.58-1.07,0.56-2.55,2.36-3.81c0.7-0.48,1.63-0.72,2.39-1.21
			c0.73-0.49,1.44-1.41,2.09-1.85c1.55-1.06,2.68-1.42,2.68-1.42s0.75-1.88,1.9-3.85c0.83-1.43,2.11-3.01,2.29-3.42
			c1.04-2.49-0.17-1.63-0.17-1.63c-1.19,1.95-7.77,9.89-7.77,9.89s-12.53,9.7-12.71,8.7c-0.07-0.47,0.27-2.13,2.29-4.71
			c0.54-0.69,2.05-1.56,2.8-2.39c0.57-0.63,1.09-1.51,1.82-2.23c0.77-0.79,1.9-1.27,2.68-2.08c1.19-1.21,1.66-2.83,2.41-3.83
			c3.06-3.98,4.17-7.05,2.89-5.78c-1.9,1.91-4.76,9.66-13.47,15.85c-1.48,1.01-2.47,1.38-2.62,0.76c-0.12-0.48-0.06-2.28,1.04-3.88
			c0.76-1.09,2.32-1.73,3.34-3.12c0.59-0.81,0.93-1.91,1.54-2.78c2.41-3.47,3.49-1.66,5.74-15.19c-1.25,0.55-2.36,1.4-2.89,1.84
			c-0.96,0.82-5.53,8.68-7.18,6.97c-1.64-1.72,7.8-19.85,7.8-19.85l7.87-10.28c-1.77-69.83-3.91-86.55-4.36-87.12L2951.41,1142.5z"
			/>
		<path class="st1" d="M2904.83,1370.19l-16.81,154.11c0,0,8.21,32.59,7.22,41.85c-0.99,9.26-18.27,130.71-18.27,130.71l0.78,6.67
			l0.42,19.76l-64.59,0.5c0,0,13.61-6.26,32.66-18.62c1.41-0.92,6.01-3.94,6.8-9.75c5.08-37.44-6.33-162.2-6.33-162.2l-7.92-162.54
			L2904.83,1370.19z"/>
		<path class="st0" d="M2883.33,1684.07l-34.79-2.12c0,0-2.04-139.37-6.79-169.63c-4.75-30.27-7.52-131.36-2.71-170.34
			c4.14-33.54,19.5-87.4,19.5-87.4l53.83,11.38l10.87,2.82l-29.2,254.1c0,0,2.7,17.16,4.06,34.76
			C2899.46,1575.23,2883.33,1684.07,2883.33,1684.07z"/>
		<path class="st1" d="M2955.73,1398.56c3.62,0.94,9.2,133.2,12.2,139.06c19.02,37.16,23.54,150.15,23.54,150.15l7.85,15.82
			l-1.8,15.25c0,0-14.19,8.35-24.15,2.72l1.54-15.27l1.18-20.4l-47.98-140.77l-26.25-143.58L2955.73,1398.56z"/>
		<path class="st2" d="M2878.48,1728.37h-66.68c-2.47-0.23-3.07-2.3-2.21-3.57c1.76-2.62,14.77-8.92,23.51-13.1
			c15.34,1.66,42.22-4.62,44.64-8.27C2879.14,1710.73,2879.85,1728.05,2878.48,1728.37z"/>
		<path class="st2" d="M2999.27,1703.56c0,0-5.46,11.8-11.87,11.3c-6.4-0.5-12.47-8.65-12.47-8.65s-2.4,11.45-1.28,17.76
			c1.12,6.31,10.25,12.78,16.49,9.96C2996.39,1731.11,3004.88,1716.5,2999.27,1703.56z"/>
		<path class="st3" d="M2927.43,1237.9c0,0,1.48,12.31,3.06,14.78c4.22,6.63,15.84,27.48,22.32,43.73
			c5.84,14.65,7.72,26.66,9.97,40.21c7.01,42.23,4.75,171.04,4.75,171.04s12.56,27.8,17.65,64.76c5.09,36.95,8.84,98.1,8.84,98.1
			l-25.97,6.86l-52.81-164.09c0,0-25.11-143.68-33.26-162.69c-8.15-19-23.48-96.16-23.48-96.16L2927.43,1237.9z"/>
		<path class="st3" d="M2967.39,1472.51c-0.01,0.02-0.02,0.02-0.02,0L2967.39,1472.51z"/>
		<path class="st1" d="M2701.2,966.97c0.59-5.48,15.74-9.89,20.19-11.21c4.45-1.31,1.57-0.25,6.51,1.34
			c0.6,0.19,15.57,23.01,15.57,23.01c4.72,7.43,48.01,73.59,62.59,83.63c14.89,10.26,74.25,28.15,74.25,28.15l2.71,37.89
			c0,0-81.94-28.09-99.48-43.14c-14.52-12.47-43.48-72.51-57.28-94.64l-0.02,0.01C2722.65,987.38,2700.61,972.45,2701.2,966.97z"/>
		<path class="st4" d="M2910.15,1080.83c36.47,0.52,50.49-5.11,78.77,61.42c4.92,11.57,7.73,19.93,7.81,20.13
			c0,0-24.89,11.18-33.8,14.77c0,0-8.76-26.8-12.37-23.7c-8.15,7.02-21.9,87.65-19.86,98.66c0,0-41.43,8.92-72.25,2.46
			c0,0-4.65-79.98-6.18-83.57c-1.53-3.59-10.86-19.3-3.22-37.08c1.36-3.18,4.76-12.68,2.38-13.33
			c-18.67-5.1-46.85-19.14-46.85-19.14l13.33-33.82c0,0,41.25,9.4,55.26,11.17c12.2,1.54,24.52,1.86,36.8,2.02
			C2910.02,1080.82,2910.09,1080.82,2910.15,1080.83z"/>
		<path class="st1" d="M2908.74,1051.92c0,0,1.01,23.08,3.95,31.57s-6.16,39.32-24.56,43.81s-0.32-36.61-0.63-45.55
			c-0.3-8.94-6.2-35.43-6.2-35.43L2908.74,1051.92z"/>
		<path class="st3" d="M2884.08,1059.66c-1.44-7.29-2.79-13.33-2.79-13.33l27.45,5.6c0,0,0.21,4.72,0.7,10.67
			C2899.16,1067.35,2890.37,1065.23,2884.08,1059.66z"/>
		<path class="st1" d="M2903.21,988.89c0,0,10.78,3,16.99,13.61c6.21,10.61,9.32,41.08-13.56,54.09s-39.12-7.83-38.43-27.32
			C2868.91,1009.78,2874.39,984,2903.21,988.89z"/>
		<path class="st1" d="M2863.45,1022.92c1.66,4.79,5.26,7.9,8.06,6.93c2.79-0.96,3.71-5.63,2.06-10.43
			c-1.66-4.79-5.26-7.9-8.05-6.93C2862.72,1013.46,2861.79,1018.12,2863.45,1022.92z"/>
		<path class="st0" d="M2899.97,988.09c0,0,12.33,31.87,24.4,35.27c12.07,3.4,11.11,19.07,11.11,19.07s1.54-36.24-9.48-45.12
			C2914.98,988.42,2899.97,988.09,2899.97,988.09z"/>
		<path class="st1" d="M2919.2,1029.59c-1.86,4.98-0.64,10.04,2.73,11.3c3.37,1.26,7.61-1.76,9.47-6.74
			c1.86-4.98,0.64-10.04-2.73-11.3C2925.3,1021.59,2921.06,1024.61,2919.2,1029.59z"/>
		<path class="st5" d="M2634.07,866.15l92.28,110.73l0.08,0.1c1.72,2.07,5.01,2.32,7.34,0.57c2.33-1.75,2.83-4.85,1.11-6.92
			c-0.04-0.05-0.09-0.11-0.13-0.15l-97.46-106.78l-0.03-0.04c-0.7-0.76-1.96-0.81-2.83-0.11
			C2633.59,864.24,2633.44,865.39,2634.07,866.15z"/>
		<path class="st3" d="M2711.95,958.93l13.92,17.63l0.09,0.11c1.77,2.23,4.92,2.72,7.26,1.22c-0.32,0.5-0.73,0.96-1.22,1.34
			c-2.38,1.88-5.82,1.47-7.7-0.9l-0.09-0.11l-14.49-18.35C2710.45,959.53,2711.2,959.22,2711.95,958.93z"/>
		<path class="st1" d="M2712.44,951.08c0,0-14.88,13.19-11.13,18.7c4.13,6.1,9.42,9.38,9.7,7.55c0.28-1.83-3.19-10.72-3.19-10.72
			s4.71-5.96,5.63-9.18C2714.37,954.21,2715.06,950.89,2712.44,951.08z"/>
		<path class="st1" d="M2719.4,958.12c0,0,9.36,4.03,9.89,2.87c0.53-1.16-1.39-3.89-1.39-3.89s-12.6-9.57-13.05-6.13
			C2714.38,954.41,2719.4,958.12,2719.4,958.12z"/>
		<path class="st1" d="M2702.85,955.77c0,0,8.09-9.17,8.4-6.11c0.38,3.69-6.37,14.39-9.68,14.39
			C2698.27,964.04,2698.27,960.86,2702.85,955.77z"/>
	</g>
	<path class="st1" d="M2010.1,690.4c-8.7-3.54-12.14-9.41-21.49-11.54c-0.64,8.58-18.15,56.68-19.68,59.11
		c-6.21,9.83-16.07,12.98-16.07,12.98s33.75,46.22,37.16,42.41c3.42-3.81-1.07-4.14-0.8-19.01c0.02-1.32-5.48-19.66,4.3-42.12
		C2001.91,712.99,2007.4,701.74,2010.1,690.4z"/>
	<path class="st2" d="M1951.41,751.57l38.95,47.12c1.6,1.61,3.36,0.87,3.73-0.45c0.76-2.72-2.54-15.46-4.8-24
		c-10.09-9.9-21.38-32.58-20.3-36.35C1963.18,741.03,1950.82,750.42,1951.41,751.57z"/>
	<path class="st0" d="M1914.99,479.8l32.19,51.65c0,0,86.23,38.17,101.87,66.87c15.63,28.7-55.31,140.76-55.31,140.76
		s-8.48-1.7-14.73-4.08c-4.76-1.81-10.2-6.35-10.2-6.35l31.73-110.84l-102.22-45.82L1914.99,479.8z"/>
	<g>
		<path class="st0" d="M1191.44,1153.42l-94.56-201.15c-55.55,26.11-79.41,92.31-53.29,147.86
			C1069.69,1155.67,1135.89,1179.53,1191.44,1153.42z"/>
		<g>
			<path class="st3" d="M1109.32,1132.2l19.8-69.2l-62.28,29.28C1075.99,1110.23,1090.85,1124.17,1109.32,1132.2z"/>
			<path class="st3" d="M1140.09,1069.35l-19.16,66.96c16.53,4.59,33.95,4.21,50.13-1.08L1140.09,1069.35z"/>
			<path class="st3" d="M1125.74,1051.01c-22.67-10.31-42.65-19.1-63.35-26.72c-6.51,18.49-6.59,38.21-0.25,56.63L1125.74,1051.01z"
				/>
			<path class="st3" d="M1067.27,1012.98c19.02,7.04,37.38,14.99,57.69,24.17l-27.08-57.6
				C1084.96,987.74,1074.35,999.32,1067.27,1012.98z"/>
		</g>
		<path class="st4" d="M1140.94,1103.7c2.59,0.4,5.06-1.72,5.52-4.72c0.46-3.01-1.64-11.59-4.25-11.79s-4.66,7.35-5.12,10.35
			C1136.63,1100.54,1138.35,1103.3,1140.94,1103.7z"/>
		<path class="st4" d="M1156.67,1130.37c2.5-0.77,3.8-3.75,2.91-6.66c-0.89-2.91-6.52-9.72-8.96-8.76s-0.99,8.64-0.1,11.55
			C1151.42,1129.4,1154.17,1131.14,1156.67,1130.37z"/>
		<path class="st4" d="M1092.73,1121.88c2.33,1.19,5.34-0.03,6.73-2.74c1.39-2.71,2.11-11.51-0.3-12.53s-6.74,5.5-8.13,8.2
			C1089.65,1117.52,1090.41,1120.68,1092.73,1121.88z"/>
		<path class="st4" d="M1092.15,1096.4c1,2.42,4.09,3.43,6.9,2.27c2.81-1.17,9.06-7.41,7.88-9.75c-1.18-2.33-8.7-0.17-11.51,1
			C1092.62,1091.08,1091.15,1093.98,1092.15,1096.4z"/>
		<path class="st4" d="M1071.06,1065.34c1,2.42,4.09,3.43,6.9,2.27c2.81-1.17,9.06-7.41,7.88-9.75c-1.18-2.33-8.7-0.17-11.51,1
			C1071.52,1060.02,1070.05,1062.92,1071.06,1065.34z"/>
		<path class="st4" d="M1092.34,1052.27c-0.55,2.56,1.41,5.15,4.39,5.79c2.97,0.64,11.66-0.94,12.02-3.54
			c0.36-2.59-7.06-5.09-10.03-5.73C1095.75,1048.16,1092.89,1049.71,1092.34,1052.27z"/>
		<path class="st4" d="M1081.5,1007.94c-1.48,2.16-0.66,5.3,1.85,7.02c2.5,1.72,11.14,3.57,12.46,1.31
			c1.32-2.26-4.59-7.39-7.09-9.12C1086.22,1005.43,1082.98,1005.78,1081.5,1007.94z"/>
		<path class="st4" d="M1100.24,1009.16c-2.31,1.24-3.01,4.41-1.57,7.09c1.44,2.68,8.27,8.28,10.48,6.88
			c2.21-1.4-0.69-8.67-2.13-11.35C1105.58,1009.1,1102.55,1007.93,1100.24,1009.16z"/>
	</g>
	<ellipse class="st6" cx="1733.37" cy="1519.93" rx="997.38" ry="118.32"/>
	<path class="st7" d="M1914.49,1487.25c0,0,126.47-78.68,141.93-106.27c15.46-27.59-3.63-34.25-5.57-48.28
		c-2.46-17.83,1.67-23.94,20.74-37.61c19.07-13.67,55.58-24.09,66.57-50.12c10.99-26.03-11.45-104.62-11.45-104.62l-18.73-8
		l19.26-12.04c0,0,25.67-139.98,8.39-164.31c0,0-36.99,31-59.57,66.92c-22.59,35.92-37.89,36.44-37.89,36.44l18.13,17.68
		l-20.4-12.24c0,0-31.94,36.67-32.6,74.28c-0.67,37.61-8.52,43.86-8.52,43.86l22.93,15.35l-27.46-6.76c0,0-16.23,34.32-34.94,47.25
		c-24.39,16.84-55.55,40.08-56.71,94.21C1897.42,1387.11,1914.49,1487.25,1914.49,1487.25z"/>
	<g>
		<path class="st8" d="M2047.81,1470.37c0,0,174.42-50.58,201.91-79.21c27.49-28.63,7.53-44.16,10.09-62.41
			c3.25-23.2,10.18-29.28,37.09-39.16c26.92-9.88,73.05-9.12,94.79-37.49c21.74-28.37,22.6-135.01,22.6-135.01l-36.73-15.6
			l44.23-9.24c0,0,72.91-137.32,61.13-174.24c0,0-62.08-2.91-100.74,33.44c-38.66,36.35-38.66,36.35-38.66,36.35l18.9,35.14
			l-29.88-23.12c0,0-47.95,22.37-61.65,69.1c-13.7,46.73-25,51.57-25,51.57l21.45,27.82l-29.68-18.8c0,0-20.95,45.62-56.95,45.84
			s-89.12,4.1-109.08,71.28C2051.7,1313.84,2047.81,1470.37,2047.81,1470.37z"/>
		<path class="st7" d="M2249.73,1391.16c27.49-28.63,7.53-44.16,10.09-62.41c3.25-23.2,10.18-29.28,37.09-39.16
			c26.92-9.88,73.05-9.12,94.79-37.49c21.74-28.37,22.6-135.01,22.6-135.01l-36.73-15.6l44.23-9.24c0,0,72.91-137.32,61.13-174.24
			c0,0-63.63,83.75-122.11,129.99c-58.48,46.24-5.44,91.12-59.84,144.16c-54.4,53.04-55.76,20.4-123.76,65.28
			c-68,44.88-129.42,212.92-129.42,212.92S2222.23,1419.79,2249.73,1391.16z"/>
	</g>
	<path class="st8" d="M2168.16,1587.23c0,0,212.59-28.83,247.4-48.42c34.81-19.6,11.82-31.82,16.04-45
		c5.36-16.75,14.06-20.86,47-26.82c32.94-5.96,88.83-6.26,116.71-25.92c27.89-19.67,40.35-92.03,40.35-92.03l-36.04-14.73
		l41.32-5.33c0,0-11.82-53.87,84.34-124.12c0,0-74.35-4.97-123.05,19.73c-48.7,24.7-48.7,24.7-48.7,24.7l20.49,26.47l-34.42-18.21
		c0,0-58.97,14.09-78.35,47.51c-19.38,33.41-33.25,36.42-33.25,36.42l24,21.25l-34.45-15.06c0,0-28.02,32.27-71.26,30.77
		s-107.27-1.11-135.45,46.91C2182.66,1473.38,2168.16,1587.23,2168.16,1587.23z"/>
	<path class="st9" d="M1097.74,1645.13c-0.03,0.3-0.05,0.61-0.05,0.91c0,43.24,283.38,78.29,632.95,78.29
		c349.57,0,632.95-35.05,632.95-78.29c0-0.3-0.02-0.61-0.05-0.91H1097.74z"/>
	<path class="st2" d="M825.81,1504.97c-0.04,0.75-0.07,1.5-0.07,2.25c0,106.39,406.36,192.64,907.62,192.64
		c501.27,0,907.62-86.25,907.62-192.64c0-0.75-0.03-1.5-0.07-2.25H825.81z"/>
	<path class="st9" d="M2561.96,1499.38c0,36.49-373.88,66.07-835.1,66.07c-271.42,0-512.6-10.25-665.13-26.11
		c-8.67-0.9-17.05-1.82-25.13-2.77c-72.78-8.43-121.5-18.27-138.31-28.9c-0.02-0.01-0.03-0.02-0.05-0.04
		c-4.26-2.7-6.46-5.45-6.46-8.25c0-7.32,15.05-14.36,42.84-20.94c21.28-5.04,50.03-9.81,85.2-14.23
		c147.84-18.56,409.23-30.89,707.04-30.89C2188.08,1433.31,2561.96,1462.89,2561.96,1499.38z"/>
	<g>
		<path class="st8" d="M1848.16,1511.01c0,0-53.08-70.81-46.4-95.44c6.67-24.63,21.47-22.38,29.75-28.95
			c10.52-8.36,3.73-19.2,1.35-38.33c-2.38-19.13,3.29-42.53,11.38-63.58c8.09-21.05,41.8-55.39,41.8-55.39l17.53,18.12l-7.35-29.51
			c0,0,47.85-82.18,69.15-85.14c0,0,18.12,37.06,10.65,70.62c-7.46,33.56-7.46,33.56-7.46,33.56l-16.98,8.94l16.48-2.69
			c0,0,9.47,43.31-9.8,64.5c-19.27,21.19-14.01,28.9-14.01,28.9l4.27,7.3c0,0-12.63,19.61-3.06,41.62
			c9.57,22.02-3.33,57.71-30.96,88.33C1886.86,1504.49,1848.16,1511.01,1848.16,1511.01z"/>
	</g>
	<path class="st5" d="M1935.39,1388.14c25.56,18.48,22.72,66.04-6.34,106.23c-29.06,40.19-73.34,57.79-98.89,39.31
		c-25.56-18.48-22.72-66.04,6.34-106.23C1865.56,1387.26,1909.83,1369.66,1935.39,1388.14z"/>
	<g>
		<g>
			<path class="st8" d="M1146.71,1598.3c0,0,33.46-229.44,12.89-289.31c-20.57-59.88-50.11-18.93-50.11-18.93
				s-17.85-127.4-52.46-138.7c-34.61-11.3-33.35,49.2-33.35,49.2s-66.97-126.41-91.37-111.26
				c-45.45,28.22,20.98,170.32,20.98,170.32s-37.25-48.62-54.53-18.15c-26.06,45.95,77.94,125.09,77.94,125.09L1146.71,1598.3z"/>
		</g>
		<path class="st7" d="M929.84,1377.24c-14.58-37.27,20.32-23.67,20.32-23.67s-77.46-66.15-51.4-112.1
			c17.28-30.47,54.52,18.15,54.52,18.15s-66.43-142.1-20.98-170.32l213.05,506.45C1119.4,1577.7,952.42,1434.93,929.84,1377.24z"/>
	</g>
	<g>
		<path class="st10" d="M2093.2,1256.09c-20.53-9.96-29.85-34.37-21.22-55.58c22.63-55.58,34.11-114.67,34.11-175.6
			c0-285.65-255.55-507.14-541.94-461.05c-38.01,6.12-64.07-35.99-43.06-67.18c6.66-9.89,17.22-16.65,28.97-18.55
			c29.42-4.75,59.41-7.16,89.14-7.16c72.51,0,143.18,13.89,210.02,41.29c68.08,27.9,129.15,68.61,181.53,120.98
			c159.04,159.04,204.65,395.71,121.71,600C2142.85,1256.88,2115.61,1266.96,2093.2,1256.09z"/>
	</g>
	<g>
		<path class="st9" d="M1510.16,1207.45c-115.6-74.03-169.3-213.32-137.66-344.14c5.67-23.44,30.31-36.34,52.66-28.3
			c19.34,6.96,30.29,27.27,25.47,47.25c-17.32,71.73-1.06,146.14,44.61,204.15c83.03,105.46,233.04,120.76,335.08,41
			c7.08-5.53,15.91-8.58,24.87-8.58c18.27,0,29.02,12.46,29.23,12.61c0.18,0.3,12.14,11.68,10.86,30.35
			c-0.77,11.32-6.33,21.82-15.24,28.81C1770.68,1276.24,1622.68,1279.5,1510.16,1207.45z"/>
	</g>
	<g>
		<path class="st4" d="M2518.05,1465.7c0,0-15.77,94.63-139.79,81.06c-126.6-13.85-167.56,29.57-275.11,24.88
			c-86.66-3.77-198.76-121.86-154.82-268.54C1992.27,1156.43,2498.61,1104.3,2518.05,1465.7z"/>
		<path class="st3" d="M2517.84,1459.38c0.73,7.2-0.23,14.49-2.7,21.3c-9.32,25.64-41,82.23-137.5,71.67
			c-126.6-13.85-167.05,24.86-274.52,19.48c-86.6-4.33-199.83-112.02-157.52-243.79C1987.51,1197.5,2485.74,1143.53,2517.84,1459.38
			z"/>
		<path class="st11" d="M1945.6,1328.03c44.18-120.27,487.58-169.54,562.69,87.2c4.24,14.42,7.35,29.19,9.55,44.15
			c-6.42-93.29-56.88-167.91-154.6-209.26c-143.84-59.87-326.97-22.87-392.94,40.15C1959.15,1300.6,1949.89,1313.47,1945.6,1328.03z
			"/>
		<path class="st12" d="M2048.03,1521.8c0,0-79.64-39.05-82.46-108.02c-2.82-68.97,58.03-127.78,109.57-139.7
			c51.54-11.92-10.14,14.86-32.12,101.87C2021.03,1462.96,2090.21,1523.22,2048.03,1521.8z"/>
		<path class="st12" d="M2458.75,1462.76c23.59-0.74,41.56-21.85,38.04-45.18c-2.87-19.05-14.34-43.24-45.08-70.36
			c-74.38-65.62-297.02-119.75-316.25-71.04s99.05,60.97,115.17,131.73C2263.12,1462.7,2398.34,1464.66,2458.75,1462.76z"/>
		<path class="st12" d="M2452.08,1491.08c13.74,2.79,20,18.96,11.6,30.18c-10.16,13.58-29.12,26.81-64.04,22.99
			c-67.17-7.35-143.48-1.29-204.85,6.37c-61.37,7.66-109.94,8.73-107.69-11.78c2.25-20.51,117.79-52.46,142.21-69.86
			C2252.33,1452.59,2395.6,1479.6,2452.08,1491.08z"/>
	</g>
	<g>
		<path class="st1" d="M1602.33,987.09l-15.2,46.01l-44.18-67.11l0.01-0.06c0,0-16.49-8.75-20.65-9.61
			c-3.71-0.77-15.64-2.1-17.55-0.14c-0.09-0.14-0.21-0.25-0.37-0.29c-1.58-0.43-4.59,4.87-5.02,6.16c-0.43,1.29,2.72,8.89,3.01,9.46
			c0.29,0.57-0.86,0.86-2.29,0.29c-1.43-0.57-5.88-5.88-5.88-5.88s-0.29-8.46-3.01-8.46c-2.72,0-0.43,10.61-0.43,10.61l2.58,3.58
			l-3.87-2.44c0,0-2.58-5.73-3.3-5.45c-0.72,0.29-1.72,3.15-0.29,6.16c1.43,3.01,4.59,6.31,4.59,6.31l5.88,3.15
			c0,0-6.88-0.72-8.89-2.29c-2.01-1.58-2.87,0.57-1.29,2.44c1.58,1.86,10.61,5.16,16.34,5.88c5.73,0.72,23.66,0.57,26.24,0.14
			c2.1-0.35,6.01-0.89,7.93,0.24c2.42,7.49,23.14,88.49,49.73,98.36c0,0,12.38-1.41,27.01-33.21c14.63-31.8,22.51-50.93,22.51-50.93
			L1602.33,987.09z M1519.46,969.23c-2.01,0.72-9.18,1-11.04,0.29c-1.86-0.72-4.59-8.03-4.59-8.03s0.89-2.15,1.1-3.79
			c2.06,2.32,10.97,1.46,12.95,2.78C1520.03,961.92,1521.47,968.51,1519.46,969.23z"/>
		<path class="st1" d="M1763.14,1000.03c0,0,7.88,19.14,22.51,50.93c14.63,31.8,27.02,33.21,27.02,33.21
			c26.59-9.87,47.31-90.88,49.73-98.36c1.92-1.13,5.83-0.59,7.93-0.24c2.58,0.43,20.5,0.57,26.24-0.14
			c5.74-0.72,14.77-4.01,16.34-5.88c1.58-1.86,0.72-4.01-1.29-2.44c-2.01,1.58-8.89,2.29-8.89,2.29l5.88-3.15
			c0,0,3.15-3.3,4.59-6.31c1.43-3.01,0.43-5.88-0.29-6.16c-0.72-0.29-3.3,5.45-3.3,5.45l-3.87,2.44l2.58-3.58
			c0,0,2.29-10.61-0.43-10.61c-2.72,0-3.01,8.46-3.01,8.46s-4.44,5.31-5.88,5.88c-1.43,0.57-2.58,0.29-2.29-0.29
			c0.29-0.57,3.44-8.17,3.01-9.46c-0.43-1.29-3.44-6.59-5.02-6.16c-0.17,0.05-0.28,0.15-0.37,0.29c-1.91-1.97-13.84-0.63-17.55,0.14
			c-4.16,0.86-20.65,9.61-20.65,9.61l0.01,0.06l-44.18,67.11l-15.2-46.01L1763.14,1000.03z M1881.22,960.48
			c1.98-1.32,10.89-0.46,12.95-2.78c0.21,1.64,1.1,3.79,1.1,3.79s-2.72,7.31-4.59,8.03c-1.86,0.72-9.03,0.43-11.04-0.29
			C1877.64,968.51,1879.07,961.92,1881.22,960.48z"/>
		<path class="st13" d="M1689.15,1117.23c0,0-19.97-10.78-47.31-19.4c-36.63-11.55-86.09-19.64-114.64,3.34
			c-16.79,13.51,154.13,34.68,154.13,34.68L1689.15,1117.23z"/>
		<path class="st13" d="M1874.3,1115.91c0,0-15.88-24.19-57.82-24.36c-16.33-0.07-39.02,2.79-59.72,6.51
			c-36.92,6.64-71.83,18.28-71.83,18.28l-3.6,19.53L1874.3,1115.91z"/>
		<polygon class="st13" points="1635.26,1145.8 1709.13,1183.37 1768.22,1137.78 1749.83,1095.6 1644.09,1100.41 		"/>
		<path class="st5" d="M1656.1,881.12c-8.05-17.14-7.94-49.26-1.07-68.01c5.55-15.17,18.37-23.64,34.71-25.14
			c18.95-1.73,30.95,2.19,45.53,12.08c15.17,10.29,33.33,21.48,50.9,26.21c22.91,6.17,46.58,10.83,67.45,22.12
			c13.77,7.45,26.51,18.4,31.81,33.13c7.58,21.09-1.93,45.06-16.91,61.73c-22.6,25.15-57.91,38.23-91.43,33.88
			c-26.09-3.39-50.52-17.25-67.34-37.4c-7.58-9.08-13.33-15.85-22.44-23.25C1675.65,906.99,1662.59,894.93,1656.1,881.12z"/>
		<path class="st3" d="M1755,905.2c0,0-29.04-3.41-57.7-4.82c-25.57-1.26-53.03,3-54.86,4.82c-7.29,7.29-10.97,70.91-7.18,82.73
			c3.8,11.82,21.95,42.63,18.15,62.47c-3.8,19.84-11.42,47.45-11.42,47.45s24.08,14.33,54.78,14.63c18.42,0.18,43.98-3.04,60-14.45
			c0,0-8.8-24.84-7.54-44.26c1.27-19.42,11.82-52.34,17.31-64.16C1772.02,977.8,1764.7,907.31,1755,905.2z"/>
		<path class="st3" d="M1653.83,910.69l-10.87-5.76c0,0-12.49,3.33-19.1,12.51c-5.43,7.54-30.39,76.4-30.39,76.4
			s32.92,13.51,43.48,13.09l16.88-42.21V910.69z"/>
		<path class="st3" d="M1743.32,910.69l11.87-5.48c0,0,7.46,1.65,16.87,12.97c5.94,7.15,31.62,75.67,31.62,75.67
			s-32.92,13.51-43.48,13.09l-16.88-42.21V910.69z"/>
		<path class="st1" d="M1710.78,863.85c0,0,1.5,28.46,3.15,37.55c1.71,9.39,3.46,52.45-16.07,57.22
			c-19.53,4.77-13.8-48.86-14.12-58.35c-0.32-9.49-4.21-42.09-4.21-42.09L1710.78,863.85z"/>
		<path class="st3" d="M1679.53,858.19c0,0,0.78,6.58,1.68,14.68c7.18,5.63,17.12,7.18,28.64,0.63c0.5-0.28,0.97-0.59,1.44-0.88
			c-0.32-5.1-0.52-8.76-0.52-8.76L1679.53,858.19z"/>
		<path class="st1" d="M1702.8,797.2c0,0,11.44,3.19,18.04,14.46c6.6,11.27,9.89,43.62-14.4,57.43
			c-24.29,13.81-41.54-8.31-40.8-29.01C1666.38,819.39,1672.2,792.01,1702.8,797.2z"/>
		<path class="st1" d="M1660.58,833.34c1.76,5.09,5.59,8.39,8.55,7.36c2.97-1.02,3.94-5.98,2.19-11.07
			c-1.76-5.09-5.59-8.39-8.55-7.36C1659.8,823.29,1658.82,828.25,1660.58,833.34z"/>
		<path class="st5" d="M1699.36,796.35c0,0,13.1,33.84,25.91,37.45c12.82,3.61,11.79,20.25,11.79,20.25s1.64-38.48-10.07-47.91
			C1715.29,796.71,1699.36,796.35,1699.36,796.35z"/>
		<path class="st1" d="M1719.78,840.42c-1.98,5.29-0.68,10.66,2.9,12c3.58,1.34,8.08-1.87,10.05-7.16c1.98-5.29,0.68-10.66-2.89-12
			C1726.25,831.93,1721.75,835.13,1719.78,840.42z"/>
		<path class="st1" d="M1572.45,1160.75c0,0-8.48-7.23-18.63-10.12c-10.15-2.88-10.08,4.6-12.9,16.08
			c-2.82,11.49-7.37,18.97-13.15,30.05c-5.78,11.08,0.62,36.66,3.75,37.05c7.55,0.93,11.34-15.21,18.74-28.91
			c7.4-13.7,27.44-17.99,33.27-18.51c1.05-0.09,27.08-3.76,61.88-2.89c-7.06-14.02-17.42-25.54-28.04-37.82
			C1590.79,1154.4,1572.45,1160.75,1572.45,1160.75z"/>
		<path class="st2" d="M1879.67,1128.77c-3.24-18.01-18.16-25.59-35.53-25.44c-40.04,0.34-153.32,24.18-220.84,44.09
			c3.77,14.53,0.52,23.91,5.06,38.87c71.21-2.56,204.9-11.33,243.88-32.9C1878.31,1150.02,1881.24,1137.48,1879.67,1128.77z"/>
		<path class="st1" d="M1831.62,1206.6c-4.86-11.52-9.81-19.15-11.68-30.82c-2.22-13.82-0.94-21.49-17.95-15.26
			c-9.77,3.58-20.5,3.44-30.06-0.67c-6.27-2.7-14.03-6.01-22.84-9.73c-5.9,11.91-9.75,24.56-10.91,38.1
			c20.97,2.53,36.24,4.91,37.02,5c3.37,0.41,26.06,5.61,32.32,19.86c6.26,14.25,8.87,31.91,16.32,30.34
			C1828.16,1242.5,1836.47,1218.11,1831.62,1206.6z"/>
		<path class="st10" d="M1567.61,1092.22c-15.73-0.71-43,1.79-47.38,19.5c-2.12,8.56-1.6,20.68,1.77,28.87
			c4.2,10.21,14.19,15.91,24.12,20.37c18.93,8.41,136.85,23,197.6,30.32c7.41-12.88,13.6-27.24,13.37-39.89
			C1698.75,1126.77,1597.75,1093.58,1567.61,1092.22z"/>
	</g>
	<g>
		<path class="st7" d="M1235.29,1497.17l-0.32-1.68c-0.75-3.58,0.59-7.39,3.47-9.75c0,0,0.08-0.01,0.06-0.09
			c2.55-1.98,4.04-5.03,3.91-8.25l0-1.66c-0.13-3.22-1.79-6.15-4.36-8.04c-0.08,0.01-0.09-0.06-0.17-0.05
			c-3.01-2.12-4.5-5.88-3.93-9.54l0.23-1.7c0.5-3.66,2.99-6.81,6.57-7.96l0.08-0.01c3.05-1.05,5.53-3.41,6.54-6.45l0.49-1.59
			c1.01-3.04,0.53-6.43-1.3-9.01c-0.09-0.06-0.09-0.06-0.1-0.14c-2.16-3.07-2.28-7.09-0.52-10.34l0.83-1.5
			c1.76-3.26,5.17-5.32,8.9-5.23c0.08-0.01,0.08-0.01,0.15-0.03c3.19,0.11,6.25-1.25,8.31-3.77l1.02-1.3
			c1.98-2.51,2.62-5.87,1.8-8.96c-0.01-0.08-0.01-0.08-0.03-0.15c-0.9-3.55,0.35-7.42,3.14-9.84l1.22-1.1
			c2.77-2.5,6.73-3.32,10.16-1.91c0.08-0.01,0.08-0.01,0.17,0.05c2.99,1.18,6.35,0.94,9.04-0.75l1.49-0.91
			c2.69-1.69,4.45-4.55,4.71-7.77c0.06-0.09,0.06-0.09,0.05-0.17c0.33-3.7,2.83-6.86,6.29-8.22l1.55-0.61
			c3.46-1.36,7.45-0.76,10.21,1.72l0.09,0.06c2.38,2.16,5.64,3.06,8.77,2.47l1.67-0.39c3.19-0.68,5.81-2.75,7.16-5.69l0.06-0.09
			c1.58-3.38,4.98-5.52,8.76-5.6l1.65-0.07c3.71-0.06,7.23,1.89,9.03,5.11c0.01,0.08,0.01,0.08,0.03,0.15
			c1.55,2.79,4.3,4.81,7.47,5.24l1.63,0.25c3.26,0.5,6.37-0.64,8.71-2.9l0.06-0.09c2.67-2.64,6.55-3.45,10.09-2.29l1.61,0.57
			c3.54,1.15,6.16,4.14,6.69,7.84c0.01,0.08,0.01,0.08,0.03,0.15c0.51,3.15,2.38,5.96,5.2,7.49l1.5,0.83
			c2.82,1.53,6.23,1.6,9.13,0.19l0.08-0.01c3.42-1.59,7.41-1,10.29,1.31l1.3,1.02c2.96,2.29,4.38,6.06,3.65,9.76l0.01,0.08
			c-0.68,3.13,0.11,6.47,2.29,8.83l1.11,1.29c2.11,2.37,5.26,3.6,8.45,3.32c0.08-0.01,0.15-0.03,0.15-0.03
			c3.74-0.31,7.27,1.64,9.2,4.76l0.9,1.41c1.94,3.2,2.06,7.21,0.06,10.43c0,0,0,0-0.06,0.09c-1.63,2.68-2.02,6.07-0.82,9.09
			l0.61,1.55c1.2,3.02,3.75,5.23,6.83,6.07c0.08-0.01,0.08-0.01,0.15-0.03c3.59,0.99,6.3,4.04,7.04,7.62l0.32,1.68
			c0.34,1.83,0.23,3.75-0.4,5.45l-18.64,3.5l-173.01,32.71l-27.96,5.25C1235.58,1498.3,1235.39,1497.71,1235.29,1497.17z"/>
		<path class="st8" d="M1263.8,1493.56c-8.29-44.16,21.69-86.88,67.01-95.39c45.17-8.48,88.5,20.33,96.92,64.39L1263.8,1493.56z"/>
		<path class="st4" d="M1402.23,1438.32c4.08-1.98,8.98-0.28,10.96,3.8c1.98,4.08,0.28,8.98-3.8,10.96
			c-4.08,1.98-20.58,4.94-22.56,0.86C1384.85,1449.87,1398.15,1440.3,1402.23,1438.32z"/>
		<path class="st4" d="M1367.49,1421.31c1-4.42,5.39-7.19,9.81-6.19c4.42,1,7.19,5.39,6.19,9.81c-1,4.42-9,19.16-13.42,18.16
			C1365.65,1442.09,1366.49,1425.73,1367.49,1421.31z"/>
		<path class="st4" d="M1326.38,1425.78c-1.82-4.15,0.06-8.99,4.21-10.81c4.15-1.82,8.99,0.06,10.81,4.21
			c1.82,4.15,4.16,20.76,0.01,22.58C1337.26,1443.58,1328.2,1429.93,1326.38,1425.78z"/>
		<path class="st4" d="M1296.44,1447.5c-3.35-3.05-3.59-8.24-0.54-11.59c3.05-3.35,8.24-3.59,11.59-0.54
			c3.35,3.05,12.22,17.28,9.17,20.63C1313.61,1459.35,1299.79,1450.55,1296.44,1447.5z"/>
		<path class="st4" d="M1281.07,1480.78c-4.42-0.98-7.22-5.36-6.24-9.78c0.98-4.42,5.36-7.22,9.78-6.24
			c4.42,0.98,19.21,8.9,18.23,13.32C1301.86,1482.51,1285.49,1481.76,1281.07,1480.78z"/>
	</g>
	<g>
		<path class="st3" d="M1462.49,1405.68c-284.89-116.65-380.86-471.19-195.98-715.73c15.56-20.58,44.98-22.99,63.75-6.3
			c0.2,0.26,13.01,10.27,14.83,28.66c1.08,10.94-1.97,21.8-8.6,30.57c-150.7,199.39-70.8,487.41,159.25,581.61
			c83.39,34.14,172.02,37.15,253.91,12.24c4.17-1.27,8.48-1.91,12.81-1.91c29.14,0,39.71,25.54,39.77,25.61
			c11.22,24.04-1.48,52.46-26.87,60.17C1675.42,1450.95,1565.13,1447.71,1462.49,1405.68z"/>
	</g>
	<path class="st4" d="M1824.39,1358.72c-71.75-14.39-79.09,18.92-172.73,17.1c-79.1-1.54-89.29,34.76-90.54,46.08l0.14,0.04
		c-1.6,6.92-4.24,12.02-4.24,12.02c-4.62,10.41-14.15,46.89,54.91,85.48c81.77,45.68,71.29,78.14,140.5,101.93
		c60.4,20.76,119.3-11.95,149.41-64.93c32.46-57.11,23.15-138.93-32.7-178.56C1855.78,1368.4,1840.42,1361.94,1824.39,1358.72z"/>
	<path class="st13" d="M1487.82,1412.69l-0.13,0.02c-0.14,0.31,11.39,7.8,35.89,13.04c12.06,1.95,14.89,3.48,42.26,4.55l1.26,0.05
		c4.96,0.19,5.11,7.57,0.11,7.93c-3.66,0.25-7.31,0.52-10.96,0.73c-0.21-0.01-46.88,2.73-74.9-10.49
		c-4.37-1.79-6.46-6.78-4.67-11.15C1478.46,1413,1483.45,1410.91,1487.82,1412.69z"/>
	<path class="st14" d="M2074.88,435.29c0.12-1.21-33.09-6.55-33.09-6.55c-3.68-0.46-23.77-7.18-23.77-7.18s-51.7-21.78-54.71-22.77
		l-39.95-38.42l-23.12,21.25c0,0,48.85,42.79,51.91,44.46c2.92,1.6,77.79,12.11,82.62,13.78c0,0,6.12,3.71,10.04,5.93
		c3.92,2.21,8.61,2.85,9.88,3.11c2.9,0.59,9.97,0.27,9.97,0.27S2074.8,436.08,2074.88,435.29z"/>
	<path class="st3" d="M2072.36,433.39c0,0-6.46,12.16-9.09,13.69c-2.63,1.53-7.23,0.77-7.23,0.77L2072.36,433.39z"/>
	<path class="st1" d="M2134.73,706.21c-9.37,0.58-15.02-3.23-24.36-1.1c3.14,8.02,8.18,58.96,7.85,61.81
		c-1.34,11.55-8.87,18.65-8.87,18.65s50.43,27.05,51.86,22.14c1.43-4.91-2.76-3.27-8.95-16.79c-0.55-1.2-13.45-15.36-14.36-39.84
		C2137.12,730.12,2137.21,717.59,2134.73,706.21z"/>
	<path class="st2" d="M2108.3,786.75l55.51,25.61c2.14,0.76,3.4-0.67,3.17-2.02c-0.49-2.78-8.99-12.84-14.71-19.55
		c-13.38-4.56-33.38-20.11-34.04-23.97C2114.35,772.16,2107.28,785.98,2108.3,786.75z"/>
	<path class="st3" d="M1914.5,476.88c-1.03,12.94-58.12,3.34-58.12,3.34c-2.18-0.37-3.61,18.25-3.63,19.3
		c-0.23,11.15-5.41,35.88,18.59,57.54c13.94,12.58,186.66,55.76,190.49,57.4c14.91,51.96,32,91.09,53.63,140.48
		c0,0,5.65,1.76,12.92,1.59c4.65-0.11,14.05-1.36,14.05-1.36s-21.38-167.29-38.53-191.31c-7.29-10.21-98.63-30.77-153.68-57.12
		C1925.08,494.71,1914.52,476.74,1914.5,476.88z"/>
	<path class="st13" d="M1810.9,269.16c-23.08,6.3-38.6,26.92-36.54,50.08c-11.93,5.94-21.38,16.82-25.27,29.24
		c-7.67,24.5-0.93,59.23,25.63,60.77c16.88,11.35,47.11,15.02,62.01,1.43c23.43,7.38,43.8-13.82,45.65-43.02
		c17.66-8.59,30.2-26.91,29.69-46.33c-0.12-4.66-0.62-11.8-0.23-12.94c-0.4,1.44,27.37-28.58-8.2-59.5
		C1867.36,217.34,1818.47,232.61,1810.9,269.16z"/>
	<path class="st2" d="M1919.48,408.14c10-1.87,23.09-13.29,26.55-28.77c0.09-0.4-36.24-39.29-46.81-44.6
		c-0.95-0.48-2.23-1.08-3.26-1.02c5.55,16.19-1.92,37.42,1.6,54.41C1897.81,387.44,1918.22,408.38,1919.48,408.14z"/>
	<path class="st9" d="M1859.21,334.88c0,0-20.04,3.95-27.76,7.91c-17.89,9.16-0.23,57.56,1.36,61.72c2.79,7.32,28.17,58.61,20.05,91
		c0,0,37.08,8.71,64.53-0.31c0,0,2.49-77.71,3.53-81.23c1.04-3.51,7.61-15.06,0.11-31.62c-0.55-1.21-15.12-34.68-25.06-48.62
		C1876.9,333.68,1859.21,334.88,1859.21,334.88z"/>
	<path class="st1" d="M1860.28,304.52c0,0-0.41,22.55-1.22,30.45c-0.85,8.27,7.75,33.44,24.96,35.8c17.21,2.37,0.2-28.36-0.39-36.62
		c-0.59-8.25,1.14-37.43,1.14-37.43L1860.28,304.52z"/>
	<path class="st3" d="M1860.12,311.73c0.18,0.08,0.35,0.18,0.54,0.26c9.83,4.34,17.81,2.65,23.43-2.13
		c0.33-7.23,0.68-13.12,0.68-13.12l-24.48,7.79C1860.28,304.52,1860.23,307.53,1860.12,311.73z"/>
	<path class="st1" d="M1859.21,246.02c0,0-9.54,3.8-14.17,14.16c-4.64,10.36-4.51,38.68,17.61,48.44
		c22.12,9.76,34.91-10.96,32.38-28.82C1892.51,261.93,1885.02,238.75,1859.21,246.02z"/>
	<path class="st1" d="M1898.83,271.61c0.72,4.64-0.86,8.73-3.54,9.15c-2.68,0.42-5.43-3-6.15-7.63c-0.72-4.63,0.86-8.73,3.54-9.15
		C1895.35,263.56,1898.11,266.98,1898.83,271.61z"/>
	<path class="st13" d="M1862.09,244.97c0,0-8.15,30.5-18.83,34.79c-10.68,4.29-8.28,18.61-8.28,18.61s-4.92-33.18,4.27-42.41
		C1848.44,246.72,1862.09,244.97,1862.09,244.97z"/>
	<path class="st1" d="M1848.58,284.99c2.18,4.4,1.56,9.17-1.39,10.65c-2.95,1.48-7.11-0.89-9.29-5.29
		c-2.18-4.4-1.56-9.17,1.39-10.65C1842.24,278.22,1846.4,280.59,1848.58,284.99z"/>
	<g>
		<g>
			<g>
				<path class="st8" d="M1061.74,1539.33c-8.67-0.9-17.05-1.82-25.13-2.77c-72.78-8.43-121.5-18.27-138.31-28.9
					c0.2-0.03,0.31-0.04,0.31-0.04s-0.12,0-0.36,0c-5.92,0.05-82.91-0.01-84.61-31.01c-1.15-21.07,34.54-12.24,35.58-11.98
					c-1.39-0.73-84.48-43.91-69.83-74.68c7.89-16.55,86.44,18.72,87.44,19.17c-0.43-0.58-21.24-28.97,1.05-36.6
					c22.52-7.7,85.08,26.24,116.74,47.47c11.7,7.85,20.07,19.72,35.2,44.22C1036.51,1491.22,1052.51,1521.39,1061.74,1539.33z"/>
			</g>
			<path class="st7" d="M898.29,1507.67c0.2-0.03,0.31-0.04,0.31-0.04s-0.12,0-0.36,0c-5.92,0.05-99.74-5.27-101.44-36.27
				c-1.15-21.07,28.34-17.63,29.39-17.37c-1.39-0.73-61.45-33.27-46.8-64.04l155.24,88.5l101.99,58.13
				C963.82,1528.13,915.11,1518.29,898.29,1507.67z"/>
		</g>
		<path class="st0" d="M995.04,1261.52c-65.95,106.84-45.69,238.97,45.27,295.12c90.95,56.15,218.15,15.05,284.11-91.79
			C1325.42,1463.23,996.04,1259.91,995.04,1261.52z"/>
		<g>
			<polygon class="st15" points="1176.46,1366.87 1173.54,1365.07 1174.6,1370.96 			"/>
			<polygon class="st16" points="1174.6,1370.96 1176.46,1366.87 1173.54,1365.07 1174.6,1370.96 			"/>
		</g>
		<g>
			<path class="st4" d="M1185.16,1382.15l29.43,164.94c41.01-16.14,76.59-45.73,101.18-84.32L1185.16,1382.15z"/>
			<path class="st4" d="M999.55,1481.84c14,21.78,32.17,39.64,54.1,53.18c9.53,5.89,19.69,10.83,30.26,14.76l80.88-177.67
				L999.55,1481.84z"/>
			<path class="st4" d="M970.48,1363.74c-2.56,36.4,4.66,72.57,20.62,103.47l155.23-103.08L970.48,1363.74z"/>
			<path class="st4" d="M1000.78,1268.33c-14.69,24.55-24.23,50.92-28.43,78.54l156.22,0.34L1000.78,1268.33z"/>
			<path class="st4" d="M1100.13,1554.9c31.72,8.33,65.39,7.57,98.31-2.24l-27.39-153.55L1100.13,1554.9z"/>
		</g>
		<path class="st11" d="M1324.64,1464.5c0.92-1.5,1.77-3.02,2.65-4.53l-153.73-94.85l-0.01-0.06
			c-8.36-5.16-166.32-102.67-175.43-108.29c-20.24,31.18-31.73,64.74-35.36,98.52c-4.73,44,4.14,87.61,25.35,124.02l0,0
			c14.65,25.14,35.15,46.86,61.11,62.89c12.53,7.74,25.68,13.71,39.19,18.06c38.8,12.5,80.62,11.36,119.63-1.8
			C1254.04,1542.93,1296.11,1510.71,1324.64,1464.5z M982.41,1338.46c4.09-20.3,11.24-39.84,21.36-58.37l94.97,58.63L982.41,1338.46
			z M994.49,1454.83c-11.34-25.28-16.86-53.75-15.99-82.63l139.97,0.31L994.49,1454.83z M1303.9,1465.36
			c-21.31,30.67-50.04,54.83-82.87,69.83l-24.26-135.96L1303.9,1465.36z M1058.09,1527.84c-18.49-11.41-34.17-26.07-46.77-43.69
			l133.6-88.72l-65.34,143.53C1072.13,1535.79,1064.94,1532.07,1058.09,1527.84z M1112.08,1549l55.42-121.74l21.29,119.32
			C1163.07,1553.13,1137.04,1553.95,1112.08,1549z"/>
	</g>
	<path class="st6" d="M2554.93,1452.83l-47.37,23.05c35.15,7.3,54.4,15.23,54.4,23.51c0,36.49-373.88,66.07-835.09,66.07
		c-449.85,0-816.61-28.14-834.41-63.38l-105.51-19.56c-33.05,11.77-50.97,24.35-50.97,37.44c0,65.35,446.54,118.32,997.38,118.32
		c550.84,0,997.38-52.97,997.38-118.32C2730.75,1495.01,2665.81,1471.9,2554.93,1452.83z"/>
	<path class="st7" d="M973.51,1527.2c-2.88-1.83-80.11-23.26-81.05-25.13l-88.25-16.37C825.95,1503.4,968.39,1527.24,973.51,1527.2z
		"/>
	<path class="st5" d="M2456.89,1527.51c0,23.98-30.57,43.43-68.28,43.43c-37.71,0-68.28-19.44-68.28-43.43s30.57-43.43,68.28-43.43
		C2426.32,1484.08,2456.89,1503.53,2456.89,1527.51z"/>
	<g>
		<path class="st5" d="M2270.98,1477.47c0,0-0.05,98.86-91.63,123.6c-91.58,24.74-242.18-30.03-257.17-50.48
			c-12.28-16.76-12.41-35.12-10.44-54.89c1.71-17.12,6.03-7.06,63.88-28.22s64.96-3.06,120.93-35.35
			C2152.52,1399.85,2268.63,1410.75,2270.98,1477.47z"/>
		<path class="st7" d="M1943.29,1529.52c-12.39-4.17-22.42-13.2-28.25-24.89c-0.03-0.06-0.05-0.11-0.08-0.17
			c-7.78-15.34-5.95-35.42,51.9-56.58s69.55-13.41,125.52-45.7s177.04,7.27,179.4,73.99c0,0,0,5-1.35,10.1
			c-15.28,29.58-42.71,58.9-91.92,70.7C2110.72,1573.25,2013.82,1553.24,1943.29,1529.52z"/>
		<path class="st4" d="M2251.58,1499.29c9.88-13.67,10.91-31.91,2.2-46.36c-26.45-43.9-114.01-67.35-156.76-42.69
			c-36.18,20.87-54.49,25.54-77.66,31.46c-23.17,5.91-116.99,25.29-95.99,64.47c11.34,21.16,50.4,23.47,71.03,28.87
			c20.2,5.28,40.64,9.7,61.27,12.94c20.5,3.22,46,8.79,66.71,5.61C2137.14,1551.32,2208.84,1558.46,2251.58,1499.29z"/>
		<path class="st0" d="M2116.31,1433.2c-41.5,6.97-71.25,35.81-66.45,64.42c4.8,28.61,42.34,46.16,83.84,39.19
			c41.5-6.97,71.25-35.81,66.45-64.42C2195.34,1443.78,2157.81,1426.23,2116.31,1433.2z"/>
	</g>
	<g>
		<path class="st3" d="M693.56,1007.8c-9.58,9.36-21.16,5.72-34.57,5.43c-9-0.2-17.96,12.26-20,22.97
			c-5.18,27.13-21.63,10.18-41.39,16.63c-47.58,15.52-29.66,93.52-0.48,100.92c9.87,2.5,28.04,10.69,32.82,13.9
			c14.41,9.68,42.3,1.14,63.63-10.53c21.33-11.67,8.9-22.28,16.48-32.93c7.58-10.65,25.36-0.75,35.6-24.31
			c11.09-25.48,13.07-49.5,6.86-65.34c-10.27-26.21-38.31-35.43-50.48-31.63C698.41,1004.05,695.65,1005.76,693.56,1007.8z"/>
		<path class="st1" d="M786.87,1599.87c-4.75,21.48-12.22,40.26-13.23,42.47c-0.48,1.06-4.91,4.84-5.44,5.93
			c1.39,26.44,17.65,42.67,33.03,54.38c-2.96-13.41-10.05-28.92-8.97-31.85c1.73-4.65,8.57-25.92,22.48-52.49
			C801.67,1616.38,797.28,1608.24,786.87,1599.87z"/>
		<path class="st0" d="M727.44,1285.87l-81.97,62.26c0,0,40.59,39.05,55.81,53.56c15.23,14.51,96.6,75.49,97.92,78.81
			c0.98,2.47-14.51,94.29-23.23,128.24c8.66,8.86,27.74,17.54,39.04,20.4c21.81-54.8,49.34-145.9,49.34-158.47
			C864.36,1456.39,727.44,1285.87,727.44,1285.87z"/>
		<path class="st1" d="M497.49,1410.08c2.68,2.61,20.48,37.27,27.25,55.83c9.91-6.24,15.91-13.68,26.98-17.88
			c-8.74-12.64-25.78-43.07-27.18-50.31c-3.32-17.18-7.22-19.71-7.22-19.71s-57.59,19.48-61.42,24.94
			C452.06,1408.42,486.73,1399.58,497.49,1410.08z"/>
		<path class="st3" d="M525.22,1401.54c4.47,0.01-0.39-20.18-1.41-24.83c-1.15-5.23-4.18-6.8-4.94-6.99
			c-2.04-0.5-66.04,21.15-76.86,28.92c-0.73,0.53-2.04,2.19-2.25,2.57c-5.92,11.05,46.84,13.15,54.43,8.32
			C500.95,1405.24,505.12,1401.48,525.22,1401.54z"/>
		<path class="st3" d="M744.78,1304.5c0,0-71.37-29.15-71.38-29.16c0.29,0.13-0.43,2.91-0.49,3.13
			c-6.72,26.13-42.52,16.05-57.29,61.43c-10.44,32.06-25.73,151.98-25.73,151.98s-10.84-20.61-44.5-58.54
			c-2.61-2.94-35.78,19.84-35.78,19.84c24.66,65.39,85.23,118.52,93.43,114.76c55.4-25.42,121.95-225.98,121.87-225.96
			C731.2,1329.7,744.78,1304.5,744.78,1304.5z"/>
		<path class="st1" d="M741.41,1109.79c0,0,5.95-5.87,13.37-14.68c17.74-21.05,47.36-57.74,49.19-63.07
			c2.25-6.55-2.65-100.97-3.21-106.95c-0.55-5.98-20.84-22.34-17.64-27.04c3.2-4.7,31.19-8.54,35.89-7.62
			c4.7,0.92,13.84,0.08,17.57,3.87c0.49,0.49-10.6,24.83-10.4,28.26c1.34,23.46,11.98,95.5,11.98,116.16
			c0,14.85-70.46,95.55-70.46,95.55L741.41,1109.79z"/>
		<path class="st17" d="M819.01,890.44c-4.7-0.92-32.69,2.92-35.89,7.62c-0.96,1.41,0.2,3.87,2.3,6.78
			c8.86,0.74,18.17,2.33,27.37,2.33c6.8,0,13.39-1.23,19.94-2.85c2.14-5.69,4.08-9.77,3.85-10.01
			C832.85,890.52,823.71,891.35,819.01,890.44z"/>
		<path class="st1" d="M625.73,1124.13c0,0-89.77,2.23-109.48,3.85c-19.71,1.62-91.23-4.33-94-4.66
			c-2.77-0.32-21.09-31.35-24.14-28.02c-3.04,3.33,10.19,15.38,6.1,18.51c-4.09,3.13-48.08-3.88-47.5-0.62
			c1.09,6.08,26.75,5.31,26.73,8.25c-0.03,2.94-26.86-1.65-28.68,3.23c-1.82,4.88,25.81,1.99,26.91,4.16
			c1.1,2.18-25.63,6.16-22.89,10.7c1.49,2.46,23.68-4.11,23.58-0.76c-0.11,3.36-16.3,11-14.32,13.67
			c1.99,2.67,12.71-8.21,22.11-8.34c9.4-0.13,16.13-5.04,31.13-0.92c15,4.11,66.13,24.73,98.14,23.22
			c32-1.52,102.73-4.68,102.73-4.68L625.73,1124.13z"/>
		<path class="st2" d="M757.5,1209.41c1.22-14.81,12.35-28.58,2.27-55.31c-0.57-14.98,22.87-32.99,26.29-39.44
			c0,0-16.83-20.06-30.43-23.8c0,0-27.36,19.89-40.34,26.66c-0.19-0.05-4.59,1.96-6.53,1.95c-12.53-0.09-56.32-1.42-64.49,1.02
			l4.2,59.22c2.36,3.88,13.77,9.33,17.23,101.55c0.3,8.02,67.48,30.75,79.16,23.23c0.28-0.18,3.84-20.91,6.86-45.67
			C753.79,1241.82,756.49,1221.6,757.5,1209.41z"/>
		<path class="st2" d="M667.08,1122.06c-8.08-3.86-67.08-3.73-67.08-3.73s-5.04,41.86,1.56,51.64c0,0,49.14,6.62,47.65,10.91
			L667.08,1122.06z"/>
		<path class="st3" d="M773.41,1642.97c-1.51-4.2-18.64,8.44-22.66,10.99c-4.53,2.86-4.97,6.25-4.89,7.02
			c0.21,2.04,40.84,55.76,52.99,63.41c1.15,0.72,3.61,0.83,4.35,0.57c6.98-2.42-2.76-45.56-11.51-54.32
			C786.03,1664.98,780.2,1661.89,773.41,1642.97z"/>
		<path class="st1" d="M783.61,898.8c-2.68,3.95,11.88,16.45,15.92,23.36l9.14-12.46C804.16,908.82,786.67,894.29,783.61,898.8z"/>
		<path class="st1" d="M701.5,1084.97c0,0-5.08,22.13-9.42,29.82c-4.35,7.69-1.03,39.1,15.96,46.71c16.98,7.61,6.82-35.33,8.7-43.92
			c1.88-8.59,12.29-33.15,12.29-33.15L701.5,1084.97z"/>
		<path class="st3" d="M723.96,1096.82c2.69-6.79,5.06-12.39,5.06-12.39l-27.53,0.54c0,0-1.04,4.53-2.58,10.19
			C708.02,1101.59,716.9,1101.09,723.96,1096.82z"/>
		<path class="st1" d="M718.04,1025.02c0,0-10.95,0.99-18.85,10.14c-7.89,9.15-16.3,38.06,3.5,54.69
			c19.81,16.63,39.21-0.62,42-19.58C747.49,1051.31,746.77,1025.41,718.04,1025.02z"/>
		<path class="st1" d="M750.43,1064.98c-2.45,4.34-6.49,6.7-9.02,5.27c-2.53-1.43-2.59-6.1-0.14-10.44c2.45-4.34,6.49-6.7,9.02-5.27
			C752.82,1055.96,752.88,1060.64,750.43,1064.98z"/>
		<path class="st1" d="M695.35,1061.52c0.91,5.15-1.16,9.82-4.64,10.44c-3.48,0.62-7.04-3.05-7.95-8.2
			c-0.91-5.15,1.16-9.82,4.64-10.44C690.88,1052.71,694.44,1056.38,695.35,1061.52z"/>
		<g>
			<ellipse class="st11" cx="814.78" cy="812.06" rx="144.34" ry="92.96"/>
			<ellipse class="st4" cx="789.31" cy="807.73" rx="73.45" ry="57.23"/>
		</g>
		<path class="st1" d="M783.61,898.8c-2.68,3.95,11.88,16.45,15.92,23.36l9.14-12.46C804.16,908.82,786.67,894.29,783.61,898.8z"/>
	</g>
	<g>
		<path class="st7" d="M1135.11,785.02c-5.76,19.46-30.67,29.25-55.63,21.86c-24.96-7.39-40.53-29.16-34.77-48.62
			c5.76-19.46,30.67-29.25,55.63-21.86C1125.3,743.8,1140.87,765.56,1135.11,785.02z"/>
		<path class="st5" d="M1130.77,780.89c0,5.83-4.72,10.55-10.55,10.55c-5.82,0-10.55-4.72-10.55-10.55
			c0-5.82,4.72-10.55,10.55-10.55C1126.05,770.34,1130.77,775.07,1130.77,780.89z"/>
	</g>
	<g>
		<path class="st7" d="M2311.08,879.58c16.18,12.25,16.56,39.01,0.84,59.76c-15.71,20.76-41.57,27.65-57.75,15.4
			c-16.18-12.25-16.56-39.01-0.84-59.76C2269.05,874.23,2294.91,867.33,2311.08,879.58z"/>
		<path class="st5" d="M2305.68,882.19c5.45,2.05,8.21,8.14,6.15,13.59c-2.05,5.45-8.14,8.21-13.59,6.15
			c-5.45-2.05-8.21-8.14-6.15-13.59C2294.15,882.89,2300.23,880.14,2305.68,882.19z"/>
	</g>
	<path class="st5" d="M2392.08,777.92c0,6.76-6.39,12.24-14.28,12.24c-7.88,0-14.28-5.48-14.28-12.24c0-6.76,6.39-12.24,14.28-12.24
		C2385.69,765.69,2392.08,771.17,2392.08,777.92z"/>
	<path class="st5" d="M1988.87,1058.87c0,6.76-6.39,12.24-14.28,12.24c-7.88,0-14.28-5.48-14.28-12.24
		c0-6.76,6.39-12.24,14.28-12.24C1982.48,1046.63,1988.87,1052.11,1988.87,1058.87z"/>
	<path class="st5" d="M1249.65,1308.39c0,9.01-7.31,16.32-16.32,16.32c-9.01,0-16.32-7.31-16.32-16.32c0-9.01,7.3-16.32,16.32-16.32
		C1242.35,1292.07,1249.65,1299.38,1249.65,1308.39z"/>
	<g>
		<g>
			<path class="st4" d="M1300.47,993.96c9.38-7.51,13.69-24.11,14.2-34.39c0.67-13.38-3.27-27.25-11.09-39.06
				c-7.77-11.74-18.93-20.75-31.42-25.37c-9.61-3.56-20.69-4.82-30.82-1.93c-4.54,1.29-10.48,3.34-12.87,7.54
				c-2.75,4.83-1.89,11.21,1.08,15.7c4.62,6.98,13.5,9.23,19.84,5.03c0.02-0.01,0.03-0.02,0.05-0.03l31.95,48.8
				c-0.03,0.02-0.07,0.04-0.1,0.06c-6.33,4.2-7.73,13.25-3.1,20.23c3.41,5.15,10.1,8.52,16.26,6.67
				C1296.65,996.53,1298.65,995.41,1300.47,993.96z"/>
			<path class="st11" d="M1280.12,989.24c-3.9-5.89-2.81-13.51,2.43-17c0.04-0.02,0.07-0.04,0.1-0.06c0.52-0.34,0.88-0.86,1.01-1.47
				c0.13-0.6,0.01-1.23-0.33-1.75c0,0-31.96-48.81-31.96-48.81c-0.35-0.52-0.89-0.89-1.51-1c-0.62-0.11-1.26,0.03-1.77,0.4
				c-5.26,3.46-12.7,1.49-16.6-4.4c-2.71-4.09-3.12-9.55-1-13.27c1.92-3.36,7.15-5.22,11.49-6.45c8.86-2.53,19.29-1.86,29.38,1.88
				c12.03,4.46,22.78,13.15,30.29,24.48c7.55,11.4,11.36,24.78,10.71,37.66c-0.46,9.22-4.39,25.54-13.34,32.7
				c-1.65,1.32-3.41,2.27-5.23,2.82C1288.38,996.59,1282.83,993.32,1280.12,989.24L1280.12,989.24z"/>
		</g>
		<path class="st11" d="M1223.41,996.99c-13.01-6.94-20.17-17.75-21.49-32.44c17.34-16.15,36.83-29.06,58.47-38.73
			c13.01,6.94,20.17,17.75,21.49,32.44C1264.54,974.41,1245.05,987.32,1223.41,996.99z"/>
		<path class="st4" d="M1265.51,935.41c0,0-16.38-28.9-17.73-28.22C1243.03,909.6,1265.51,935.41,1265.51,935.41z"/>
		<path class="st4" d="M1267.43,935.23c0,0-6.45-32.59-7.94-32.37C1254.21,903.67,1267.43,935.23,1267.43,935.23z"/>
		<path class="st4" d="M1269.64,935.88c0,0,5.92-32.69,4.45-33.03C1268.9,901.66,1269.64,935.88,1269.64,935.88z"/>
		<path class="st4" d="M1271.73,937.75c0,0,20.34-26.27,19.19-27.25C1286.86,907.05,1271.73,937.75,1271.73,937.75z"/>
		<path class="st4" d="M1272.58,939.67c0,0,27.61-18.47,26.83-19.76C1296.66,915.35,1272.58,939.67,1272.58,939.67z"/>
		<path class="st4" d="M1273.96,947.73c0,0,23.08,23.9,22.04,25C1292.34,976.6,1273.96,947.73,1273.96,947.73z"/>
		<path class="st4" d="M1274.7,945.55c0,0,30.22,13.8,29.66,15.2C1302.36,965.69,1274.7,945.55,1274.7,945.55z"/>
		<path class="st4" d="M1274.36,942.77c0,0,33.18-1.71,33.32-0.2C1308.2,947.87,1274.36,942.77,1274.36,942.77z"/>
		<path class="st4" d="M1273.26,940.97c0,0,30.93-12.13,31.54-10.75C1306.98,935.09,1273.26,940.97,1273.26,940.97z"/>
	</g>
	<g>
		<g>
			<path class="st4" d="M2636.55,1520.83c15.07-5.17,27.89-23.95,33.15-36.56c6.83-16.39,8.14-35.47,3.67-53.72
				c-4.44-18.13-14.32-34.38-27.83-45.75c-10.4-8.76-23.66-15.29-37.59-16.23c-6.24-0.42-14.57-0.53-19.44,3.64
				c-5.6,4.79-7.38,13.15-5.68,20.08c2.64,10.78,12.71,17.57,22.5,15.18c0.02-0.01,0.05-0.01,0.07-0.02l18,75.23
				c-0.05,0.01-0.1,0.02-0.15,0.03c-9.79,2.4-15.58,13.07-12.95,23.85c1.95,7.95,8.79,15.17,17.31,15.61
				C2630.64,1522.32,2633.64,1521.83,2636.55,1520.83z"/>
			<path class="st11" d="M2613.28,1505.82c-2.23-9.1,2.55-18.12,10.66-20.12c0.06-0.01,0.11-0.02,0.15-0.03
				c0.79-0.19,1.48-0.68,1.91-1.38c0.43-0.7,0.56-1.53,0.37-2.33c0,0-18-75.24-18-75.25c-0.2-0.81-0.72-1.51-1.44-1.93
				c-0.72-0.42-1.58-0.53-2.39-0.3c-8.11,1.96-16.52-3.83-18.75-12.93c-1.55-6.32,0.38-13.32,4.7-17.01
				c3.9-3.34,11.26-3.31,17.23-2.9c12.19,0.82,24.91,6.33,35.82,15.52c13.01,10.95,22.54,26.63,26.82,44.13
				c4.31,17.62,3.06,36.02-3.52,51.81c-4.71,11.3-16.93,29.9-31.3,34.83c-2.65,0.91-5.27,1.3-7.79,1.17
				C2620.29,1518.7,2614.83,1512.12,2613.28,1505.82L2613.28,1505.82z"/>
		</g>
		<path class="st11" d="M2539.02,1490.06c-5.83-6.44-9.88-13.32-12.15-20.64c-4.76-15.37,3.91-31.67,19.12-36.93
			c22.95-7.94,46.65-12.83,71.1-14.67c13.12,14.5,17.21,31.2,12.27,50.12C2600.48,1480.33,2570.37,1487.7,2539.02,1490.06z"/>
		<path class="st4" d="M2619.19,1432.08c0,0-7.49-43.42-9.47-43.17C2602.7,1389.8,2619.19,1432.08,2619.19,1432.08z"/>
		<path class="st4" d="M2621.66,1432.73c0,0,6.56-43.57,4.6-43.95C2619.32,1387.4,2621.66,1432.73,2621.66,1432.73z"/>
		<path class="st4" d="M2624.12,1434.52c0,0,22.05-38.14,20.37-39.22C2638.54,1391.49,2624.12,1434.52,2624.12,1434.52z"/>
		<path class="st4" d="M2625.9,1437.79c0,0,37.17-23.66,36.17-25.4C2658.54,1406.26,2625.9,1437.79,2625.9,1437.79z"/>
		<path class="st4" d="M2626.1,1440.57c0,0,42.75-10.67,42.35-12.63C2667.05,1421.01,2626.1,1440.57,2626.1,1440.57z"/>
		<path class="st4" d="M2624.2,1451.25c0,0,18.08,40.18,16.3,41.08C2634.19,1495.53,2624.2,1451.25,2624.2,1451.25z"/>
		<path class="st4" d="M2626.1,1448.86c0,0,31.53,30.77,30.2,32.26C2651.6,1486.4,2626.1,1448.86,2626.1,1448.86z"/>
		<path class="st4" d="M2626.92,1445.23c0,0,42.17,12.75,41.68,14.69C2666.87,1466.77,2626.92,1445.23,2626.92,1445.23z"/>
		<path class="st4" d="M2626.36,1442.5c0,0,44.04-1.27,44.19,0.73C2671.08,1450.28,2626.36,1442.5,2626.36,1442.5z"/>
	</g>
	<g>
		<g>
			<path class="st4" d="M2217.86,1006.72c-17.66-9.35-48.6-7.43-65.12-1.83c-21.78,6.73-39.3,20.74-48.56,36.79
				c-9.33,16.01-10.26,32.7-5.3,46.5c3.82,10.7,11.22,20.57,21.16,27.27c4.49,3,10.39,6.86,16,6.39c6.46-0.56,12.37-5.06,15.5-10.43
				c4.84-8.29,2.65-18.3-6.3-21.9c-0.02-0.01-0.04-0.02-0.07-0.02c12.23-19.75,27.58-38.53,45.88-55.48
				c0.05,0.03,0.1,0.05,0.15,0.08c9.85,5.16,23.75,4.42,32.45-1.84c6.36-4.65,8.87-12.64,2.71-19.36
				C2224.15,1010.51,2221.26,1008.45,2217.86,1006.72z"/>
			<path class="st11" d="M2220.74,1030.31c-7.32,5.38-19.13,6.12-27.33,1.78c-0.06-0.03-0.11-0.06-0.15-0.09
				c-0.8-0.44-1.8-0.64-2.79-0.56c-0.98,0.08-1.86,0.43-2.44,0.97c0.02-0.06-13.85,12.86-25.04,27
				c-11.62,13.94-20.55,29.09-20.54,29.02c-0.39,0.64-0.46,1.38-0.19,2.03c0.26,0.65,0.84,1.17,1.58,1.43
				c7.36,2.94,9.25,11.32,5.21,18.38c-2.82,4.93-8.1,8.54-13.14,8.98c-4.55,0.38-9.8-3.05-14.09-5.95c-8.66-5.95-16-15-19.89-26.25
				c-4.62-13.36-3.52-29.43,5.58-44.76c9.04-15.37,25.9-28.69,46.76-35.06c14.69-4.98,44.62-7.32,61.4,1.49
				c3.08,1.54,5.56,3.34,7.4,5.29C2228.47,1019.82,2225.75,1026.56,2220.74,1030.31L2220.74,1030.31z"/>
		</g>
		<path class="st11" d="M2233.29,1082.04c-7.04,14.66-18.15,23.48-32.56,29.14c-18.2-12.59-37.53-24.21-58.49-35.44
			c1.45-15.29,10.72-29.16,29.15-38.63C2199.75,1043.69,2220.88,1060.38,2233.29,1082.04z"/>
		<path class="st4" d="M2152.08,1066.03c-0.95-0.37-24.49,32.94-21.9,33.98C2135.11,1102.53,2151.27,1065.88,2152.08,1066.03z"/>
		<path class="st4" d="M2150.63,1064.28c-0.96-0.8-35.78,26.61-33.43,28.42C2120.88,1096.11,2149.56,1063.74,2150.63,1064.28z"/>
		<path class="st4" d="M2150.02,1061.78c0.02-0.01-11.72,3.15-22.77,7.7c-11.15,4.36-21.61,10.13-21.19,10.85
			c1.4,2.62,11.59-3,22.3-8.21C2138.93,1066.74,2150.01,1061.78,2150.02,1061.78z"/>
		<path class="st4" d="M2151.1,1058.7c0.02,0.02-12.04-1.33-24.4-1.05c-12.31,0.05-24.91,1.74-25.01,2.62
			c-0.44,3.09,11.87,1.33,24.33,0.28C2138.48,1059.27,2151.09,1058.7,2151.1,1058.7z"/>
		<path class="st4" d="M2153.1,1056.81c0.02,0.03-10.65-4.27-22.15-7.19c-11.39-3.11-23.61-4.84-24.12-3.97
			c-1.87,3,10.2,4.51,22.19,6.66C2141.09,1054.24,2153.1,1056.8,2153.1,1056.81z"/>
		<path class="st4" d="M2163.15,1051.22c-0.68-0.21,19.99-34.47,23.06-33.52C2193.69,1019.74,2162.2,1050.73,2163.15,1051.22z"/>
		<path class="st4" d="M2159.69,1051.6c-0.06,0-0.33-37.03,2.34-37.18C2170.81,1013.96,2159.24,1051.56,2159.69,1051.6z"/>
		<path class="st4" d="M2156.11,1053.4c0.7-0.35-25.53-30.76-24.09-31.54C2140.07,1017.68,2156.58,1053.29,2156.11,1053.4z"/>
		<path class="st4" d="M2154.4,1055.43c0.85-0.83-38.49-21.62-37.88-22.33C2122.48,1026.89,2155.27,1054.9,2154.4,1055.43z"/>
	</g>
	<path class="st4" d="M2208.56,612.34c0,8.75-6.1,15.84-13.63,15.84s-13.63-7.09-13.63-15.84s13.42-38.08,13.42-38.08
		S2208.56,603.59,2208.56,612.34z"/>
	<path class="st4" d="M2227.34,838.77c0,5.94-4.14,10.75-9.25,10.75c-5.11,0-9.25-4.81-9.25-10.75c0-5.94,9.1-25.84,9.1-25.84
		S2227.34,832.83,2227.34,838.77z"/>
	<g>
		<path class="st7" d="M2072.76,438.33l-165.63,114.84c-6.83,4.74-16.04,4.11-22.13-1.55c-0.09-0.08-0.17-0.16-0.26-0.24
			c-7.01-6.55-14.84-15.91-22.07-26.37c-7.22-10.45-13.21-21.1-16.87-29.97c-0.05-0.12-0.1-0.25-0.15-0.37
			c-3.12-7.68-0.48-16.5,6.34-21.22l165.67-114.86c10.2-7.07,24.24-4.51,31.31,5.71l0,0c1.82,2.63,5.55,3.05,7.91,0.88l32.02-29.49
			l30.35,43.92l-38.84,19.63c-2.85,1.44-3.78,5.08-1.96,7.71c0.02,0.02,0.02,0.03,0,0.01
			C2085.51,417.19,2082.96,431.25,2072.76,438.33z"/>
		<path class="st7" d="M2104.07,357.64c-9.17-13.27-12.53-22.68-12.56-25.67c2.79,1.08,10.39,7.54,19.56,20.81
			c9.17,13.27,12.53,22.68,12.56,25.67C2120.85,377.37,2113.24,370.92,2104.07,357.64z"/>
		<g>
			<path class="st4" d="M2078.45,406.97L2078.45,406.97C2078.46,406.99,2078.46,406.99,2078.45,406.97z"/>
			<path class="st4" d="M2078.45,406.97C2078.45,406.97,2078.45,406.96,2078.45,406.97c-1.83-2.64-0.9-6.28,1.95-7.72l38.84-19.63
				l-4.15-6.01c-17.7,2.95-46.17,18.48-46.38,28.15c-0.25,11.01-7.41,37.87-47.33,36.66c-37.33-1.13-96.35-9.33-103.88-10.39
				l-65.51,45.42c-6.81,4.72-9.46,13.54-6.34,21.22c0.05,0.12,0.1,0.25,0.15,0.37c3.65,8.88,9.64,19.52,16.87,29.97
				c7.22,10.45,15.06,19.82,22.07,26.37c0.09,0.08,0.17,0.16,0.26,0.24c6.09,5.65,15.3,6.28,22.13,1.55l165.63-114.84
				C2082.96,431.25,2085.51,417.19,2078.45,406.97z"/>
		</g>
		<g>
			<path class="st18" d="M2024.35,474.61c0.17-0.12,0.29-0.29,0.39-0.51l-1,0.7C2023.97,474.78,2024.18,474.73,2024.35,474.61z"/>
			<path class="st18" d="M1966.68,391.15c-0.19,0.13-0.33,0.33-0.43,0.58l1.12-0.78C1967.1,390.96,1966.87,391.02,1966.68,391.15z"
				/>
			<path class="st19" d="M1927.47,522.16c-3.56,2.47-16.3-9.8-28.47-27.4s-19.14-33.87-15.58-36.34c3.56-2.47,16.31,9.8,28.47,27.4
				C1924.05,503.43,1931.03,519.7,1927.47,522.16z"/>
			<path class="st11" d="M2017.01,414.4c-12.86-18.61-22.71-34.09-22-34.58l-115.81,80.29c-3.56,2.47,3.98,19.55,16.84,38.16
				c12.86,18.61,26.17,31.69,29.73,29.22l115.81-80.29C2040.87,447.69,2029.87,433.01,2017.01,414.4z"/>
			<path class="st5" d="M2113.32,351.23c-9.86-14.27-20.68-23.87-24.16-21.45c-3.49,2.42,1.68,15.94,11.54,30.21
				c9.86,14.27,20.68,23.87,24.16,21.45C2128.34,379.02,2123.18,365.5,2113.32,351.23z M2104.07,357.64
				c-9.17-13.27-12.53-22.68-12.56-25.67c2.79,1.08,10.39,7.54,19.56,20.81c9.17,13.27,12.53,22.68,12.56,25.67
				C2120.85,377.37,2113.24,370.92,2104.07,357.64z"/>
			<path class="st5" d="M2080.78,337.06c-0.19,0.5,1.16,25.61,27.82,47.28c1.72,1.4,4.04,1.81,6.15,1.13
				c3.79-1.22,9.54-3.21,10.51-4.32c1.47-1.68-5.45-2.7-5.45-2.7l-10.14-10.33l-12.41-18.92l-6.7-14.63l-1-5.08
				C2089.57,329.49,2083.34,330.51,2080.78,337.06z"/>
		</g>
		<path class="st4" d="M2166.49,444.4c-12.87-28.68-28.87-70.24-44.77-71.25c-1.1-0.07-2.3-0.05-3.58,0.06l4.11,7.16
			c4.56,9.4,8.13,15.36,13.41,31.17c5.28,15.8,6.72,32.54,5.08,49.12c-0.44,4.49,0.21,9.29,3.27,13.41
			C2152.76,485.86,2179.36,473.08,2166.49,444.4z"/>
	</g>
	<g>
		<path class="st5" d="M1104.62,1364.65c-21.78,41.75,6.02,88.84,6.08,89.24c10.44,18.52,27.38,34.53,51.68,45.44
			c7.01,3.08,14.16,5.48,21.76,7.02l3.05-14.07c-6.25,0.5-24.69-3.83-38.37-12.64c-11.95-7.34-22.34-17.65-29.42-30.18
			c-12.79-21.82-17.09-53.39-5.01-76.98C1111.44,1369.33,1108.06,1366.65,1104.62,1364.65z"/>
		<path class="st2" d="M1707.33,1483.12c0-67.13-70.35-121.54-157.14-121.54c-63.12,0-117.52,28.8-142.51,70.33
			c-129.66,5.61-229.75,41.96-229.75,85.99c0,20.56,20.37,34.99,36.39,43.93c29.6,16.52,63.7,25.16,96.77,31.38
			c41.16,7.75,82.82,12.75,124.6,15.56c40.12,2.7,81.12,4.81,121.24,1.45c32.02-2.69,63.77-10.41,91.87-26.37
			c23.35-13.26,42.41-33.18,51.61-58.7C1705.26,1511.7,1707.33,1497.39,1707.33,1483.12z"/>
		<path class="st9" d="M1246.92,1490.26c0,0,178.6-14.77,195.71-20.81s12.81-45.48,79.49-59.1c66.69-13.62,107.2,8.6,115.27,43.74
			c8.07,35.14-39.26,63.82-56.47,40.15c-17.21-23.66-22.23-50.75-60.95-45.81c-38.72,4.94-68.12,38.34-68.12,38.34L1246.92,1490.26z
			"/>
		<path class="st7" d="M1258.22,1484.43l-11.92,6.15c-1.6,0.82-1.87,2.99-0.53,4.19l8.94,7.97c1.48,1.32,0.97,3.74-0.91,4.35
			l-11.52,3.74c-2.02,0.65-2.41,3.34-0.67,4.54l15.79,10.91l0.65,0.43l-19.21,10.92c-1.55,0.88-1.75,3.04-0.38,4.19l12.18,10.24
			c1.44,1.21,1.12,3.52-0.59,4.3l-16.76,7.59c-1.09,0.49-1.69,1.67-1.45,2.84l1.83,9.01c0.36,1.75-1.14,3.33-2.9,3.04
			c-56.22-9.11-68.72-52.45-69.47-55.26c-0.02-0.09-0.04-0.18-0.06-0.28c-0.97-6.14-1.14-11.82-0.62-16.99
			c4.77-48.55,69.12-56.42,93.39-57.65c2.62-0.13,3.73,3.29,1.52,4.71l-2.58,1.66c-1.83,1.18-1.45,3.95,0.62,4.6l0,0
			c1.94,0.61,2.43,3.13,0.86,4.42l-5.64,4.66c-1.28,1.05-1.24,3.02,0.08,4.02l9.75,7.38
			C1260.09,1481.25,1259.89,1483.57,1258.22,1484.43z"/>
	</g>
	<g>
		<g>
			<g>
				<path class="st3" d="M1890.44,1638.47c2.71,2.72,1.98,1.2,4.53,3.88c-62.9,36.48-98.44,50.15-110.55,30.17
					c-7.56-3.69,7.82-27.94,16.77-33.55C1825.61,1623.65,1871.12,1635.5,1890.44,1638.47z"/>
				<g>
					<path class="st3" d="M1828.55,1480.48c8.48,30.15,10.16,46-5.4,72.83c0.29,0.1,0.58,0.15,0.9,0.2
						c7.39,1.85,14.84,2.27,22.5,0.88c1.97-0.38,9.76,0.21,13.58-0.33c0,0,0.01,0.04,0.04-0.01c0.92-0.12,1.59-0.3,1.94-0.57
						c21.36-18.12,23.83-39.33,22.11-67.33C1884.31,1481.15,1851.87,1470.47,1828.55,1480.48z"/>
					<path class="st3" d="M1829.62,1480.1c-15.99-7.58-42.08,6.61-54.58,14.24c16.13,18.49,18.68,35.36,13.14,59.42
						c6.96,1.39,30.78,5.02,35.86-0.24c0.17-0.15,0.3-0.3,0.42-0.48c16.26-19.34,18.73-36.66,16.56-49.51
						C1838.88,1490.42,1831.31,1480.54,1829.62,1480.1z"/>
					<path class="st3" d="M1921.71,1504.2c-14.67-22.14-38.44-19.14-38.83-18.55c-0.23,0.01-0.43,0.01-0.66,0.06
						c2.33,37.47-6.07,48.84-23.82,67.41c0.57,0.31,1.13,0.63,1.74,0.93c0,0,0.01,0.04,0.04-0.01c5.54,2.87,17.8,6.96,23.28,4.3
						c11.17-5.22,18.79-11.21,24.55-18.55c6.55-8.43,15.67-29.42,14.55-33.76C1922.41,1505.43,1922.14,1504.82,1921.71,1504.2z"/>
					<path class="st3" d="M1957.83,1584.85c-2.68,41.75-33.68,46.93-60.36,57c-1.95,0.73-3.89,1.03-5.63,0.92
						c-3.85-0.24-6.45-2.49-4.73-6.64c5.3-12.72,13.94-26.5,13.98-45.34c0.03-0.05,0.02-0.09,0.02-0.12
						C1920.93,1597.57,1938.02,1592.76,1957.83,1584.85z"/>
					<path class="st3" d="M1922.58,1505.95c0.01,0.04-0.03,0.05-0.02,0.08c-11.15,31.7-13.08,33.34-42.04,50.37
						c1.93,5.8,11.9,22.33,17.43,21.15c7-1.85,13.6-3.92,19.82-6.55c18.44-7.87,30.37-20.67,31.02-22.65l0.04-0.01
						C1950.55,1544.02,1940.83,1518.32,1922.58,1505.95z"/>
					<path class="st3" d="M1948.83,1548.34l-0.04,0.01c-21.4,20.53-21.32,16.69-50.19,26.11c-1.04,0.34-1.65,1.49-1.87,3.12
						c-0.72,4.63,1.61,12.69,5.66,13.93c23.02,7.86,49.36,4.94,55.06-2.91C1964.61,1578.99,1957.62,1557.03,1948.83,1548.34z"/>
					<path class="st0" d="M1892.19,1639.13c-22.3-2.8-61.08-10.61-83.54-0.46c-3.66,1.65-9.07,4.83-12.69,6.88
						c-9.5-5.27,0.93-30.57,39.61-26.45C1850.19,1620.66,1878.96,1634.35,1892.19,1639.13z"/>
					<path class="st0" d="M1710.31,1582.71c-20.96,14.41-29.05,24.38-62.71,24.34c48.28-8.13,41.92-28.47,59.65-24.58
						C1708.07,1582.65,1708.98,1582.61,1710.31,1582.71z"/>
					<path class="st0" d="M1683.61,1617.35c13.99-6.52,26.5-11.95,36.89-29.18c4.47-7.41,7.69-5.72,13.54-6.33
						C1722.46,1600.26,1705.88,1612.87,1683.61,1617.35z"/>
					<path class="st0" d="M1836.6,1582.95c2.95-8.86,14.66-22.08,22.71-27.93c1.31,0.85,5.79,3.71,7.21,4.63
						C1857.22,1563.9,1842.39,1575.41,1836.6,1582.95z"/>
					<path class="st0" d="M1831.76,1556.24c-3.82,8.42-9.34,23.76-8.13,32.18c-4.01-4.67-0.6-25.06,2.62-33.81
						C1827.56,1554.91,1830.28,1555.91,1831.76,1556.24z"/>
					<path class="st0" d="M1847.04,1553.62c-5.63,6.71-16.83,24.99-18.73,32.89c-1.84-5.56,1.6-13.72,4.25-19.29
						C1837.58,1554.08,1842.62,1552.94,1847.04,1553.62z"/>
					<path class="st0" d="M1928.77,1586.37c-9.81-5.81-10.95-12.87-7.17-19.4l0.04-0.01c1.36-2.36,2.96-3.83,2.96-3.83
						c-21.21-5.87-0.71-23.43-18.6-25.23c-15.41-1.09-20.65-38.69-22.15-52.58c0-0.24-0.02-0.35-0.02-0.35s-0.02,0.12-0.11,0.37
						c-0.1,0.41-0.36,1.13-0.67,2.06c-2.32,6.71-10.04,25.27-24.69,28.37c-7.5,1.59-15.02-4.29-21.26-11.69
						c-8.32-9.98-14.63-23.39-14.68-23.48c-2.32,24.49-22.42,41.47-38.41,51.23l-0.81,28.11c4.6,10.19,26.32,11.38,34.06,7.02
						c15.23,2.59,21.63-0.29,29.92-0.45c3.07-0.09,7.38,0.39,10.88,0c6.42,2.62,9.06-0.73,16.32-1.36
						c3.03,5.38,13.92,10.74,19.98,13.15c-0.1,4.26,1.58,9.53,5.02,12.34c0,17.82-8.33,30.36-14.34,44.62
						c-1.99,4.17,0.83,6.35,5.08,6.51C1907.84,1630.18,1945.08,1596.04,1928.77,1586.37z"/>
					<path class="st3" d="M1795.09,1557.24c-55.26,60.19-226.58,9.28-227.73,8.68c2.2-1.4,95.42-45.15,104.67-47.73
						c4.36,24.3,42.52,9.26,30.86-10.37c24.04-6.78,46.17-12.75,75.63-15.32c0.99-0.09,2.31,0.35,2.87,0.96
						C1804.39,1520.06,1801.38,1551.83,1795.09,1557.24z"/>
				</g>
				<path class="st5" d="M1707.8,1516.52c2.22,12.18-5.08,24.01-16.31,26.42c-11.23,2.41-22.13-5.52-24.35-17.7
					c-2.22-12.18,5.08-24.01,16.31-26.42C1694.68,1496.41,1705.58,1504.34,1707.8,1516.52z"/>
			</g>
		</g>
		<path class="st3" d="M1517.15,1566.02c22.02-21.8,55.97-46.75,83.92-35.1c16.5,6.72,26.22,26.33,26.16,26.24
			c1.46,2.59,4.58,3.41,6.97,1.83c2.42-1.61,3.22-5.13,1.54-7.81c-13.09-20.66-29.66-33.64-52.85-31.22
			c-30.21,3.21-62.71,33.71-81.71,58.93c-1.2,1.59,0.96,3.59,2.22,2.07C1503.41,1580.96,1512.28,1570.87,1517.15,1566.02z"/>
	</g>
	<g>
		<path class="st7" d="M2610.54,1027.78l0.64,0.71c1.4,1.5,1.86,3.71,1.17,5.68c0,0-0.03,0.03,0,0.06
			c-0.65,1.69-0.48,3.58,0.52,5.09l0.48,0.8c1,1.51,2.64,2.43,4.42,2.59c0.03-0.03,0.06,0,0.09-0.03c2.06,0.14,3.87,1.51,4.65,3.44
			l0.38,0.88c0.82,1.9,0.54,4.13-0.84,5.72l-0.03,0.03c-1.16,1.39-1.66,3.24-1.26,4.99l0.23,0.91c0.4,1.75,1.61,3.24,3.24,3.95
			c0.06,0,0.06,0,0.09,0.04c1.93,0.85,3.15,2.74,3.25,4.81l0.04,0.96c0.1,2.07-0.94,4.05-2.75,5.09c-0.03,0.03-0.03,0.03-0.06,0.06
			c-1.56,0.87-2.63,2.42-2.89,4.22l-0.11,0.92c-0.22,1.78,0.45,3.57,1.74,4.82c0.03,0.03,0.03,0.03,0.06,0.06
			c1.46,1.44,1.99,3.66,1.35,5.63l-0.27,0.88c-0.6,2-2.26,3.55-4.32,3.87c-0.03,0.03-0.03,0.03-0.09,0.03
			c-1.78,0.3-3.32,1.39-4.12,2.98l-0.45,0.87c-0.8,1.59-0.81,3.47,0,5.09c0,0.06,0,0.06,0.03,0.09c0.91,1.87,0.64,4.11-0.63,5.77
			l-0.57,0.74c-1.26,1.66-3.35,2.53-5.4,2.14l-0.06,0c-1.77-0.34-3.59,0.17-4.92,1.36l-0.68,0.67c-1.33,1.25-1.99,3.01-1.78,4.81
			l0,0.06c0.22,2.08-0.78,4.09-2.57,5.23l-0.77,0.51c-1.76,1.11-4.02,1.2-5.81,0.17c-0.03-0.03-0.03-0.03-0.06-0.07
			c-1.56-0.89-3.46-1.06-5.1-0.34l-0.85,0.35c-1.71,0.71-2.87,2.16-3.33,3.92l0,0.06c-0.51,2.04-2.14,3.55-4.17,4.03l-0.94,0.19
			c-2.03,0.47-4.15-0.2-5.48-1.82c-0.03-0.03-0.03-0.03-0.06-0.07c-1.16-1.36-2.87-2.16-4.67-2.08l-0.96,0.04
			c-1.79,0.08-3.45,1.04-4.43,2.56l-0.03,0.03c-1.18,1.75-3.26,2.63-5.31,2.36l-0.92-0.11c-2.08-0.24-3.86-1.63-4.58-3.62
			l-0.03-0.03c-0.58-1.7-1.93-3.07-3.66-3.57l-0.91-0.3c-1.7-0.53-3.57-0.2-5.02,0.86c-0.03,0.03-0.06,0.06-0.06,0.06
			c-1.71,1.23-3.96,1.32-5.79,0.39l-0.84-0.42c-1.86-0.97-3.08-2.86-3.06-4.98c0,0,0,0,0-0.06c0-1.76-0.79-3.5-2.24-4.6l-0.74-0.57
			c-1.45-1.1-3.32-1.42-5.04-0.93c-0.03,0.03-0.03,0.03-0.07,0.06c-2.01,0.57-4.19-0.11-5.59-1.61l-0.64-0.71
			c-0.7-0.78-1.2-1.73-1.39-2.73l7.92-7.09l73.46-65.91l11.88-10.64C2610.08,1027.32,2610.34,1027.55,2610.54,1027.78z"/>
		<path class="st8" d="M2597.92,1037.79c16.8,18.77,14.83,47.96-4.43,65.19c-19.2,17.18-48.34,15.95-65.16-2.73L2597.92,1037.79z"/>
		<path class="st4" d="M2547.59,1104.46c-1.38,2.13-4.23,2.74-6.36,1.36s-2.74-4.23-1.36-6.36c1.38-2.13,8.44-8.34,10.57-6.96
			C2552.57,1093.88,2548.97,1102.33,2547.59,1104.46z"/>
		<path class="st4" d="M2569.19,1102.53c0.8,2.41-0.5,5.01-2.91,5.82c-2.41,0.8-5.01-0.5-5.82-2.91c-0.8-2.41-1.25-11.8,1.16-12.6
			C2564.03,1092.03,2568.39,1100.12,2569.19,1102.53z"/>
		<path class="st4" d="M2587.9,1090.05c2.08,1.46,2.58,4.33,1.12,6.41c-1.46,2.08-4.33,2.58-6.41,1.12
			c-2.08-1.46-8.02-8.75-6.56-10.83C2577.51,1084.68,2585.82,1088.59,2587.9,1090.05z"/>
		<path class="st4" d="M2595.65,1069.35c2.49,0.49,4.12,2.91,3.62,5.4c-0.49,2.49-2.91,4.12-5.4,3.62s-10.88-4.74-10.39-7.23
			S2593.16,1068.86,2595.65,1069.35z"/>
		<path class="st4" d="M2593.36,1048.93c2.41-0.82,5.02,0.47,5.83,2.88c0.82,2.4-0.47,5.02-2.88,5.83
			c-2.41,0.82-11.79,1.31-12.61-1.09C2582.89,1054.13,2590.95,1049.74,2593.36,1048.93z"/>
	</g>
	<path class="st5" d="M2622.85,1474.83c6.31,27.05-23.06,57.02-65.59,66.94c-42.53,9.92-82.13-3.97-88.44-31.02
		s23.06-57.02,65.59-66.94C2576.94,1433.89,2616.54,1447.78,2622.85,1474.83z"/>
	<path class="st14" d="M2028.19,458.92c-2-1.58-5.06-3.47-5.98-5.55c-0.92-2.09,12.38,1.22,11.64-0.85
		c-0.73-2.07-7.48-4.82-9.97-4.82c-2.49,0-13.78-0.31-13.78-0.31l-31.49-8.58c0,0-64.29-17.67-68.27-18.87l-54.54-49.89
		l-26.52,20.32c0,0,59.4,55.07,63.48,57.17c3.42,1.76,109.91,14.58,109.91,14.58s11.36,11.99,17.93,12.66
		c6.57,0.68,18.13-12.81,18.13-12.81S2030.2,460.49,2028.19,458.92z"/>
	<path class="st10" d="M1854.87,353.53c-5.7-7.88-13.8-13.84-24.14-10.88c-6.41,1.83-11.52,7.17-13.62,13.43
		c-2.49,7.45-0.35,19.19,3.7,25.55c9.19,14.45,21.11,26.83,32.75,39.41c12.44-9.29,28.38-22.05,31.37-31.84
		C1884.88,389.12,1862.4,363.94,1854.87,353.53z"/>
	<path class="st14" d="M2064.69,449.17c0,0-1.36-8.14-0.23-10.65c1.13-2.51,1.68-1.15,1.98-0.15c0.3,0.99,0.82,4.54,0.82,4.54
		s-0.88-6.63-0.21-8.62c0.67-1.99,2.41-2.25,3.08-1.63c0.67,0.62,1.91,6.72,1.91,6.72s-2.45-9.48-0.9-10.8
		c1.55-1.32,6.99,7.51,5.81,11.89S2064.69,449.17,2064.69,449.17z"/>
	<g>
		<path class="st7" d="M2608.42,913.31c-16.68,18.68-48.65,15.78-74.9-1.75c-26.1-17.74-40.8-46.28-29.75-68.76
			c10.91-22.36,48.59-27.99,80.45-6.49C2616.11,857.76,2625.04,894.79,2608.42,913.31z"/>
		<path class="st8" d="M2602.33,905.86c-13.08,16.94-40.48,15.78-63.51,1.12c-22.94-14.81-36-39.44-27.2-58.85
			c8.71-19.31,39.78-24.64,67.06-7.39C2605.99,857.94,2615.36,889.04,2602.33,905.86z"/>
		<g>
			<path class="st20" d="M2531.16,890.39c-2.19,0.68-5.04-0.49-6.42-2.62c-1.38-2.13-0.75-4.44,1.45-5.16
				c2.18-0.75,11.46-1.01,12.83,1.22C2540.37,886.03,2533.33,889.69,2531.16,890.39z"/>
			<path class="st20" d="M2552.1,903.7c-0.43,2.11-2.78,3.01-5.25,2.07c-2.47-0.94-4.16-3.38-3.78-5.49c0.39-2.1,4.26-8.72,6.8-7.77
				C2552.44,893.46,2552.55,901.6,2552.1,903.7z"/>
			<path class="st20" d="M2574.33,907.8c1.06,2.37,0.05,4.56-2.21,4.9s-4.94-1.26-6.01-3.59c-1.04-2.33-2.75-11.02-0.49-11.43
				C2567.92,897.26,2573.3,905.42,2574.33,907.8z"/>
			<path class="st20" d="M2592.13,899.67c1.92,2.13,2.08,4.86,0.39,6.08c-1.69,1.22-4.57,0.49-6.47-1.6
				c-1.86-2.11-7.15-10.72-5.53-11.99C2582.2,890.84,2590.24,897.51,2592.13,899.67z"/>
			<path class="st20" d="M2598.12,880.61c2.64,1,4.62,3.7,4.42,5.97c-0.2,2.28-2.47,3.26-5.06,2.25
				c-2.57-1.06-11.72-6.72-11.62-8.94C2585.99,877.6,2595.48,879.56,2598.12,880.61z"/>
			<path class="st20" d="M2519.14,860.06c-2.69-0.32-4.62,1.23-4.33,3.43s2.67,4.24,5.32,4.58c2.65,0.31,11.9-0.52,11.68-2.73
				C2531.58,863.08,2521.83,860.34,2519.14,860.06z"/>
			<path class="st20" d="M2529.43,846.07c-2.12-1.89-5.31-2.37-7.09-1.08c-1.77,1.29-1.47,3.82,0.63,5.67
				c2.13,1.81,11.27,7.32,13.05,6.13C2537.87,855.56,2531.59,847.93,2529.43,846.07z"/>
			<path class="st20" d="M2549.89,840.13c-0.61-2.32-3.36-4.38-6.12-4.57c-2.76-0.19-4.45,1.55-3.8,3.84
				c0.68,2.28,5.55,10.66,8.22,10.91C2550.9,850.56,2550.53,842.45,2549.89,840.13z"/>
			<path class="st20" d="M2574.18,847.91c0.64-2.01-1.05-4.72-3.79-6.02c-2.74-1.29-5.46-0.67-6.05,1.35
				c-0.58,2.02-0.06,10.45,2.58,11.73C2569.58,856.25,2573.54,849.92,2574.18,847.91z"/>
			<path class="st20" d="M2593.02,863.57c1.93-0.99,1.97-3.64,0.03-5.9c-1.94-2.27-5.1-3.25-7.02-2.22
				c-1.93,1.03-6.78,6.95-4.86,9.14C2583.07,866.76,2591.08,864.54,2593.02,863.57z"/>
		</g>
	</g>
</g>
</svg>
